<?xml version="1.0" standalone="no"?>
<!DOCTYPE svg PUBLIC "-//W3C//DTD SVG 1.1//EN" "http://www.w3.org/Graphics/SVG/1.1/DTD/svg11.dtd" >
<svg xmlns="http://www.w3.org/2000/svg" xmlns:xlink="http://www.w3.org/1999/xlink" version="1.1">
<metadata>
Created by FontForge 20170731 at Wed Mar 23 08:35:12 2022
 By Aleksey,,,
Copyright (c) 2022 PyeongChang County. All rights reserved.
</metadata>
<defs>
<font id="PyeongChangPeace-Light" horiz-adv-x="930" >
  <font-face 
    font-family="PyeongChang Peace Light"
    font-weight="300"
    font-stretch="normal"
    units-per-em="1000"
    panose-1="2 11 3 3 0 0 0 0 0 0"
    ascent="800"
    descent="-200"
    x-height="523"
    cap-height="736"
    bbox="-36 -354 1126 964"
    underline-thickness="50"
    underline-position="-150"
    unicode-range="U+0009-FFE6"
  />
<missing-glyph horiz-adv-x="1000" 
d="M132 698q0 27 12 39.5t41 12.5h630q29 0 41 -12.5t12 -39.5v-794q0 -27 -12 -39.5t-41 -12.5h-630q-29 0 -41 12.5t-12 39.5v794zM840 -104v810l-327 -405zM173 -122h652l-326 405zM499 318l326 406h-652zM160 705v-808l325 404z" />
    <glyph glyph-name=".notdef" horiz-adv-x="1000" 
d="M132 698q0 27 12 39.5t41 12.5h630q29 0 41 -12.5t12 -39.5v-794q0 -27 -12 -39.5t-41 -12.5h-630q-29 0 -41 12.5t-12 39.5v794zM840 -104v810l-327 -405zM173 -122h652l-326 405zM499 318l326 406h-652zM160 705v-808l325 404z" />
    <glyph glyph-name=".null" horiz-adv-x="0" 
 />
    <glyph glyph-name="nonmarkingreturn" unicode="&#xd;" horiz-adv-x="0" 
 />
    <glyph glyph-name="NULL" horiz-adv-x="0" 
 />
    <glyph glyph-name="NULL" horiz-adv-x="0" 
 />
    <glyph glyph-name="uni0009" unicode="&#x9;" horiz-adv-x="0" 
 />
    <glyph glyph-name="space" unicode=" " horiz-adv-x="229" 
 />
    <glyph glyph-name="space" unicode="&#xa0;" horiz-adv-x="229" 
 />
    <glyph glyph-name="exclam" unicode="!" horiz-adv-x="286" 
d="M109 747h68l-15 -604h-37zM143 0q20 0 36.5 -14.5t16.5 -39.5q0 -26 -16.5 -40.5t-36.5 -14.5t-36.5 14.5t-16.5 40.5q0 25 16.5 39.5t36.5 14.5z" />
    <glyph glyph-name="quotedbl" unicode="&#x22;" horiz-adv-x="382" 
d="M90 800h74l-16 -250h-40zM218 800h74l-18 -250h-40z" />
    <glyph glyph-name="numbersign" unicode="#" horiz-adv-x="698" 
d="M536 547l-55 -453h142v-52h-149l-18 -152h-60l18 152h-211l-18 -152h-60l18 152h-103v52h110l55 453h-128v52h135l17 139h60l-17 -139h211l17 139h60l-17 -139h115v-52h-122zM210 94h211l55 453h-211z" />
    <glyph glyph-name="dollar" unicode="$" horiz-adv-x="768" 
d="M615 528q-2 29 -20 57t-49 50.5t-73 36.5t-92 14q-51 0 -93.5 -10t-73.5 -29t-49.5 -46t-21.5 -59t9.5 -61.5t41 -53.5t71.5 -41.5t100 -24.5l58 -7q144 -20 214.5 -81t70.5 -149q0 -47 -23 -87.5t-62.5 -71.5t-92.5 -50t-114 -23v-104h-58v104q-61 3 -116 20.5t-96 48
t-64.5 73t-20.5 96.5h60q-2 -49 21 -84.5t60.5 -59t86 -34.5t98.5 -11q57 0 104.5 14t82.5 38t54.5 55.5t19.5 65.5q0 33 -9.5 63t-35 54.5t-69 42.5t-112.5 29l-56 8q-151 21 -220 81t-63 149q3 41 24.5 75.5t57.5 60t85.5 41t107.5 17.5v115h58v-116q56 -5 103 -22.5
t81 -44.5t53.5 -63t21.5 -76h-60z" />
    <glyph glyph-name="percent" unicode="%" horiz-adv-x="861" 
d="M168 -122h-66l578 872h66zM20 614q0 60 35.5 97.5t106.5 37.5t107 -37.5t36 -97.5v-164q0 -60 -36 -97.5t-107 -37.5t-106.5 37.5t-35.5 97.5v164zM78 449q0 -45 23.5 -64.5t60.5 -19.5q38 0 61.5 19.5t23.5 64.5v166q0 45 -23.5 64.5t-61.5 19.5q-37 0 -60.5 -19.5
t-23.5 -64.5v-166zM556 176q0 60 35.5 97.5t106.5 37.5t107 -37.5t36 -97.5v-164q0 -60 -36 -97.5t-107 -37.5t-106.5 37.5t-35.5 97.5v164zM614 11q0 -45 23.5 -64.5t60.5 -19.5q38 0 61.5 19.5t23.5 64.5v166q0 45 -23.5 64.5t-61.5 19.5q-37 0 -60.5 -19.5t-23.5 -64.5
v-166z" />
    <glyph glyph-name="ampersand" unicode="&#x26;" horiz-adv-x="843" 
d="M760 293q-2 -82 -30 -154t-78 -128q36 -32 76.5 -57.5t94.5 -29.5v-48q-37 0 -67 8.5t-55.5 22t-47 31t-40.5 35.5q-54 -46 -123 -72t-152 -26q-70 0 -125 20.5t-93.5 54t-59 77t-20.5 89.5q0 66 38 116t108 96l81 54l-38 47q-29 36 -53 75t-24 80q0 35 15.5 64t42 50
t61.5 32.5t74 11.5q37 0 71 -9.5t60.5 -28t42.5 -45.5t16 -61q0 -52 -29 -92t-88 -79l-82 -55q59 -71 102.5 -123.5t76.5 -91t57 -65.5t45 -48q43 48 68 111t29 138h46zM204 585q0 -16 6 -32.5t15.5 -32.5t21 -31.5t22.5 -29.5l39 -51l88 59q42 27 64.5 58t22.5 67
q0 49 -37.5 77.5t-100.5 28.5q-28 0 -53.5 -8t-45 -22.5t-31 -35.5t-11.5 -47zM338 -76q71 0 131.5 21.5t108.5 60.5q-21 21 -45 49t-56.5 67.5t-76.5 94t-104 129.5l-86 -58q-63 -42 -87.5 -84.5t-24.5 -84.5q0 -44 19.5 -80t52.5 -61.5t76.5 -39.5t91.5 -14z" />
    <glyph glyph-name="quotesingle" unicode="'" horiz-adv-x="258" 
d="M90 800h78l-18 -250h-42z" />
    <glyph glyph-name="parenleft" unicode="(" horiz-adv-x="325" 
d="M95 285q0 161 43.5 302.5t126.5 263.5h40q-36 -58 -63.5 -127t-47 -143t-29.5 -149.5t-10 -146.5t10.5 -146.5t30 -149.5t47.5 -143t62 -127h-40q-83 122 -126.5 263.5t-43.5 302.5z" />
    <glyph glyph-name="parenright" unicode=")" horiz-adv-x="325" 
d="M170 285q0 71 -10 146.5t-29.5 149.5t-47 143t-63.5 127h40q83 -122 126.5 -263.5t43.5 -302.5t-43.5 -302.5t-126.5 -263.5h-40q34 58 62 127t47.5 143t30 149.5t10.5 146.5z" />
    <glyph glyph-name="asterisk" unicode="*" horiz-adv-x="418" 
d="M235 618l113 -130l-50 -37l-89 147l-88 -147l-51 36l113 130l-168 39l19 59l158 -67l-15 172h63l-15 -171l158 67l20 -59z" />
    <glyph glyph-name="plus" unicode="+" horiz-adv-x="666" 
d="M364 606v-256h242v-53h-242v-257h-61v257h-243v53h243v256h61z" />
    <glyph glyph-name="comma" unicode="," horiz-adv-x="262" 
d="M138 10q20 0 36 -12t21 -36q6 -26 -1.5 -54.5t-23.5 -54.5t-39 -46.5t-49 -31.5l-22 30q30 14 52 39.5t26 57.5q-23 2 -38 16t-15 38q0 25 16.5 39.5t36.5 14.5z" />
    <glyph glyph-name="hyphen" unicode="-" horiz-adv-x="366" 
d="M60 350h246v-53h-246v53z" />
    <glyph glyph-name="period" unicode="." horiz-adv-x="236" 
d="M118 0q20 0 36.5 -14.5t16.5 -39.5q0 -26 -16.5 -40.5t-36.5 -14.5t-36.5 14.5t-16.5 40.5q0 25 16.5 39.5t36.5 14.5z" />
    <glyph glyph-name="slash" unicode="/" horiz-adv-x="393" 
d="M326 832h52l-312 -1071h-51z" />
    <glyph glyph-name="zero" unicode="0" horiz-adv-x="690" 
d="M60 459q0 60 21 112.5t58.5 92t90 62.5t115.5 23t115.5 -23t90 -62.5t58.5 -92t21 -112.5v-291q0 -60 -21 -112.5t-58.5 -92t-90 -62.5t-115.5 -23t-115.5 23t-90 62.5t-58.5 92t-21 112.5v291zM118 186q0 -59 16 -106.5t45.5 -80.5t71.5 -51t94 -18t94.5 18t71.5 51
t45 80.5t16 106.5v255q0 59 -16 106.5t-45 80.5t-71.5 51t-94.5 18t-94 -18t-71.5 -51t-45.5 -80.5t-16 -106.5v-255zM345 419q3 -59 25.5 -81t72.5 -24q-50 -2 -72.5 -24t-25.5 -81q-3 59 -26 81t-72 24q49 2 72 24t26 81z" />
    <glyph glyph-name="one" unicode="1" horiz-adv-x="494" 
d="M276 -109v790l-216 -131v54l218 133h56v-846h-58z" />
    <glyph glyph-name="two" unicode="2" horiz-adv-x="654" 
d="M45 -67l350 336q63 60 93.5 115t30.5 117q0 94 -48.5 145t-154.5 51q-54 0 -93.5 -16t-66 -45t-40 -70t-14.5 -92h-62q0 56 18.5 106t53.5 87.5t87 59.5t119 22q126 0 192.5 -65.5t66.5 -187.5q0 -66 -35 -129.5t-113 -136.5l-306 -287h202q75 0 147.5 2.5t136.5 10.5
v-52q-64 -8 -139 -10.5t-150 -2.5h-275v42z" />
    <glyph glyph-name="three" unicode="3" horiz-adv-x="663" 
d="M322 749q50 0 94.5 -14.5t77.5 -40.5t52 -64t19 -86q0 -35 -13 -66.5t-35 -57t-50 -44t-59 -25.5q30 -3 67.5 -17.5t70.5 -42t55 -68.5t22 -97t-24.5 -101.5t-65.5 -78t-96.5 -50.5t-116.5 -18q-63 0 -117.5 19t-94 52t-60.5 77.5t-17 94.5h60q0 -46 18.5 -81.5t50 -60
t72.5 -37t86 -12.5q53 0 98 14t77.5 39.5t51 61.5t18.5 81q0 51 -25 88.5t-66.5 61t-95.5 33.5t-113 6v58q59 -2 104 11t75.5 36.5t46 55.5t16.5 68q1 34 -12.5 62.5t-38 48.5t-58.5 31t-74 11q-41 0 -74.5 -12t-57.5 -32.5t-38 -47.5t-16 -57h-60q0 41 19.5 77.5t53 64
t78 43.5t95.5 16z" />
    <glyph glyph-name="four" unicode="4" horiz-adv-x="717" 
d="M687 46h-123v-155h-57v155h-472v44l472 639h57v-634h123v-49zM507 95v548l-399 -548h399z" />
    <glyph glyph-name="five" unicode="5" horiz-adv-x="679" 
d="M100 138q0 -44 18 -82.5t50 -67t75.5 -45.5t95.5 -17t96 18.5t76 51.5t50 78.5t18 99.5q0 50 -19 92t-51.5 72t-74 47t-86.5 17q-32 0 -58.5 -5.5t-51 -17t-48 -29t-49.5 -40.5l-45 23v396h482v-52h-422v-298q42 35 86 54.5t106 19.5q58 0 111 -20t93 -57t63.5 -88
t23.5 -114q0 -71 -23.5 -126.5t-64 -94t-95.5 -59t-117 -20.5t-116 18t-94 52t-63.5 83t-25.5 111h60z" />
    <glyph glyph-name="six" unicode="6" horiz-adv-x="721" 
d="M366 -125q-65 0 -121 20t-97 56t-64.5 85t-23.5 108v358q0 58 23 104t63 78t94 49t117 17q66 0 119 -17.5t90 -48.5t57 -74t20 -94v-5h-60v5q0 48 -18.5 82t-49.5 56.5t-72 33t-86 10.5q-46 0 -89 -12.5t-76 -36.5t-52.5 -59.5t-19.5 -82.5v-176q16 29 44 51.5t62.5 37.5
t71 23t68.5 8q61 0 116.5 -18.5t97.5 -53t66.5 -84t24.5 -112.5v-35q0 -61 -23.5 -111t-64.5 -86t-96.5 -56t-120.5 -20zM120 143q0 -58 23 -99t59 -67t79.5 -38t84.5 -12t84.5 12t79 38t58.5 67t23 99v40q0 58 -23 99t-58.5 67t-79 38t-84.5 12t-84.5 -12t-79.5 -38
t-59 -67t-23 -99v-40zM366 58q-3 59 -26 81t-72 24q49 2 72 24t26 81q3 -59 25.5 -81t72.5 -24q-50 -2 -72.5 -24t-25.5 -81z" />
    <glyph glyph-name="seven" unicode="7" horiz-adv-x="590" 
d="M223 -109q4 143 27.5 256.5t60.5 207.5t85.5 174t102.5 156h-479v52h550v-45q-65 -85 -116 -168t-87 -177t-56.5 -204.5t-24.5 -251.5h-63v0z" />
    <glyph glyph-name="eight" unicode="8" horiz-adv-x="706" 
d="M50 115q0 78 51 136.5t145 99.5q-73 33 -113.5 80t-40.5 110q0 49 22.5 87.5t60 65.5t85.5 41.5t99 14.5q58 0 108 -14.5t87 -41.5t58 -65.5t21 -87.5q0 -71 -47 -122.5t-125 -85.5q43 -18 79 -40t61.5 -49t40 -59t14.5 -70q0 -47 -21.5 -90t-61 -75.5t-94.5 -52
t-121 -19.5q-76 0 -133.5 19.5t-96.5 52t-58.5 75.5t-19.5 90zM385 359l8 -3q36 12 68.5 28t57 38.5t39.5 52t15 66.5q0 35 -17 64t-46.5 49.5t-68.5 32t-83 11.5q-42 0 -79 -11.5t-65.5 -32t-45 -49.5t-16.5 -64q0 -59 42 -99.5t138 -67.5zM332 321l-21 6
q-41 -13 -77.5 -32t-64 -45t-43.5 -59.5t-16 -75.5q0 -36 15 -69t45.5 -59t77 -41.5t110.5 -15.5q55 0 99.5 15.5t75 41.5t47 59t16.5 69q0 43 -21.5 75t-54 55t-69 37.5t-66.5 23.5z" />
    <glyph glyph-name="nine" unicode="9" horiz-adv-x="721" 
d="M355 750q65 0 121 -20t97 -56t64.5 -85.5t23.5 -107.5v-358q0 -58 -23 -104t-63 -78t-94 -49t-117 -17q-66 0 -119 17.5t-90 48.5t-57 74t-20 94v5h60v-5q0 -48 18.5 -82t49.5 -56.5t72 -33t86 -10.5q46 0 89 12.5t76 36.5t52.5 59.5t19.5 82.5v176q-16 -29 -44 -51.5
t-62.5 -37.5t-71 -23t-68.5 -8q-61 0 -116.5 18.5t-97.5 53t-66.5 84t-24.5 112.5v35q0 61 23.5 111t64.5 86t96.5 56t120.5 20zM601 482q0 58 -23 99t-59 67t-79.5 38t-84.5 12t-84.5 -12t-79 -38t-58.5 -67t-23 -99v-40q0 -58 23 -99t58.5 -67t79 -38t84.5 -12t84.5 12
t79.5 38t59 67t23 99v40zM355 567q3 -59 25.5 -81t72.5 -24q-50 -2 -72.5 -24t-25.5 -81q-3 59 -26 81t-72 24q49 2 72 24t26 81z" />
    <glyph glyph-name="colon" unicode=":" horiz-adv-x="322" 
d="M161 466q-20 0 -35.5 14.5t-15.5 39.5q0 26 15.5 40.5t35.5 14.5t35.5 -14.5t15.5 -40.5q0 -25 -15.5 -39.5t-35.5 -14.5zM161 48q-20 0 -35.5 14.5t-15.5 39.5q0 26 15.5 40.5t35.5 14.5t35.5 -14.5t15.5 -40.5q0 -25 -15.5 -39.5t-35.5 -14.5z" />
    <glyph glyph-name="semicolon" unicode=";" horiz-adv-x="358" 
d="M190 466q-20 0 -35.5 14.5t-15.5 39.5q0 26 15.5 40.5t35.5 14.5t35.5 -14.5t15.5 -40.5q0 -25 -15.5 -39.5t-35.5 -14.5zM188 157q20 0 36 -12t21 -36q6 -26 -1.5 -54.5t-23.5 -54.5t-39 -46.5t-49 -31.5l-22 30q30 14 52 39.5t26 57.5q-23 2 -38 16t-15 38
q0 25 16.5 39.5t36.5 14.5z" />
    <glyph glyph-name="less" unicode="&#x3c;" horiz-adv-x="415" 
d="M130 303l265 -397v-66l-335 452v28l335 452v-66l-265 -397v-6z" />
    <glyph glyph-name="equal" unicode="=" horiz-adv-x="560" 
d="M50 466h460v-52h-460v52zM50 228h460v-52h-460v52z" />
    <glyph glyph-name="greater" unicode="&#x3e;" horiz-adv-x="415" 
d="M285 309l-265 397v66l335 -452v-28l-335 -452v66l265 397v6z" />
    <glyph glyph-name="question" unicode="?" horiz-adv-x="567" 
d="M23 549q0 55 19.5 98t53 71.5t77.5 43.5t92 15t92 -14t77 -41t53 -67t20 -92q0 -44 -17 -79t-42 -65t-54.5 -57.5t-54.5 -57t-42 -63.5t-17 -76v-42h-59v42q0 45 16.5 82t42 69t54.5 61t54.5 57.5t42 59t16.5 65.5q0 41 -15 72t-40.5 52t-58 31.5t-68.5 10.5
q-35 0 -68 -11.5t-58.5 -33.5t-40.5 -55t-15 -76h-60zM259 0q20 0 36.5 -14.5t16.5 -39.5q0 -26 -16.5 -40.5t-36.5 -14.5t-36.5 14.5t-16.5 40.5q0 25 16.5 39.5t36.5 14.5z" />
    <glyph glyph-name="at" unicode="@" horiz-adv-x="1176" 
d="M571 516q65 0 112 -22t76 -60v81h60v-374q0 -44 12 -68.5t46 -24.5q30 0 63.5 21t61.5 60.5t46 97t18 130.5q0 94 -31 168.5t-87 127t-133.5 80.5t-170.5 28q-95 0 -190.5 -36.5t-172 -106t-124 -170.5t-47.5 -229q0 -106 36.5 -190t99 -142t146.5 -89t179 -31
q34 0 71.5 5t73.5 13.5t68.5 21t56.5 27.5l1 -48q-60 -36 -132.5 -53.5t-144.5 -17.5q-104 0 -197.5 34t-164 98t-112 157t-41.5 210q0 92 23.5 172.5t64.5 147t97.5 118.5t123.5 88t141 54.5t150 18.5q103 0 190 -32t150.5 -91.5t99.5 -142.5t36 -185q0 -90 -25 -158.5
t-62.5 -114.5t-82.5 -69.5t-84 -23.5q-43 0 -68 19.5t-36 56.5q-29 -43 -78 -68.5t-119 -25.5q-59 0 -105 18.5t-77.5 50.5t-47.5 74.5t-16 89.5v72q0 47 16 89.5t47.5 74.5t77.5 50.5t105 18.5zM383 221q0 -37 11 -71.5t34 -61t58.5 -42.5t84.5 -16q48 0 82.5 15t58 40.5
t35 58.5t12.5 69v60q0 37 -11 71.5t-34 61t-58.5 42.5t-84.5 16t-84.5 -16t-58.5 -42.5t-34 -61t-11 -71.5v-52zM571 146q-3 59 -26 81t-72 24q49 2 72 24t26 81q3 -59 25.5 -81t72.5 -24q-50 -2 -72.5 -24t-25.5 -81z" />
    <glyph glyph-name="A" unicode="A" horiz-adv-x="766" 
d="M603 119h-441l-92 -229h-60l344 847h59l343 -847h-60zM183 171h399l-199 494z" />
    <glyph glyph-name="B" unicode="B" horiz-adv-x="692" 
d="M335 737q64 0 117 -12t90.5 -37t58.5 -64.5t21 -93.5q0 -69 -31 -116t-88 -73q69 -26 109 -79t40 -129q0 -55 -19.5 -99.5t-56 -76t-90 -49t-121.5 -17.5h-305v846h275zM118 685v-321h229q49 0 89 9t68.5 29t44 51.5t15.5 76.5q0 43 -16 73t-44.5 48t-68.5 26t-88 8h-229
zM118 312v-369h259q49 0 89 13t68.5 37.5t44 59.5t15.5 80q0 43 -16 76.5t-44.5 56.5t-68.5 34.5t-88 11.5h-259z" />
    <glyph glyph-name="C" unicode="C" horiz-adv-x="725" 
d="M685 188v-60q0 -52 -22.5 -97.5t-64 -79.5t-100.5 -53.5t-133 -19.5t-133 23t-100.5 62.5t-64 92t-22.5 112.5v291q0 60 22.5 112.5t64 92t100.5 62.5t133 23t133 -19.5t100.5 -52.5t64 -76.5t22.5 -91.5v-60h-58v42q0 97 -67 151.5t-195 54.5t-195 -68.5t-67 -187.5
v-255q0 -119 67 -187.5t195 -68.5t195 56t67 160v42h58z" />
    <glyph glyph-name="D" unicode="D" horiz-adv-x="732" 
d="M60 737h272q97 0 166.5 -30.5t113.5 -86t64.5 -133t20.5 -170.5t-20.5 -171.5t-64.5 -135t-113 -88t-166 -31.5h-273v846zM333 -56q83 0 140.5 27.5t93 77t51.5 118t16 150.5t-16 150t-51.5 116.5t-93 75t-140.5 26.5h-213v-741h213zM370 209q-3 59 -26 81t-72 24
q49 2 72 24t26 81q3 -59 25.5 -81t72.5 -24q-50 -2 -72.5 -24t-25.5 -81z" />
    <glyph glyph-name="E" unicode="E" horiz-adv-x="629" 
d="M60 737h529v-52h-471v-328h451v-52h-451v-363h187q75 0 147.5 2.5t136.5 10.5v-52q-64 -8 -139 -10.5t-150 -2.5h-240v847z" />
    <glyph glyph-name="F" unicode="F" horiz-adv-x="609" 
d="M60 -110v847h529v-52h-471v-358h441v-52h-441v-385h-58z" />
    <glyph glyph-name="G" unicode="G" horiz-adv-x="745" 
d="M705 128q0 -52 -24 -97.5t-67.5 -79.5t-104 -53.5t-134.5 -19.5t-134.5 23t-104 62.5t-67.5 92t-24 112.5v291q0 60 24 112.5t67.5 92t104 62.5t134.5 23t133 -19.5t100.5 -52.5t64 -76.5t22.5 -91.5v-50h-58v32q0 97 -67 151.5t-195 54.5q-63 0 -113.5 -18t-86 -51
t-54 -80.5t-18.5 -106.5v-255q0 -59 18.5 -106.5t54 -80.5t86 -51t113.5 -18q127 0 199.5 56t72.5 160v135h-272v50h330v-203z" />
    <glyph glyph-name="H" unicode="H" horiz-adv-x="734" 
d="M616 -110v402h-498v-402h-58v847h58v-393h498v393h58v-847h-58z" />
    <glyph glyph-name="I" unicode="I" horiz-adv-x="178" 
d="M60 -110v847h58v-847h-58z" />
    <glyph glyph-name="J" unicode="J" horiz-adv-x="472" 
d="M78 58q0 -62 38.5 -95t99.5 -33t99.5 33t38.5 95v679h58v-679q0 -38 -14 -70.5t-39.5 -57t-61.5 -38.5t-81 -14t-81.5 14t-62 38.5t-39 57t-13.5 70.5h58z" />
    <glyph glyph-name="K" unicode="K" horiz-adv-x="700" 
d="M120 247l467 490h74l-341 -355l360 -491h-70l-330 450l-160 -167v-283h-60v846h60v-490z" />
    <glyph glyph-name="L" unicode="L" horiz-adv-x="535" 
d="M60 737h60v-794h141q37 0 69.5 0.5t63 2t60 4t61.5 6.5v-52q-32 -4 -62.5 -6.5t-61.5 -4t-64.5 -2t-70.5 -0.5h-196v846z" />
    <glyph glyph-name="M" unicode="M" horiz-adv-x="888" 
d="M828 737v-846h-58v650q0 65 6 136q-10 -28 -18.5 -56t-19.5 -55l-258 -675h-72l-258 675q-11 27 -19.5 55t-18.5 56q6 -71 6 -136v-650h-58v846h81l303 -786l303 786h81z" />
    <glyph glyph-name="N" unicode="N" horiz-adv-x="741" 
d="M572 47q17 -26 30 -48t27 -48q-3 35 -4.5 69.5t-1.5 66.5v650h58v-846h-68l-444 690q-17 26 -29.5 48t-27.5 48q6 -71 6 -136v-650h-58v846h71l441 -690v0z" />
    <glyph glyph-name="O" unicode="O" horiz-adv-x="760" 
d="M45 459q0 60 24.5 112.5t69 92t106 62.5t135.5 23t135.5 -23t106 -62.5t69 -92t24.5 -112.5v-291q0 -60 -24.5 -112.5t-69 -92t-106 -62.5t-135.5 -23t-135.5 23t-106 62.5t-69 92t-24.5 112.5v291zM103 186q0 -59 19.5 -106.5t55.5 -80.5t87.5 -51t114.5 -18t114.5 18
t87.5 51t55.5 80.5t19.5 106.5v255q0 59 -19.5 106.5t-55.5 80.5t-87.5 51t-114.5 18t-114.5 -18t-87.5 -51t-55.5 -80.5t-19.5 -106.5v-255zM380 209q-3 59 -26 81t-72 24q49 2 72 24t26 81q3 -59 25.5 -81t72.5 -24q-50 -2 -72.5 -24t-25.5 -81z" />
    <glyph glyph-name="P" unicode="P" horiz-adv-x="672" 
d="M60 -109v846h295q68 0 121.5 -19t90 -54.5t56 -86t19.5 -112.5t-21 -110.5t-58.5 -82t-90.5 -51t-117 -17.5h-237v-313h-58zM367 256q48 0 88 13.5t68.5 40t44.5 65.5t16 90q0 52 -15.5 93t-44 69t-68.5 43t-89 15h-249v-429h249z" />
    <glyph glyph-name="Q" unicode="Q" horiz-adv-x="760" 
d="M45 459q0 60 24.5 112.5t69 92t106 62.5t135.5 23t135.5 -23t106 -62.5t69 -92t24.5 -112.5v-291q0 -57 -22 -107t-62.5 -89t-96.5 -63.5t-124 -29.5q3 -27 19.5 -46t44.5 -31t66.5 -17.5t83.5 -5.5h60v-52h-60q-124 0 -196.5 40.5t-77.5 111.5q-68 5 -124 29.5
t-96.5 63.5t-62.5 89t-22 107v291zM103 186q0 -59 19.5 -106.5t55.5 -80.5t87.5 -51t114.5 -18t114.5 18t87.5 51t55.5 80.5t19.5 106.5v255q0 59 -19.5 106.5t-55.5 80.5t-87.5 51t-114.5 18t-114.5 -18t-87.5 -51t-55.5 -80.5t-19.5 -106.5v-255zM380 209q-3 59 -26 81
t-72 24q49 2 72 24t26 81q3 -59 25.5 -81t72.5 -24q-50 -2 -72.5 -24t-25.5 -81z" />
    <glyph glyph-name="R" unicode="R" horiz-adv-x="660" 
d="M60 -109v846h295q68 0 121.5 -18.5t90 -53t56 -84t19.5 -111.5q0 -100 -52 -162t-141 -83l201 -334h-66l-188 325q-10 -2 -20 -2h-21h-237v-323h-58zM367 266q48 0 88 12.5t68.5 38t44.5 64t16 89.5q0 52 -15.5 92t-44 67.5t-68.5 41.5t-89 14h-249v-419h249z" />
    <glyph glyph-name="S" unicode="S" horiz-adv-x="713" 
d="M585 534q-2 30 -20 59t-49 52t-73 37.5t-92 14.5q-51 0 -93.5 -10.5t-73.5 -30t-49.5 -47t-21.5 -60.5t9.5 -63.5t41 -55.5t71.5 -42.5t100 -24.5l58 -8q144 -20 214.5 -83t70.5 -154q0 -51 -25.5 -95t-69.5 -76t-102 -50.5t-124 -18.5t-126 16.5t-105.5 48t-71.5 77.5
t-23 105h60q-2 -50 21 -87t60.5 -61t86 -35.5t98.5 -11.5q57 0 104.5 14.5t82.5 39t54.5 57t19.5 67.5q0 34 -9.5 65t-35 56t-69 44t-112.5 30l-56 8q-151 22 -220 83.5t-63 153.5q3 45 26.5 82t63 63.5t92.5 41t116 14.5t116.5 -17t92 -46t61 -68t24.5 -84h-60z" />
    <glyph glyph-name="T" unicode="T" horiz-adv-x="700" 
d="M319 686h-299v51h660v-51h-300v-795h-61v795z" />
    <glyph glyph-name="U" unicode="U" horiz-adv-x="690" 
d="M640 737v-569q0 -60 -22.5 -112.5t-62.5 -92t-93.5 -62.5t-116.5 -23t-116.5 23t-93.5 62.5t-62.5 92t-22.5 112.5v569h58v-551q0 -59 17.5 -106.5t49 -80.5t75 -51t95.5 -18t95.5 18t75 51t49 80.5t17.5 106.5v551h58z" />
    <glyph glyph-name="V" unicode="V" horiz-adv-x="725" 
d="M10 729h60l292 -767l293 767h60l-319 -838h-67z" />
    <glyph glyph-name="W" unicode="W" horiz-adv-x="1022" 
d="M793 -109h-79l-198 738l-198 -738h-79l-219 846h62l198 -776l207 776h58l207 -776l188 776h62z" />
    <glyph glyph-name="X" unicode="X" horiz-adv-x="718" 
d="M90 737l268 -390l270 390h66l-291 -425l295 -421h-66l-273 386l-273 -386h-66l294 422l-290 424h66z" />
    <glyph glyph-name="Y" unicode="Y" horiz-adv-x="700" 
d="M321 -110v350l-311 497h62l278 -443l278 443h62l-311 -497v-350h-58z" />
    <glyph glyph-name="Z" unicode="Z" horiz-adv-x="669" 
d="M110 -57h240q75 0 147.5 2.5t136.5 10.5v-52q-64 -8 -139 -10.5t-150 -2.5h-310v41l518 753h-475v52h550v-41z" />
    <glyph glyph-name="bracketleft" unicode="[" horiz-adv-x="320" 
d="M110 832h195v-46h-135v-980h135v-46h-195v1072z" />
    <glyph glyph-name="backslash" unicode="\" horiz-adv-x="393" 
d="M378 -239h-51l-312 1071h52z" />
    <glyph glyph-name="bracketright" unicode="]" horiz-adv-x="320" 
d="M210 -240h-195v46h135v980h-135v46h195v-1072z" />
    <glyph glyph-name="asciicircum" unicode="^" horiz-adv-x="476" 
d="M461 593h-55l-168 206l-168 -206h-55l211 268h24z" />
    <glyph glyph-name="underscore" unicode="_" horiz-adv-x="649" 
d="M15 -171h619v-53h-619v53z" />
    <glyph glyph-name="grave" unicode="`" horiz-adv-x="537" 
d="M115 769l47 46l172 -201l-27 -28z" />
    <glyph glyph-name="a" unicode="a" horiz-adv-x="637" 
d="M524 283v24q0 93 -50 133.5t-158 40.5q-50 0 -87.5 -12.5t-62 -33.5t-36.5 -48t-12 -57v-16h-58v26q0 36 16 70.5t48.5 62t80.5 44t111 16.5q135 0 200.5 -55t65.5 -161v-427h-58v94q-8 -17 -29 -35.5t-51.5 -34.5t-70 -26t-82.5 -10q-56 0 -102 10.5t-79 32.5t-51.5 54
t-18.5 76q0 90 72 138.5t209 66.5zM321 204q-52 -7 -93 -17.5t-70 -28.5t-44.5 -44t-15.5 -63q0 -60 50 -90.5t143 -30.5q41 0 82.5 11t75 32.5t54.5 53t21 71.5v133z" />
    <glyph glyph-name="b" unicode="b" horiz-adv-x="622" 
d="M108 737v-214h207q69 0 121 -23.5t86.5 -65t52 -98.5t17.5 -123q0 -67 -16 -125.5t-49.5 -102t-86 -69t-125.5 -25.5h-265v846h58zM108 471v-528h222q51 0 89 21.5t63.5 58.5t38.5 86t13 104q0 53 -13.5 100t-39 82t-64 55.5t-87.5 20.5h-222zM306 98q-3 59 -26 81
t-72 24q49 2 72 24t26 81q3 -59 25.5 -81t72.5 -24q-50 -2 -72.5 -24t-25.5 -81z" />
    <glyph glyph-name="c" unicode="c" horiz-adv-x="636" 
d="M328 536q62 0 111.5 -17t84.5 -45t53.5 -64.5t18.5 -76.5v-28h-58v18q0 33 -14.5 62.5t-41.5 51.5t-66 34.5t-88 12.5q-55 0 -97.5 -16.5t-72 -45.5t-45 -70t-15.5 -89v-112q0 -48 15.5 -89t45 -70t72 -45.5t97.5 -16.5q49 0 88 13t66 35t41.5 51t14.5 62v18h58v-28
q0 -39 -18.5 -75.5t-53.5 -65t-84.5 -45.5t-111.5 -17q-68 0 -121.5 20.5t-90.5 56t-56.5 83.5t-19.5 103v132q0 55 19.5 103t56.5 83.5t90.5 56t121.5 20.5z" />
    <glyph glyph-name="d" unicode="d" horiz-adv-x="612" 
d="M572 737v-846h-265q-73 0 -125.5 25.5t-86 69t-49.5 102t-16 125.5q0 66 17.5 123t52 98.5t86.5 65t121 23.5h207v214h58zM292 471q-50 0 -88 -20.5t-63.5 -55.5t-39 -82t-13.5 -100q0 -55 12.5 -104t38 -86t64 -58.5t89.5 -21.5h222v528h-222zM316 308q3 -59 25.5 -81
t72.5 -24q-50 -2 -72.5 -24t-25.5 -81q-3 59 -26 81t-72 24q49 2 72 24t26 81z" />
    <glyph glyph-name="e" unicode="e" horiz-adv-x="642" 
d="M321 -70q50 0 89.5 12.5t67 33.5t42 48t14.5 57v11h58v-21q0 -36 -18.5 -70.5t-53.5 -62t-85.5 -44t-113.5 -16.5q-67 0 -119.5 20.5t-88.5 56t-54.5 83.5t-18.5 103v132q0 55 18.5 103t54.5 83.5t88.5 56t119.5 20.5t119.5 -20.5t88.5 -56t54.5 -83.5t18.5 -103v-86
h-504v-36q0 -48 14.5 -89t43 -70t70 -45.5t95.5 -16.5zM544 263q0 48 -14.5 89t-43 70t-70 45.5t-95.5 16.5t-95.5 -16.5t-70 -45.5t-43 -70t-14.5 -89v-27h446v27z" />
    <glyph glyph-name="f" unicode="f" horiz-adv-x="355" 
d="M330 804v-52h-56q-53 0 -71 -30t-18 -80v-119h150v-52h-150v-580h-60v580h-105v52h103v115q0 75 37.5 120.5t109.5 45.5h60z" />
    <glyph glyph-name="g" unicode="g" horiz-adv-x="632" 
d="M115 -129v-18q0 -26 13 -53t38.5 -49.5t63.5 -36.5t88 -14q54 0 94.5 18.5t67.5 50t40.5 74t13.5 90.5v54q-33 -30 -89.5 -54.5t-128.5 -24.5q-65 0 -116 19t-86.5 52.5t-54.5 80t-19 101.5v119q0 55 19 101t54.5 80t86.5 53t116 19t116 -19t86.5 -53t54.5 -80t19 -101
v-357q0 -55 -17.5 -104.5t-52 -87.5t-86 -60.5t-118.5 -22.5q-63 0 -112 18.5t-82 48t-50 66t-17 72.5v18h58zM534 270q0 97 -57 154t-161 57t-161 -57t-57 -154v-99q0 -97 57 -154t161 -57q75 0 126.5 21.5t91.5 72.5v216zM321 121q-3 59 -26 81t-72 24q49 2 72 24t26 81
q3 -59 25.5 -81t72.5 -24q-50 -2 -72.5 -24t-25.5 -81z" />
    <glyph glyph-name="h" unicode="h" horiz-adv-x="601" 
d="M370 523q40 0 74 -11t59 -35t39 -61t14 -89v-436h-58v446q0 67 -36 101.5t-92 34.5q-73 0 -139 -23t-123 -54v-505h-58v846h58v-285q28 13 59.5 25.5t65 22.5t68 16.5t69.5 6.5z" />
    <glyph glyph-name="i" unicode="i" horiz-adv-x="186" 
d="M93 780q20 0 36.5 -14.5t16.5 -39.5q0 -26 -16.5 -40.5t-36.5 -14.5t-36.5 14.5t-16.5 40.5q0 25 16.5 39.5t36.5 14.5zM64 -109v632h58v-632h-58z" />
    <glyph glyph-name="j" unicode="j" horiz-adv-x="233" 
d="M140 780q20 0 36.5 -14.5t16.5 -39.5q0 -26 -16.5 -40.5t-36.5 -14.5t-36.5 14.5t-16.5 40.5q0 25 16.5 39.5t36.5 14.5zM10 -245q53 0 77 32t24 83v653h58v-655q0 -40 -12.5 -70t-34 -50.5t-50.5 -31t-62 -10.5v49z" />
    <glyph glyph-name="k" unicode="k" horiz-adv-x="589" 
d="M50 -109v846h58v-568l359 354h74l-255 -252l293 -380h-72l-263 338l-136 -134v-204h-58z" />
    <glyph glyph-name="l" unicode="l" horiz-adv-x="186" 
d="M60 737h58v-771q0 -19 9 -27.5t20 -8.5h29v-52h-40q-36 0 -56 22.5t-20 69.5v767z" />
    <glyph glyph-name="m" unicode="m" horiz-adv-x="912" 
d="M108 -109h-58v632h58v-71q50 26 109.5 48.5t122.5 22.5q51 0 87.5 -19t53.5 -61q48 36 104 58t115 22q36 0 66.5 -11t52.5 -34t34.5 -58t12.5 -83v-446h-58v446q0 67 -30 101.5t-78 34.5q-57 0 -109.5 -21t-97.5 -56q1 -9 2 -18.5t1 -20.5v-466h-58v466q0 116 -98 116
q-66 0 -124 -23t-108 -54v-505z" />
    <glyph glyph-name="n" unicode="n" horiz-adv-x="602" 
d="M370 524q40 0 74 -11t59 -34.5t39 -60.5t14 -89v-438h-58v448q0 67 -36 101t-92 34q-73 0 -139 -23t-123 -54v-506h-58v631h58v-69q28 13 59.5 25.5t65 22.5t68 16.5t69.5 6.5z" />
    <glyph glyph-name="o" unicode="o" horiz-adv-x="652" 
d="M326 536q69 0 122 -20.5t89.5 -56t55.5 -83.5t19 -103v-132q0 -55 -19 -103t-55.5 -83.5t-89.5 -56t-122 -20.5t-122 20.5t-89.5 56t-55.5 83.5t-19 103v132q0 55 19 103t55.5 83.5t89.5 56t122 20.5zM98 151q0 -48 15 -89t43.5 -70t71 -45.5t98.5 -16.5q55 0 98 16.5
t71.5 45.5t43.5 70t15 89v112q0 48 -15 89t-43.5 70t-71.5 45.5t-98 16.5q-56 0 -98.5 -16.5t-71 -45.5t-43.5 -70t-15 -89v-112zM326 106q-3 59 -26 81t-72 24q49 2 72 24t26 81q3 -59 25.5 -81t72.5 -24q-50 -2 -72.5 -24t-25.5 -81z" />
    <glyph glyph-name="p" unicode="p" horiz-adv-x="622" 
d="M50 -353v876h265q73 0 125.5 -25.5t86 -69t49.5 -102t16 -125.5q0 -66 -17.5 -123t-52 -99t-86.5 -65.5t-121 -23.5h-207v-243h-58zM330 -58q49 0 87.5 20.5t64 55.5t39 82.5t13.5 100.5q0 55 -13 104t-38.5 86t-63.5 58.5t-89 21.5h-222v-529h222zM306 106q-3 59 -26 81
t-72 24q49 2 72 24t26 81q3 -59 25.5 -81t72.5 -24q-50 -2 -72.5 -24t-25.5 -81z" />
    <glyph glyph-name="q" unicode="q" horiz-adv-x="622" 
d="M514 -353v243h-207q-69 0 -121 23.5t-86.5 65.5t-52 99t-17.5 123q0 67 16 125.5t49.5 102t86 69t125.5 25.5h265v-876h-58zM514 -58v529h-222q-51 0 -89.5 -21.5t-64 -58.5t-38 -86t-12.5 -104q0 -53 13.5 -100.5t39 -82.5t63.5 -55.5t88 -20.5h222zM316 316
q3 -59 25.5 -81t72.5 -24q-50 -2 -72.5 -24t-25.5 -81q-3 59 -26 81t-72 24q49 2 72 24t26 81z" />
    <glyph glyph-name="r" unicode="r" horiz-adv-x="402" 
d="M110 373q16 33 43.5 62t62.5 50t77.5 32t88.5 8v-56q-49 3 -92 -10t-77.5 -37t-60.5 -57.5t-42 -71.5v-402h-60v632h60v-150z" />
    <glyph glyph-name="s" unicode="s" horiz-adv-x="599" 
d="M302 -126q-66 0 -117 15t-86.5 41t-54 62t-18.5 77h60q0 -33 18 -59.5t48 -45t69 -28.5t81 -10q39 0 76.5 7t67.5 22t48.5 38t18.5 55q0 27 -10.5 46.5t-30.5 34t-48.5 26.5t-65.5 24l-111 36q-102 32 -144.5 74t-42.5 95q0 34 17.5 62.5t49 48t75 30.5t96.5 11
q58 0 102.5 -14t75 -37t46 -53t15.5 -61h-60q0 24 -13.5 44.5t-37.5 35.5t-56.5 24t-70.5 9q-39 0 -71.5 -6t-56.5 -18t-37.5 -30.5t-13.5 -42.5q0 -20 7.5 -36.5t24 -31t43.5 -27.5t67 -26l101 -33q47 -15 86 -32t66.5 -38.5t42.5 -49t15 -63.5q0 -40 -22 -72.5
t-59.5 -55.5t-86.5 -35.5t-103 -12.5z" />
    <glyph glyph-name="t" unicode="t" horiz-adv-x="335" 
d="M250 -109q-71 0 -104 46t-33 120v414h-93v52h95v214h60v-214h130v-52h-130v-418q0 -50 18 -80t71 -30h51v-52h-65z" />
    <glyph glyph-name="u" unicode="u" horiz-adv-x="602" 
d="M232 -119q-40 0 -74 11t-59 35t-39 61t-14 89v446h58v-456q0 -67 36 -101.5t92 -34.5q73 0 139 23t123 54v515h58v-632h-58v61q-29 -13 -60 -25.5t-64.5 -22.5t-68 -16.5t-69.5 -6.5z" />
    <glyph glyph-name="v" unicode="v" horiz-adv-x="610" 
d="M343 -109h-76l-257 632h61l234 -580l234 580h61z" />
    <glyph glyph-name="w" unicode="w" horiz-adv-x="898" 
d="M691 -109h-80l-162 547l-162 -547h-79l-188 632h60l169 -580l175 580h50l175 -580l169 580h60z" />
    <glyph glyph-name="x" unicode="x" horiz-adv-x="593" 
d="M83 523l213 -285l214 285h68l-238 -316l238 -316h-68l-214 284l-213 -284h-68l237 315l-237 317h68z" />
    <glyph glyph-name="y" unicode="y" horiz-adv-x="642" 
d="M271 -90l-256 613h62l226 -545l262 545h62l-422 -876h-60z" />
    <glyph glyph-name="z" unicode="z" horiz-adv-x="526" 
d="M20 -69l408 540h-395v52h473v-39l-407 -541h407v-52h-486v40z" />
    <glyph glyph-name="braceleft" unicode="{" horiz-adv-x="319" 
d="M50 325q35 0 55 15t30 36t12.5 44.5t2.5 40.5l-1 230q0 35 11.5 61t32.5 43.5t49.5 26.5t61.5 9v-50h-14q-33 0 -57 -21.5t-24 -63.5v-254q0 -49 -16 -87t-60 -59q44 -22 60 -60t16 -86v-254q0 -42 24 -63.5t57 -21.5h14v-50q-33 0 -61.5 9t-49.5 26.5t-32.5 43.5
t-11.5 61l1 230q0 17 -2.5 40.5t-12.5 44.5t-30 36t-55 15v58z" />
    <glyph glyph-name="bar" unicode="|" horiz-adv-x="378" 
d="M160 -352v1232h58v-1232h-58z" />
    <glyph glyph-name="braceright" unicode="}" horiz-adv-x="319" 
d="M269 267q-35 0 -55 -15t-30 -36t-12.5 -44.5t-2.5 -40.5l1 -230q0 -35 -12 -61t-33 -43.5t-49 -26.5t-61 -9v50h14q33 0 57 21.5t24 63.5v254q0 48 16 86t60 60q-44 21 -60 59t-16 87v254q0 42 -24 63.5t-57 21.5h-14v50q33 0 61 -9t49 -26.5t33 -43.5t12 -61l-1 -230
q0 -17 2.5 -40.5t12.5 -44.5t30 -36t55 -15v-58z" />
    <glyph glyph-name="asciitilde" unicode="~" horiz-adv-x="615" 
d="M427 221q-27 0 -52.5 11.5t-44.5 25.5l-37 26q-27 20 -53 39.5t-55 19.5q-27 0 -53 -20t-52 -65l-40 21q27 58 67.5 88.5t81.5 30.5q35 0 63.5 -15.5t54.5 -35.5l42 -33q19 -15 38.5 -26.5t42.5 -11.5q30 0 55 21t50 66l40 -22q-27 -57 -67.5 -88.5t-80.5 -31.5z" />
    <glyph glyph-name="exclamdown" unicode="&#xa1;" horiz-adv-x="286" 
d="M143 427q-20 0 -36.5 14.5t-16.5 39.5q0 26 16.5 40.5t36.5 14.5t36.5 -14.5t16.5 -40.5q0 -25 -16.5 -39.5t-36.5 -14.5zM177 -345h-68l15 603h37z" />
    <glyph glyph-name="cent" unicode="&#xa2;" 
d="M382 -353l22 238q-51 10 -91.5 33.5t-68.5 57.5t-42.5 76t-14.5 89v132q0 54 18.5 101t54 82.5t87 56.5t116.5 23l19 202h56l-19 -204q52 -6 93.5 -24.5t70.5 -46t44.5 -61t15.5 -69.5v-28h-58v18q0 60 -45 104.5t-125 54.5l-51 -552h11q49 0 88 13t66 35t41.5 51
t14.5 62v18h58v-28q0 -39 -18.5 -75.5t-53.5 -65t-84.5 -45.5t-111.5 -17h-16l-21 -231h-56zM459 484q-51 -3 -91 -20t-67 -46.5t-41.5 -69t-14.5 -85.5v-112q0 -81 42.5 -138.5t121.5 -75.5z" />
    <glyph glyph-name="cent" unicode="&#xffe0;" 
d="M382 -353l22 238q-51 10 -91.5 33.5t-68.5 57.5t-42.5 76t-14.5 89v132q0 54 18.5 101t54 82.5t87 56.5t116.5 23l19 202h56l-19 -204q52 -6 93.5 -24.5t70.5 -46t44.5 -61t15.5 -69.5v-28h-58v18q0 60 -45 104.5t-125 54.5l-51 -552h11q49 0 88 13t66 35t41.5 51
t14.5 62v18h58v-28q0 -39 -18.5 -75.5t-53.5 -65t-84.5 -45.5t-111.5 -17h-16l-21 -231h-56zM459 484q-51 -3 -91 -20t-67 -46.5t-41.5 -69t-14.5 -85.5v-112q0 -81 42.5 -138.5t121.5 -75.5z" />
    <glyph glyph-name="sterling" unicode="&#xa3;" 
d="M755 -55v-52h-608v39q78 45 116 107.5t38 135.5q0 24 -5 47t-13 46h-140v49h121q-18 42 -33 78.5t-15 79.5q0 56 20 100.5t57 75.5t89.5 47.5t118.5 16.5q90 0 152 -32t100 -80l-41 -41q-37 46 -87 70.5t-122 24.5q-54 0 -95.5 -14t-70 -38.5t-43.5 -57.5t-15 -71
q0 -22 4.5 -41.5t11.5 -38.5t15.5 -38.5t16.5 -40.5h324v-49h-305q7 -22 11 -45t4 -49q0 -75 -26.5 -127.5t-72.5 -96.5v-5h493z" />
    <glyph glyph-name="sterling" unicode="&#xffe1;" 
d="M755 -55v-52h-608v39q78 45 116 107.5t38 135.5q0 24 -5 47t-13 46h-140v49h121q-18 42 -33 78.5t-15 79.5q0 56 20 100.5t57 75.5t89.5 47.5t118.5 16.5q90 0 152 -32t100 -80l-41 -41q-37 46 -87 70.5t-122 24.5q-54 0 -95.5 -14t-70 -38.5t-43.5 -57.5t-15 -71
q0 -22 4.5 -41.5t11.5 -38.5t15.5 -38.5t16.5 -40.5h324v-49h-305q7 -22 11 -45t4 -49q0 -75 -26.5 -127.5t-72.5 -96.5v-5h493z" />
    <glyph glyph-name="currency" unicode="&#xa4;" horiz-adv-x="533" 
d="M32 132l72 74q-41 53 -41 131q0 80 41 133l-72 75l33 35l74 -76q26 23 59 35t69 12q35 0 67.5 -12t58.5 -35l74 76l34 -35l-73 -75q20 -26 31 -59.5t11 -73.5q0 -39 -11 -72t-31 -59l73 -74l-34 -36l-74 76q-26 -23 -58.5 -35.5t-67.5 -12.5q-74 0 -128 48l-74 -76z
M267 171q30 0 56.5 12t46.5 34t32 52.5t12 67.5t-12 67.5t-32 52.5t-46.5 34.5t-56.5 12.5t-57 -12.5t-47.5 -34.5t-32 -52.5t-11.5 -67.5t11.5 -67.5t32 -52.5t47.5 -34t57 -12z" />
    <glyph glyph-name="yen" unicode="&#xa5;" 
d="M170 192h268v36l-65 104h-203v46h174l-202 322h59l264 -421l265 421h58l-202 -322h174v-46h-202l-65 -104v-36h267v-46h-267v-251h-55v251h-268v46z" />
    <glyph glyph-name="yen" unicode="&#xffe5;" 
d="M170 192h268v36l-65 104h-203v46h174l-202 322h59l264 -421l265 421h58l-202 -322h174v-46h-202l-65 -104v-36h267v-46h-267v-251h-55v251h-268v46z" />
    <glyph glyph-name="section" unicode="&#xa7;" 
d="M676 634q-10 8 -33.5 18t-54 19t-64 15t-63.5 6q-62 0 -100 -19.5t-38 -55.5q0 -27 14.5 -47t38.5 -36.5t55.5 -30t66.5 -26.5q94 -36 142.5 -85t48.5 -112q0 -58 -23.5 -93.5t-59.5 -52.5q28 -13 44 -40.5t16 -59.5q0 -72 -59.5 -114t-160.5 -42q-66 0 -120.5 13
t-82.5 30v54q10 -9 31.5 -18t50 -16.5t61.5 -12.5t65 -5q76 0 118.5 26.5t42.5 77.5q0 23 -9 39t-30 29.5t-55.5 26.5t-84.5 31q-105 37 -152 87.5t-47 115.5q0 13 6 33.5t18.5 41.5t32 39.5t46.5 27.5q-69 34 -69 108q0 64 54 97.5t154 33.5q31 0 62 -5t57.5 -12.5
t47.5 -16.5t33 -17v-52zM372 473q-23 -6 -39 -20t-26.5 -31t-15.5 -34t-5 -29q0 -15 4.5 -33.5t21 -38t47.5 -40t84 -40.5q36 -14 58 -22t35.5 -13t21 -8t15.5 -6q29 14 46.5 48.5t17.5 78.5q0 27 -13.5 49.5t-35.5 40.5t-50 32.5t-57 26.5q-29 11 -57.5 21t-51.5 18z" />
    <glyph glyph-name="dieresis" unicode="&#xa8;" horiz-adv-x="543" 
d="M161 640q-19 0 -31.5 12.5t-12.5 30.5q0 19 12.5 32t31.5 13t31.5 -13t12.5 -32q0 -18 -12.5 -30.5t-31.5 -12.5zM382 640q-19 0 -31.5 12.5t-12.5 30.5q0 19 12.5 32t31.5 13t31.5 -13t12.5 -32q0 -18 -12.5 -30.5t-31.5 -12.5z" />
    <glyph glyph-name="copyright" unicode="&#xa9;" horiz-adv-x="790" 
d="M395 -66q-79 0 -148 30t-120.5 81.5t-81.5 120.5t-30 148q0 78 30 147t81.5 120.5t120.5 81.5t148 30t148 -30t120.5 -81.5t81.5 -120.5t30 -147q0 -79 -30 -148t-81.5 -120.5t-120.5 -81.5t-148 -30zM63 314q0 -66 26.5 -126.5t71.5 -106.5t105.5 -73t128.5 -27
q69 0 129.5 27t105.5 73t71 106.5t26 126.5t-26 126t-71 105.5t-105.5 72.5t-129.5 27q-68 0 -128.5 -27t-105.5 -72.5t-71.5 -105.5t-26.5 -126zM401 516q39 0 71 -10.5t54 -28t34 -40t12 -47.5v-19h-43v13q0 40 -34 67t-94 27q-68 0 -104 -36.5t-36 -93.5v-69
q0 -58 36 -94t104 -36q60 0 94 27.5t34 66.5v13h43v-19q0 -24 -12 -47t-34 -40.5t-54 -28t-71 -10.5q-44 0 -78.5 12.5t-58 34.5t-36 52t-12.5 64v79q0 34 12.5 64t36 52t58 34.5t78.5 12.5z" />
    <glyph glyph-name="ordfeminine" unicode="&#xaa;" horiz-adv-x="479" 
d="M374 566v13q0 60 -33 87t-105 27q-33 0 -58 -8.5t-41 -22t-24 -31t-8 -36.5v-18h-51v14q0 26 11.5 52.5t34 48t57 35t79.5 13.5q96 0 142 -42.5t46 -117.5v-296h-50v52q-10 -11 -26 -21.5t-36.5 -19t-44 -14t-49.5 -5.5q-79 0 -128.5 30t-49.5 93q0 65 51.5 100t146.5 48
zM240 503q-32 -5 -60 -13t-48.5 -20.5t-32 -29.5t-11.5 -41q0 -38 35 -57.5t95 -19.5q28 0 55.5 7.5t50 22t36.5 35t14 46.5v85z" />
    <glyph glyph-name="guillemotleft" unicode="&#xab;" 
d="M125 349l384 353v-47l-343 -322v-4l343 -331v-48l-384 363v36zM425 349l384 353v-47l-343 -322v-4l343 -331v-48l-384 363v36z" />
    <glyph glyph-name="guillemotleft" unicode="&#x226a;" 
d="M125 349l384 353v-47l-343 -322v-4l343 -331v-48l-384 363v36zM425 349l384 353v-47l-343 -322v-4l343 -331v-48l-384 363v36z" />
    <glyph glyph-name="logicalnot" unicode="&#xac;" 
d="M831 516v-317h-48v270h-699v47h747z" />
    <glyph glyph-name="logicalnot" unicode="&#xffe2;" 
d="M831 516v-317h-48v270h-699v47h747z" />
    <glyph glyph-name="uni00AD" unicode="&#xad;" horiz-adv-x="560" 
d="M50 350h460v-52h-460v52z" />
    <glyph glyph-name="uni00AD" unicode="&#x2013;" horiz-adv-x="560" 
d="M50 350h460v-52h-460v52z" />
    <glyph glyph-name="registered" unicode="&#xae;" horiz-adv-x="556" 
d="M48 527q0 49 17.5 91t48 73t72.5 49t91 18t90.5 -18t72.5 -49t48.5 -73t17.5 -91t-17.5 -91t-48.5 -73t-72.5 -49t-90.5 -18t-91 18t-72.5 49t-48 73t-17.5 91zM277 323q43 0 79.5 15.5t63 43t41.5 65t15 80.5t-15 80.5t-41.5 65t-63 43t-79.5 15.5t-79.5 -15.5t-63 -43
t-41.5 -65t-15 -80.5t15 -80.5t41.5 -65t63 -43t79.5 -15.5zM224 386h-39v274h106q37 0 65 -23t28 -64q0 -32 -17.5 -52t-34.5 -27l65 -108h-42l-61 95h-70v-95zM224 517h71q23 0 36.5 15t13.5 41q0 27 -13 38.5t-37 11.5h-71v-106z" />
    <glyph glyph-name="degree" unicode="&#xb0;" horiz-adv-x="412" 
d="M214 477q-27 0 -54 10t-49.5 28.5t-36.5 46t-14 62.5t14 62.5t36.5 46.5t49.5 29t54 10t54 -10t49 -29t36 -46.5t14 -62.5t-14 -62.5t-36 -46t-49 -28.5t-54 -10zM214 519q19 0 37.5 9t33 23.5t23.5 33.5t9 39q0 21 -9 40t-23.5 33.5t-33 23.5t-37.5 9q-20 0 -38.5 -9
t-33 -23.5t-23.5 -33.5t-9 -40q0 -20 9 -39t23.5 -33.5t33 -23.5t38.5 -9zM214 529q-3 54 -24 73.5t-65 21.5q45 2 65.5 22t23.5 74q3 -54 23.5 -74t65.5 -22q-23 -1 -39 -5.5t-26.5 -15.5t-16.5 -29t-7 -45z" />
    <glyph glyph-name="plusminus" unicode="&#xb1;" horiz-adv-x="626" 
d="M344 677v-216h222v-53h-222v-217h-61v217h-223v53h223v216h61zM65 93h496v-53h-496v53z" />
    <glyph glyph-name="twosuperior" unicode="&#xb2;" horiz-adv-x="395" 
d="M44 313l184 179q29 29 46.5 58t17.5 58q0 46 -27 71.5t-75 25.5t-75.5 -31.5t-29.5 -83.5h-45q0 31 11 59t30.5 49t47.5 33.5t62 12.5q66 0 104.5 -35.5t38.5 -102.5q0 -34 -19 -68.5t-61 -72.5l-150 -143h92q38 0 77.5 1.5t76.5 6.5v-38q-37 -5 -78 -7t-79 -2h-149v30z
" />
    <glyph glyph-name="threesuperior" unicode="&#xb3;" horiz-adv-x="405" 
d="M196 748q28 0 52.5 -8.5t43.5 -23.5t30 -36.5t11 -48.5q0 -33 -19.5 -59.5t-47.5 -40.5q16 -5 34 -14.5t32 -24.5t23.5 -35.5t9.5 -47.5q0 -32 -14 -57.5t-37 -44t-54 -28.5t-65 -10q-36 0 -67 11t-53.5 30.5t-34.5 45.5t-9 56h45q0 -24 9.5 -43.5t26 -32.5t38 -20
t44.5 -7q55 0 90.5 27.5t35.5 72.5q0 26 -13.5 45t-36 30.5t-51.5 16.5t-61 3v43q65 -2 97 22.5t33 61.5q1 35 -24.5 55.5t-67.5 21.5q-42 0 -67.5 -24.5t-27.5 -56.5h-45q0 24 11.5 46t30.5 38.5t44 26.5t54 10z" />
    <glyph glyph-name="acute" unicode="&#xb4;" horiz-adv-x="537" 
d="M180 549l-47 36l172 201l47 -46z" />
    <glyph glyph-name="paragraph" unicode="&#xb6;" horiz-adv-x="540" 
d="M299 281h-10q-41 0 -83.5 9t-78 33.5t-58 67.5t-22.5 110q0 54 13.5 98t48.5 74.5t95.5 47t153.5 16.5h122v-845h-47v799h-87v-799h-47v389z" />
    <glyph glyph-name="periodcentered" unicode="&#xb7;" horiz-adv-x="510" 
d="M253 365q20 0 36.5 -14.5t16.5 -39.5q0 -26 -16.5 -40.5t-36.5 -14.5t-36.5 14.5t-16.5 40.5q0 25 16.5 39.5t36.5 14.5z" />
    <glyph glyph-name="periodcentered" unicode="&#x30fb;" horiz-adv-x="510" 
d="M253 365q20 0 36.5 -14.5t16.5 -39.5q0 -26 -16.5 -40.5t-36.5 -14.5t-36.5 14.5t-16.5 40.5q0 25 16.5 39.5t36.5 14.5z" />
    <glyph glyph-name="cedilla" unicode="&#xb8;" horiz-adv-x="572" 
d="M188 -225q43 -3 69.5 1.5t41 13.5t19.5 21.5t5 26.5q0 25 -23.5 41t-81.5 15l21 111h56l-13 -73q51 -1 76 -28t25 -63q0 -25 -11.5 -46.5t-35.5 -37t-60.5 -23.5t-87.5 -5v46z" />
    <glyph glyph-name="onesuperior" unicode="&#xb9;" horiz-adv-x="370" 
d="M166 284v406l-106 -69v42l113 73h37v-452h-44z" />
    <glyph glyph-name="ordmasculine" unicode="&#xba;" horiz-adv-x="383" 
d="M9 586q0 32 13.5 61t37.5 50.5t57.5 34t74.5 12.5q40 0 73.5 -12.5t57.5 -34t37.5 -50.5t13.5 -61v-152q0 -32 -13.5 -61t-37.5 -50.5t-57.5 -34t-73.5 -12.5q-41 0 -74.5 12.5t-57.5 34t-37.5 50.5t-13.5 61v152zM52 444q0 -60 37.5 -94.5t102.5 -34.5q64 0 102 34.5
t38 94.5v132q0 60 -38 94.5t-102 34.5q-65 0 -102.5 -34.5t-37.5 -94.5v-132zM239 510q-23 -3 -34 -14t-13 -39q-3 28 -14 39t-36 14q24 2 35.5 13.5t14.5 38.5q2 -27 13 -38.5t34 -13.5z" />
    <glyph glyph-name="guillemotright" unicode="&#xbb;" 
d="M421 -50v48l343 331v4l-343 322v47l384 -353v-36zM121 -50v48l343 331v4l-343 322v47l384 -353v-36z" />
    <glyph glyph-name="guillemotright" unicode="&#x226b;" 
d="M421 -50v48l343 331v4l-343 322v47l384 -353v-36zM121 -50v48l343 331v4l-343 322v47l384 -353v-36z" />
    <glyph glyph-name="onequarter" unicode="&#xbc;" 
d="M748 737h58l-661 -846h-58zM204 279v408l-113 -68v42l119 72h35v-454h-41zM838 -26h-64v-81h-42v81h-247v33l249 337h40v-332h64v-38zM732 12v262q-45 -62 -95.5 -130.5t-95.5 -131.5h191z" />
    <glyph glyph-name="onehalf" unicode="&#xbd;" 
d="M748 737h58l-661 -846h-58zM204 279v408l-113 -68v42l119 72h35v-454h-41zM536 -77l185 178q27 28 45 58t18 59q0 47 -23.5 72t-76.5 25q-54 0 -79.5 -31.5t-27.5 -84.5h-44q0 31 10 59t29.5 49.5t47.5 34t65 12.5q69 0 105 -36t36 -103q0 -35 -18.5 -68.5t-60.5 -73.5
l-150 -140h92q38 0 77 1.5t77 6.5v-40q-39 -5 -79 -6.5t-78 -1.5h-150v30z" />
    <glyph glyph-name="threequarters" unicode="&#xbe;" 
d="M224 758q27 0 51 -8t42 -22.5t28.5 -35t10.5 -47.5q0 -32 -18.5 -59t-46.5 -40q16 -5 33.5 -14t31 -24t22.5 -35t9 -47q0 -30 -13.5 -55t-36 -43t-52 -27.5t-62.5 -9.5q-35 0 -64.5 11t-51.5 29.5t-33.5 43.5t-8.5 54h43q0 -24 9 -42.5t25 -31t36.5 -19t43.5 -6.5
q53 0 87.5 26t34.5 70q0 25 -13 44t-35 30.5t-50 16t-59 2.5v42q63 -2 94 23.5t32 60.5q1 33 -24 53.5t-65 20.5q-42 0 -66 -23t-26 -55h-43q0 24 11 45.5t29 37t42.5 25t52.5 9.5zM792 737h58l-661 -845h-58zM824 -26h-64v-80h-42v80h-247v33l249 337h40v-332h64v-38z
M718 12v262q-45 -62 -95.5 -130.5t-95.5 -131.5h191z" />
    <glyph glyph-name="questiondown" unicode="&#xbf;" horiz-adv-x="567" 
d="M291 427q-20 0 -36.5 14.5t-16.5 39.5q0 26 16.5 40.5t36.5 14.5t36.5 -14.5t16.5 -40.5q0 -25 -16.5 -39.5t-36.5 -14.5zM527 -122q0 -56 -19.5 -98.5t-53 -71t-77.5 -43.5t-92 -15t-92 13.5t-77 40.5t-53 67t-20 93q0 44 17 79t42 65t54.5 57.5t54.5 57t42 63t17 76.5
v42h59v-42q0 -45 -16.5 -82t-42 -69t-54.5 -61t-54.5 -57.5t-42 -59t-16.5 -65.5q0 -41 15 -72t40.5 -52t58 -31.5t68.5 -10.5q35 0 68 11.5t58.5 33.5t40.5 55t15 76h60z" />
    <glyph glyph-name="AE" unicode="&#xc6;" horiz-adv-x="831" 
d="M802 -57v-52h-389v268h-238l-124 -268h-62l392 845h410v-51h-318v-325h264v-51h-264v-366h329zM413 217v470h-4l-208 -470h212z" />
    <glyph glyph-name="Eth" unicode="&#xd0;" horiz-adv-x="711" 
d="M327 736q83 0 149.5 -28.5t113 -82.5t71.5 -132t25 -177t-25 -178t-71.5 -133.5t-112.5 -84t-148 -29.5h-231v423h-78v48h78v374h229zM321 -58q71 0 127.5 27t95.5 76t60 118t21 153t-21 152.5t-60 117t-95.5 75t-127.5 26.5h-164v-325h234v-48h-234v-372h164z" />
    <glyph glyph-name="multiply" unicode="&#xd7;" horiz-adv-x="670" 
d="M546 74l-211 216l-210 -216l-37 37l211 216l-213 218l37 37l212 -218l213 218l36 -37l-213 -218l211 -216z" />
    <glyph glyph-name="Oslash" unicode="&#xd8;" horiz-adv-x="760" 
d="M111 -8q-32 36 -49 81t-17 95v291q0 60 24.5 112.5t69 92t106 62.5t135.5 23q67 0 123.5 -19t99.5 -52l61 86l40 -35l-63 -85q35 -38 54.5 -85t19.5 -100v-291q0 -60 -24.5 -112.5t-69 -92t-106 -62.5t-135.5 -23q-71 0 -130 21t-103 57l-63 -81l-39 33zM103 186
q0 -87 41 -148l429 598q-36 29 -84.5 45t-108.5 16q-63 0 -114.5 -18t-87.5 -51t-55.5 -80.5t-19.5 -106.5v-255zM657 441q0 94 -49 158l-430 -600q36 -33 87 -51t115 -18q63 0 114.5 18t87.5 51t55.5 80.5t19.5 106.5v255z" />
    <glyph glyph-name="Thorn" unicode="&#xde;" horiz-adv-x="654" 
d="M106 736h59v-152h131q60 0 113 -14.5t92 -45t61.5 -79t22.5 -115.5q0 -65 -22.5 -114t-62 -83t-92 -51t-112.5 -17h-131v-174h-59v845zM294 114q107 0 168.5 56t61.5 160q0 106 -62 155.5t-168 49.5h-129v-421h129z" />
    <glyph glyph-name="germandbls" unicode="&#xdf;" horiz-adv-x="643" 
d="M416 -124q-44 0 -83 5.5t-70 21.5v49q31 -14 74.5 -17t78.5 -3q26 0 50.5 8t43.5 22.5t30.5 34.5t11.5 44q0 44 -15.5 69t-38.5 40.5t-49.5 26.5t-49.5 28t-38.5 44t-15.5 74t15 78.5t33.5 58t33.5 53t15 62.5q0 24 -10.5 46t-30.5 39.5t-50.5 27.5t-69.5 10
q-31 0 -60.5 -9.5t-53 -32.5t-37.5 -61t-14 -95v-609h-56v628q0 61 18 105t48.5 72t70.5 41.5t84 13.5q52 0 93 -14t68.5 -37t42 -54t14.5 -65q0 -50 -15 -81.5t-32.5 -56.5t-32.5 -50t-15 -63q0 -37 15 -57t38 -33.5t49 -25t49 -31t38 -51.5t15 -87q0 -39 -15 -70.5
t-41.5 -53.5t-61.5 -33.5t-74 -11.5z" />
    <glyph glyph-name="ae" unicode="&#xe6;" horiz-adv-x="953" 
d="M691 -70q43 0 75 12.5t54 33.5t33 48t11 57v8h58v-18q0 -36 -15 -70.5t-44.5 -62t-72.5 -44t-99 -16.5q-75 0 -129 31.5t-85 84.5q-38 -52 -99 -84t-137 -32q-44 0 -82.5 10.5t-67 32.5t-45 54t-16.5 76q0 90 63.5 138.5t177.5 66.5l169 27v27q0 93 -40.5 133.5
t-133.5 40.5q-43 0 -73 -12.5t-49 -33.5t-27.5 -48t-8.5 -57v-16h-58v26q0 36 13 70.5t39.5 62t67 44t96.5 16.5q86 0 138.5 -28.5t75.5 -83.5q31 51 84 81.5t127 30.5q60 0 105 -20.5t75 -56t45.5 -83.5t15.5 -103v-86h-434v-46q1 -47 14.5 -85.5t38 -66.5t60 -43.5
t80.5 -15.5zM874 263q0 48 -11 89t-34 70t-57.5 45.5t-80.5 16.5q-45 0 -80.5 -15.5t-60 -44t-38 -67.5t-14.5 -85v-36h376v27zM271 204q-41 -6 -74.5 -17t-57.5 -29t-37.5 -44t-13.5 -63q0 -60 41.5 -90.5t111.5 -30.5q34 0 69 9t64 28t47.5 48.5t18.5 69.5v146z" />
    <glyph glyph-name="eth" unicode="&#xf0;" horiz-adv-x="626" 
d="M406 636q33 -40 60 -82.5t46.5 -94t30.5 -114t11 -142.5q0 -79 -19.5 -140t-52.5 -102.5t-77.5 -63t-94.5 -21.5q-44 0 -88.5 17.5t-80 53t-57.5 89t-22 125.5q0 65 19.5 115.5t53.5 85.5t78.5 53.5t95.5 18.5q22 0 47 -6t49 -18t45 -30.5t36 -43.5q-8 46 -20 84.5
t-27.5 71t-35.5 61t-42 54.5l-154 -96l-19 40l143 89q-29 29 -62 55t-68 52l28 44q41 -26 77.5 -55.5t71.5 -67.5l155 98l18 -40zM311 -65q43 0 77.5 19t59 54t37.5 84t13 110v18t-0.5 13.5l-1 13t-1.5 15.5q-20 34 -43.5 56t-47.5 35t-47.5 17.5t-42.5 4.5q-43 0 -79 -15.5
t-61.5 -43.5t-40 -67.5t-14.5 -87.5q0 -55 17 -97t44 -70.5t61.5 -43.5t69.5 -15z" />
    <glyph glyph-name="divide" unicode="&#xf7;" horiz-adv-x="666" 
d="M333 580q20 0 36.5 -14.5t16.5 -39.5q0 -26 -16.5 -40.5t-36.5 -14.5t-36.5 14.5t-16.5 40.5q0 25 16.5 39.5t36.5 14.5zM606 350v-53h-546v53h546zM333 190q20 0 36.5 -14.5t16.5 -39.5q0 -26 -16.5 -40.5t-36.5 -14.5t-36.5 14.5t-16.5 40.5q0 25 16.5 39.5t36.5 14.5z
" />
    <glyph glyph-name="oslash" unicode="&#xf8;" horiz-adv-x="705" 
d="M110 -25q-14 17 -24.5 39t-17.5 47t-10.5 50.5t-3.5 49.5v92q0 55 19 106t55.5 90.5t89.5 63t122 23.5t122.5 -21t89.5 -57l66 70l32 -32l-68 -73q11 -16 19 -37t13.5 -43.5t8.5 -45.5t3 -44v-92q0 -55 -19 -106t-55.5 -90.5t-89.5 -63t-122 -23.5q-63 0 -113 17.5
t-86 47.5l-46 -50l-33 25zM112 171q0 -39 9.5 -82.5t27.5 -70.5l365 398q-29 32 -72.5 50t-101.5 18q-56 0 -98.5 -19.5t-71 -52.5t-43.5 -77t-15 -92v-72zM568 243q0 16 -2 34.5t-5.5 36.5t-8.5 35t-11 29l-362 -394q29 -26 69 -40t92 -14q55 0 98 19.5t71.5 52.5t43.5 77
t15 92v72z" />
    <glyph glyph-name="thorn" unicode="&#xfe;" horiz-adv-x="689" 
d="M90 749h56v-300q19 18 48 34t60 29t61.5 20.5t53.5 7.5q53 0 100.5 -23t83.5 -65.5t57 -102t21 -132.5q0 -81 -26.5 -144.5t-68 -107t-91 -66.5t-95.5 -23q-19 0 -46 5t-55.5 14.5t-56 24t-46.5 32.5v-287h-56v1084zM146 13q21 -21 49.5 -36t57 -24t53.5 -13t40 -4
q38 0 78 20t72.5 57t53.5 89t21 115q0 57 -16.5 105t-45 83t-67 54.5t-82.5 19.5q-19 0 -46 -6.5t-56.5 -19t-59 -31.5t-52.5 -43v-366z" />
    <glyph glyph-name="dcroat" unicode="&#x111;" horiz-adv-x="608" 
d="M572 737v-77h25v-53h-25v-716h-265q-73 0 -125.5 25.5t-86 69t-49.5 102t-16 125.5q0 66 17.5 123t52 98.5t86.5 65t121 23.5h207v84h-223v53h223v77h58zM292 471q-50 0 -88 -20.5t-63.5 -55.5t-39 -82t-13.5 -100q0 -55 12.5 -104t38 -86t64 -58.5t89.5 -21.5h222v528
h-222zM316 308q3 -59 25.5 -81t72.5 -24q-50 -2 -72.5 -24t-25.5 -81q-3 59 -26 81t-72 24q49 2 72 24t26 81z" />
    <glyph glyph-name="Hbar" unicode="&#x126;" horiz-adv-x="744" 
d="M20 569h45v168h58v-168h498v168h58v-168h45v-53h-45v-626h-58v402h-498v-402h-58v626h-45v53zM621 344v172h-498v-172h498z" />
    <glyph glyph-name="hbar" unicode="&#x127;" horiz-adv-x="611" 
d="M20 630h40v107h58v-107h362v-52h-362v-183q28 13 59.5 25.5t65 22.5t68 16.5t69.5 6.5q40 0 74 -11t59 -35t39 -61t14 -89v-380h-58v390q0 67 -36 101.5t-92 34.5q-73 0 -139 -23t-123 -54v-449h-58v688h-40v52z" />
    <glyph glyph-name="dotlessi" unicode="&#x131;" horiz-adv-x="158" 
d="M50 -109v636h58v-636h-58z" />
    <glyph glyph-name="IJ" unicode="&#x132;" horiz-adv-x="422" 
d="M60 -109v846h58v-846h-58zM166 -70q61 0 99.5 33t38.5 95v679h58v-679q0 -38 -14 -70.5t-39.5 -57t-61.5 -38.5t-81 -14v52z" />
    <glyph glyph-name="ij" unicode="&#x133;" horiz-adv-x="366" 
d="M93 780q20 0 36.5 -14.5t16.5 -39.5q0 -26 -16.5 -40.5t-36.5 -14.5t-36.5 14.5t-16.5 40.5q0 25 16.5 39.5t36.5 14.5zM273 780q20 0 36.5 -14.5t16.5 -39.5q0 -26 -16.5 -40.5t-36.5 -14.5t-36.5 14.5t-16.5 40.5q0 25 16.5 39.5t36.5 14.5zM64 -110v634h58v-634h-58z
M153 -225q52 0 71.5 32t19.5 83v634h58v-636q0 -80 -41 -121t-108 -41v49z" />
    <glyph glyph-name="kgreenlandic" unicode="&#x138;" horiz-adv-x="609" 
d="M60 -110v633h58v-354l359 354h74l-255 -252l293 -380h-72l-263 338l-136 -134v-205h-58z" />
    <glyph glyph-name="Ldot" unicode="&#x13f;" horiz-adv-x="535" 
d="M60 737h60v-794h141q37 0 69.5 0.5t63 2t60 4t61.5 6.5v-52q-32 -4 -62.5 -6.5t-61.5 -4t-64.5 -2t-70.5 -0.5h-196v846zM310 331q0 21 14.5 38t39.5 17t39.5 -17t14.5 -38q0 -22 -14.5 -39t-39.5 -17t-39 17t-15 39z" />
    <glyph glyph-name="ldot" unicode="&#x140;" horiz-adv-x="388" 
d="M60 737h60v-771q0 -19 9 -27.5t20 -8.5h29v-52h-40q-36 0 -57 22.5t-21 69.5v767zM210 331q0 21 14.5 38t39.5 17t39.5 -17t14.5 -38q0 -22 -14.5 -39t-39.5 -17t-39 17t-15 39z" />
    <glyph glyph-name="Lslash" unicode="&#x141;" horiz-adv-x="535" 
d="M20 220l40 25v492h60v-454l376 237v-58l-376 -237v-282h141q37 0 69.5 0.5t63 2t60 4t61.5 6.5v-52q-32 -4 -62.5 -6.5t-61.5 -4t-64.5 -2t-70.5 -0.5h-196v296l-40 -25v58z" />
    <glyph glyph-name="lslash" unicode="&#x142;" horiz-adv-x="466" 
d="M20 250l160 112v375h58v-334l208 147v-58l-208 -147v-379q0 -19 9 -27.5t20 -8.5h29v-52h-40q-36 0 -56 22.5t-20 69.5v334l-160 -112v58z" />
    <glyph glyph-name="napostrophe" unicode="&#x149;" horiz-adv-x="633" 
d="M138 787q20 0 36 -12t21 -36q6 -26 -1.5 -54.5t-23.5 -54.5t-39 -46.5t-49 -31.5l-22 30q30 14 52 39.5t26 57.5q-23 2 -38 16t-15 38q0 25 16.5 39.5t36.5 14.5zM401 524q40 0 74 -11t59 -34.5t39 -60.5t14 -89v-438h-58v448q0 67 -36 101t-92 34q-73 0 -139 -23
t-123 -54v-506h-58v631h58v-69q28 13 59.5 25.5t65 22.5t68 16.5t69.5 6.5z" />
    <glyph glyph-name="Eng" unicode="&#x14a;" horiz-adv-x="741" 
d="M572 47q14 -23 26.5 -42.5t24.5 -41.5v774h58v-865q0 -29 -10 -54t-28 -43t-42.5 -28.5t-52.5 -10.5h-61v52h60q38 0 57 26t19 61v16h-10l-444 690q-17 26 -29.5 48t-27.5 48q6 -71 6 -136v-650h-58v846h71l441 -690v0z" />
    <glyph glyph-name="eng" unicode="&#x14b;" horiz-adv-x="602" 
d="M370 524q40 0 74 -11t59 -34.5t39 -60.5t14 -89v-457q0 -29 -10 -54t-28 -43t-42.5 -28.5t-52.5 -10.5h-61v52h60q38 0 57 26t19 61v464q0 67 -36 101t-92 34q-73 0 -139 -23t-123 -54v-507h-58v632h58v-69q28 13 59.5 25.5t65 22.5t68 16.5t69.5 6.5z" />
    <glyph glyph-name="OE" unicode="&#x152;" horiz-adv-x="852" 
d="M377 -109q-84 0 -147.5 29.5t-107 84t-65.5 133.5t-22 178t22 177t65.5 132t108 82.5t148.5 28.5h447v-51h-318v-325h263v-51h-263v-366h329v-52h-460zM448 -58v745h-64q-73 0 -127 -26t-89.5 -74.5t-53 -117t-17.5 -153.5q0 -84 17.5 -153t53 -118t89.5 -76t127 -27h64z
M306 419q3 -59 25.5 -81t72.5 -24q-50 -2 -72.5 -24t-25.5 -81q-3 59 -26 81t-72 24q49 2 72 24t26 81z" />
    <glyph glyph-name="oe" unicode="&#x153;" horiz-adv-x="886" 
d="M645 -70q39 0 68 12.5t47.5 33.5t28 48t9.5 57v11h58v-21q0 -36 -13.5 -70.5t-40 -62t-66 -44t-91.5 -16.5q-72 0 -119.5 32.5t-73.5 86.5q-26 -54 -74.5 -86.5t-121.5 -32.5q-57 0 -99.5 20.5t-70.5 56t-42 83.5t-14 103v132q0 55 14 103t42 83.5t70.5 56t99.5 20.5
q73 0 121.5 -32.5t74.5 -86.5q26 54 73.5 86.5t119.5 32.5q56 0 97.5 -20.5t69 -56t41 -83.5t13.5 -103v-86h-384v-36q0 -48 9.5 -89t29.5 -70t50.5 -45.5t73.5 -16.5zM88 151q0 -48 9.5 -89t30 -70t52.5 -45.5t76 -16.5t76 16.5t52.5 45.5t30 70t9.5 89v112q0 48 -9.5 89
t-30 70t-52.5 45.5t-76 16.5t-76 -16.5t-52.5 -45.5t-30 -70t-9.5 -89v-112zM808 263q0 48 -9.5 89t-29.5 70t-50.5 45.5t-73.5 16.5q-42 0 -72 -15.5t-50 -44t-30 -67.5t-11 -85v-36h326v27zM256 106q-3 59 -26 81t-72 24q49 2 72 24t26 81q3 -59 25.5 -81t72.5 -24
q-50 -2 -72.5 -24t-25.5 -81z" />
    <glyph glyph-name="Tbar" unicode="&#x166;" horiz-adv-x="690" 
d="M38 360h276v326h-309v51h680v-51h-310v-326h267v-40h-267v-429h-61v429h-276v40z" />
    <glyph glyph-name="tbar" unicode="&#x167;" horiz-adv-x="335" 
d="M20 250h93v211h-93v52h95v224h60v-224h130v-52h-130v-211h129v-40h-129v-157q0 -50 18 -80t71 -30h51v-52h-65q-71 0 -104 46t-33 120v153h-93v40z" />
    <glyph glyph-name="caron" unicode="&#x2c7;" 
d="M222 800h55l188 -187l188 187h55l-243 -249z" />
    <glyph glyph-name="uni02D0" unicode="&#x2d0;" 
d="M465 432l-113 224h226zM352 -18l113 224l113 -224h-226z" />
    <glyph glyph-name="uni02D0" unicode="&#x2236;" 
d="M465 432l-113 224h226zM352 -18l113 224l113 -224h-226z" />
    <glyph glyph-name="breve" unicode="&#x2d8;" horiz-adv-x="871" 
d="M694 801q-4 -39 -22.5 -76.5t-49.5 -66t-73 -46t-93 -17.5t-93 17.5t-73 46t-50 66t-23 76.5h62q4 -32 18.5 -60t37 -49t53 -33t68.5 -12q37 0 67 12t52.5 33t37 49t19.5 60h62z" />
    <glyph glyph-name="dotaccent" unicode="&#x2d9;" 
d="M465 735q20 0 36.5 -14.5t16.5 -39.5q0 -26 -16.5 -40.5t-36.5 -14.5t-36.5 14.5t-16.5 40.5q0 25 16.5 39.5t36.5 14.5z" />
    <glyph glyph-name="ring" unicode="&#x2da;" 
d="M466 487q-26 0 -50.5 9t-44 26t-31 41.5t-11.5 55.5q0 32 11.5 57t31 42.5t44 26.5t50.5 9q25 0 49.5 -9t43.5 -26.5t30.5 -42.5t11.5 -57q0 -31 -11.5 -55.5t-30.5 -41.5t-43.5 -26t-49.5 -9zM466 526q38 0 65.5 26t27.5 67q0 21 -7.5 38.5t-20.5 30t-29.5 19.5t-35.5 7
q-39 0 -66 -26.5t-27 -68.5q0 -41 27 -67t66 -26z" />
    <glyph glyph-name="ogonek" unicode="&#x2db;" 
d="M583 -249h-93q-30 0 -56 9.5t-45.5 27.5t-30.5 43t-11 56v110h60v-107q0 -40 22.5 -63.5t62.5 -23.5h91v-52z" />
    <glyph glyph-name="tilde" unicode="&#x2dc;" horiz-adv-x="615" 
d="M427 221q-27 0 -52.5 11.5t-44.5 25.5l-37 26q-27 20 -53 39.5t-55 19.5q-27 0 -53 -20t-52 -65l-40 21q27 58 67.5 88.5t81.5 30.5q35 0 63.5 -15.5t54.5 -35.5l42 -33q19 -15 38.5 -26.5t42.5 -11.5q30 0 55 21t50 66l40 -22q-27 -57 -67.5 -88.5t-80.5 -31.5z" />
    <glyph glyph-name="hungarumlaut" unicode="&#x2dd;" 
d="M327 795h63l-31 -267l-38 2zM541 795h65l-52 -267l-38 2z" />
    <glyph glyph-name="Alpha" unicode="&#x391;" horiz-adv-x="786" 
d="M613 119h-441l-92 -229h-60l344 847h59l343 -847h-60zM193 171h399l-199 494z" />
    <glyph glyph-name="Beta" unicode="&#x392;" horiz-adv-x="717" 
d="M335 737q64 0 117 -12t90.5 -37t58.5 -64.5t21 -93.5q0 -69 -31 -116t-88 -73q69 -26 109 -79t40 -129q0 -55 -19.5 -99.5t-56 -76t-90 -49t-121.5 -17.5h-305v846h275zM118 685v-321h229q49 0 89 9t68.5 29t44 51.5t15.5 76.5q0 43 -16 73t-44.5 48t-68.5 26t-88 8h-229
zM118 312v-369h259q49 0 89 13t68.5 37.5t44 59.5t15.5 80q0 43 -16 76.5t-44.5 56.5t-68.5 34.5t-88 11.5h-259z" />
    <glyph glyph-name="Gamma" unicode="&#x393;" horiz-adv-x="603" 
d="M106 737h445v-48h-386v-798h-59v846z" />
    <glyph glyph-name="uni0394" unicode="&#x394;" horiz-adv-x="892" 
d="M54 -77l360 814h63l361 -814v-32h-784v32zM772 -57l-324 729h-5l-325 -729h654z" />
    <glyph glyph-name="Epsilon" unicode="&#x395;" horiz-adv-x="629" 
d="M60 737h529v-52h-471v-328h451v-52h-451v-362h187q75 0 147.5 2.5t136.5 10.5v-52q-64 -8 -139 -10.5t-150 -2.5h-240v846z" />
    <glyph glyph-name="Zeta" unicode="&#x396;" horiz-adv-x="629" 
d="M95 -57h240q75 0 147.5 2.5t136.5 10.5v-52q-64 -8 -139 -10.5t-150 -2.5h-310v41l518 753h-475v52h550v-41z" />
    <glyph glyph-name="Eta" unicode="&#x397;" horiz-adv-x="734" 
d="M616 -109v401h-498v-401h-58v846h58v-393h498v393h58v-846h-58z" />
    <glyph glyph-name="Theta" unicode="&#x398;" horiz-adv-x="760" 
d="M45 459q0 60 24.5 112.5t69 92t106 62.5t135.5 23t135.5 -23t106 -62.5t69 -92t24.5 -112.5v-291q0 -60 -24.5 -112.5t-69 -92t-106 -62.5t-135.5 -23t-135.5 23t-106 62.5t-69 92t-24.5 112.5v291zM103 186q0 -59 19.5 -106.5t55.5 -80.5t87.5 -51t114.5 -18t114.5 18
t87.5 51t55.5 80.5t19.5 106.5v255q0 59 -19.5 106.5t-55.5 80.5t-87.5 51t-114.5 18t-114.5 -18t-87.5 -51t-55.5 -80.5t-19.5 -106.5v-255zM229 346h300v-52h-300v52z" />
    <glyph glyph-name="Iota" unicode="&#x399;" horiz-adv-x="178" 
d="M60 -109v846h58v-846h-58z" />
    <glyph glyph-name="Kappa" unicode="&#x39a;" horiz-adv-x="700" 
d="M120 247l467 490h74l-341 -355l360 -491h-70l-330 450l-160 -167v-283h-60v846h60v-490z" />
    <glyph glyph-name="Lambda" unicode="&#x39b;" horiz-adv-x="725" 
d="M329 737h67l329 -846h-60l-303 775l-302 -775h-60z" />
    <glyph glyph-name="Mu" unicode="&#x39c;" horiz-adv-x="868" 
d="M828 737v-846h-58v650q0 65 6 136q-10 -28 -18.5 -56t-19.5 -55l-258 -655h-72l-258 655q-11 27 -19.5 55t-18.5 56q6 -71 6 -136v-650h-58v846h81l303 -766l303 766h81z" />
    <glyph glyph-name="Nu" unicode="&#x39d;" horiz-adv-x="741" 
d="M572 47q17 -26 30 -48t27 -48q-3 35 -4.5 69.5t-1.5 66.5v650h58v-846h-68l-444 690q-17 26 -29.5 48t-27.5 48q6 -71 6 -136v-650h-58v846h71l441 -690v0z" />
    <glyph glyph-name="Xi" unicode="&#x39e;" horiz-adv-x="735" 
d="M89 736h557v-51h-557v51zM123 362h490v-53h-490v53zM78 -57h579v-52h-579v52z" />
    <glyph glyph-name="Omicron" unicode="&#x39f;" horiz-adv-x="760" 
d="M45 459q0 60 24.5 112.5t69 92t106 62.5t135.5 23t135.5 -23t106 -62.5t69 -92t24.5 -112.5v-291q0 -60 -24.5 -112.5t-69 -92t-106 -62.5t-135.5 -23t-135.5 23t-106 62.5t-69 92t-24.5 112.5v291zM103 186q0 -59 19.5 -106.5t55.5 -80.5t87.5 -51t114.5 -18t114.5 18
t87.5 51t55.5 80.5t19.5 106.5v255q0 59 -19.5 106.5t-55.5 80.5t-87.5 51t-114.5 18t-114.5 -18t-87.5 -51t-55.5 -80.5t-19.5 -106.5v-255zM380 209q-3 59 -26 81t-72 24q49 2 72 24t26 81q3 -59 25.5 -81t72.5 -24q-50 -2 -72.5 -24t-25.5 -81z" />
    <glyph glyph-name="Pi" unicode="&#x3a0;" horiz-adv-x="796" 
d="M106 737h585v-846h-60v795h-466v-795h-59v846z" />
    <glyph glyph-name="Rho" unicode="&#x3a1;" horiz-adv-x="682" 
d="M60 -109v846h295q68 0 121.5 -19t90 -54.5t56 -86t19.5 -112.5t-21 -110.5t-58.5 -82t-90.5 -51t-117 -17.5h-237v-313h-58zM367 256q48 0 88 13.5t68.5 40t44.5 65.5t16 90q0 52 -15.5 93t-44 69t-68.5 43t-89 15h-249v-429h249z" />
    <glyph glyph-name="Sigma" unicode="&#x3a3;" horiz-adv-x="700" 
d="M57 -67l259 388l-253 384v32h550v-51h-474l238 -364l-243 -379h512v-52h-589v42z" />
    <glyph glyph-name="Tau" unicode="&#x3a4;" horiz-adv-x="690" 
d="M314 686h-309v51h680v-51h-310v-795h-61v795z" />
    <glyph glyph-name="Upsilon" unicode="&#x3a5;" horiz-adv-x="719" 
d="M340 -109v349l-311 497h62l278 -443l278 443h62l-311 -497v-349h-58z" />
    <glyph glyph-name="Phi" unicode="&#x3a6;" horiz-adv-x="879" 
d="M466 637q69 -2 133 -24t113 -63t78.5 -99.5t29.5 -134.5q0 -75 -29.5 -134.5t-78.5 -101.5t-113 -65t-133 -25v-127h-53v127q-68 2 -132 25t-113 65t-78.5 101.5t-29.5 134.5q0 76 29.5 135t78.5 100t113 62.5t132 23.5v129h53v-129zM466 48q57 1 110 20.5t94 54
t65.5 83.5t24.5 110t-24.5 109.5t-65.5 82t-94 52t-110 20.5v-532zM413 580q-56 -2 -109 -20.5t-94 -52t-66 -82t-25 -109.5t25 -110t66 -83.5t94 -54t109 -20.5v532z" />
    <glyph glyph-name="Chi" unicode="&#x3a7;" horiz-adv-x="698" 
d="M80 737l268 -390l270 390h66l-291 -425l295 -421h-66l-273 386l-273 -386h-66l294 422l-290 424h66z" />
    <glyph glyph-name="Psi" unicode="&#x3a8;" horiz-adv-x="785" 
d="M721 737v-213q0 -80 -22.5 -137t-62 -94t-93.5 -54.5t-117 -19.5v-328h-57v328q-62 2 -116 20t-94 54.5t-62.5 93.5t-22.5 137v213h59v-211q0 -64 17.5 -112t49 -80t75 -48.5t94.5 -18.5v470h57v-470q51 1 94.5 17.5t75 49t49.5 80t18 112.5v211h58z" />
    <glyph glyph-name="uni03A9" unicode="&#x3a9;" horiz-adv-x="870" 
d="M93 -48h153v4q-29 30 -61 66.5t-58 82.5t-43 103.5t-17 128.5q0 91 32 167.5t84 131.5t118 86t135 31q68 0 134 -31t117.5 -86t83.5 -131.5t32 -167.5q0 -71 -17 -128.5t-43 -103.5t-57.5 -82.5t-61.5 -66.5v-4h154v-61h-239v52q33 28 68.5 64.5t65 84t49 108t19.5 136.5
t-27 141t-70 112t-98 73.5t-110 26.5q-57 0 -112 -26.5t-98.5 -73.5t-70.5 -112t-27 -141t19.5 -136.5t49.5 -108t65.5 -84t67.5 -64.5v-52h-237v61z" />
    <glyph glyph-name="alpha" unicode="&#x3b1;" horiz-adv-x="692" 
d="M312 -124q-55 0 -102 20t-81.5 60t-54.5 99t-20 137q0 83 24 147.5t64.5 108.5t92.5 67t109 23q89 0 152.5 -38t83.5 -112h2l18 135h58q-11 -66 -22.5 -137.5t-21 -140.5t-15.5 -131.5t-6 -109.5q0 -32 15 -50.5t36 -18.5q11 0 20.5 3t18.5 7l9 -55q-10 -5 -23 -9.5
t-33 -4.5q-21 0 -39 8.5t-30.5 26t-18 43.5t-1.5 61h-4q-15 -35 -40.5 -61t-56.5 -43t-65.5 -26t-68.5 -9zM322 -64q37 0 75.5 18t71 48.5t54 71t24.5 85.5l8 125q-12 63 -32 101.5t-46.5 60t-59.5 29t-71 7.5q-44 0 -86 -19.5t-74.5 -56.5t-52 -91t-19.5 -123
q0 -59 15 -106.5t42.5 -80.5t65.5 -51t85 -18z" />
    <glyph glyph-name="beta" unicode="&#x3b2;" horiz-adv-x="676" 
d="M89 482q0 64 18 116.5t50.5 89t76.5 56.5t95 20q47 0 88 -11.5t71.5 -36t48 -64t17.5 -94.5q0 -73 -30 -121t-84 -87v-6q31 -10 63.5 -28t58.5 -46t43 -67.5t17 -91.5q0 -61 -24.5 -105.5t-62.5 -73t-83 -42.5t-85 -14q-26 0 -56.5 4t-61 14t-58.5 28t-48 46
q0 -42 0.5 -80t1 -75.5t1 -75.5t0.5 -80h-57v825zM358 -74q32 0 67.5 11.5t65.5 34.5t50 58.5t20 83.5q0 44 -18 79.5t-48.5 61t-70.5 39.5t-83 14q-14 0 -34 3t-36 -1v46q67 5 110.5 24t69 46.5t35.5 60.5t10 67q0 84 -46.5 122.5t-118.5 38.5q-38 0 -71.5 -15t-59.5 -46
t-41 -78t-15 -111q0 -61 -0.5 -113t-0.5 -102v-102v-114q21 -32 49 -53t57 -33t57.5 -17t51.5 -5z" />
    <glyph glyph-name="gamma" unicode="&#x3b3;" horiz-adv-x="657" 
d="M310 -195q0 58 -13 121.5t-35 128.5t-50.5 128.5t-58.5 122t-60.5 109.5t-55.5 91l57 21q28 -45 64.5 -110t73 -139.5t68 -153.5t49.5 -152h5q39 65 75.5 133t65.5 137.5t49 140t25 140.5h58q-10 -80 -30 -152.5t-51.5 -147t-76 -155.5t-103.5 -176v-245h-56v158z" />
    <glyph glyph-name="delta" unicode="&#x3b4;" horiz-adv-x="649" 
d="M528 668q-73 32 -122 43.5t-86 11.5q-56 0 -85.5 -24.5t-29.5 -56.5q0 -30 14.5 -54t38.5 -47t54.5 -47t63.5 -53t71 -56.5t70 -60.5t53 -75.5t21 -101.5q0 -68 -21.5 -118.5t-57.5 -84.5t-84 -51t-101 -17q-42 0 -89.5 14.5t-87 46t-65.5 79.5t-26 116q0 60 23 106
t60.5 79.5t84.5 56.5t95 38q-32 27 -63.5 52.5t-56 53t-39.5 58t-15 67.5q0 55 43.5 91t130.5 36q46 0 98.5 -12t123.5 -41zM328 -65q43 0 80 13.5t64.5 40t43.5 65.5t16 91q0 45 -16.5 77t-41.5 57.5t-54.5 47.5t-55.5 47q-49 -13 -94 -33t-79 -49t-54.5 -68t-20.5 -89
q0 -53 20.5 -90.5t52 -62t69 -36t70.5 -11.5z" />
    <glyph glyph-name="epsilon" unicode="&#x3b5;" horiz-adv-x="587" 
d="M313 -124q-56 0 -102 12.5t-78.5 36t-50.5 57.5t-18 76q0 35 9.5 62t26 46.5t38.5 32t48 19.5v6q-49 20 -79 61t-30 89q0 41 19.5 71.5t52.5 50.5t77 29.5t93 9.5q55 0 109 -13t96 -38v-59q-20 15 -45.5 26t-53.5 19t-55.5 12t-50.5 4q-35 0 -68.5 -8t-59.5 -23t-42 -37
t-16 -51q0 -25 14.5 -47t40.5 -38.5t63 -26t81 -9.5h114v-55h-133q-88 0 -139.5 -33.5t-51.5 -94.5q0 -31 15 -55.5t41 -41t62.5 -25t80.5 -8.5q26 0 56 3t60 11t58.5 21t51.5 33v-65q-56 -36 -111 -48t-123 -12z" />
    <glyph glyph-name="zeta" unicode="&#x3b6;" horiz-adv-x="476" 
d="M336 -353q31 45 42 89t11 71q0 15 -5 26.5t-19 20.5t-39.5 17.5t-65.5 18.5q-41 10 -77 24t-63 42t-43 75.5t-16 125.5q0 81 33.5 158.5t83.5 147.5t107 128.5t104 101.5h-295v44h381v-49q-57 -48 -119.5 -110.5t-114.5 -132.5t-86 -145.5t-34 -150.5q0 -65 13 -103
t36.5 -59.5t55 -31.5t68.5 -18t64.5 -16t46.5 -20.5t28.5 -32t9.5 -49.5q0 -27 -11 -74.5t-42 -97.5h-54z" />
    <glyph glyph-name="eta" unicode="&#x3b7;" horiz-adv-x="668" 
d="M525 316q0 46 -8 77t-24 50t-38.5 27t-52.5 8q-37 0 -74 -8t-71.5 -26.5t-65 -48t-53.5 -72.5v-432h-56v632h54v-132h1q42 68 114 108.5t163 40.5q36 0 67 -13.5t53.5 -40.5t35.5 -67t13 -93v-679h-58v669z" />
    <glyph glyph-name="theta" unicode="&#x3b8;" horiz-adv-x="696" 
d="M348 765q71 0 123 -25.5t86 -79.5t50.5 -137.5t16.5 -198.5q0 -128 -16.5 -214t-50.5 -138t-86 -74t-123 -22t-123 22t-86 74t-50.5 138t-16.5 214q0 115 16.5 198.5t50.5 137.5t86 79.5t123 25.5zM566 352q-2 100 -15.5 169t-40.5 112t-67.5 62.5t-94.5 19.5
t-94.5 -19.5t-67.5 -62.5t-41.5 -112t-15.5 -169h437zM129 300q1 -111 15 -183.5t41 -115t67.5 -59.5t95.5 -17t95.5 17t67.5 59.5t40.5 115t14.5 183.5h-437z" />
    <glyph glyph-name="iota" unicode="&#x3b9;" horiz-adv-x="234" 
d="M166 -122q-76 0 -76 116v529h58v-537q0 -49 28 -49q8 0 19.5 1.5t21.5 6.5v-54q-10 -5 -22 -9t-29 -4z" />
    <glyph glyph-name="kappa" unicode="&#x3ba;" horiz-adv-x="600" 
d="M561 484q-63 -37 -128.5 -83.5t-123.5 -106.5q31 -58 66.5 -110.5t73 -101.5t75.5 -96t76 -95h-62q-29 35 -63 76.5t-69 88t-69.5 97t-62.5 103.5q-68 -81 -101.5 -170.5t-35.5 -194.5h-53v632h56v-378h4q32 70 86 134t114 116t118 88.5t99 51.5v-51v0z" />
    <glyph glyph-name="lambda" unicode="&#x3bb;" horiz-adv-x="656" 
d="M27 -109l272 613q-9 33 -22 70t-31 67.5t-42 51t-55 20.5q-20 0 -43.5 -6t-36.5 -15v50q15 9 36 15.5t50 6.5q36 0 63 -12t50 -39.5t45 -72t49 -108.5l267 -641h-60l-228 535h-5l-249 -535h-60z" />
    <glyph glyph-name="uni03BC" unicode="&#x3bc;" horiz-adv-x="689" 
d="M90 523h56v-396q0 -45 12.5 -82t33.5 -62.5t48.5 -39.5t56.5 -14q50 0 96 17.5t81 48.5t55.5 74.5t20.5 94.5v359h58v-549q0 -49 30 -49q8 0 18 1.5t21 6.5v-44q-9 -5 -20.5 -9t-28.5 -4q-32 0 -53.5 23t-21.5 70v46h-2q-40 -67 -107 -102.5t-144 -35.5q-20 0 -42 5
t-43 14.5t-38.5 23.5t-28.5 32v-285h-58v856z" />
    <glyph glyph-name="nu" unicode="&#x3bd;" horiz-adv-x="596" 
d="M303 -109q-24 83 -57.5 170t-72.5 170.5t-81.5 158.5t-84.5 133h66q37 -51 76 -120t75 -144.5t66 -152.5t50 -144h5q34 64 68 134.5t62 142.5t48 144t25 140h58q-10 -82 -30.5 -160t-51.5 -156t-71.5 -156t-89.5 -160h-60v0z" />
    <glyph glyph-name="xi" unicode="&#x3be;" horiz-adv-x="564" 
d="M451 -352q32 45 43 84t11 66q0 31 -34 55t-114 28q-65 3 -121.5 17.5t-98 43t-65.5 73.5t-24 108q0 49 14 86t37 63.5t54 44.5t65 29v4q-25 13 -46 28.5t-36.5 36.5t-24.5 48.5t-9 63.5q0 65 24 102.5t68 63.5h-165v44h513v-49h-213q-28 0 -58 -9.5t-54.5 -29t-40 -50
t-15.5 -73.5q0 -40 18 -70t44 -50t56.5 -30t55.5 -10h157v-52h-161q-37 0 -76.5 -8.5t-72 -29.5t-53.5 -57t-21 -90q0 -53 22 -90t60.5 -60t90.5 -33.5t111 -11.5q77 -2 122 -32.5t45 -91.5q0 -27 -10 -69.5t-42 -92.5h-56z" />
    <glyph glyph-name="omicron" unicode="&#x3bf;" horiz-adv-x="652" 
d="M326 536q69 0 122 -20.5t89.5 -56t55.5 -83.5t19 -103v-132q0 -55 -19 -103t-55.5 -83.5t-89.5 -56t-122 -20.5t-122 20.5t-89.5 56t-55.5 83.5t-19 103v132q0 55 19 103t55.5 83.5t89.5 56t122 20.5zM98 151q0 -48 15 -89t43.5 -70t71 -45.5t98.5 -16.5q55 0 98 16.5
t71.5 45.5t43.5 70t15 89v112q0 48 -15 89t-43.5 70t-71.5 45.5t-98 16.5q-56 0 -98.5 -16.5t-71 -45.5t-43.5 -70t-15 -89v-112zM326 106q-3 59 -26 81t-72 24q49 2 72 24t26 81q3 -59 25.5 -81t72.5 -24q-50 -2 -72.5 -24t-25.5 -81z" />
    <glyph glyph-name="pi" unicode="&#x3c0;" horiz-adv-x="752" 
d="M645 -124q-51 0 -73 31.5t-22 99.5v463h-341q0 -71 -3 -145t-7.5 -148t-10 -146t-11.5 -140h-58q8 69 15 142t12 147t7.5 147.5t2.5 142.5h-125v53h690v-53h-117v-470q0 -65 50 -65q7 0 21 1.5t31 5.5v-54q-13 -5 -27.5 -8.5t-33.5 -3.5z" />
    <glyph glyph-name="rho" unicode="&#x3c1;" horiz-adv-x="621" 
d="M84 224q0 86 21 146t55 98t77.5 55t88.5 17q54 0 98 -20t75 -60t48 -101t17 -142q0 -89 -21.5 -153t-55.5 -106t-76 -62t-83 -20q-47 0 -98.5 20.5t-91.5 67.5v-296h-54v556zM323 -64q34 0 66.5 17.5t58 52.5t41.5 87.5t16 123.5q0 130 -48 196t-133 66q-33 0 -66 -13
t-59.5 -44t-43 -82t-16.5 -127v-186q22 -28 46 -45.5t48 -27.5t47 -14t43 -4zM326 106q-3 59 -26 81t-72 24q49 2 72 24t26 81q3 -59 25.5 -81t72.5 -24q-50 -2 -72.5 -24t-25.5 -81z" />
    <glyph glyph-name="sigma" unicode="&#x3c3;" horiz-adv-x="632" 
d="M304 -124q-46 0 -91 18.5t-80 58t-57 101t-22 147.5q0 91 22.5 153t58.5 99.5t81 53.5t90 16h302v-43h-174v-5q54 -35 83.5 -101.5t29.5 -178.5q0 -84 -20.5 -144.5t-54.5 -99t-78 -57t-90 -18.5zM304 -65q36 0 69.5 16t59.5 48t41.5 81.5t15.5 117.5q0 60 -14 109
t-39 84t-58.5 54t-73.5 19q-36 0 -70.5 -13.5t-61 -44.5t-43 -81.5t-16.5 -123.5q0 -69 16 -119t43 -82.5t61 -48.5t70 -16zM296 106q-3 59 -26 81t-72 24q49 2 72 24t26 81q3 -59 25.5 -81t72.5 -24q-50 -2 -72.5 -24t-25.5 -81z" />
    <glyph glyph-name="tau" unicode="&#x3c4;" horiz-adv-x="624" 
d="M378 -124q-50 0 -70 31.5t-20 99.5v468h-245v48h548v-48h-245v-475q0 -34 9 -49.5t33 -15.5q12 0 29.5 3t28.5 8v-56q-12 -5 -30 -9.5t-38 -4.5z" />
    <glyph glyph-name="upsilon" unicode="&#x3c5;" horiz-adv-x="647" 
d="M313 -124q-57 0 -103.5 13.5t-79.5 43t-51 75t-18 110.5v405h56v-408q0 -51 15 -86.5t42 -58t63 -33t78 -10.5q47 0 86.5 17t67.5 51t43.5 85.5t15.5 119.5q0 78 -9.5 156.5t-38.5 166.5h56q13 -43 22.5 -82.5t16 -78.5t9.5 -79t3 -83q0 -80 -20.5 -141t-57 -101.5
t-86.5 -61t-110 -20.5z" />
    <glyph glyph-name="phi" unicode="&#x3c6;" horiz-adv-x="830" 
d="M443 532q70 -1 130.5 -22.5t105.5 -62t71 -100.5t26 -138t-26.5 -138t-72 -101.5t-106 -63.5t-128.5 -24v-236h-55v236q-68 2 -128.5 24t-106.5 63.5t-72.5 101.5t-26.5 138q0 77 26.5 136.5t72.5 100.5t106.5 62.5t128.5 23.5v152h55v-152zM443 -66q58 2 108 21.5t87 55
t58 85.5t21 113q0 62 -20 112t-56 85t-86.5 54t-111.5 21v-547zM388 481q-59 -2 -109 -21t-86.5 -54.5t-57.5 -85t-21 -111.5t21 -112t57.5 -85.5t86.5 -55.5t109 -22v547z" />
    <glyph glyph-name="chi" unicode="&#x3c7;" horiz-adv-x="653" 
d="M104 525l219 -346h4l209 346h63l-245 -415l280 -463h-55l-252 396h-4l-248 -396h-56l277 461l-248 417h56z" />
    <glyph glyph-name="psi" unicode="&#x3c8;" horiz-adv-x="893" 
d="M772 523q13 -42 22.5 -77t16 -68.5t9.5 -68.5t3 -77q0 -84 -26 -149.5t-73 -110.5t-113 -69.5t-147 -26.5v-229h-55v229q-162 2 -250.5 81t-88.5 218v348h53v-351q0 -55 19.5 -98.5t56.5 -74t90 -47t120 -17.5v756h55v-756q68 2 123.5 21.5t94.5 56.5t60 92t21 127
q0 38 -2.5 72.5t-8.5 68.5t-15.5 70.5t-22.5 79.5h58z" />
    <glyph glyph-name="omega" unicode="&#x3c9;" horiz-adv-x="906" 
d="M280 -124q-35 0 -72.5 12.5t-68 46.5t-50.5 92.5t-20 150.5q0 55 5 101.5t15.5 88t27 79.5t38.5 76h59q-24 -39 -40.5 -79.5t-27.5 -84t-16 -91t-5 -102.5q0 -72 15.5 -117t39 -70.5t51.5 -34.5t53 -9q24 0 49 8.5t45 29t33 54.5t13 85v251h58v-251q0 -51 13 -85.5
t33.5 -54.5t45 -28.5t48.5 -8.5q25 0 52.5 9t51 35t38.5 73.5t15 125.5q0 54 -4 99t-13.5 86t-25 80t-39.5 80h59q23 -40 38.5 -76.5t25 -76t13.5 -85.5t4 -104q0 -93 -18.5 -152.5t-48.5 -93.5t-67.5 -46.5t-74.5 -12.5q-26 0 -52.5 6.5t-50 20.5t-42 35t-28.5 50h-3
q-9 -29 -27.5 -50t-42 -35t-50.5 -20.5t-52 -6.5z" />
    <glyph glyph-name="uni0401" unicode="&#x401;" 
d="M279 880q0 24 16 40t40 16t40 -16t16 -40t-16 -40t-40 -16t-40 16t-16 40zM539 880q0 24 16 40t40 16t40 -16t16 -40t-16 -40t-40 -16t-40 16t-16 40zM175 737h529v-52h-471v-328h451v-52h-451v-363h187q75 0 147.5 2.5t136.5 10.5v-52q-64 -8 -139 -10.5t-150 -2.5h-240
v847z" />
    <glyph glyph-name="uni0410" unicode="&#x410;" horiz-adv-x="786" 
d="M613 119h-441l-92 -229h-60l344 847h59l343 -847h-60zM193 171h399l-199 494z" />
    <glyph glyph-name="uni0411" unicode="&#x411;" horiz-adv-x="631" 
d="M106 737h422v-42h-363v-313h154q57 0 104.5 -13.5t81.5 -42t52.5 -73t18.5 -106.5q0 -128 -66 -192t-187 -64h-217v846zM309 -58q209 0 209 203q0 94 -53.5 140t-158.5 46h-141v-389h144z" />
    <glyph glyph-name="uni0412" unicode="&#x412;" horiz-adv-x="717" 
d="M335 737q64 0 117 -12t90.5 -37t58.5 -64.5t21 -93.5q0 -69 -31 -116t-88 -73q69 -26 109 -79t40 -129q0 -55 -19.5 -99.5t-56 -76t-90 -49t-121.5 -17.5h-305v846h275zM118 685v-321h229q49 0 89 9t68.5 29t44 51.5t15.5 76.5q0 43 -16 73t-44.5 48t-68.5 26t-88 8h-229
zM118 312v-369h259q49 0 89 13t68.5 37.5t44 59.5t15.5 80q0 43 -16 76.5t-44.5 56.5t-68.5 34.5t-88 11.5h-259z" />
    <glyph glyph-name="uni0413" unicode="&#x413;" horiz-adv-x="603" 
d="M106 737h445v-51h-386v-795h-59v846z" />
    <glyph glyph-name="uni0414" unicode="&#x414;" horiz-adv-x="739" 
d="M725 -57v-290h-59v238h-584v-238h-58v290h33q10 5 21.5 23t24 55.5t25.5 97.5t27 149q10 68 18.5 122.5t16 107t15.5 109.5t17 130h426v-794h77zM270 686q-9 -63 -16.5 -115t-14 -102t-13.5 -102t-16 -113q-20 -129 -40 -203.5t-42 -107.5h461v743h-319zM400 209
q-3 59 -26 81t-72 24q49 2 72 24t26 81q3 -59 25.5 -81t72.5 -24q-50 -2 -72.5 -24t-25.5 -81z" />
    <glyph glyph-name="uni0415" unicode="&#x415;" horiz-adv-x="629" 
d="M60 737h529v-52h-471v-328h451v-52h-451v-363h187q75 0 147.5 2.5t136.5 10.5v-52q-64 -8 -139 -10.5t-150 -2.5h-240v847z" />
    <glyph glyph-name="uni0416" unicode="&#x416;" horiz-adv-x="917" 
d="M903 -109h-66l-263 420h-87v-420h-56v420h-86l-263 -420h-67l284 454l-134 213q-24 37 -39.5 62.5t-27 41.5t-21 22.5t-21.5 6.5q-5 0 -16 -1.5t-17 -4.5v60q12 6 30 6q22 0 38.5 -7.5t33.5 -26t37.5 -50t49.5 -78.5l136 -219h83v366h56v-366h83l137 219q29 47 49.5 78
t37.5 50t33.5 26.5t37.5 7.5q19 0 31 -6v-60q-5 3 -16.5 4.5t-16.5 1.5q-12 0 -22 -6.5t-21.5 -22.5t-27 -41.5t-39.5 -62.5l-134 -212z" />
    <glyph glyph-name="uni0417" unicode="&#x417;" horiz-adv-x="663" 
d="M322 749q50 0 94.5 -14.5t77.5 -40.5t52 -64t19 -86q0 -35 -13 -66.5t-35 -57t-50 -44t-59 -25.5q30 -3 67.5 -17.5t70.5 -42t55 -68.5t22 -97t-24.5 -101.5t-65.5 -78t-96.5 -50.5t-116.5 -18q-63 0 -117.5 19t-94 52t-60.5 77.5t-17 94.5h60q0 -46 18.5 -81.5t50 -60
t72.5 -37t86 -12.5q53 0 98 14t77.5 39.5t51 61.5t18.5 81q0 51 -25 88.5t-66.5 61t-95.5 33.5t-113 6v58q59 -2 104 11t75.5 36.5t46 55.5t16.5 68q1 34 -12.5 62.5t-38 48.5t-58.5 31t-74 11q-41 0 -74.5 -12t-57.5 -32.5t-38 -47.5t-16 -57h-60q0 41 19.5 77.5t53 64
t78 43.5t95.5 16z" />
    <glyph glyph-name="uni0418" unicode="&#x418;" horiz-adv-x="741" 
d="M131 -110h-71v846h58v-650q0 -32 -1.5 -66.5t-4.5 -69.5q15 26 27.5 48t29.5 48l444 690h68v-846h-58v650q0 65 6 136q-14 -26 -27 -48t-30 -48z" />
    <glyph glyph-name="uni0419" unicode="&#x419;" horiz-adv-x="741" 
d="M376 779q-45 0 -78.5 16.5t-56 42.5t-34.5 59.5t-14 66.5h51q1 -29 10 -54t25.5 -43.5t41 -29.5t55.5 -11t55.5 11t41.5 29.5t26 43.5t9 54h52q-2 -33 -14 -66.5t-34.5 -59.5t-56 -42.5t-79.5 -16.5zM131 -110h-71v846h58v-650q0 -32 -1.5 -66.5t-4.5 -69.5
q15 26 27.5 48t29.5 48l444 690h68v-846h-58v650q0 65 6 136q-14 -26 -27 -48t-30 -48z" />
    <glyph glyph-name="uni041A" unicode="&#x41a;" horiz-adv-x="644" 
d="M638 -109h-67l-304 420h-102v-420h-59v845h59v-366h103l155 219q32 45 54.5 76t40.5 50t35 27.5t38 8.5q17 0 31 -6v-60q-6 3 -17.5 4.5t-17.5 1.5q-12 0 -22 -7t-23 -23t-31 -41t-44 -62l-151 -213z" />
    <glyph glyph-name="uni041B" unicode="&#x41b;" horiz-adv-x="716" 
d="M47 -124q-11 0 -24.5 2t-26.5 8v49q8 -5 22.5 -6.5t22.5 -1.5q22 0 45.5 8.5t43 30.5t32 59t12.5 94v617h476v-845h-59v784h-362v-563q0 -74 -18 -120t-45 -72t-59 -35t-60 -9z" />
    <glyph glyph-name="uni041C" unicode="&#x41c;" horiz-adv-x="868" 
d="M828 737v-846h-58v650q0 65 6 136q-10 -28 -18.5 -56t-19.5 -55l-258 -655h-72l-258 655q-11 27 -19.5 55t-18.5 56q6 -71 6 -136v-650h-58v846h81l303 -766l303 766h81z" />
    <glyph glyph-name="uni041D" unicode="&#x41d;" horiz-adv-x="734" 
d="M616 -109v401h-498v-401h-58v846h58v-393h498v393h58v-846h-58z" />
    <glyph glyph-name="uni041E" unicode="&#x41e;" horiz-adv-x="760" 
d="M45 459q0 60 24.5 112.5t69 92t106 62.5t135.5 23t135.5 -23t106 -62.5t69 -92t24.5 -112.5v-291q0 -60 -24.5 -112.5t-69 -92t-106 -62.5t-135.5 -23t-135.5 23t-106 62.5t-69 92t-24.5 112.5v291zM103 186q0 -59 19.5 -106.5t55.5 -80.5t87.5 -51t114.5 -18t114.5 18
t87.5 51t55.5 80.5t19.5 106.5v255q0 59 -19.5 106.5t-55.5 80.5t-87.5 51t-114.5 18t-114.5 -18t-87.5 -51t-55.5 -80.5t-19.5 -106.5v-255zM380 209q-3 59 -26 81t-72 24q49 2 72 24t26 81q3 -59 25.5 -81t72.5 -24q-50 -2 -72.5 -24t-25.5 -81z" />
    <glyph glyph-name="uni041F" unicode="&#x41f;" horiz-adv-x="786" 
d="M106 736h575v-845h-60v794h-456v-794h-59v845z" />
    <glyph glyph-name="uni0420" unicode="&#x420;" horiz-adv-x="682" 
d="M60 -109v846h295q68 0 121.5 -19t90 -54.5t56 -86t19.5 -112.5t-21 -110.5t-58.5 -82t-90.5 -51t-117 -17.5h-237v-313h-58zM367 256q48 0 88 13.5t68.5 40t44.5 65.5t16 90q0 52 -15.5 93t-44 69t-68.5 43t-89 15h-249v-429h249z" />
    <glyph glyph-name="uni0421" unicode="&#x421;" horiz-adv-x="725" 
d="M685 188v-60q0 -52 -22.5 -97.5t-64 -79.5t-100.5 -53.5t-133 -19.5t-133 23t-100.5 62.5t-64 92t-22.5 112.5v291q0 60 22.5 112.5t64 92t100.5 62.5t133 23t133 -19.5t100.5 -52.5t64 -76.5t22.5 -91.5v-60h-58v42q0 97 -67 151.5t-195 54.5t-195 -68.5t-67 -187.5
v-255q0 -119 67 -187.5t195 -68.5t195 56t67 160v42h58z" />
    <glyph glyph-name="uni0422" unicode="&#x422;" horiz-adv-x="670" 
d="M304 686h-299v51h660v-51h-300v-795h-61v795z" />
    <glyph glyph-name="uni0423" unicode="&#x423;" horiz-adv-x="646" 
d="M275 124l-256 613h62l226 -545l262 545h62l-422 -876h-60z" />
    <glyph glyph-name="uni0424" unicode="&#x424;" 
d="M491 634q74 -1 135.5 -23t105.5 -62.5t68 -99t24 -133.5t-24 -134t-68 -100.5t-105.5 -64t-135.5 -23.5v-118h-53v118q-74 1 -135.5 23.5t-105 63.5t-67.5 100.5t-24 134.5t24 133.5t67.5 99t105 62.5t135.5 23v121h53v-121zM491 51q62 1 112.5 19.5t86.5 53t55.5 83.5
t19.5 109t-19.5 108t-55.5 81.5t-86.5 51.5t-112.5 19v-525zM438 576q-62 -1 -112.5 -19t-86.5 -51.5t-55.5 -81.5t-19.5 -108t19.5 -109t55.5 -83.5t86.5 -53t112.5 -19.5v525z" />
    <glyph glyph-name="uni0425" unicode="&#x425;" horiz-adv-x="698" 
d="M80 737l268 -390l270 390h66l-291 -425l295 -421h-66l-273 386l-273 -386h-66l294 422l-290 424h66z" />
    <glyph glyph-name="uni0426" unicode="&#x426;" horiz-adv-x="767" 
d="M743 -56v-291h-59v238h-578v847h59v-794h442v794h60v-794h76z" />
    <glyph glyph-name="uni0427" unicode="&#x427;" horiz-adv-x="737" 
d="M572 226q-13 -3 -34.5 -6t-46 -5t-51 -3t-48.5 -1q-60 0 -115 14t-97.5 45.5t-68 82t-25.5 124.5v260h58v-260q0 -59 21.5 -99.5t57 -65.5t81 -36.5t94.5 -11.5q21 0 46.5 1t50 3t45 4.5t32.5 5.5v459h60v-846h-60v335z" />
    <glyph glyph-name="uni0428" unicode="&#x428;" horiz-adv-x="928" 
d="M76 737h58v-794h299v794h58v-794h298v794h58v-846h-771v846z" />
    <glyph glyph-name="uni0429" unicode="&#x429;" horiz-adv-x="952" 
d="M904 -57v-291h-59v239h-769v846h58v-794h289v794h58v-794h288v794h58v-794h77z" />
    <glyph glyph-name="uni042A" unicode="&#x42a;" horiz-adv-x="745" 
d="M214 414h157q69 0 127.5 -15t101 -46t66 -79.5t23.5 -114.5q0 -67 -22.5 -117t-63.5 -83.5t-100 -50.5t-132 -17h-215v794h-114v52h172v-323zM214 362v-419h172q51 0 95.5 13t78 40t52.5 67.5t19 95.5q0 53 -19.5 91.5t-53.5 63t-78.5 36.5t-93.5 12h-172zM412 53
q-3 59 -26 81t-72 24q49 2 72 24t26 81q3 -59 25.5 -81t72.5 -24q-50 -2 -72.5 -24t-25.5 -81z" />
    <glyph glyph-name="uni042B" unicode="&#x42b;" horiz-adv-x="811" 
d="M134 737v-313h157q69 0 129 -16t104 -48t69 -81.5t25 -115.5q0 -67 -23.5 -117.5t-66.5 -85t-103.5 -52t-133.5 -17.5h-215v846h58zM708 736h60v-845h-60v845zM134 372v-429h172q51 0 97 14t81 41.5t55.5 68.5t20.5 96q0 53 -21 92.5t-56.5 65.5t-81.5 38.5t-95 12.5
h-172zM332 48q-3 59 -26 81t-72 24q49 2 72 24t26 81q3 -59 25.5 -81t72.5 -24q-50 -2 -72.5 -24t-25.5 -81z" />
    <glyph glyph-name="uni042C" unicode="&#x42c;" horiz-adv-x="622" 
d="M108 737v-213h207q69 0 121 -23.5t86.5 -65.5t52 -99t17.5 -123q0 -67 -16 -125.5t-49.5 -102t-86 -69t-125.5 -25.5h-265v846h58zM108 472v-529h222q51 0 89 21.5t63.5 58.5t38.5 86t13 104q0 53 -13.5 100t-39 82.5t-64 56t-87.5 20.5h-222zM306 98q-3 59 -26 81
t-72 24q49 2 72 24t26 81q3 -59 25.5 -81t72.5 -24q-50 -2 -72.5 -24t-25.5 -81z" />
    <glyph glyph-name="uni042D" unicode="&#x42d;" horiz-adv-x="709" 
d="M92 697q46 33 91.5 48.5t110.5 15.5q180 0 266.5 -110t86.5 -327q0 -216 -88 -327t-265 -111q-74 0 -126 11t-96 32v55q20 -10 46 -18t55 -14t59.5 -9t59.5 -3q152 0 222.5 97t72.5 282h-415v51h414q-4 78 -22.5 140t-54 106t-89 67.5t-128.5 23.5q-51 0 -102.5 -17
t-97.5 -49v56z" />
    <glyph glyph-name="uni042E" unicode="&#x42e;" horiz-adv-x="945" 
d="M295 367q5 91 28 164t62 124t94 78.5t126 27.5q75 0 133.5 -30t99 -86.5t62 -138t21.5 -184.5t-21.5 -185.5t-62 -140.5t-99 -89t-133.5 -31q-74 0 -132 30.5t-97.5 87.5t-60.5 138t-22 183h-178v-424h-59v855h59v-379h180zM605 -70q63 0 110 28.5t79 80t48 123.5t16 160
t-16 159t-48 121.5t-79 77.5t-110 27q-62 0 -109.5 -27t-79.5 -77.5t-48.5 -121.5t-16.5 -159t16.5 -160t48.5 -123.5t79.5 -80t109.5 -28.5zM610 229q-3 59 -26 81t-72 24q49 2 72 24t26 81q3 -59 25.5 -81t72.5 -24q-50 -2 -72.5 -24t-25.5 -81z" />
    <glyph glyph-name="uni042F" unicode="&#x42f;" horiz-adv-x="698" 
d="M542 -110v323h-237h-21t-21 2l-187 -325h-66l200 334q-89 21 -140.5 83t-51.5 162q0 62 19.5 111.5t56 84t90 53t121.5 18.5h295v-846h-58zM542 265v419h-249q-49 0 -89 -14t-68.5 -41.5t-44 -67.5t-15.5 -92q0 -51 16 -89.5t44.5 -64t68.5 -38t88 -12.5h249z" />
    <glyph glyph-name="uni0430" unicode="&#x430;" horiz-adv-x="637" 
d="M524 283v27q0 93 -50 132t-158 39q-50 0 -87.5 -12t-62 -32.5t-36.5 -47t-12 -56.5v-16h-58v23q0 36 16 70.5t48.5 62t80.5 44t111 16.5q266 0 266 -213v-430h-58v94q-8 -17 -29 -35.5t-51.5 -34.5t-70 -26t-82.5 -10q-56 0 -102 10.5t-79 32.5t-51.5 54t-18.5 76
q0 90 72 138.5t209 66.5zM321 204q-52 -7 -93 -17.5t-70 -28.5t-44.5 -44t-15.5 -63q0 -60 50 -90.5t143 -30.5q41 0 82.5 11t75 32.5t54.5 53t21 71.5v133z" />
    <glyph glyph-name="uni0431" unicode="&#x431;" horiz-adv-x="629" 
d="M524 744q-22 -16 -46 -23.5t-56 -14.5q-66 -13 -119 -29.5t-91 -54.5t-61.5 -105.5t-29.5 -181.5q19 29 45 50t54.5 34.5t57.5 20t55 6.5q49 0 92 -16.5t74.5 -50.5t50 -84.5t18.5 -117.5q0 -77 -21.5 -133.5t-56 -93.5t-78 -55.5t-88.5 -18.5q-57 0 -105 16.5t-83 55
t-54.5 102t-19.5 158.5q0 113 12 195t33.5 139.5t53 94.5t70 60t84 35.5t96.5 22.5q21 4 35 7.5t24.5 7.5t19.5 9t21 12zM324 -75q34 0 67.5 17t59 49t41.5 79t16 107q0 52 -13.5 92.5t-38.5 69t-59 43.5t-75 15q-21 0 -46.5 -8t-52 -24.5t-53.5 -43.5t-51 -64v-57
q0 -75 14.5 -127.5t41 -85t64.5 -47.5t85 -15zM317 58q-3 59 -26 81t-72 24q49 2 72 24t26 81q3 -59 25.5 -81t72.5 -24q-50 -2 -72.5 -24t-25.5 -81z" />
    <glyph glyph-name="uni0432" unicode="&#x432;" horiz-adv-x="560" 
d="M90 523h241q85 0 135.5 -37t50.5 -119q0 -59 -25 -91.5t-63 -46.5v-5q21 -6 41 -18t35 -31.5t24.5 -46.5t9.5 -62q0 -46 -14.5 -79t-41 -54.5t-63.5 -31.5t-83 -10h-247v632zM312 241q79 0 112.5 34t33.5 86t-32.5 85.5t-103.5 33.5h-176v-239h166zM327 -64
q77 0 115.5 35.5t38.5 98.5q0 57 -41 91.5t-120 34.5h-174v-260h181z" />
    <glyph glyph-name="uni0433" unicode="&#x433;" horiz-adv-x="493" 
d="M90 523h360v-48h-304v-584h-56v632z" />
    <glyph glyph-name="uni0434" unicode="&#x434;" horiz-adv-x="634" 
d="M614 -50v-274h-58v225h-479v-225h-55v274h21q12 7 23 21.5t21 45t19 81.5t17 132l30 293h386v-573h75zM174 220q-5 -58 -12 -101.5t-15 -76t-17 -55t-19 -37.5h370v525h-283zM330 109q-3 59 -26 81t-72 24q49 2 72 24t26 81q3 -59 25.5 -81t72.5 -24q-50 -2 -72.5 -24
t-25.5 -81z" />
    <glyph glyph-name="uni0435" unicode="&#x435;" horiz-adv-x="642" 
d="M321 -70q50 0 89.5 12.5t67 33.5t42 48t14.5 57v8h58v-18q0 -36 -18.5 -70.5t-53.5 -62t-85.5 -44t-113.5 -16.5q-67 0 -119.5 20.5t-88.5 56t-54.5 83.5t-18.5 103v132q0 55 18.5 103t54.5 83.5t88.5 56t119.5 20.5t119.5 -20.5t88.5 -56t54.5 -83.5t18.5 -103v-86h-504
v-36q0 -48 14.5 -89t43 -70t70 -45.5t95.5 -16.5zM544 263q0 48 -14.5 89t-43 70t-70 45.5t-95.5 16.5t-95.5 -16.5t-70 -45.5t-43 -70t-14.5 -89v-27h446v27z" />
    <glyph glyph-name="uni0436" unicode="&#x436;" horiz-adv-x="794" 
d="M761 -109h-65l-180 301h-94v-301h-52v301h-93l-182 -301h-63l204 336l-67 146q-28 60 -53 83.5t-47 23.5h-13.5t-14.5 -2v56q5 1 12 1h14q18 0 36.5 -6t37 -21t36.5 -40t36 -64l70 -153h87v272h52v-272h87l71 153q18 38 36 63t36.5 40t36.5 21.5t36 6.5h15t11 -1v-56
q-6 2 -14 2h-14q-21 0 -46.5 -23.5t-53.5 -83.5l-68 -145z" />
    <glyph glyph-name="uni0437" unicode="&#x437;" horiz-adv-x="531" 
d="M261 -124q-56 0 -101 8t-75 39v52q31 -21 78.5 -33.5t92.5 -12.5q37 0 69.5 10t56 28.5t37 44t13.5 56.5q0 128 -149 128h-137v55h124q75 0 112 31.5t37 85.5q0 58 -42.5 88t-110.5 30q-51 0 -94.5 -7.5t-76.5 -28.5v51q26 18 69.5 28.5t103.5 10.5q43 0 81 -10.5
t66.5 -31.5t44.5 -52t16 -72q0 -49 -23.5 -87t-64.5 -58v-6q46 -14 74.5 -52t28.5 -108q0 -42 -18 -76.5t-49 -59t-73 -38t-90 -13.5z" />
    <glyph glyph-name="uni0438" unicode="&#x438;" horiz-adv-x="659" 
d="M90 523h53v-542l372 542h54v-632h-56v542l-369 -542h-54v632z" />
    <glyph glyph-name="uni0439" unicode="&#x439;" horiz-adv-x="659" 
d="M346 651q-45 0 -78.5 15t-56 39.5t-34.5 56t-14 64.5h51q2 -57 35.5 -92.5t96.5 -35.5t97 35.5t35 92.5h52q-2 -33 -14 -64.5t-34.5 -56t-56 -39.5t-79.5 -15zM90 523h53v-542l372 542h54v-632h-56v542l-369 -542h-54v632z" />
    <glyph glyph-name="uni043A" unicode="&#x43a;" horiz-adv-x="513" 
d="M493 -109h-63l-198 301h-86v-301h-56v632h56v-272h85l94 153q23 38 40 64t32 42t29.5 23t32.5 7q7 0 14.5 -2t12.5 -4v-56q-5 2 -14 2h-15q-11 0 -19.5 -6t-18.5 -19t-22 -33.5t-30 -48.5l-92 -150z" />
    <glyph glyph-name="uni043B" unicode="&#x43b;" horiz-adv-x="603" 
d="M59 -124q-14 0 -22.5 1.5t-19.5 6.5v45q5 -2 17 -3t19 -1q32 0 54.5 20.5t22.5 77.5v500h384v-632h-57v574h-277v-453q0 -42 -9.5 -68.5t-26 -41.5t-38.5 -20.5t-47 -5.5z" />
    <glyph glyph-name="uni043C" unicode="&#x43c;" horiz-adv-x="741" 
d="M90 523h65l213 -555h5l211 555h67v-632h-55l8 534h-4l-206 -534h-47l-207 534h-5l8 -534h-53v632z" />
    <glyph glyph-name="uni043D" unicode="&#x43d;" horiz-adv-x="635" 
d="M90 523h56v-269h343v269h57v-632h-57v300h-343v-300h-56v632z" />
    <glyph glyph-name="uni043E" unicode="&#x43e;" horiz-adv-x="652" 
d="M326 536q69 0 122 -20.5t89.5 -56t55.5 -83.5t19 -103v-132q0 -55 -19 -103t-55.5 -83.5t-89.5 -56t-122 -20.5t-122 20.5t-89.5 56t-55.5 83.5t-19 103v132q0 55 19 103t55.5 83.5t89.5 56t122 20.5zM98 151q0 -48 15 -89t43.5 -70t71 -45.5t98.5 -16.5q55 0 98 16.5
t71.5 45.5t43.5 70t15 89v112q0 48 -15 89t-43.5 70t-71.5 45.5t-98 16.5q-56 0 -98.5 -16.5t-71 -45.5t-43.5 -70t-15 -89v-112zM326 106q-3 59 -26 81t-72 24q49 2 72 24t26 81q3 -59 25.5 -81t72.5 -24q-50 -2 -72.5 -24t-25.5 -81z" />
    <glyph glyph-name="uni043F" unicode="&#x43f;" horiz-adv-x="634" 
d="M90 523h455v-632h-57v584h-342v-584h-56v632z" />
    <glyph glyph-name="uni0440" unicode="&#x440;" horiz-adv-x="622" 
d="M50 -353v876h265q73 0 125.5 -25.5t86 -69t49.5 -102t16 -125.5q0 -66 -17.5 -123t-52 -99t-86.5 -65.5t-121 -23.5h-207v-243h-58zM330 -58q49 0 87.5 20.5t64 55.5t39 82.5t13.5 100.5q0 55 -13 104t-38.5 86t-63.5 58.5t-89 21.5h-222v-529h222zM306 106q-3 59 -26 81
t-72 24q49 2 72 24t26 81q3 -59 25.5 -81t72.5 -24q-50 -2 -72.5 -24t-25.5 -81z" />
    <glyph glyph-name="uni0441" unicode="&#x441;" horiz-adv-x="636" 
d="M328 536q62 0 111.5 -17t84.5 -45t53.5 -64.5t18.5 -76.5v-28h-58v18q0 33 -14.5 62.5t-41.5 51.5t-66 34.5t-88 12.5q-55 0 -97.5 -16.5t-72 -45.5t-45 -70t-15.5 -89v-112q0 -48 15.5 -89t45 -70t72 -45.5t97.5 -16.5q49 0 88 13t66 35t41.5 51t14.5 62v18h58v-28
q0 -39 -18.5 -75.5t-53.5 -65t-84.5 -45.5t-111.5 -17q-68 0 -121.5 20.5t-90.5 56t-56.5 83.5t-19.5 103v132q0 55 19.5 103t56.5 83.5t90.5 56t121.5 20.5z" />
    <glyph glyph-name="uni0442" unicode="&#x442;" horiz-adv-x="514" 
d="M228 465h-185v58h428v-58h-185v-574h-58v574z" />
    <glyph glyph-name="uni0443" unicode="&#x443;" horiz-adv-x="642" 
d="M271 -90l-256 613h62l226 -545l262 545h62l-422 -876h-60z" />
    <glyph glyph-name="uni0444" unicode="&#x444;" 
d="M437 -92q-22 -15 -48.5 -23.5t-59.5 -8.5q-56 0 -101.5 22t-78 64t-50 103.5t-17.5 141.5q0 76 19 138t52.5 105t78.5 66.5t97 23.5q31 0 57 -8.5t51 -22.5v240h57v-242q26 17 56 25t60 8q58 0 102.5 -23t74.5 -65.5t45.5 -102t15.5 -132.5q0 -81 -19 -144.5t-52.5 -107
t-78.5 -66.5t-96 -23q-26 0 -53 7t-55 24v-243h-57v244zM339 -64q26 0 49.5 5.5t49.5 28.5v478q-25 21 -51 26t-52 5q-42 0 -77.5 -20.5t-61 -57t-39.5 -86.5t-14 -108q0 -62 13 -112t38.5 -85t61.5 -54.5t83 -19.5zM597 -64q43 0 78 20t60.5 57t39.5 89t14 115
q0 57 -11.5 105t-35 83t-59 54.5t-84.5 19.5q-24 0 -50.5 -4.5t-55.5 -27.5v-480q29 -23 56.5 -27t47.5 -4zM310 109q-3 59 -26 81t-72 24q49 2 72 24t26 81q3 -59 25.5 -81t72.5 -24q-50 -2 -72.5 -24t-25.5 -81zM620 109q-3 59 -26 81t-72 24q49 2 72 24t26 81
q3 -59 25.5 -81t72.5 -24q-50 -2 -72.5 -24t-25.5 -81z" />
    <glyph glyph-name="uni0445" unicode="&#x445;" horiz-adv-x="593" 
d="M83 523l213 -285l214 285h68l-238 -316l238 -316h-68l-214 284l-213 -284h-68l237 315l-237 317h68z" />
    <glyph glyph-name="uni0446" unicode="&#x446;" horiz-adv-x="623" 
d="M600 -60v-274h-55v225h-455v632h56v-583h324v583h57v-583h73z" />
    <glyph glyph-name="uni0447" unicode="&#x447;" horiz-adv-x="562" 
d="M415 120q-31 -7 -61.5 -10.5t-67.5 -3.5q-101 0 -158.5 49t-57.5 160v208h57v-218q0 -81 44 -115.5t125 -34.5q27 0 59.5 3.5t59.5 11.5v353h57v-632h-57v229z" />
    <glyph glyph-name="uni0448" unicode="&#x448;" horiz-adv-x="793" 
d="M80 523h56v-584h232v584h56v-584h232v584h57v-632h-633v632z" />
    <glyph glyph-name="uni0449" unicode="&#x449;" horiz-adv-x="794" 
d="M786 -60v-41l-6 -233h-50v225h-650v632h56v-583h232v583h56v-583h232v583h57v-583h73z" />
    <glyph glyph-name="uni044A" unicode="&#x44a;" horiz-adv-x="687" 
d="M242 475h-199v48h257v-202h115q46 0 86 -15t69.5 -43t46 -67.5t16.5 -88.5q0 -48 -16.5 -88t-46 -68.5t-69.5 -44t-86 -15.5h-173v584zM412 -61q39 0 69.5 13t51 36t31.5 53.5t11 65.5t-11 66t-31.5 53.5t-51 35.5t-69.5 13h-112v-336h112zM429 214q3 -59 25.5 -81
t72.5 -24q-50 -2 -72.5 -24t-25.5 -81q-3 59 -26 81t-72 24q49 2 72 24t26 81z" />
    <glyph glyph-name="uni044B" unicode="&#x44b;" horiz-adv-x="666" 
d="M90 523h56v-208h102q46 0 84.5 -14.5t66.5 -42t43.5 -66.5t15.5 -88q0 -48 -15.5 -87.5t-43.5 -67.5t-66.5 -43t-84.5 -15h-158v632zM519 523h58v-632h-58v632zM247 -61q39 0 67.5 12.5t48 35t29 52.5t9.5 65t-9.5 65.5t-29 52.5t-48 34.5t-67.5 12.5h-101v-330h101z
M267 214q3 -59 25.5 -81t72.5 -24q-50 -2 -72.5 -24t-25.5 -81q-3 59 -26 81t-72 24q49 2 72 24t26 81z" />
    <glyph glyph-name="uni044C" unicode="&#x44c;" horiz-adv-x="520" 
d="M90 523h56v-208h108q46 0 85 -14.5t67 -42t43.5 -66.5t15.5 -88q0 -48 -15.5 -87.5t-43.5 -67.5t-67 -43t-85 -15h-164v632zM254 -61q39 0 67.5 12.5t48 35t29 52.5t9.5 65t-9.5 65.5t-29 52.5t-48 34.5t-67.5 12.5h-108v-330h108zM266 214q3 -59 25.5 -81t72.5 -24
q-50 -2 -72.5 -24t-25.5 -81q-3 59 -26 81t-72 24q49 2 72 24t26 81z" />
    <glyph glyph-name="uni044D" unicode="&#x44d;" horiz-adv-x="581" 
d="M87 496q44 26 88.5 35t104.5 9q52 0 99.5 -20.5t83.5 -61.5t57 -103.5t21 -147.5q0 -83 -21 -145.5t-57 -103.5t-85 -61.5t-106 -20.5q-131 0 -195 49v58q34 -23 84 -41t107 -18q48 0 87.5 18.5t68 53.5t45 85.5t17.5 114.5h-374v45h372q-4 56 -21.5 102t-45.5 79t-64 51
t-76 18q-59 0 -103.5 -10.5t-86.5 -33.5v49z" />
    <glyph glyph-name="uni044E" unicode="&#x44e;" horiz-adv-x="792" 
d="M277 239q4 84 23 142t49 93t68.5 50.5t83.5 15.5q46 0 86 -16.5t70 -55.5t47 -103t17 -158t-17 -157.5t-47 -102t-70 -55t-86 -16.5q-47 0 -87 15.5t-70 51.5t-48 95.5t-20 148.5h-130v-296h-56v632h56v-284h131zM499 -73q37 0 67 15.5t51.5 49t33 86.5t11.5 129
q0 75 -11.5 128.5t-33 87t-51.5 49t-67 15.5q-38 0 -68.5 -15.5t-53 -49t-34.5 -87t-12 -128.5q0 -76 12 -129t34.5 -86.5t53 -49t68.5 -15.5zM496 99q-3 59 -26 81t-72 24q49 2 72 24t26 81q3 -59 25.5 -81t72.5 -24q-50 -2 -72.5 -24t-25.5 -81z" />
    <glyph glyph-name="uni044F" unicode="&#x44f;" horiz-adv-x="623" 
d="M469 523v-632h-57v271h-115l-165 -271h-66l172 278q-29 7 -54 21t-43 35.5t-28.5 52t-10.5 69.5q0 49 15 82.5t41.5 54.5t63 30t80.5 9h167zM412 476h-98q-71 0 -112 -33t-41 -98q0 -64 41 -101.5t112 -37.5h98v270z" />
    <glyph glyph-name="uni0451" unicode="&#x451;" horiz-adv-x="642" 
d="M404 700q0 24 16 40t40 16t40 -16t16 -40t-16 -40t-40 -16t-40 16t-16 40zM144 700q0 24 16 40t40 16t40 -16t16 -40t-16 -40t-40 -16t-40 16t-16 40zM321 -70q50 0 89.5 12.5t67 33.5t42 48t14.5 57v8h58v-18q0 -36 -18.5 -70.5t-53.5 -62t-85.5 -44t-113.5 -16.5
q-67 0 -119.5 20.5t-88.5 56t-54.5 83.5t-18.5 103v132q0 55 18.5 103t54.5 83.5t88.5 56t119.5 20.5t119.5 -20.5t88.5 -56t54.5 -83.5t18.5 -103v-86h-504v-36q0 -48 14.5 -89t43 -70t70 -45.5t95.5 -16.5zM544 263q0 48 -14.5 89t-43 70t-70 45.5t-95.5 16.5t-95.5 -16.5
t-70 -45.5t-43 -70t-14.5 -89v-27h446v27z" />
    <glyph glyph-name="emdash" unicode="&#x2014;" 
d="M890 355v-50h-850v50h850z" />
    <glyph glyph-name="emdash" unicode="&#x2015;" 
d="M890 355v-50h-850v50h850z" />
    <glyph glyph-name="quoteleft" unicode="&#x2018;" horiz-adv-x="277" 
d="M139 562q-20 0 -36 12t-21 36q-6 26 1.5 54.5t23.5 54.5t39 46.5t49 31.5l22 -30q-30 -14 -52 -39.5t-26 -57.5q23 -2 38 -16t15 -38q0 -25 -16.5 -39.5t-36.5 -14.5z" />
    <glyph glyph-name="quoteright" unicode="&#x2019;" horiz-adv-x="277" 
d="M138 787q20 0 36 -12t21 -36q6 -26 -1.5 -54.5t-23.5 -54.5t-39 -46.5t-49 -31.5l-22 30q30 14 52 39.5t26 57.5q-23 2 -38 16t-15 38q0 25 16.5 39.5t36.5 14.5z" />
    <glyph glyph-name="quotedblleft" unicode="&#x201c;" horiz-adv-x="463" 
d="M195 562q-20 0 -36 12t-21 36q-6 26 1.5 54.5t23.5 54.5t39 46.5t49 31.5l22 -30q-30 -14 -52 -39.5t-26 -57.5q23 -2 36.5 -16t13.5 -38q0 -25 -15 -39.5t-35 -14.5zM335 562q-20 0 -36 12t-21 36q-6 26 1.5 54.5t23.5 54.5t39 46.5t49 31.5l22 -30q-30 -14 -52 -39.5
t-26 -57.5q23 -2 36.5 -16t13.5 -38q0 -25 -15 -39.5t-35 -14.5z" />
    <glyph glyph-name="quotedblright" unicode="&#x201d;" horiz-adv-x="463" 
d="M268 787q20 0 36 -12t21 -36q6 -26 -1.5 -54.5t-23.5 -54.5t-39 -46.5t-49 -31.5l-22 30q30 14 52 39.5t26 57.5q-23 2 -36.5 16t-13.5 38q0 25 15 39.5t35 14.5zM128 787q20 0 36 -12t21 -36q6 -26 -1.5 -54.5t-23.5 -54.5t-39 -46.5t-49 -31.5l-22 30q30 14 52 39.5
t26 57.5q-23 2 -36.5 16t-13.5 38q0 25 15 39.5t35 14.5z" />
    <glyph glyph-name="dagger" unicode="&#x2020;" 
d="M495 489h185v-52h-185v-546h-60v546h-185v52h185v247h60v-247z" />
    <glyph glyph-name="daggerdbl" unicode="&#x2021;" 
d="M495 489h185v-52h-185v-241h185v-52h-185v-253h-60v253h-185v52h185v241h-185v52h185v247h60v-247z" />
    <glyph glyph-name="twodotenleader" unicode="&#x2025;" horiz-adv-x="472" 
d="M118 381q20 0 36.5 -14.5t16.5 -39.5q0 -26 -16.5 -40.5t-36.5 -14.5t-36.5 14.5t-16.5 40.5q0 25 16.5 39.5t36.5 14.5zM354 381q20 0 36.5 -14.5t16.5 -39.5q0 -26 -16.5 -40.5t-36.5 -14.5t-36.5 14.5t-16.5 40.5q0 25 16.5 39.5t36.5 14.5z" />
    <glyph glyph-name="ellipsis" unicode="&#x2026;" horiz-adv-x="708" 
d="M118 381q20 0 36.5 -14.5t16.5 -39.5q0 -26 -16.5 -40.5t-36.5 -14.5t-36.5 14.5t-16.5 40.5q0 25 16.5 39.5t36.5 14.5zM354 381q20 0 36.5 -14.5t16.5 -39.5q0 -26 -16.5 -40.5t-36.5 -14.5t-36.5 14.5t-16.5 40.5q0 25 16.5 39.5t36.5 14.5zM590 381q20 0 36.5 -14.5
t16.5 -39.5q0 -26 -16.5 -40.5t-36.5 -14.5t-36.5 14.5t-16.5 40.5q0 25 16.5 39.5t36.5 14.5z" />
    <glyph glyph-name="ellipsis" unicode="&#x22ef;" horiz-adv-x="708" 
d="M118 381q20 0 36.5 -14.5t16.5 -39.5q0 -26 -16.5 -40.5t-36.5 -14.5t-36.5 14.5t-16.5 40.5q0 25 16.5 39.5t36.5 14.5zM354 381q20 0 36.5 -14.5t16.5 -39.5q0 -26 -16.5 -40.5t-36.5 -14.5t-36.5 14.5t-16.5 40.5q0 25 16.5 39.5t36.5 14.5zM590 381q20 0 36.5 -14.5
t16.5 -39.5q0 -26 -16.5 -40.5t-36.5 -14.5t-36.5 14.5t-16.5 40.5q0 25 16.5 39.5t36.5 14.5z" />
    <glyph glyph-name="perthousand" unicode="&#x2030;" 
d="M158 -122h-66l398 872h66zM20 614q0 60 23 97.5t79 37.5t79.5 -37.5t23.5 -97.5v-164q0 -60 -23.5 -97.5t-79.5 -37.5t-79 37.5t-23 97.5v164zM78 449q0 -45 11 -64.5t33 -19.5q23 0 34 19.5t11 64.5v166q0 45 -11 64.5t-34 19.5q-22 0 -33 -19.5t-11 -64.5v-166z
M420 177q0 60 23 97.5t79 37.5t79.5 -37.5t23.5 -97.5v-164q0 -60 -23.5 -97.5t-79.5 -37.5t-79 37.5t-23 97.5v164zM705 177q0 60 23 97.5t79 37.5t79.5 -37.5t23.5 -97.5v-164q0 -60 -23.5 -97.5t-79.5 -37.5t-79 37.5t-23 97.5v164zM478 12q0 -45 11 -64.5t33 -19.5
q23 0 34 19.5t11 64.5v166q0 45 -11 64.5t-34 19.5q-22 0 -33 -19.5t-11 -64.5v-166zM763 12q0 -45 11 -64.5t33 -19.5q23 0 34 19.5t11 64.5v166q0 45 -11 64.5t-34 19.5q-22 0 -33 -19.5t-11 -64.5v-166z" />
    <glyph glyph-name="minute" unicode="&#x2032;" horiz-adv-x="258" 
d="M116 796h65l-53 -268l-38 2z" />
    <glyph glyph-name="second" unicode="&#x2033;" horiz-adv-x="476" 
d="M95 795h63l-31 -267l-38 2zM259 795h65l-52 -267l-38 2z" />
    <glyph glyph-name="uni203B" unicode="&#x203b;" 
d="M465 343l383 383l33 -34l-382 -382l382 -384l-33 -34l-383 383l-384 -384l-35 34l385 385l-382 382l33 34zM465 694q20 0 36.5 -14.5t16.5 -39.5q0 -26 -16.5 -40.5t-36.5 -14.5t-36.5 14.5t-16.5 40.5q0 25 16.5 39.5t36.5 14.5zM132 364q20 0 36.5 -14.5t16.5 -39.5
q0 -26 -16.5 -40.5t-36.5 -14.5t-36.5 14.5t-16.5 40.5q0 25 16.5 39.5t36.5 14.5zM796 364q20 0 36.5 -14.5t16.5 -39.5q0 -26 -16.5 -40.5t-36.5 -14.5t-36.5 14.5t-16.5 40.5q0 25 16.5 39.5t36.5 14.5zM465 32q20 0 36.5 -14.5t16.5 -39.5q0 -26 -16.5 -40.5
t-36.5 -14.5t-36.5 14.5t-16.5 40.5q0 25 16.5 39.5t36.5 14.5z" />
    <glyph glyph-name="uni203E" unicode="&#x203e;" 
d="M965 800v-50h-1000v50h1000z" />
    <glyph glyph-name="uni203E" unicode="&#xffe3;" 
d="M965 800v-50h-1000v50h1000z" />
    <glyph glyph-name="uni2074" unicode="&#x2074;" horiz-adv-x="423" 
d="M393 365h-64v-81h-43v81h-251v32l253 340h41v-334h64v-38zM286 403v263l-194 -263h194z" />
    <glyph glyph-name="uni207F" unicode="&#x207f;" horiz-adv-x="461" 
d="M278 745q29 0 54 -8t43.5 -25.5t29 -44t10.5 -63.5v-320h-53v327q0 43 -23.5 65.5t-60.5 22.5q-48 0 -92.5 -14.5t-83.5 -36.5v-364h-52v453h52v-39q38 17 85 32t91 15z" />
    <glyph glyph-name="uni2081" unicode="&#x2081;" horiz-adv-x="375" 
d="M171 -109v408l-111 -71v42l117 74h38v-453h-44z" />
    <glyph glyph-name="uni2082" unicode="&#x2082;" horiz-adv-x="406" 
d="M44 -78l191 170q31 32 48 60.5t17 59.5q0 48 -24.5 74.5t-79.5 26.5q-56 0 -82 -33t-28 -87h-46q0 32 10.5 61t30.5 51t49 35t67 13q72 0 109.5 -37t37.5 -106q0 -36 -20 -71.5t-63 -75.5l-155 -132h95q41 0 81.5 1.5t78.5 6.5v-40q-38 -5 -80.5 -6.5t-81.5 -1.5h-155v31
z" />
    <glyph glyph-name="uni2083" unicode="&#x2083;" horiz-adv-x="404" 
d="M195 354q28 0 53 -8t43.5 -22.5t29.5 -36t11 -48.5q0 -33 -19 -58.5t-48 -39.5q17 -5 34.5 -14t32 -23t23.5 -34.5t9 -47.5q0 -32 -13.5 -57t-37 -43t-54.5 -27.5t-65 -9.5q-36 0 -66.5 11t-53 29.5t-34.5 44t-9 55.5h45q0 -24 9.5 -42.5t25.5 -31.5t37.5 -19.5
t44.5 -6.5q55 0 90.5 26t35.5 71q0 26 -13.5 44.5t-36 29.5t-51.5 15.5t-60 3.5v42q65 -2 96.5 22t33.5 60q1 35 -25.5 54.5t-67.5 20.5q-42 0 -67.5 -23t-27.5 -55h-45q1 24 12 45.5t30 37.5t44 25.5t54 9.5z" />
    <glyph glyph-name="uni2084" unicode="&#x2084;" horiz-adv-x="433" 
d="M403 -26h-66v-83h-44v83h-258v34l260 336h42v-331h66v-39zM293 13v258l-199 -258h199z" />
    <glyph glyph-name="uni20A9" unicode="&#x20a9;" horiz-adv-x="920" 
d="M817 374h83v-49h-94l-98 -429h-69l-107 429h-135l-107 -429h-69l-103 429h-98v49h86l-78 326h54l77 -326h199l81 326h51l80 -326h194l73 326h55zM409 374h111l-56 223zM257 -37l89 362h-175zM672 -37l81 362h-171z" />
    <glyph glyph-name="Euro" unicode="&#x20ac;" horiz-adv-x="730" 
d="M11 416h53v30q0 57 21 107t60.5 87.5t96 59.5t126.5 22t126.5 -18.5t96 -50t60.5 -72.5t21 -87v-57h-55v39q0 92 -64 144t-185 52t-185 -65t-64 -178v-13h282v-52h-282v-106h282v-52h-282v-19q0 -113 64 -178.5t185 -65.5t185 53.5t64 152.5v40h55v-57q0 -50 -21 -93
t-60.5 -75.5t-96 -51t-126.5 -18.5t-126.5 22t-96 59.5t-60.5 87.5t-21 107v36h-53v52h53v106h-53v52z" />
    <glyph glyph-name="uni2103" unicode="&#x2103;" 
d="M161 477q-24 0 -48.5 10t-45 28.5t-33 46t-12.5 62.5t12.5 62.5t33 46.5t45 29t48.5 10t48.5 -10t44 -29t32 -46.5t12.5 -62.5t-12.5 -62.5t-32 -46t-44 -28.5t-48.5 -10zM161 529q35 0 59 27t24 68q0 42 -24 69t-59 27t-60 -27.5t-25 -68.5q0 -20 6.5 -37.5t18 -30.5
t27 -20t33.5 -7zM845 169v-54q0 -47 -18.5 -88t-52.5 -71.5t-82.5 -48t-109.5 -17.5t-109.5 20.5t-82.5 56t-52.5 83t-18.5 101.5v262q0 54 18.5 101.5t52.5 83t82.5 56t109.5 20.5t109.5 -17.5t82.5 -47t52.5 -69t18.5 -82.5v-54h-48v38q0 87 -55 136t-160 49t-160 -61.5
t-55 -168.5v-230q0 -107 55 -168.5t160 -61.5t160 50t55 144v38h48z" />
    <glyph glyph-name="uni2109" unicode="&#x2109;" 
d="M212 477q-27 0 -54 10t-49.5 28.5t-36.5 46t-14 62.5t14 62.5t36.5 46.5t49.5 29t54 10t54 -10t49 -29t36 -46.5t14 -62.5t-14 -62.5t-36 -46t-49 -28.5t-54 -10zM212 529q19 0 36 7t29.5 20t20 30.5t7.5 37.5q0 21 -7.5 38.5t-20 30t-29.5 20t-36 7.5q-20 0 -37 -7.5
t-29.5 -20t-20 -30t-7.5 -38.5q0 -41 27.5 -68t66.5 -27zM426 -99v762h465v-47h-414v-322h388v-47h-388v-346h-51z" />
    <glyph glyph-name="uni2113" unicode="&#x2113;" horiz-adv-x="436" 
d="M428 -52q-25 -24 -60.5 -46t-83.5 -22q-34 0 -64.5 13.5t-53.5 40.5t-36.5 67t-13.5 93v7q-34 -28 -68 -50l-28 41q25 17 49 35.5t47 38.5v344q0 67 12 113.5t32 75.5t47.5 42.5t59.5 13.5q61 0 100 -44.5t39 -131.5q0 -58 -17.5 -114t-48.5 -109.5t-73 -104t-91 -96.5
v-48q0 -47 9.5 -79.5t25.5 -53t37 -29.5t44 -9q38 0 62.5 15.5t46.5 36.5zM176 227q75 81 123.5 168t48.5 183q0 69 -22.5 97.5t-57.5 28.5q-36 0 -64 -44t-28 -135v-298z" />
    <glyph glyph-name="uni2116" unicode="&#x2116;" 
d="M696 750q49 0 83 -20t54 -55t29 -82t9 -101v-130q0 -54 -9 -101t-29 -82t-54 -55t-83 -20t-82.5 20t-53.5 55t-29 82t-9 101v130q0 54 9 101t29 82t53.5 55t82.5 20zM354 92q11 -26 19 -48t16 -48q-2 35 -3 69.5t-1 65.5v606h58v-840h-72l-217 645l-35 95q2 -35 3 -69
t1 -66v-605h-58v840h73zM578 372q0 -47 6 -87t19.5 -69t36 -45t56.5 -16t57 16t36.5 45t19.5 69t6 87v110q0 48 -6 87.5t-19.5 68.5t-36.5 45t-57 16t-56.5 -16t-36 -45t-19.5 -68.5t-6 -87.5v-110zM696 328q-2 58 -15.5 79.5t-43.5 23.5q15 1 26 6.5t18 17.5t10.5 31
t4.5 48q2 -58 16 -79.5t44 -23.5q-30 -2 -44 -23.5t-16 -79.5zM528 -61h332v-51h-332v51z" />
    <glyph glyph-name="uni2121" unicode="&#x2121;" horiz-adv-x="825" 
d="M317 737h231v-50h-176v-107h168v-49h-168v-114h52q33 0 64.5 1t59.5 4v-50q-28 -4 -60.5 -5t-65.5 -1h-105v371zM586 737h56v-321h32q33 0 58 1t53 5v-50q-28 -4 -54 -5t-59 -1h-86v371zM129 687h-104v50h265v-50h-105v-321h-56v321z" />
    <glyph glyph-name="trademark" unicode="&#x2122;" horiz-adv-x="698" 
d="M646 737v-371h-55v300l-86 -300h-51l-85 299v-299h-55v371h85l81 -314l81 314h85zM129 687h-104v50h265v-50h-105v-321h-56v321z" />
    <glyph glyph-name="Omega" unicode="&#x2126;" 
d="M112 1h181v4q-29 23 -58.5 55t-53.5 73.5t-39 92t-15 110.5q0 77 24.5 142t68.5 112.5t106.5 74.5t138.5 27q75 0 137.5 -27t106.5 -74.5t68.5 -112.5t24.5 -142q0 -60 -14.5 -110.5t-38.5 -92t-54 -73.5t-60 -55v-4h183v-51h-273v44q37 24 73 55.5t64 73t45 94t17 117.5
q0 64 -20 120t-56.5 96.5t-88 64t-114.5 23.5q-64 0 -115.5 -23.5t-88 -64t-56.5 -96.5t-20 -120q0 -65 17 -117.5t45 -94t64 -73t73 -55.5v-44h-272v51z" />
    <glyph glyph-name="uni212B" unicode="&#x212b;" horiz-adv-x="786" 
d="M613 119h-441l-92 -228h-60l327 805q-21 6 -41 17t-35.5 27t-24.5 37t-9 46q0 31 14 56t36.5 42t49.5 26t54 9t54 -9t49 -26t36 -42t14 -56q0 -25 -8.5 -45.5t-23 -36t-33.5 -27t-40 -17.5l327 -806h-60zM391 737q19 0 36 6.5t29.5 18t20 27.5t7.5 34t-7.5 34t-20 27.5
t-29.5 18t-36 6.5q-39 0 -66.5 -24.5t-27.5 -61.5t27.5 -61.5t66.5 -24.5zM193 171h399l-199 494z" />
    <glyph glyph-name="onethird" unicode="&#x2153;" 
d="M748 737h58l-661 -846h-58zM204 283v404l-113 -68v42l119 72h35v-450h-41zM691 354q27 0 51.5 -8t42.5 -22.5t28.5 -35t10.5 -47.5q0 -32 -19 -59t-46 -40q16 -5 33 -14t30.5 -24t22.5 -35t9 -47q0 -30 -13 -55t-35.5 -43t-52.5 -28t-63 -10q-35 0 -64.5 11t-51.5 30
t-33.5 44t-8.5 54h44q0 -24 9 -42.5t25 -31t36 -19t43 -6.5q54 0 88 26t34 70q0 25 -13 44t-35 30.5t-50 16t-59 2.5v42q63 -2 94.5 23.5t32.5 60.5q0 33 -25 53.5t-65 20.5q-41 0 -65.5 -23t-26.5 -55h-43q0 24 11 45.5t29 37t42.5 25t52.5 9.5z" />
    <glyph glyph-name="twothirds" unicode="&#x2154;" 
d="M53 311l185 175q26 28 44.5 58.5t18.5 59.5q0 46 -24 71t-77 25q-54 0 -79 -31.5t-27 -84.5h-44q0 31 10 59.5t29 50t47.5 34t64.5 12.5q69 0 105.5 -36.5t36.5 -102.5q0 -35 -19 -69t-61 -74l-149 -137h91q39 0 78 1.5t77 6.5v-40q-39 -5 -79.5 -6t-78.5 -1h-149v29z
M787 737h59l-661 -846h-58zM711 354q27 0 51.5 -8t42.5 -22.5t28.5 -35t10.5 -47.5q0 -32 -19 -59t-46 -40q16 -5 33 -14t30.5 -24t22.5 -35t9 -47q0 -30 -13.5 -55t-36 -43t-52 -28t-62.5 -10q-35 0 -64.5 11t-51.5 30t-33.5 44t-8.5 54h44q0 -24 9 -42.5t25 -31t36 -19
t43 -6.5q54 0 88 26t34 70q0 25 -13 44t-35 30.5t-50 16t-59 2.5v42q63 -2 94 23.5t32 60.5q1 33 -24 53.5t-65 20.5q-41 0 -65.5 -23t-26.5 -55h-43q0 24 11 45.5t29 37t42.5 25t52.5 9.5z" />
    <glyph glyph-name="oneeighth" unicode="&#x215b;" 
d="M718 737h58l-661 -846h-58zM204 282v408l-113 -68v42l119 72h36v-454h-42zM520 1q0 42 24 72t72 53q-73 34 -73 98q0 27 12.5 48.5t32.5 36t46.5 22.5t53.5 8q31 0 58.5 -8t48 -22.5t32 -36t11.5 -48.5q0 -37 -22 -63.5t-60 -44.5q42 -20 68 -48t26 -67q0 -25 -12 -48.5
t-33.5 -41.5t-51.5 -29t-66 -11q-41 0 -72 11t-52 29t-32 41.5t-11 48.5zM702 135l4 -2q17 6 33 14.5t28.5 19.5t20 25.5t7.5 31.5q0 34 -31.5 55.5t-76.5 21.5q-42 0 -71.5 -21.5t-29.5 -55.5q0 -54 90 -81zM673 103l-11 2q-41 -14 -70 -39t-29 -65q0 -17 7.5 -33.5t23 -29
t38.5 -20t55 -7.5q28 0 50 7.5t37.5 20t24 29t8.5 33.5q0 20 -11 35.5t-27.5 27t-35 19t-33.5 12.5z" />
    <glyph glyph-name="threeeighths" unicode="&#x215c;" 
d="M213 757q27 0 51.5 -8t42.5 -22.5t28.5 -35.5t10.5 -48q0 -32 -19 -59t-46 -40q16 -5 33 -14t30.5 -23.5t22.5 -35t9 -46.5q0 -31 -13.5 -56t-36 -43t-52 -27.5t-62.5 -9.5q-35 0 -64.5 11t-51.5 29.5t-33.5 44t-8.5 54.5h43q0 -24 9.5 -43t25 -31.5t36 -19t43.5 -6.5
q54 0 88 26t34 71q0 25 -13 43.5t-35 30t-50 16t-59 2.5v43q63 -2 94 23t32 60q1 34 -24 54t-65 20q-42 0 -66 -23t-26 -55h-43q0 24 11 45.5t29 37.5t42.5 25.5t52.5 9.5zM748 737h58l-661 -846h-58zM530 5q0 41 24 71t71 53q-73 35 -73 98q0 27 12.5 48.5t33 36t46.5 22.5
t54 8q31 0 58.5 -8t48 -22.5t32 -36t11.5 -48.5q0 -37 -22 -63.5t-60 -44.5q41 -20 67.5 -48t26.5 -66q0 -26 -12 -49.5t-33.5 -41.5t-51.5 -29t-66 -11q-41 0 -72 11t-52 29t-32 41.5t-11 49.5zM712 138l4 -1q17 6 33 14t28.5 19.5t20 25.5t7.5 31t-8.5 31t-23.5 24.5
t-34.5 16t-41.5 5.5q-42 0 -71.5 -21.5t-29.5 -55.5q0 -55 89 -81zM683 106l-11 2q-41 -14 -70 -39t-29 -64q0 -18 7.5 -34t23 -29t38.5 -20.5t55 -7.5q28 0 50 7.5t37.5 20.5t23.5 29t8 34q0 20 -11 35t-27.5 26.5t-34.5 19t-33 12.5z" />
    <glyph glyph-name="fiveeighths" unicode="&#x215d;" 
d="M748 737h58l-661 -846h-58zM87 424q0 -23 9 -43t24.5 -35t37.5 -23.5t48 -8.5t48 9t38 25.5t25 39t9 49.5q0 25 -9.5 45.5t-25.5 35.5t-37 23.5t-43 8.5q-32 0 -56 -11t-52 -37l-30 15v217h264v-40h-221v-137q20 16 42 24.5t53 8.5t60 -11t50.5 -31t34.5 -48.5t13 -62.5
q0 -38 -13 -68t-35 -51t-51.5 -32t-63.5 -11t-63 10t-51 29t-35 47t-14 63h44zM530 3q0 42 24 72t71 53q-73 35 -73 98q0 27 12.5 48.5t33 36t46.5 22.5t54 8q31 0 58.5 -8t48 -22.5t32 -36t11.5 -48.5q0 -37 -22 -63.5t-60 -44.5q41 -20 67.5 -48t26.5 -67q0 -25 -12 -48.5
t-33.5 -41.5t-51.5 -29t-66 -11q-41 0 -72 11t-52 29t-32 41.5t-11 48.5zM712 137l4 -2q35 12 61.5 34t26.5 57q0 34 -31 55.5t-76 21.5q-42 0 -71.5 -21.5t-29.5 -55.5q0 -55 89 -81zM682 105l-11 2q-41 -14 -69.5 -39t-28.5 -65q0 -17 7.5 -33.5t22.5 -29t38.5 -20
t55.5 -7.5q28 0 50 7.5t37.5 20t23.5 29t8 33.5q0 20 -11 35.5t-27.5 27t-34.5 19t-33 12.5z" />
    <glyph glyph-name="seveneighths" unicode="&#x215e;" 
d="M748 737h58l-661 -846h-58zM196 284q2 72 14 131.5t30.5 109.5t42.5 92t51 81h-245v39h301v-33q-34 -44 -61 -87t-45.5 -92.5t-29.5 -108t-13 -132.5h-45zM526 1q0 42 24 72t71 53q-72 34 -72 98q0 27 12 48.5t32.5 36t46.5 22.5t54 8q31 0 58.5 -8t48 -22.5t32 -36
t11.5 -48.5q0 -37 -22 -63.5t-60 -44.5q41 -20 67.5 -48t26.5 -67q0 -25 -12 -48.5t-33.5 -41.5t-51.5 -29t-66 -11q-41 0 -72 11t-52 29t-32 41.5t-11 48.5zM708 135l4 -2q17 6 33 14.5t28.5 19.5t20 25.5t7.5 31.5t-8.5 31t-23.5 24.5t-34.5 16t-41.5 5.5
q-42 0 -71.5 -21.5t-29.5 -55.5q0 -55 89 -81zM679 103l-11 2q-41 -14 -70 -39t-29 -65q0 -17 7.5 -33.5t23 -29t38.5 -20t55 -7.5q28 0 50 7.5t37.5 20t23.5 29t8 33.5q0 20 -11 35.5t-27 27t-34.5 19t-33.5 12.5z" />
    <glyph glyph-name="uni2160" unicode="&#x2160;" 
d="M433 737h64v-845h-64v845z" />
    <glyph glyph-name="uni2161" unicode="&#x2161;" 
d="M297 737h64v-845h-64v845zM570 737h64v-845h-64v845z" />
    <glyph glyph-name="uni2162" unicode="&#x2162;" 
d="M160 737h64v-845h-64v845zM433 737h64v-845h-64v845zM706 737h64v-845h-64v845z" />
    <glyph glyph-name="uni2163" unicode="&#x2163;" 
d="M110 737h64v-845h-64v845zM281 737h68l223 -765h4l223 765h65l-255 -845h-71z" />
    <glyph glyph-name="uni2164" unicode="&#x2164;" 
d="M112 729h60l292 -767l293 767h60l-319 -838h-67z" />
    <glyph glyph-name="uni2165" unicode="&#x2165;" 
d="M756 -108v845h64v-845h-64zM321 -108l-255 845h65l223 -765h4l223 765h68l-257 -845h-71z" />
    <glyph glyph-name="uni2166" unicode="&#x2166;" 
d="M-31 737h68l180 -755h4l181 755h65l-212 -845h-73zM572 737h64v-845h-64v845zM802 737h64v-845h-64v845z" />
    <glyph glyph-name="uni2167" unicode="&#x2167;" 
d="M-36 737h66l120 -755h3l118 755h63l-143 -845h-81zM439 737h62v-845h-62v845zM628 737h62v-845h-62v845zM817 737h61v-845h-61v845z" />
    <glyph glyph-name="uni2168" unicode="&#x2168;" 
d="M123 737h63v-845h-63v845zM345 737l216 -380l218 380h66l-246 -425l249 -421h-66l-220 376l-221 -376h-66l249 422l-245 424h66z" />
    <glyph glyph-name="uni2169" unicode="&#x2169;" 
d="M196 737l268 -390l270 390h66l-291 -425l295 -421h-66l-273 386l-273 -386h-66l294 422l-290 424h66z" />
    <glyph glyph-name="uni2170" unicode="&#x2170;" 
d="M465 780q20 0 36.5 -14.5t16.5 -39.5q0 -26 -16.5 -40.5t-36.5 -14.5t-36.5 14.5t-16.5 40.5q0 25 16.5 39.5t36.5 14.5zM436 -109v632h58v-632h-58z" />
    <glyph glyph-name="uni2171" unicode="&#x2171;" 
d="M645 780q20 0 36.5 -14.5t16.5 -39.5q0 -26 -16.5 -40.5t-36.5 -14.5t-36.5 14.5t-16.5 40.5q0 25 16.5 39.5t36.5 14.5zM285 780q20 0 36.5 -14.5t16.5 -39.5q0 -26 -16.5 -40.5t-36.5 -14.5t-36.5 14.5t-16.5 40.5q0 25 16.5 39.5t36.5 14.5zM616 -109v632h58v-632h-58
zM256 -109v632h58v-632h-58z" />
    <glyph glyph-name="uni2172" unicode="&#x2172;" 
d="M165 780q20 0 36.5 -14.5t16.5 -39.5q0 -26 -16.5 -40.5t-36.5 -14.5t-36.5 14.5t-16.5 40.5q0 25 16.5 39.5t36.5 14.5zM465 780q20 0 36.5 -14.5t16.5 -39.5q0 -26 -16.5 -40.5t-36.5 -14.5t-36.5 14.5t-16.5 40.5q0 25 16.5 39.5t36.5 14.5zM765 780q20 0 36.5 -14.5
t16.5 -39.5q0 -26 -16.5 -40.5t-36.5 -14.5t-36.5 14.5t-16.5 40.5q0 25 16.5 39.5t36.5 14.5zM136 -109v632h58v-632h-58zM436 -109v632h58v-632h-58zM736 -109v632h58v-632h-58z" />
    <glyph glyph-name="uni2173" unicode="&#x2173;" 
d="M176 780q20 0 36.5 -14.5t16.5 -39.5q0 -26 -16.5 -40.5t-36.5 -14.5t-36.5 14.5t-16.5 40.5q0 25 16.5 39.5t36.5 14.5zM147 -109v632h58v-632h-58zM593 -109h-76l-237 632h61l214 -580l214 580h61z" />
    <glyph glyph-name="uni2174" unicode="&#x2174;" 
d="M503 -109h-76l-257 632h61l234 -580l234 580h61z" />
    <glyph glyph-name="uni2175" unicode="&#x2175;" 
d="M754 780q20 0 36.5 -14.5t16.5 -39.5q0 -26 -16.5 -40.5t-36.5 -14.5t-36.5 14.5t-16.5 40.5q0 25 16.5 39.5t36.5 14.5zM725 523h58v-632h-58v632zM161 523l214 -580l214 580h61l-237 -632h-76l-237 632h61z" />
    <glyph glyph-name="uni2176" unicode="&#x2176;" 
d="M594 780q20 0 36.5 -14.5t16.5 -39.5q0 -26 -16.5 -40.5t-36.5 -14.5t-36.5 14.5t-16.5 40.5q0 25 16.5 39.5t36.5 14.5zM794 780q20 0 36.5 -14.5t16.5 -39.5q0 -26 -16.5 -40.5t-36.5 -14.5t-36.5 14.5t-16.5 40.5q0 25 16.5 39.5t36.5 14.5zM565 523h58v-632h-58v632z
M101 523l164 -580l164 580h61l-187 -632h-76l-187 632h61zM765 523h58v-632h-58v632z" />
    <glyph glyph-name="uni2177" unicode="&#x2177;" 
d="M484 780q20 0 36.5 -14.5t16.5 -39.5q0 -26 -16.5 -40.5t-36.5 -14.5t-36.5 14.5t-16.5 40.5q0 25 16.5 39.5t36.5 14.5zM654 780q20 0 36.5 -14.5t16.5 -39.5q0 -26 -16.5 -40.5t-36.5 -14.5t-36.5 14.5t-16.5 40.5q0 25 16.5 39.5t36.5 14.5zM824 780q20 0 36.5 -14.5
t16.5 -39.5q0 -26 -16.5 -40.5t-36.5 -14.5t-36.5 14.5t-16.5 40.5q0 25 16.5 39.5t36.5 14.5zM455 523h58v-632h-58v632zM91 523l104 -580l124 580h61l-147 -632h-76l-127 632h61zM625 523h58v-632h-58v632zM795 523h58v-632h-58v632z" />
    <glyph glyph-name="uni2178" unicode="&#x2178;" 
d="M192 780q20 0 36.5 -14.5t16.5 -39.5q0 -26 -16.5 -40.5t-36.5 -14.5t-36.5 14.5t-16.5 40.5q0 25 16.5 39.5t36.5 14.5zM163 -109v632h58v-632h-58zM366 523l195 -285l195 285h62l-217 -316l217 -316h-62l-195 284l-195 -284h-62l216 315l-216 317h62z" />
    <glyph glyph-name="uni2179" unicode="&#x2179;" 
d="M251 523l213 -285l214 285h68l-238 -316l238 -316h-68l-214 284l-213 -284h-68l237 315l-237 317h68z" />
    <glyph glyph-name="arrowleft" unicode="&#x2190;" 
d="M146 305l190 -168l-32 -37l-254 230l254 230l32 -37l-190 -168h729v-50h-729z" />
    <glyph glyph-name="arrowup" unicode="&#x2191;" 
d="M438 647l-168 -190l-37 32l230 254l230 -254l-37 -32l-168 190v-729h-50v729z" />
    <glyph glyph-name="arrowright" unicode="&#x2192;" 
d="M55 355h729l-190 168l32 37l254 -230l-254 -230l-32 37l190 168h-729v50z" />
    <glyph glyph-name="arrowdown" unicode="&#x2193;" 
d="M488 743v-729l168 190l37 -32l-230 -254l-230 254l37 32l168 -190v729h50z" />
    <glyph glyph-name="arrowboth" unicode="&#x2194;" 
d="M306 137l-32 -37l-254 230l254 230l32 -37l-190 -168h698l-190 168l32 37l254 -230l-254 -230l-32 37l190 168h-698z" />
    <glyph glyph-name="arrowupdn" unicode="&#x2195;" 
d="M272 489l-37 32l230 254l230 -254l-37 -32l-168 190v-698l168 190l37 -32l-230 -254l-230 254l37 32l168 -190v698z" />
    <glyph glyph-name="uni2196" unicode="&#x2196;" 
d="M222 537l15 -254l-49 -3l-17 342l343 -17l-4 -49l-253 16l515 -516l-35 -35z" />
    <glyph glyph-name="uni2197" unicode="&#x2197;" 
d="M158 56l515 516l-253 -16l-4 49l343 17l-17 -342l-49 3l15 254l-515 -516z" />
    <glyph glyph-name="uni2198" unicode="&#x2198;" 
d="M708 106l-15 254l49 3l17 -342l-343 17l4 49l253 -16l-515 516l35 35z" />
    <glyph glyph-name="uni2199" unicode="&#x2199;" 
d="M772 587l-515 -516l253 16l4 -49l-343 -17l17 342l49 -3l-15 -254l515 516z" />
    <glyph glyph-name="arrowdblright" unicode="&#x21d2;" 
d="M853 323l-118 115h-660v50h615l-127 123l37 35l320 -323l-320 -322l-38 35l128 123h-615v49h660z" />
    <glyph glyph-name="arrowdblboth" unicode="&#x21d4;" 
d="M358 36l-38 -35l-320 322l320 323l37 -35l-127 -123h470l-127 123l37 35l320 -323l-320 -322l-38 35l128 123h-470zM863 323l-118 115h-560l-118 -115l118 -115h560z" />
    <glyph glyph-name="universal" unicode="&#x2200;" 
d="M863 736l-396 -800h-4l-396 800h56l115 -231h454l115 231h56zM464 38h2l198 418h-398z" />
    <glyph glyph-name="partialdiff" unicode="&#x2202;" 
d="M262 663q10 7 31.5 16.5t48 18t55 15t54.5 8.5q52 4 106 -8.5t100 -41.5t78.5 -75.5t40.5 -110.5q15 -125 1 -228.5t-54 -179.5t-104.5 -119.5t-150.5 -48.5q-62 -3 -109.5 9t-80.5 37t-52.5 62t-25.5 83q-8 58 8 111t49.5 95t82 70t107.5 34q47 5 89.5 -3t78.5 -25
t63 -41.5t43 -52.5h2q5 45 6 93.5t-5 90.5q-8 57 -35.5 96.5t-66 64.5t-82 34.5t-83.5 6.5q-27 -2 -57.5 -10t-57.5 -18.5t-48.5 -21.5t-31.5 -20v59zM252 104q10 -74 61.5 -111.5t151.5 -33.5q41 1 83 18.5t75.5 49t56 77t24.5 102.5q-8 39 -33 70t-59.5 52t-75 30.5
t-78.5 5.5q-51 -6 -92 -29.5t-68.5 -59t-39.5 -80t-6 -91.5z" />
    <glyph glyph-name="existential" unicode="&#x2203;" 
d="M789 702v-740h-646v49h596v298h-596v49h596v295h-596v49h646z" />
    <glyph glyph-name="gradient" unicode="&#x2207;" 
d="M83 649v35h764v-35l-351 -709h-62zM776 633h-622l308 -630h5z" />
    <glyph glyph-name="element" unicode="&#x2208;" 
d="M389 606q-59 0 -103 -19t-74.5 -52.5t-47.5 -79t-21 -98.5h674v-49h-674q4 -53 21 -98.5t47.5 -79t74.5 -52.5t103 -19h428v-49h-428q-72 0 -127.5 25t-93 68.5t-57 102t-19.5 126.5t19.5 127t57 102.5t93 68.5t127.5 25h428v-49h-428z" />
    <glyph glyph-name="suchthat" unicode="&#x220b;" 
d="M113 605v49h428q72 0 127.5 -25t93 -68.5t57 -102.5t19.5 -127t-19.5 -126.5t-57 -102t-93 -68.5t-127.5 -25h-428v49h428q59 0 103 19t74.5 52.5t47 79t21.5 98.5h-674v49h674q-5 53 -21.5 98.5t-47 79t-74.5 52.5t-103 19h-428z" />
    <glyph glyph-name="product" unicode="&#x220f;" 
d="M186 737h559v-1090h-63v1037h-436v-1037h-60v1090z" />
    <glyph glyph-name="summation" unicode="&#x2211;" 
d="M233 -301h530v-52h-596v55l311 484l-293 495v56h537v-52h-470v-5l295 -494l-314 -481v-6z" />
    <glyph glyph-name="radical" unicode="&#x221a;" 
d="M965 830v-38h-409l-291 -900h-30l-136 327l-71 -91l-25 18l131 166l121 -303l264 821h446z" />
    <glyph glyph-name="proportional" unicode="&#x221d;" 
d="M534 351q17 -36 39.5 -66.5t49.5 -52.5t57 -34t62 -12q9 0 22.5 0.5t28 2t27.5 3.5t20 5v-53q-18 -8 -48 -11.5t-51 -3.5q-39 0 -74.5 14t-65.5 38t-54 56t-40 68q-17 -36 -38 -68t-47 -56t-58.5 -38t-71.5 -14q-32 0 -67 14t-64.5 42t-48.5 69.5t-19 96.5t19 97t48.5 70
t64.5 42t67 14q39 0 71.5 -14t58.5 -38t47 -56t38 -68q16 36 40 68t54 56t65.5 38t74.5 14q21 0 51 -3t48 -11v-53q-7 3 -20 4.5t-27.5 3t-28 2t-22.5 0.5q-32 0 -62 -12t-57 -34t-49.5 -52.5t-39.5 -67.5zM157 351q0 -40 11.5 -70.5t30.5 -51.5t43 -32t50 -11q64 0 109 46
t78 119q-33 75 -78 120.5t-109 45.5q-26 0 -50 -11t-43 -32t-30.5 -52t-11.5 -71z" />
    <glyph glyph-name="infinity" unicode="&#x221e;" 
d="M465 396q17 36 38 67.5t47.5 55.5t59 38t71.5 14q32 0 67.5 -14t65 -41.5t49 -69t19.5 -96.5t-19.5 -96.5t-49 -69t-65 -41.5t-67.5 -14q-39 0 -71.5 14t-59 38t-47.5 55.5t-38 66.5q-17 -35 -38 -66.5t-47.5 -55.5t-59 -38t-71.5 -14q-32 0 -67.5 14t-65 41.5t-48.5 69
t-19 96.5t19 96.5t48.5 69t65 41.5t67.5 14q39 0 71.5 -14t59 -38t47.5 -55.5t38 -67.5zM106 350q0 -40 13 -70.5t33 -51.5t45.5 -31.5t51.5 -10.5q32 0 58.5 12t48.5 33.5t40.5 52t35.5 66.5q-17 37 -35.5 67t-40.5 52t-48.5 34t-58.5 12q-26 0 -51.5 -10.5t-45.5 -31.5
t-33 -52t-13 -71zM497 350q17 -36 36 -66.5t41.5 -52t49 -33.5t58.5 -12q25 0 50.5 10.5t46.5 31.5t34 51.5t13 70.5t-13 71t-34 52t-46.5 31.5t-50.5 10.5q-32 0 -58.5 -12t-49 -34t-41.5 -52t-36 -67z" />
    <glyph glyph-name="angle" unicode="&#x2220;" 
d="M187 29h653v-49h-770v4l657 727l34 -35l-574 -644v-3z" />
    <glyph glyph-name="uni2225" unicode="&#x2225;" horiz-adv-x="678" 
d="M160 -109v846h58v-846h-58zM460 -109v846h58v-846h-58z" />
    <glyph glyph-name="logicaland" unicode="&#x2227;" 
d="M464 634l-341 -698h-56l396 800h4l396 -800h-56l-341 698h-2z" />
    <glyph glyph-name="logicalor" unicode="&#x2228;" 
d="M466 38l341 698h56l-396 -800h-4l-396 800h56l341 -698h2z" />
    <glyph glyph-name="intersection" unicode="&#x2229;" 
d="M142 397q0 72 22 133.5t64 107t102 71t135 25.5t135 -25.5t102 -71t64 -107t22 -133.5v-459h-58v459q0 62 -17 114.5t-50.5 91t-83 60t-114.5 21.5t-114.5 -21.5t-83 -60t-50.5 -91t-17 -114.5v-459h-58v459v0z" />
    <glyph glyph-name="union" unicode="&#x222a;" 
d="M788 275q0 -72 -22 -133.5t-64 -107t-102 -71t-135 -25.5t-135 25.5t-102 71t-64 107t-22 133.5v459h58v-459q0 -62 17 -114.5t50.5 -91t83 -60t114.5 -21.5t114.5 21.5t83 60t50.5 91t17 114.5v459h58v-459v0z" />
    <glyph glyph-name="integral" unicode="&#x222b;" 
d="M508 530q13 73 30.5 118.5t39 70.5t46.5 34t53 9q20 0 35 -3v-48q-14 3 -32 3t-34.5 -5t-31 -24t-27.5 -56t-25 -101l-118 -649q-13 -73 -30.5 -118.5t-39 -70.5t-46.5 -34t-53 -9q-20 0 -35 3v48q13 -3 32 -3q18 0 34.5 5t31 24t27.5 56t25 101z" />
    <glyph glyph-name="uni222C" unicode="&#x222c;" 
d="M312 530q13 73 30.5 118.5t39 70.5t46.5 34t53 9q20 0 35 -3v-48q-14 3 -32 3t-34.5 -5t-31 -24t-27.5 -56t-25 -101l-118 -649q-13 -73 -30.5 -118.5t-39 -70.5t-46.5 -34t-53 -9q-20 0 -35 3v48q13 -3 32 -3q18 0 34.5 5t31 24t27.5 56t25 101zM682 530
q13 73 30.5 118.5t39 70.5t46.5 34t53 9q20 0 35 -3v-48q-14 3 -32 3t-34.5 -5t-31 -24t-27.5 -56t-25 -101l-118 -649q-13 -73 -30.5 -118.5t-39 -70.5t-46.5 -34t-53 -9q-20 0 -35 3v48q13 -3 32 -3q18 0 34.5 5t31 24t27.5 56t25 101z" />
    <glyph glyph-name="uni222E" unicode="&#x222e;" 
d="M472 32l-28 -153q-13 -73 -30.5 -118.5t-39 -70.5t-46.5 -34t-53 -9q-20 0 -35 3v48q13 -3 32 -3q18 0 34.5 5t31 24t27.5 56t25 101l29 158h-2q-28 10 -51.5 27.5t-41 41.5t-27 53t-9.5 61q0 40 14.5 75t40 61t60.5 41t75 15l9 -1l21 117q13 73 30.5 118.5t39 70.5
t46.5 34t53 9q20 0 35 -3v-48q-14 3 -32 3t-34.5 -5t-31 -24t-27.5 -56t-25 -101l-22 -120h5q60 -19 97.5 -69.5t37.5 -116.5q0 -43 -15.5 -78.5t-42 -60.5t-62.5 -39t-77 -14zM426 79l53 293l-7 1q-31 0 -57.5 -12t-46 -33t-30.5 -48.5t-11 -57.5q0 -49 27.5 -87.5
t69.5 -55.5h2zM490 71q32 0 59.5 11.5t48 31.5t32 48t11.5 60q0 51 -28.5 89.5t-73.5 55.5l-6 1l-54 -296z" />
    <glyph glyph-name="therefore" unicode="&#x2234;" 
d="M465 640q20 0 36.5 -14.5t16.5 -39.5q0 -26 -16.5 -40.5t-36.5 -14.5t-36.5 14.5t-16.5 40.5q0 25 16.5 39.5t36.5 14.5zM207 172q20 0 36.5 -14.5t16.5 -39.5q0 -26 -16.5 -40.5t-36.5 -14.5t-36.5 14.5t-16.5 40.5q0 25 16.5 39.5t36.5 14.5zM723 172q20 0 36.5 -14.5
t16.5 -39.5q0 -26 -16.5 -40.5t-36.5 -14.5t-36.5 14.5t-16.5 40.5q0 25 16.5 39.5t36.5 14.5z" />
    <glyph glyph-name="uni2235" unicode="&#x2235;" 
d="M723 531q-20 0 -36.5 14.5t-16.5 39.5q0 26 16.5 40.5t36.5 14.5t36.5 -14.5t16.5 -40.5q0 -25 -16.5 -39.5t-36.5 -14.5zM207 531q-20 0 -36.5 14.5t-16.5 39.5q0 26 16.5 40.5t36.5 14.5t36.5 -14.5t16.5 -40.5q0 -25 -16.5 -39.5t-36.5 -14.5zM465 63
q-20 0 -36.5 14.5t-16.5 39.5q0 26 16.5 40.5t36.5 14.5t36.5 -14.5t16.5 -40.5q0 -25 -16.5 -39.5t-36.5 -14.5z" />
    <glyph glyph-name="similar" unicode="&#x223c;" 
d="M584 221q-27 0 -52.5 11.5t-44.5 25.5l-37 26q-27 20 -53 39.5t-55 19.5q-27 0 -53 -20t-52 -65l-40 21q27 58 67.5 88.5t81.5 30.5q35 0 63.5 -15.5t54.5 -35.5l42 -33q19 -15 38.5 -26.5t42.5 -11.5q30 0 55 21t50 66l40 -22q-27 -57 -67.5 -88.5t-80.5 -31.5z" />
    <glyph glyph-name="similar" unicode="&#xff5e;" 
d="M584 221q-27 0 -52.5 11.5t-44.5 25.5l-37 26q-27 20 -53 39.5t-55 19.5q-27 0 -53 -20t-52 -65l-40 21q27 58 67.5 88.5t81.5 30.5q35 0 63.5 -15.5t54.5 -35.5l42 -33q19 -15 38.5 -26.5t42.5 -11.5q30 0 55 21t50 66l40 -22q-27 -57 -67.5 -88.5t-80.5 -31.5z" />
    <glyph glyph-name="similar" unicode="&#x301c;" 
d="M584 221q-27 0 -52.5 11.5t-44.5 25.5l-37 26q-27 20 -53 39.5t-55 19.5q-27 0 -53 -20t-52 -65l-40 21q27 58 67.5 88.5t81.5 30.5q35 0 63.5 -15.5t54.5 -35.5l42 -33q19 -15 38.5 -26.5t42.5 -11.5q30 0 55 21t50 66l40 -22q-27 -57 -67.5 -88.5t-80.5 -31.5z" />
    <glyph glyph-name="uni223D" unicode="&#x223d;" 
d="M442 351q20 34 45 66t54.5 56.5t64.5 39t76 14.5q34 0 65 -12t54.5 -36.5t37.5 -61t14 -84.5t-15.5 -84.5t-41 -60.5t-58.5 -36.5t-67 -12.5q-41 0 -76 13v46q14 -5 36.5 -7t40.5 -2q24 0 46.5 9.5t39.5 27.5t27.5 45t10.5 62q0 71 -33 108t-81 37q-33 0 -62 -12t-55 -34
t-48.5 -51.5t-43.5 -65.5q-20 -35 -45 -66.5t-54.5 -56t-64.5 -39t-75 -14.5q-34 0 -65 12.5t-54.5 36.5t-37.5 60.5t-14 84.5t17 84.5t44.5 61t61.5 36.5t69 12q20 0 39 -2.5t36 -9.5v-46q-13 5 -35.5 7t-40.5 2q-24 0 -48.5 -9.5t-43.5 -28t-31 -45.5t-12 -62
q0 -70 33 -107t82 -37q33 0 62 12t54.5 33.5t48.5 51.5t43 65z" />
    <glyph glyph-name="uni2252" unicode="&#x2252;" 
d="M267 624q0 26 19 44.5t45 18.5t45 -18.5t19 -44.5q0 -27 -19 -45.5t-45 -18.5t-45 18.5t-19 45.5zM763 468v-46h-596v46h596zM763 265v-46h-596v46h596zM535 53q0 27 19 45.5t45 18.5t45 -18.5t19 -45.5q0 -26 -19 -45t-45 -19t-45 19t-19 45z" />
    <glyph glyph-name="notequal" unicode="&#x2260;" 
d="M521 418l-62 -175h294v-49h-311l-72 -195l-47 17l65 178h-211v49h229l63 175h-292v49h310l70 191l47 -17l-65 -174h214v-49h-232z" />
    <glyph glyph-name="equivalence" unicode="&#x2261;" 
d="M763 580v-48h-596v48h596zM763 365v-47h-596v47h596zM763 150v-47h-596v47h596z" />
    <glyph glyph-name="lessequal" unicode="&#x2264;" 
d="M172 470l583 244v-56l-538 -227v-4l538 -227v-55l-583 243v82zM773 22v-48h-624v48h624z" />
    <glyph glyph-name="greaterequal" unicode="&#x2265;" 
d="M175 145v55l538 227v4l-538 227v56l583 -244v-82zM781 -26h-624v48h624v-48z" />
    <glyph glyph-name="propersubset" unicode="&#x2282;" 
d="M428 28q-72 0 -131 21.5t-100 61.5t-63.5 95.5t-22.5 123.5t22.5 125.5t63.5 99t100 65t131 23.5h388v-49h-388q-62 0 -112 -19.5t-84.5 -54.5t-53 -83.5t-18.5 -106.5q0 -57 18.5 -104t53 -80t84.5 -51t112 -18h388v-49h-388v0z" />
    <glyph glyph-name="propersuperset" unicode="&#x2283;" 
d="M114 28v49h388q62 0 112 18t84.5 51t53 80t18.5 104q0 58 -18.5 106.5t-53 83.5t-84.5 54.5t-112 19.5h-388v49h388q72 0 131 -23.5t100 -65t63.5 -99t22.5 -125.5t-22.5 -123.5t-63.5 -95.5t-100 -61.5t-131 -21.5h-388z" />
    <glyph glyph-name="reflexsubset" unicode="&#x2286;" 
d="M428 179q-145 0 -226 67t-81 195q0 64 21 115t60.5 86t96.5 53.5t129 18.5h388v-49h-388q-125 0 -191.5 -57.5t-66.5 -166.5q0 -108 66.5 -160.5t191.5 -52.5h388v-49h-388zM815 20v-50h-644v50h644z" />
    <glyph glyph-name="reflexsuperset" unicode="&#x2287;" 
d="M114 179v49h388q125 0 191.5 52.5t66.5 160.5q0 109 -66.5 166.5t-191.5 57.5h-388v49h388q72 0 129 -18.5t96.5 -53.5t60.5 -86t21 -115q0 -128 -81 -195t-226 -67h-388zM759 -30h-644v50h644v-50z" />
    <glyph glyph-name="uni2299" unicode="&#x2299;" 
d="M465 -39q-77 0 -144 29t-117.5 79.5t-79.5 117.5t-29 144q0 76 29 143.5t79.5 118t117.5 79.5t144 29q76 0 143.5 -29t118 -79.5t79.5 -118t29 -143.5q0 -77 -29 -144t-79.5 -117.5t-118 -79.5t-143.5 -29zM144 331q0 -66 25.5 -124.5t69 -102t102 -69t124.5 -25.5
t124.5 25.5t102 69t69 102t25.5 124.5t-25.5 124.5t-69 102t-102 69t-124.5 25.5t-124.5 -25.5t-102 -69t-69 -102t-25.5 -124.5zM529 331q0 -27 -19 -45.5t-45 -18.5q-27 0 -45.5 18.5t-18.5 45.5t18.5 46t45.5 19q26 0 45 -19t19 -46z" />
    <glyph glyph-name="uni2299" unicode="&#x25c9;" 
d="M465 -39q-77 0 -144 29t-117.5 79.5t-79.5 117.5t-29 144q0 76 29 143.5t79.5 118t117.5 79.5t144 29q76 0 143.5 -29t118 -79.5t79.5 -118t29 -143.5q0 -77 -29 -144t-79.5 -117.5t-118 -79.5t-143.5 -29zM144 331q0 -66 25.5 -124.5t69 -102t102 -69t124.5 -25.5
t124.5 25.5t102 69t69 102t25.5 124.5t-25.5 124.5t-69 102t-102 69t-124.5 25.5t-124.5 -25.5t-102 -69t-69 -102t-25.5 -124.5zM529 331q0 -27 -19 -45.5t-45 -18.5q-27 0 -45.5 18.5t-18.5 45.5t18.5 46t45.5 19q26 0 45 -19t19 -46z" />
    <glyph glyph-name="perpendicular" unicode="&#x22a5;" 
d="M874 54v-49h-818v49h384v582h50v-582h384z" />
    <glyph glyph-name="uni2312" unicode="&#x2312;" 
d="M465 784q101 0 193 -31t175 -90v-56q-167 129 -368 129q-202 0 -368 -129v56q83 59 175 90t193 31z" />
    <glyph glyph-name="uni2460" unicode="&#x2460;" 
d="M465 -136q-93 0 -175 35.5t-143 96.5t-96.5 143t-35.5 175t35.5 175t96.5 143t143 96.5t175 35.5t175 -35.5t143 -96.5t96.5 -143t35.5 -175t-35.5 -175t-96.5 -143t-143 -96.5t-175 -35.5zM63 314q0 -83 31.5 -156.5t86 -128t128 -86t156.5 -31.5t156.5 31.5t128 86
t86 128t31.5 156.5t-31.5 156.5t-86 128t-128 86t-156.5 31.5t-156.5 -31.5t-128 -86t-86 -128t-31.5 -156.5zM452 118v375l-108 -63v44l115 67h38v-423h-45z" />
    <glyph glyph-name="uni2461" unicode="&#x2461;" 
d="M465 -136q-93 0 -175 35.5t-143 96.5t-96.5 143t-35.5 175t35.5 175t96.5 143t143 96.5t175 35.5t175 -35.5t143 -96.5t96.5 -143t35.5 -175t-35.5 -175t-96.5 -143t-143 -96.5t-175 -35.5zM63 314q0 -83 31.5 -156.5t86 -128t128 -86t156.5 -31.5t156.5 31.5t128 86
t86 128t31.5 156.5t-31.5 156.5t-86 128t-128 86t-156.5 31.5t-156.5 -31.5t-128 -86t-86 -128t-31.5 -156.5zM324 151l177 162q31 29 45.5 54t14.5 52q0 42 -22.5 64t-70.5 22q-50 0 -73.5 -28.5t-25.5 -76.5h-47q0 30 9.5 56.5t28.5 46.5t46 32t63 12q66 0 101.5 -33.5
t35.5 -96.5q0 -33 -18 -65t-59 -68l-138 -124h81q38 0 76 1t74 5v-40q-36 -5 -75 -6.5t-77 -1.5h-146v33z" />
    <glyph glyph-name="uni2462" unicode="&#x2462;" 
d="M465 -136q-93 0 -175 35.5t-143 96.5t-96.5 143t-35.5 175t35.5 175t96.5 143t143 96.5t175 35.5t175 -35.5t143 -96.5t96.5 -143t35.5 -175t-35.5 -175t-96.5 -143t-143 -96.5t-175 -35.5zM63 314q0 -83 31.5 -156.5t86 -128t128 -86t156.5 -31.5t156.5 31.5t128 86
t86 128t31.5 156.5t-31.5 156.5t-86 128t-128 86t-156.5 31.5t-156.5 -31.5t-128 -86t-86 -128t-31.5 -156.5zM462 546q27 0 50.5 -7.5t41 -21t27.5 -33t10 -43.5q0 -29 -17.5 -53.5t-40.5 -37.5q15 -5 30.5 -14t28 -22.5t20.5 -31.5t8 -42q0 -29 -13 -52.5t-34.5 -40
t-50.5 -25.5t-61 -9q-33 0 -61.5 10t-49.5 28t-32 42t-9 52h45q0 -22 8.5 -39t23.5 -28.5t34 -17.5t40 -6q50 0 82 23t32 63q0 22 -12.5 38.5t-33 26.5t-47.5 14t-57 2v44q30 -1 52.5 5t37.5 16.5t23 24.5t8 30q1 29 -23 46.5t-60 17.5q-38 0 -60.5 -20.5t-24.5 -49.5h-46
q0 23 10.5 43t28 35t41.5 24t51 9z" />
    <glyph glyph-name="uni2463" unicode="&#x2463;" 
d="M465 -136q-93 0 -175 35.5t-143 96.5t-96.5 143t-35.5 175t35.5 175t96.5 143t143 96.5t175 35.5t175 -35.5t143 -96.5t96.5 -143t35.5 -175t-35.5 -175t-96.5 -143t-143 -96.5t-175 -35.5zM63 314q0 -83 31.5 -156.5t86 -128t128 -86t156.5 -31.5t156.5 31.5t128 86
t86 128t31.5 156.5t-31.5 156.5t-86 128t-128 86t-156.5 31.5t-156.5 -31.5t-128 -86t-86 -128t-31.5 -156.5zM612 191h-61v-77h-45v77h-236v31l240 319h41v-311h61v-39zM506 230v236q-45 -61 -87.5 -117t-88.5 -119h176z" />
    <glyph glyph-name="uni2464" unicode="&#x2464;" 
d="M465 -136q-93 0 -175 35.5t-143 96.5t-96.5 143t-35.5 175t35.5 175t96.5 143t143 96.5t175 35.5t175 -35.5t143 -96.5t96.5 -143t35.5 -175t-35.5 -175t-96.5 -143t-143 -96.5t-175 -35.5zM63 314q0 -83 31.5 -156.5t86 -128t128 -86t156.5 -31.5t156.5 31.5t128 86
t86 128t31.5 156.5t-31.5 156.5t-86 128t-128 86t-156.5 31.5t-156.5 -31.5t-128 -86t-86 -128t-31.5 -156.5zM350 252q0 -20 8.5 -38.5t23.5 -32t35.5 -21.5t44.5 -8t44.5 8.5t35.5 23t23.5 34.5t8.5 44q0 22 -9 41t-24 32.5t-34.5 21t-40.5 7.5q-29 0 -52 -11t-49 -34
l-33 15v203h257v-42h-211v-119q19 14 39.5 20.5t48.5 6.5q31 0 59 -10t49 -28.5t33.5 -44.5t12.5 -58q0 -36 -12.5 -64t-34 -47.5t-50 -30t-61.5 -10.5t-61.5 9.5t-49.5 28t-33.5 45t-13.5 59.5h46z" />
    <glyph glyph-name="uni2465" unicode="&#x2465;" 
d="M465 -136q-93 0 -175 35.5t-143 96.5t-96.5 143t-35.5 175t35.5 175t96.5 143t143 96.5t175 35.5t175 -35.5t143 -96.5t96.5 -143t35.5 -175t-35.5 -175t-96.5 -143t-143 -96.5t-175 -35.5zM63 314q0 -83 31.5 -156.5t86 -128t128 -86t156.5 -31.5t156.5 31.5t128 86
t86 128t31.5 156.5t-31.5 156.5t-86 128t-128 86t-156.5 31.5t-156.5 -31.5t-128 -86t-86 -128t-31.5 -156.5zM465 111q-35 0 -64 10t-51 28.5t-34 44t-12 55.5v171q0 30 12 53.5t33 40t49.5 25t61.5 8.5q70 0 110.5 -36t40.5 -96l-46 5q0 45 -31 65.5t-74 20.5
q-21 0 -41 -5.5t-35.5 -16t-24.5 -26t-9 -36.5v-61q22 21 54.5 31t60.5 10q32 0 61 -9t51 -26.5t35 -42.5t13 -58v-15q0 -32 -12 -57.5t-33.5 -44t-51 -28.5t-63.5 -10zM350 248q0 -26 11 -44t27.5 -29.5t37 -17t39.5 -5.5t39.5 5.5t37 17t27 29.5t10.5 44v18
q0 26 -10.5 44.5t-27 30t-37 16.5t-39.5 5t-39.5 -5t-37 -16.5t-27.5 -30t-11 -44.5v-18zM465 202q-2 28 -12 39t-33 13q21 2 31.5 12t13.5 35q2 -25 12.5 -35t30.5 -12q-22 -2 -31.5 -13t-11.5 -39z" />
    <glyph glyph-name="uni2466" unicode="&#x2466;" 
d="M465 -136q-93 0 -175 35.5t-143 96.5t-96.5 143t-35.5 175t35.5 175t96.5 143t143 96.5t175 35.5t175 -35.5t143 -96.5t96.5 -143t35.5 -175t-35.5 -175t-96.5 -143t-143 -96.5t-175 -35.5zM63 314q0 -83 31.5 -156.5t86 -128t128 -86t156.5 -31.5t156.5 31.5t128 86
t86 128t31.5 156.5t-31.5 156.5t-86 128t-128 86t-156.5 31.5t-156.5 -31.5t-128 -86t-86 -128t-31.5 -156.5zM425 118q2 67 13 122t28 100.5t39.5 84.5t48.5 75h-230v41h291v-32q-33 -41 -58.5 -80.5t-43.5 -85.5t-28 -100.5t-12 -124.5h-48z" />
    <glyph glyph-name="uni2467" unicode="&#x2467;" 
d="M465 -136q-93 0 -175 35.5t-143 96.5t-96.5 143t-35.5 175t35.5 175t96.5 143t143 96.5t175 35.5t175 -35.5t143 -96.5t96.5 -143t35.5 -175t-35.5 -175t-96.5 -143t-143 -96.5t-175 -35.5zM63 314q0 -83 31.5 -156.5t86 -128t128 -86t156.5 -31.5t156.5 31.5t128 86
t86 128t31.5 156.5t-31.5 156.5t-86 128t-128 86t-156.5 31.5t-156.5 -31.5t-128 -86t-86 -128t-31.5 -156.5zM308 234q0 71 87 114q-30 16 -48 39.5t-18 51.5q0 25 12 45t32 34t45 21.5t52 7.5q31 0 57.5 -7.5t46 -21.5t30.5 -34t11 -45q0 -32 -20.5 -58t-54.5 -42
q38 -18 62.5 -44t24.5 -61q0 -24 -11.5 -46t-32 -38.5t-49.5 -26.5t-64 -10q-40 0 -70 10t-50.5 26.5t-31 38.5t-10.5 46zM486 357q33 11 58 30.5t25 51.5q0 30 -28.5 48.5t-70.5 18.5q-39 0 -67 -18.5t-28 -48.5q0 -26 19.5 -43t64.5 -30zM454 325l-9 2
q-38 -11 -64.5 -33.5t-26.5 -59.5q0 -31 28 -55.5t88 -24.5q52 0 81.5 24.5t29.5 55.5q0 17 -10.5 30.5t-25.5 24t-32.5 17.5t-31.5 12z" />
    <glyph glyph-name="uni2468" unicode="&#x2468;" 
d="M465 -136q-93 0 -175 35.5t-143 96.5t-96.5 143t-35.5 175t35.5 175t96.5 143t143 96.5t175 35.5t175 -35.5t143 -96.5t96.5 -143t35.5 -175t-35.5 -175t-96.5 -143t-143 -96.5t-175 -35.5zM63 314q0 -83 31.5 -156.5t86 -128t128 -86t156.5 -31.5t156.5 31.5t128 86
t86 128t31.5 156.5t-31.5 156.5t-86 128t-128 86t-156.5 31.5t-156.5 -31.5t-128 -86t-86 -128t-31.5 -156.5zM460 547q34 0 63.5 -10t51.5 -28.5t34 -44t12 -55.5v-171q0 -30 -12 -53.5t-33 -40t-49.5 -25t-61.5 -8.5q-70 0 -110.5 36t-40.5 96l46 -5q0 -45 31 -65.5
t74 -20.5q21 0 41 5t35.5 15.5t24.5 26.5t9 37v61q-22 -21 -54.5 -31.5t-60.5 -10.5q-32 0 -61 9t-51 26.5t-35 43t-13 58.5v15q0 31 12 57t33.5 44.5t51 28.5t63.5 10zM575 410q0 26 -11 44t-27.5 29.5t-37 17t-39.5 5.5t-39.5 -5.5t-37 -17t-27 -29.5t-10.5 -44v-18
q0 -26 10.5 -44.5t27 -30t37 -16.5t39.5 -5t39.5 5t37 16.5t27.5 30t11 44.5v18zM416 404q20 2 30.5 11.5t13.5 34.5q2 -25 12.5 -34.5t31.5 -11.5q-22 -2 -32 -13t-12 -37q-2 26 -13 37t-31 13z" />
    <glyph glyph-name="uni2469" unicode="&#x2469;" 
d="M465 -136q-93 0 -175 35.5t-143 96.5t-96.5 143t-35.5 175t35.5 175t96.5 143t143 96.5t175 35.5t175 -35.5t143 -96.5t96.5 -143t35.5 -175t-35.5 -175t-96.5 -143t-143 -96.5t-175 -35.5zM63 314q0 -83 31.5 -156.5t86 -128t128 -86t156.5 -31.5t156.5 31.5t128 86
t86 128t31.5 156.5t-31.5 156.5t-86 128t-128 86t-156.5 31.5t-156.5 -31.5t-128 -86t-86 -128t-31.5 -156.5zM410 400q0 30 11 56.5t30.5 46.5t47.5 31.5t61 11.5t61 -11.5t48 -31.5t31 -46.5t11 -56.5v-141q0 -30 -11 -56.5t-31 -46.5t-48 -31.5t-61 -11.5t-61 11.5
t-47.5 31.5t-30.5 46.5t-11 56.5v141zM295 118v375l-108 -63v44l115 67h38v-423h-45zM455 268q0 -53 28.5 -83.5t76.5 -30.5q49 0 77.5 30.5t28.5 83.5v123q0 53 -28.5 83.5t-77.5 30.5q-48 0 -76.5 -30.5t-28.5 -83.5v-123zM516 330q20 2 30.5 11.5t13.5 34.5
q2 -25 12.5 -34.5t31.5 -11.5q-21 -2 -31.5 -12.5t-12.5 -35.5q-3 25 -13.5 35.5t-30.5 12.5z" />
    <glyph glyph-name="uni246A" unicode="&#x246a;" 
d="M465 -136q-93 0 -175 35.5t-143 96.5t-96.5 143t-35.5 175t35.5 175t96.5 143t143 96.5t175 35.5t175 -35.5t143 -96.5t96.5 -143t35.5 -175t-35.5 -175t-96.5 -143t-143 -96.5t-175 -35.5zM63 314q0 -83 31.5 -156.5t86 -128t128 -86t156.5 -31.5t156.5 31.5t128 86
t86 128t31.5 156.5t-31.5 156.5t-86 128t-128 86t-156.5 31.5t-156.5 -31.5t-128 -86t-86 -128t-31.5 -156.5zM578 118v375l-108 -63v44l115 67h38v-423h-45zM325 118v375l-108 -63v44l115 67h38v-423h-45z" />
    <glyph glyph-name="uni246B" unicode="&#x246b;" 
d="M465 -136q-93 0 -175 35.5t-143 96.5t-96.5 143t-35.5 175t35.5 175t96.5 143t143 96.5t175 35.5t175 -35.5t143 -96.5t96.5 -143t35.5 -175t-35.5 -175t-96.5 -143t-143 -96.5t-175 -35.5zM63 314q0 -83 31.5 -156.5t86 -128t128 -86t156.5 -31.5t156.5 31.5t128 86
t86 128t31.5 156.5t-31.5 156.5t-86 128t-128 86t-156.5 31.5t-156.5 -31.5t-128 -86t-86 -128t-31.5 -156.5zM405 151l177 162q31 29 45.5 54t14.5 52q0 42 -22.5 64t-70.5 22q-50 0 -73.5 -28.5t-25.5 -76.5h-47q0 30 9.5 56.5t28.5 46.5t46 32t63 12q66 0 101.5 -33.5
t35.5 -96.5q0 -33 -18 -65t-59 -68l-138 -124h81q38 0 76 1t74 5v-40q-36 -5 -75 -6.5t-77 -1.5h-146v33zM295 118v375l-108 -63v44l115 67h38v-423h-45z" />
    <glyph glyph-name="uni246C" unicode="&#x246c;" 
d="M465 -136q-93 0 -175 35.5t-143 96.5t-96.5 143t-35.5 175t35.5 175t96.5 143t143 96.5t175 35.5t175 -35.5t143 -96.5t96.5 -143t35.5 -175t-35.5 -175t-96.5 -143t-143 -96.5t-175 -35.5zM63 314q0 -83 31.5 -156.5t86 -128t128 -86t156.5 -31.5t156.5 31.5t128 86
t86 128t31.5 156.5t-31.5 156.5t-86 128t-128 86t-156.5 31.5t-156.5 -31.5t-128 -86t-86 -128t-31.5 -156.5zM543 546q27 0 50.5 -7.5t41 -21t27.5 -33t10 -43.5q0 -29 -17.5 -53.5t-40.5 -37.5q15 -5 30.5 -14t28 -22.5t20.5 -31.5t8 -42q0 -29 -13 -52.5t-34.5 -40
t-50.5 -25.5t-61 -9q-33 0 -61.5 10t-49.5 28t-32 42t-9 52h45q0 -22 8.5 -39t23.5 -28.5t34 -17.5t40 -6q50 0 82 23t32 63q0 22 -12.5 38.5t-33 26.5t-47.5 14t-57 2v44q30 -1 52.5 5t37.5 16.5t23 24.5t8 30q1 29 -23 46.5t-60 17.5q-38 0 -60.5 -20.5t-24.5 -49.5h-46
q0 23 10.5 43t28 35t41.5 24t51 9zM295 118v375l-108 -63v44l115 67h38v-423h-45z" />
    <glyph glyph-name="uni246D" unicode="&#x246d;" 
d="M465 -136q-93 0 -175 35.5t-143 96.5t-96.5 143t-35.5 175t35.5 175t96.5 143t143 96.5t175 35.5t175 -35.5t143 -96.5t96.5 -143t35.5 -175t-35.5 -175t-96.5 -143t-143 -96.5t-175 -35.5zM63 314q0 -83 31.5 -156.5t86 -128t128 -86t156.5 -31.5t156.5 31.5t128 86
t86 128t31.5 156.5t-31.5 156.5t-86 128t-128 86t-156.5 31.5t-156.5 -31.5t-128 -86t-86 -128t-31.5 -156.5zM305 118v375l-108 -63v44l115 67h38v-423h-45zM733 194h-61v-76h-45v76h-236v30l240 313h41v-305h61v-38zM627 232v231q-45 -60 -87.5 -115t-88.5 -116h176z" />
    <glyph glyph-name="uni246E" unicode="&#x246e;" 
d="M465 -136q-93 0 -175 35.5t-143 96.5t-96.5 143t-35.5 175t35.5 175t96.5 143t143 96.5t175 35.5t175 -35.5t143 -96.5t96.5 -143t35.5 -175t-35.5 -175t-96.5 -143t-143 -96.5t-175 -35.5zM63 314q0 -83 31.5 -156.5t86 -128t128 -86t156.5 -31.5t156.5 31.5t128 86
t86 128t31.5 156.5t-31.5 156.5t-86 128t-128 86t-156.5 31.5t-156.5 -31.5t-128 -86t-86 -128t-31.5 -156.5zM305 118v375l-108 -63v44l115 67h38v-423h-45zM444 253q0 -20 8.5 -38t23.5 -32t35.5 -22.5t44.5 -8.5t44.5 8.5t35.5 23.5t23.5 35t8.5 43q0 22 -9 41t-24 32.5
t-34.5 21t-40.5 7.5q-29 0 -52 -11t-49 -34l-33 15v203h257v-41h-211v-120q19 14 39.5 20.5t48.5 6.5q31 0 59 -10t49 -28.5t33.5 -44.5t12.5 -58q0 -30 -12 -57.5t-33.5 -48.5t-50.5 -33.5t-62 -12.5q-70 0 -113 39.5t-45 103.5h46z" />
    <glyph glyph-name="uni2474" unicode="&#x2474;" 
d="M907 314q0 -119 -31.5 -224.5t-93.5 -197.5h-35q27 43 47.5 95.5t34.5 108.5t21 112t7 106q0 51 -7 107t-21 111.5t-34.5 108t-47.5 96.5h35q62 -92 93.5 -197.5t31.5 -225.5zM23 314q0 120 31.5 225.5t93.5 197.5h35q-27 -44 -47.5 -96.5t-34.5 -108t-21 -111.5t-7 -107
q0 -50 7 -106t21 -112t34.5 -108.5t47.5 -95.5h-35q-62 92 -93.5 197.5t-31.5 224.5zM442 118v375l-108 -63v44l115 67h38v-423h-45z" />
    <glyph glyph-name="uni2475" unicode="&#x2475;" 
d="M907 314q0 -119 -31.5 -224.5t-93.5 -197.5h-35q27 43 47.5 95.5t34.5 108.5t21 112t7 106q0 51 -7 107t-21 111.5t-34.5 108t-47.5 96.5h35q62 -92 93.5 -197.5t31.5 -225.5zM23 314q0 120 31.5 225.5t93.5 197.5h35q-27 -44 -47.5 -96.5t-34.5 -108t-21 -111.5t-7 -107
q0 -50 7 -106t21 -112t34.5 -108.5t47.5 -95.5h-35q-62 92 -93.5 197.5t-31.5 224.5zM319 151l177 162q31 29 45.5 54t14.5 52q0 42 -22.5 64t-70.5 22q-50 0 -73.5 -28.5t-25.5 -76.5h-47q0 30 9.5 56.5t28.5 46.5t46 32t63 12q66 0 101.5 -33.5t35.5 -96.5q0 -33 -18 -65
t-59 -68l-138 -124h81q38 0 76 1t74 5v-40q-36 -5 -75 -6.5t-77 -1.5h-146v33z" />
    <glyph glyph-name="uni2476" unicode="&#x2476;" 
d="M907 314q0 -119 -31.5 -224.5t-93.5 -197.5h-35q27 43 47.5 95.5t34.5 108.5t21 112t7 106q0 51 -7 107t-21 111.5t-34.5 108t-47.5 96.5h35q62 -92 93.5 -197.5t31.5 -225.5zM23 314q0 120 31.5 225.5t93.5 197.5h35q-27 -44 -47.5 -96.5t-34.5 -108t-21 -111.5t-7 -107
q0 -50 7 -106t21 -112t34.5 -108.5t47.5 -95.5h-35q-62 92 -93.5 197.5t-31.5 224.5zM452 546q27 0 50.5 -7.5t41 -21t27.5 -33t10 -43.5q0 -29 -17.5 -53.5t-40.5 -37.5q15 -5 30.5 -14t28 -22.5t20.5 -31.5t8 -42q0 -29 -13 -52.5t-34.5 -40t-50.5 -25.5t-61 -9
q-33 0 -61.5 10t-49.5 28t-32 42t-9 52h45q0 -22 8.5 -39t23.5 -28.5t34 -17.5t40 -6q50 0 82 23t32 63q0 22 -12.5 38.5t-33 26.5t-47.5 14t-57 2v44q30 -1 52.5 5t37.5 16.5t23 24.5t8 30q1 29 -23 46.5t-60 17.5q-38 0 -60.5 -20.5t-24.5 -49.5h-46q0 23 10.5 43t28 35
t41.5 24t51 9z" />
    <glyph glyph-name="uni2477" unicode="&#x2477;" 
d="M907 314q0 -119 -31.5 -224.5t-93.5 -197.5h-35q27 43 47.5 95.5t34.5 108.5t21 112t7 106q0 51 -7 107t-21 111.5t-34.5 108t-47.5 96.5h35q62 -92 93.5 -197.5t31.5 -225.5zM23 314q0 120 31.5 225.5t93.5 197.5h35q-27 -44 -47.5 -96.5t-34.5 -108t-21 -111.5t-7 -107
q0 -50 7 -106t21 -112t34.5 -108.5t47.5 -95.5h-35q-62 92 -93.5 197.5t-31.5 224.5zM632 194h-61v-76h-45v76h-236v30l240 313h41v-305h61v-38zM526 232v231q-45 -60 -87.5 -115t-88.5 -116h176z" />
    <glyph glyph-name="uni2478" unicode="&#x2478;" 
d="M907 314q0 -119 -31.5 -224.5t-93.5 -197.5h-35q27 43 47.5 95.5t34.5 108.5t21 112t7 106q0 51 -7 107t-21 111.5t-34.5 108t-47.5 96.5h35q62 -92 93.5 -197.5t31.5 -225.5zM23 314q0 120 31.5 225.5t93.5 197.5h35q-27 -44 -47.5 -96.5t-34.5 -108t-21 -111.5t-7 -107
q0 -50 7 -106t21 -112t34.5 -108.5t47.5 -95.5h-35q-62 92 -93.5 197.5t-31.5 224.5zM465 148q24 0 44.5 8.5t35.5 23.5t23.5 36t8.5 45q0 22 -9 41.5t-24 33t-34.5 21.5t-40.5 8q-29 0 -52 -11.5t-49 -34.5l-33 15v207h257v-42h-211v-122q19 14 39.5 21t48.5 7
q31 0 59 -10.5t49 -29t33.5 -45t12.5 -59.5q0 -36 -12.5 -65t-34 -49t-50 -30.5t-61.5 -10.5t-61.5 10t-49.5 28.5t-33.5 45.5t-13.5 61h46q0 -21 8.5 -39.5t23.5 -33t35.5 -22.5t44.5 -8z" />
    <glyph glyph-name="uni2479" unicode="&#x2479;" 
d="M907 314q0 -119 -31.5 -224.5t-93.5 -197.5h-35q27 43 47.5 95.5t34.5 108.5t21 112t7 106q0 51 -7 107t-21 111.5t-34.5 108t-47.5 96.5h35q62 -92 93.5 -197.5t31.5 -225.5zM23 314q0 120 31.5 225.5t93.5 197.5h35q-27 -44 -47.5 -96.5t-34.5 -108t-21 -111.5t-7 -107
q0 -50 7 -106t21 -112t34.5 -108.5t47.5 -95.5h-35q-62 92 -93.5 197.5t-31.5 224.5zM475 107q-35 0 -64 10.5t-51 29t-34 44t-12 56.5v175q0 30 12 54t33 40.5t49.5 25.5t61.5 9q70 0 110.5 -37t40.5 -97l-46 5q0 46 -31 67t-74 21q-21 0 -41 -5.5t-35.5 -16t-24.5 -27
t-9 -37.5v-62q22 21 54.5 31.5t60.5 10.5q32 0 61 -9.5t51 -27t35 -43.5t13 -59v-16q0 -32 -12 -58t-33.5 -45t-51 -29t-63.5 -10zM360 246q0 -26 11 -44.5t27.5 -30.5t37 -17.5t39.5 -5.5t39.5 5.5t37 17.5t27 30.5t10.5 44.5v19q0 27 -10.5 45.5t-27 30t-37 17t-39.5 5.5
t-39.5 -5.5t-37 -17t-27.5 -30t-11 -45.5v-19zM475 202q-2 28 -12 39t-33 13q21 2 31.5 12t13.5 35q2 -25 12.5 -35t30.5 -12q-22 -2 -31.5 -13t-11.5 -39z" />
    <glyph glyph-name="uni247A" unicode="&#x247a;" 
d="M907 314q0 -119 -31.5 -224.5t-93.5 -197.5h-35q27 43 47.5 95.5t34.5 108.5t21 112t7 106q0 51 -7 107t-21 111.5t-34.5 108t-47.5 96.5h35q62 -92 93.5 -197.5t31.5 -225.5zM23 314q0 120 31.5 225.5t93.5 197.5h35q-27 -44 -47.5 -96.5t-34.5 -108t-21 -111.5t-7 -107
q0 -50 7 -106t21 -112t34.5 -108.5t47.5 -95.5h-35q-62 92 -93.5 197.5t-31.5 224.5zM425 119q2 69 13 123.5t28 99.5t39.5 83.5t48.5 74.5h-230v42h291v-32q-33 -42 -58.5 -81.5t-43.5 -84.5t-28 -99.5t-12 -125.5h-48z" />
    <glyph glyph-name="uni247B" unicode="&#x247b;" 
d="M907 314q0 -119 -31.5 -224.5t-93.5 -197.5h-35q27 43 47.5 95.5t34.5 108.5t21 112t7 106q0 51 -7 107t-21 111.5t-34.5 108t-47.5 96.5h35q62 -92 93.5 -197.5t31.5 -225.5zM23 314q0 120 31.5 225.5t93.5 197.5h35q-27 -44 -47.5 -96.5t-34.5 -108t-21 -111.5t-7 -107
q0 -50 7 -106t21 -112t34.5 -108.5t47.5 -95.5h-35q-62 92 -93.5 197.5t-31.5 224.5zM308 234q0 71 87 114q-30 16 -48 39.5t-18 51.5q0 25 12 45t32 34t45 21.5t52 7.5q31 0 57.5 -7.5t46 -21.5t30.5 -34t11 -45q0 -32 -20.5 -58t-54.5 -42q38 -18 62.5 -44t24.5 -61
q0 -24 -11.5 -46t-32 -38.5t-49.5 -26.5t-64 -10q-40 0 -70 10t-50.5 26.5t-31 38.5t-10.5 46zM486 357q33 11 58 30.5t25 51.5q0 30 -28.5 48.5t-70.5 18.5q-39 0 -67 -18.5t-28 -48.5q0 -26 19.5 -43t64.5 -30zM454 325l-9 2q-38 -11 -64.5 -33.5t-26.5 -59.5
q0 -31 28 -55.5t88 -24.5q52 0 81.5 24.5t29.5 55.5q0 17 -10.5 30.5t-25.5 24t-32.5 17.5t-31.5 12z" />
    <glyph glyph-name="uni247C" unicode="&#x247c;" 
d="M907 314q0 -119 -31.5 -224.5t-93.5 -197.5h-35q27 43 47.5 95.5t34.5 108.5t21 112t7 106q0 51 -7 107t-21 111.5t-34.5 108t-47.5 96.5h35q62 -92 93.5 -197.5t31.5 -225.5zM23 314q0 120 31.5 225.5t93.5 197.5h35q-27 -44 -47.5 -96.5t-34.5 -108t-21 -111.5t-7 -107
q0 -50 7 -106t21 -112t34.5 -108.5t47.5 -95.5h-35q-62 92 -93.5 197.5t-31.5 224.5zM465 547q34 0 63.5 -10t51.5 -28.5t34 -44t12 -55.5v-171q0 -30 -12 -53.5t-33 -40t-49.5 -25t-61.5 -8.5q-70 0 -110.5 36t-40.5 96l46 -5q0 -45 31 -65.5t74 -20.5q21 0 41 5t35.5 15.5
t24.5 26.5t9 37v61q-22 -21 -54.5 -31.5t-60.5 -10.5q-32 0 -61 9t-51 26.5t-35 43t-13 58.5v15q0 31 12 57t33.5 44.5t51 28.5t63.5 10zM580 410q0 26 -11 44t-27.5 29.5t-37 17t-39.5 5.5t-39.5 -5.5t-37 -17t-27 -29.5t-10.5 -44v-18q0 -26 10.5 -44.5t27 -30t37 -16.5
t39.5 -5t39.5 5t37 16.5t27.5 30t11 44.5v18zM421 404q20 2 30.5 11.5t13.5 34.5q2 -25 12.5 -34.5t31.5 -11.5q-21 -2 -31.5 -12.5t-12.5 -35.5q-3 25 -13.5 35.5t-30.5 12.5z" />
    <glyph glyph-name="uni247D" unicode="&#x247d;" 
d="M907 314q0 -119 -31.5 -224.5t-93.5 -197.5h-35q27 43 47.5 95.5t34.5 108.5t21 112t7 106q0 51 -7 107t-21 111.5t-34.5 108t-47.5 96.5h35q62 -92 93.5 -197.5t31.5 -225.5zM23 314q0 120 31.5 225.5t93.5 197.5h35q-27 -44 -47.5 -96.5t-34.5 -108t-21 -111.5t-7 -107
q0 -50 7 -106t21 -112t34.5 -108.5t47.5 -95.5h-35q-62 92 -93.5 197.5t-31.5 224.5zM410 400q0 30 11 56.5t30.5 46.5t47.5 31.5t61 11.5t61 -11.5t48 -31.5t31 -46.5t11 -56.5v-141q0 -30 -11 -56.5t-31 -46.5t-48 -31.5t-61 -11.5t-61 11.5t-47.5 31.5t-30.5 46.5
t-11 56.5v141zM295 118v375l-108 -63v44l115 67h38v-423h-45zM455 268q0 -53 28.5 -83.5t76.5 -30.5q49 0 77.5 30.5t28.5 83.5v123q0 53 -28.5 83.5t-77.5 30.5q-48 0 -76.5 -30.5t-28.5 -83.5v-123zM518 330q20 2 30.5 11.5t13.5 34.5q2 -25 12.5 -34.5t31.5 -11.5
q-21 -2 -31.5 -12.5t-12.5 -35.5q-3 25 -13.5 35.5t-30.5 12.5z" />
    <glyph glyph-name="uni247E" unicode="&#x247e;" 
d="M907 314q0 -119 -31.5 -224.5t-93.5 -197.5h-35q27 43 47.5 95.5t34.5 108.5t21 112t7 106q0 51 -7 107t-21 111.5t-34.5 108t-47.5 96.5h35q62 -92 93.5 -197.5t31.5 -225.5zM23 314q0 120 31.5 225.5t93.5 197.5h35q-27 -44 -47.5 -96.5t-34.5 -108t-21 -111.5t-7 -107
q0 -50 7 -106t21 -112t34.5 -108.5t47.5 -95.5h-35q-62 92 -93.5 197.5t-31.5 224.5zM578 118v375l-108 -63v44l115 67h38v-423h-45zM315 118v375l-108 -63v44l115 67h38v-423h-45z" />
    <glyph glyph-name="uni247F" unicode="&#x247f;" 
d="M907 314q0 -119 -31.5 -224.5t-93.5 -197.5h-35q27 43 47.5 95.5t34.5 108.5t21 112t7 106q0 51 -7 107t-21 111.5t-34.5 108t-47.5 96.5h35q62 -92 93.5 -197.5t31.5 -225.5zM23 314q0 120 31.5 225.5t93.5 197.5h35q-27 -44 -47.5 -96.5t-34.5 -108t-21 -111.5t-7 -107
q0 -50 7 -106t21 -112t34.5 -108.5t47.5 -95.5h-35q-62 92 -93.5 197.5t-31.5 224.5zM405 151l177 162q31 29 45.5 54t14.5 52q0 42 -22.5 64t-70.5 22q-50 0 -73.5 -28.5t-25.5 -76.5h-47q0 30 9.5 56.5t28.5 46.5t46 32t63 12q66 0 101.5 -33.5t35.5 -96.5q0 -33 -18 -65
t-59 -68l-138 -124h81q38 0 76 1t74 5v-40q-36 -5 -75 -6.5t-77 -1.5h-146v33zM295 118v375l-108 -63v44l115 67h38v-423h-45z" />
    <glyph glyph-name="uni2480" unicode="&#x2480;" 
d="M907 314q0 -119 -31.5 -224.5t-93.5 -197.5h-35q27 43 47.5 95.5t34.5 108.5t21 112t7 106q0 51 -7 107t-21 111.5t-34.5 108t-47.5 96.5h35q62 -92 93.5 -197.5t31.5 -225.5zM23 314q0 120 31.5 225.5t93.5 197.5h35q-27 -44 -47.5 -96.5t-34.5 -108t-21 -111.5t-7 -107
q0 -50 7 -106t21 -112t34.5 -108.5t47.5 -95.5h-35q-62 92 -93.5 197.5t-31.5 224.5zM553 546q27 0 50.5 -7.5t41 -21t27.5 -33t10 -43.5q0 -29 -17.5 -53.5t-40.5 -37.5q15 -5 30.5 -14t28 -22.5t20.5 -31.5t8 -42q0 -29 -13 -52.5t-34.5 -40t-50.5 -25.5t-61 -9
q-33 0 -61.5 10t-49.5 28t-32 42t-9 52h45q0 -22 8.5 -39t23.5 -28.5t34 -17.5t40 -6q50 0 82 23t32 63q0 22 -12.5 38.5t-33 26.5t-47.5 14t-57 2v44q30 -1 52.5 5t37.5 16.5t23 24.5t8 30q1 29 -23 46.5t-60 17.5q-38 0 -60.5 -20.5t-24.5 -49.5h-46q0 23 10.5 43t28 35
t41.5 24t51 9zM295 118v375l-108 -63v44l115 67h38v-423h-45z" />
    <glyph glyph-name="uni2481" unicode="&#x2481;" 
d="M907 314q0 -119 -31.5 -224.5t-93.5 -197.5h-35q27 43 47.5 95.5t34.5 108.5t21 112t7 106q0 51 -7 107t-21 111.5t-34.5 108t-47.5 96.5h35q62 -92 93.5 -197.5t31.5 -225.5zM23 314q0 120 31.5 225.5t93.5 197.5h35q-27 -44 -47.5 -96.5t-34.5 -108t-21 -111.5t-7 -107
q0 -50 7 -106t21 -112t34.5 -108.5t47.5 -95.5h-35q-62 92 -93.5 197.5t-31.5 224.5zM295 118v375l-108 -63v44l115 67h38v-423h-45zM723 194h-61v-76h-45v76h-236v30l240 313h41v-305h61v-38zM617 232v231q-45 -60 -87.5 -115t-88.5 -116h176z" />
    <glyph glyph-name="uni2482" unicode="&#x2482;" 
d="M907 314q0 -119 -31.5 -224.5t-93.5 -197.5h-35q27 43 47.5 95.5t34.5 108.5t21 112t7 106q0 51 -7 107t-21 111.5t-34.5 108t-47.5 96.5h35q62 -92 93.5 -197.5t31.5 -225.5zM23 314q0 120 31.5 225.5t93.5 197.5h35q-27 -44 -47.5 -96.5t-34.5 -108t-21 -111.5t-7 -107
q0 -50 7 -106t21 -112t34.5 -108.5t47.5 -95.5h-35q-62 92 -93.5 197.5t-31.5 224.5zM295 114v382l-108 -64v45l115 68h38v-431h-45zM566 148q24 0 44.5 8.5t35.5 23.5t23.5 36t8.5 45q0 22 -9 41.5t-24 33t-34.5 21.5t-40.5 8q-29 0 -52 -11.5t-49 -34.5l-33 15v207h257
v-42h-211v-122q19 14 39.5 21t48.5 7q31 0 59 -10.5t49 -29t33.5 -45t12.5 -59.5q0 -36 -12.5 -65t-34 -49t-50 -30.5t-61.5 -10.5t-61.5 10t-49.5 28.5t-33.5 45.5t-13.5 62h46q0 -21 8.5 -40t23.5 -33.5t35.5 -22.5t44.5 -8z" />
    <glyph glyph-name="uni249C" unicode="&#x249c;" 
d="M907 314q0 -119 -31.5 -224.5t-93.5 -197.5h-35q27 43 47.5 95.5t34.5 108.5t21 112t7 106q0 51 -7 107t-21 111.5t-34.5 108t-47.5 96.5h35q62 -92 93.5 -197.5t31.5 -225.5zM23 314q0 120 31.5 225.5t93.5 197.5h35q-27 -44 -47.5 -96.5t-34.5 -108t-21 -111.5t-7 -107
q0 -50 7 -106t21 -112t34.5 -108.5t47.5 -95.5h-35q-62 92 -93.5 197.5t-31.5 224.5zM594 367v14q0 59 -32.5 84.5t-103.5 25.5q-65 0 -96.5 -29t-31.5 -66v-13h-45v19q0 24 11 46.5t32.5 40.5t54 29t75.5 11q180 0 180 -141v-280h-44v52q-17 -21 -58.5 -40t-93.5 -19
q-76 0 -123 28t-47 86t49.5 89.5t140.5 44.5zM462 310q-64 -9 -105 -30t-41 -65q0 -38 33 -57t93 -19q27 0 54 7t49 20.5t35.5 33.5t13.5 45v83z" />
    <glyph glyph-name="uni249D" unicode="&#x249d;" 
d="M907 314q0 -119 -31.5 -224.5t-93.5 -197.5h-35q27 43 47.5 95.5t34.5 108.5t21 112t7 106q0 51 -7 107t-21 111.5t-34.5 108t-47.5 96.5h35q62 -92 93.5 -197.5t31.5 -225.5zM23 314q0 120 31.5 225.5t93.5 197.5h35q-27 -44 -47.5 -96.5t-34.5 -108t-21 -111.5t-7 -107
q0 -50 7 -106t21 -112t34.5 -108.5t47.5 -95.5h-35q-62 92 -93.5 197.5t-31.5 224.5zM356 613v-137h135q47 0 82 -15.5t58.5 -42.5t35 -64.5t11.5 -80.5q0 -44 -11 -82t-33.5 -66.5t-58 -45t-84.5 -16.5h-179v550h44zM356 437v-335h145q33 0 58 14t41.5 37t25 54t8.5 66
q0 34 -8.5 63.5t-25.5 52t-42 35.5t-57 13h-145zM487 193q-2 40 -17 55.5t-49 18.5q34 2 49 17t17 56q2 -41 17.5 -56t47.5 -17q-32 -3 -47.5 -18.5t-17.5 -55.5z" />
    <glyph glyph-name="uni249E" unicode="&#x249e;" 
d="M907 314q0 -119 -31.5 -224.5t-93.5 -197.5h-35q27 43 47.5 95.5t34.5 108.5t21 112t7 106q0 51 -7 107t-21 111.5t-34.5 108t-47.5 96.5h35q62 -92 93.5 -197.5t31.5 -225.5zM23 314q0 120 31.5 225.5t93.5 197.5h35q-27 -44 -47.5 -96.5t-34.5 -108t-21 -111.5t-7 -107
q0 -50 7 -106t21 -112t34.5 -108.5t47.5 -95.5h-35q-62 92 -93.5 197.5t-31.5 224.5zM472 531q42 0 75.5 -11t57 -29.5t36 -42.5t12.5 -50v-20h-45v14q0 21 -9.5 39t-27 32t-43 22t-56.5 8q-72 0 -111 -39.5t-39 -100.5v-72q0 -62 39 -101t111 -39q31 0 56.5 8t43 22
t27 32.5t9.5 38.5v14h45v-20q0 -26 -12.5 -50t-36 -42.5t-57 -29.5t-75.5 -11q-46 0 -82.5 13.5t-61.5 36.5t-38 54.5t-13 67.5v84q0 36 13 67.5t38 54.5t61.5 36.5t82.5 13.5z" />
    <glyph glyph-name="uni249F" unicode="&#x249f;" 
d="M907 314q0 -119 -31.5 -224.5t-93.5 -197.5h-35q27 43 47.5 95.5t34.5 108.5t21 112t7 106q0 51 -7 107t-21 111.5t-34.5 108t-47.5 96.5h35q62 -92 93.5 -197.5t31.5 -225.5zM23 314q0 120 31.5 225.5t93.5 197.5h35q-27 -44 -47.5 -96.5t-34.5 -108t-21 -111.5t-7 -107
q0 -50 7 -106t21 -112t34.5 -108.5t47.5 -95.5h-35q-62 92 -93.5 197.5t-31.5 224.5zM618 613v-550h-179q-49 0 -84.5 16.5t-58 45t-33.5 66.5t-11 82q0 43 11.5 80.5t35 64.5t58.5 42.5t82 15.5h135v137h44zM429 437q-32 0 -57 -13t-42 -35.5t-25.5 -52t-8.5 -63.5
q0 -35 8.5 -66t25 -54t41.5 -37t58 -14h145v335h-145zM443 193q-2 40 -17.5 55.5t-48.5 18.5q33 2 48.5 17t17.5 56q2 -41 17 -56t48 -17q-33 -3 -48 -18.5t-17 -55.5z" />
    <glyph glyph-name="uni24A0" unicode="&#x24a0;" 
d="M907 314q0 -119 -31.5 -224.5t-93.5 -197.5h-35q27 43 47.5 95.5t34.5 108.5t21 112t7 106q0 51 -7 107t-21 111.5t-34.5 108t-47.5 96.5h35q62 -92 93.5 -197.5t31.5 -225.5zM23 314q0 120 31.5 225.5t93.5 197.5h35q-27 -44 -47.5 -96.5t-34.5 -108t-21 -111.5t-7 -107
q0 -50 7 -106t21 -112t34.5 -108.5t47.5 -95.5h-35q-62 92 -93.5 197.5t-31.5 224.5zM465 139q66 0 102.5 28.5t36.5 66.5v7h44v-13q0 -24 -12.5 -46.5t-36 -40.5t-57.5 -29t-77 -11q-45 0 -80.5 13.5t-60 36.5t-37 54.5t-12.5 67.5v84q0 36 12.5 67.5t37 54.5t60 36.5
t80.5 13.5t80.5 -13.5t60 -36.5t37 -54.5t12.5 -67.5v-58h-335v-20q0 -62 37 -101t108 -39zM610 351q0 61 -37 100.5t-108 39.5t-108 -39.5t-37 -100.5v-15h290v15z" />
    <glyph glyph-name="uni24A1" unicode="&#x24a1;" 
d="M907 314q0 -119 -31.5 -224.5t-93.5 -197.5h-35q27 43 47.5 95.5t34.5 108.5t21 112t7 106q0 51 -7 107t-21 111.5t-34.5 108t-47.5 96.5h35q62 -92 93.5 -197.5t31.5 -225.5zM23 314q0 120 31.5 225.5t93.5 197.5h35q-27 -44 -47.5 -96.5t-34.5 -108t-21 -111.5t-7 -107
q0 -50 7 -106t21 -112t34.5 -108.5t47.5 -95.5h-35q-62 92 -93.5 197.5t-31.5 224.5zM569 615v-38h-40q-35 0 -45.5 -18.5t-10.5 -50.5v-87h99v-39h-99v-360h-46v360h-70v39h68v85q0 49 26 79t75 30h43z" />
    <glyph glyph-name="uni24A2" unicode="&#x24a2;" 
d="M907 314q0 -119 -31.5 -224.5t-93.5 -197.5h-35q27 43 47.5 95.5t34.5 108.5t21 112t7 106q0 51 -7 107t-21 111.5t-34.5 108t-47.5 96.5h35q62 -92 93.5 -197.5t31.5 -225.5zM23 314q0 120 31.5 225.5t93.5 197.5h35q-27 -44 -47.5 -96.5t-34.5 -108t-21 -111.5t-7 -107
q0 -50 7 -106t21 -112t34.5 -108.5t47.5 -95.5h-35q-62 92 -93.5 197.5t-31.5 224.5zM343 169v-14q0 -16 7.5 -33t23.5 -31t40 -23t57 -9q35 0 61 11.5t42.5 31.5t24.5 47t8 58v36q-23 -20 -59 -34t-83 -14q-44 0 -78.5 12.5t-58.5 34.5t-36.5 52.5t-12.5 66.5v79
q0 36 12.5 66.5t36.5 52.5t58.5 34.5t78.5 12.5t78.5 -12.5t58.5 -34.5t36.5 -52.5t12.5 -66.5v-239q0 -36 -11 -69t-33.5 -58t-56.5 -39.5t-79 -14.5q-43 0 -75 12t-53.5 31.5t-32.5 43.5t-11 48v14h44zM608 434q0 60 -37.5 96.5t-105.5 36.5t-105.5 -36.5t-37.5 -96.5v-67
q0 -61 37.5 -96.5t105.5 -35.5q48 0 82.5 14t60.5 45v140zM469 324q-2 40 -17 56t-49 18q34 2 49 17t17 56q2 -41 17.5 -56t47.5 -17q-32 -2 -47.5 -18t-17.5 -56z" />
    <glyph glyph-name="uni24A3" unicode="&#x24a3;" 
d="M907 314q0 -119 -31.5 -224.5t-93.5 -197.5h-35q27 43 47.5 95.5t34.5 108.5t21 112t7 106q0 51 -7 107t-21 111.5t-34.5 108t-47.5 96.5h35q62 -92 93.5 -197.5t31.5 -225.5zM23 314q0 120 31.5 225.5t93.5 197.5h35q-27 -44 -47.5 -96.5t-34.5 -108t-21 -111.5t-7 -107
q0 -50 7 -106t21 -112t34.5 -108.5t47.5 -95.5h-35q-62 92 -93.5 197.5t-31.5 224.5zM530 483q54 0 90 -30t36 -98v-293h-45v299q0 42 -23 63.5t-58 21.5q-48 0 -91 -14.5t-81 -34.5v-335h-44v552h44v-174q37 15 82 29t90 14z" />
    <glyph glyph-name="uni24A4" unicode="&#x24a4;" 
d="M907 314q0 -119 -31.5 -224.5t-93.5 -197.5h-35q27 43 47.5 95.5t34.5 108.5t21 112t7 106q0 51 -7 107t-21 111.5t-34.5 108t-47.5 96.5h35q62 -92 93.5 -197.5t31.5 -225.5zM23 314q0 120 31.5 225.5t93.5 197.5h35q-27 -44 -47.5 -96.5t-34.5 -108t-21 -111.5t-7 -107
q0 -50 7 -106t21 -112t34.5 -108.5t47.5 -95.5h-35q-62 92 -93.5 197.5t-31.5 224.5zM465 613q15 0 26.5 -10t11.5 -27q0 -18 -11.5 -28.5t-26.5 -10.5t-26.5 10.5t-11.5 28.5q0 17 11.5 27t26.5 10zM443 30v413h44v-413h-44z" />
    <glyph glyph-name="uni24A5" unicode="&#x24a5;" 
d="M907 314q0 -119 -31.5 -224.5t-93.5 -197.5h-35q27 43 47.5 95.5t34.5 108.5t21 112t7 106q0 51 -7 107t-21 111.5t-34.5 108t-47.5 96.5h35q62 -92 93.5 -197.5t31.5 -225.5zM23 314q0 120 31.5 225.5t93.5 197.5h35q-27 -44 -47.5 -96.5t-34.5 -108t-21 -111.5t-7 -107
q0 -50 7 -106t21 -112t34.5 -108.5t47.5 -95.5h-35q-62 92 -93.5 197.5t-31.5 224.5zM472 653q15 0 26.5 -10.5t11.5 -27.5q0 -18 -11.5 -28t-26.5 -10t-26.5 10t-11.5 28q0 17 11.5 27.5t26.5 10.5zM389 -8q35 0 48 20t13 52v424h44v-426q0 -53 -28.5 -80t-76.5 -27v37z
" />
    <glyph glyph-name="uni24A6" unicode="&#x24a6;" 
d="M907 314q0 -119 -31.5 -224.5t-93.5 -197.5h-35q27 43 47.5 95.5t34.5 108.5t21 112t7 106q0 51 -7 107t-21 111.5t-34.5 108t-47.5 96.5h35q62 -92 93.5 -197.5t31.5 -225.5zM23 314q0 120 31.5 225.5t93.5 197.5h35q-27 -44 -47.5 -96.5t-34.5 -108t-21 -111.5t-7 -107
q0 -50 7 -106t21 -112t34.5 -108.5t47.5 -95.5h-35q-62 92 -93.5 197.5t-31.5 224.5zM305 60v551h45v-362l235 224h57l-173 -166l197 -246h-55l-173 217l-88 -84v-134h-45z" />
    <glyph glyph-name="uni24A7" unicode="&#x24a7;" 
d="M907 314q0 -119 -31.5 -224.5t-93.5 -197.5h-35q27 43 47.5 95.5t34.5 108.5t21 112t7 106q0 51 -7 107t-21 111.5t-34.5 108t-47.5 96.5h35q62 -92 93.5 -197.5t31.5 -225.5zM23 314q0 120 31.5 225.5t93.5 197.5h35q-27 -44 -47.5 -96.5t-34.5 -108t-21 -111.5t-7 -107
q0 -50 7 -106t21 -112t34.5 -108.5t47.5 -95.5h-35q-62 92 -93.5 197.5t-31.5 224.5zM423 587h46v-500q0 -20 16 -20h22v-39h-30q-25 0 -39.5 15.5t-14.5 46.5v497z" />
    <glyph glyph-name="uni24A8" unicode="&#x24a8;" 
d="M907 314q0 -119 -31.5 -224.5t-93.5 -197.5h-35q27 43 47.5 95.5t34.5 108.5t21 112t7 106q0 51 -7 107t-21 111.5t-34.5 108t-47.5 96.5h35q62 -92 93.5 -197.5t31.5 -225.5zM23 314q0 120 31.5 225.5t93.5 197.5h35q-27 -44 -47.5 -96.5t-34.5 -108t-21 -111.5t-7 -107
q0 -50 7 -106t21 -112t34.5 -108.5t47.5 -95.5h-35q-62 92 -93.5 197.5t-31.5 224.5zM235 103h-45v410h45v-36q32 16 71 30t80 14q69 0 95 -50q32 22 69.5 36t75.5 14q50 0 82 -30t32 -93v-295h-45v295q0 42 -19.5 63.5t-49.5 21.5q-38 0 -71.5 -13.5t-62.5 -34.5
q1 -5 1 -11.5v-12.5v-308h-44v308q0 72 -63 72q-42 0 -80 -14.5t-71 -34.5v-331z" />
    <glyph glyph-name="uni24A9" unicode="&#x24a9;" 
d="M907 314q0 -119 -31.5 -224.5t-93.5 -197.5h-35q27 43 47.5 95.5t34.5 108.5t21 112t7 106q0 51 -7 107t-21 111.5t-34.5 108t-47.5 96.5h35q62 -92 93.5 -197.5t31.5 -225.5zM23 314q0 120 31.5 225.5t93.5 197.5h35q-27 -44 -47.5 -96.5t-34.5 -108t-21 -111.5t-7 -107
q0 -50 7 -106t21 -112t34.5 -108.5t47.5 -95.5h-35q-62 92 -93.5 197.5t-31.5 224.5zM510 524q54 0 90 -30t36 -98v-293h-45v299q0 42 -23 63t-58 21q-48 0 -91 -14.5t-81 -34.5v-334h-44v413h44v-36q37 16 82 30t90 14z" />
    <glyph glyph-name="uni24AA" unicode="&#x24aa;" 
d="M907 314q0 -119 -31.5 -224.5t-93.5 -197.5h-35q27 43 47.5 95.5t34.5 108.5t21 112t7 106q0 51 -7 107t-21 111.5t-34.5 108t-47.5 96.5h35q62 -92 93.5 -197.5t31.5 -225.5zM23 314q0 120 31.5 225.5t93.5 197.5h35q-27 -44 -47.5 -96.5t-34.5 -108t-21 -111.5t-7 -107
q0 -50 7 -106t21 -112t34.5 -108.5t47.5 -95.5h-35q-62 92 -93.5 197.5t-31.5 224.5zM465 527q46 0 82 -13.5t60.5 -36.5t37.5 -54.5t13 -67.5v-84q0 -36 -13 -67.5t-37.5 -54.5t-60.5 -36.5t-82 -13.5q-47 0 -82.5 13.5t-60.5 36.5t-37.5 54.5t-12.5 67.5v84
q0 36 12.5 67.5t37.5 54.5t60.5 36.5t82.5 13.5zM316 277q0 -62 38 -101t111 -39t111 39t38 101v72q0 61 -38 100.5t-111 39.5t-111 -39.5t-38 -100.5v-72zM465 242q-2 40 -17.5 55.5t-48.5 18.5q33 2 48.5 17t17.5 56q2 -41 17 -56t47 -17q-32 -3 -47 -18.5t-17 -55.5z" />
    <glyph glyph-name="uni24AB" unicode="&#x24ab;" 
d="M907 314q0 -119 -31.5 -224.5t-93.5 -197.5h-35q27 43 47.5 95.5t34.5 108.5t21 112t7 106q0 51 -7 107t-21 111.5t-34.5 108t-47.5 96.5h35q62 -92 93.5 -197.5t31.5 -225.5zM23 314q0 120 31.5 225.5t93.5 197.5h35q-27 -44 -47.5 -96.5t-34.5 -108t-21 -111.5t-7 -107
q0 -50 7 -106t21 -112t34.5 -108.5t47.5 -95.5h-35q-62 92 -93.5 197.5t-31.5 224.5zM312 -1v570h179q49 0 84.5 -16.5t58 -45t33.5 -67t11 -81.5q0 -44 -11.5 -81t-35 -64.5t-58.5 -43t-82 -15.5h-135v-156h-44zM501 195q32 0 57 13t42 35.5t25.5 52t8.5 63.5t-8.5 65.5
t-25 54.5t-41.5 37t-58 14h-145v-335h145zM484 289q-2 39 -17 55t-49 18q34 2 49 17t17 57q2 -42 17.5 -57t47.5 -17q-32 -2 -47.5 -18t-17.5 -55z" />
    <glyph glyph-name="uni24AC" unicode="&#x24ac;" 
d="M907 314q0 -119 -31.5 -224.5t-93.5 -197.5h-35q27 43 47.5 95.5t34.5 108.5t21 112t7 106q0 51 -7 107t-21 111.5t-34.5 108t-47.5 96.5h35q62 -92 93.5 -197.5t31.5 -225.5zM23 314q0 120 31.5 225.5t93.5 197.5h35q-27 -44 -47.5 -96.5t-34.5 -108t-21 -111.5t-7 -107
q0 -50 7 -106t21 -112t34.5 -108.5t47.5 -95.5h-35q-62 92 -93.5 197.5t-31.5 224.5zM564 -1v156h-135q-47 0 -82 15.5t-58.5 43t-35 64.5t-11.5 81q0 43 11 81.5t33.5 67t58 45t84.5 16.5h179v-570h-44zM564 195v335h-145q-33 0 -58 -14t-41.5 -37t-25 -54.5t-8.5 -65.5
t8.5 -63.5t25.5 -52t42 -35.5t57 -13h145zM436 289q-2 39 -17.5 55t-48.5 18q33 2 48.5 17t17.5 57q2 -42 17 -57t48 -17q-33 -2 -48 -18t-17 -55z" />
    <glyph glyph-name="uni24AD" unicode="&#x24ad;" 
d="M907 314q0 -119 -31.5 -224.5t-93.5 -197.5h-35q27 43 47.5 95.5t34.5 108.5t21 112t7 106q0 51 -7 107t-21 111.5t-34.5 108t-47.5 96.5h35q62 -92 93.5 -197.5t31.5 -225.5zM23 314q0 120 31.5 225.5t93.5 197.5h35q-27 -44 -47.5 -96.5t-34.5 -108t-21 -111.5t-7 -107
q0 -50 7 -106t21 -112t34.5 -108.5t47.5 -95.5h-35q-62 92 -93.5 197.5t-31.5 224.5zM444 420q11 21 30 39.5t42 32t47.5 21.5t47.5 8v-39q-26 0 -51.5 -10t-48 -26.5t-40 -39t-27.5 -46.5v-260h-45v413h45v-93z" />
    <glyph glyph-name="uni24AE" unicode="&#x24ae;" 
d="M907 314q0 -119 -31.5 -224.5t-93.5 -197.5h-35q27 43 47.5 95.5t34.5 108.5t21 112t7 106q0 51 -7 107t-21 111.5t-34.5 108t-47.5 96.5h35q62 -92 93.5 -197.5t31.5 -225.5zM23 314q0 120 31.5 225.5t93.5 197.5h35q-27 -44 -47.5 -96.5t-34.5 -108t-21 -111.5t-7 -107
q0 -50 7 -106t21 -112t34.5 -108.5t47.5 -95.5h-35q-62 92 -93.5 197.5t-31.5 224.5zM472 101q-45 0 -80.5 10t-60 28t-38 42t-13.5 51h45q0 -22 12.5 -39t33 -29t47 -18.5t54.5 -6.5q25 0 48.5 5.5t42 15t30 24t11.5 32.5q0 29 -25 47.5t-70 34.5l-80 23q-71 19 -98 49
t-27 62q0 23 12.5 42t34 32t50.5 20t62 7q37 0 67.5 -9.5t51.5 -25t32.5 -36t11.5 -41.5h-46q0 15 -8.5 28.5t-24 23.5t-37 16t-46.5 6q-50 0 -82 -15.5t-32 -45.5q0 -23 20 -41t70 -34l73 -21q61 -20 98.5 -48.5t37.5 -72.5q0 -24 -14 -45.5t-38 -37t-56.5 -24.5t-68.5 -9z
" />
    <glyph glyph-name="uni24AF" unicode="&#x24af;" 
d="M907 314q0 -119 -31.5 -224.5t-93.5 -197.5h-35q27 43 47.5 95.5t34.5 108.5t21 112t7 106q0 51 -7 107t-21 111.5t-34.5 108t-47.5 96.5h35q62 -92 93.5 -197.5t31.5 -225.5zM23 314q0 120 31.5 225.5t93.5 197.5h35q-27 -44 -47.5 -96.5t-34.5 -108t-21 -111.5t-7 -107
q0 -50 7 -106t21 -112t34.5 -108.5t47.5 -95.5h-35q-62 92 -93.5 197.5t-31.5 224.5zM515 31q-48 0 -71 30t-23 79v252h-62v38h64v151h46v-151h86v-38h-86v-254q0 -32 10.5 -50t45.5 -18h37v-39h-47z" />
    <glyph glyph-name="uni24B0" unicode="&#x24b0;" 
d="M907 314q0 -119 -31.5 -224.5t-93.5 -197.5h-35q27 43 47.5 95.5t34.5 108.5t21 112t7 106q0 51 -7 107t-21 111.5t-34.5 108t-47.5 96.5h35q62 -92 93.5 -197.5t31.5 -225.5zM23 314q0 120 31.5 225.5t93.5 197.5h35q-27 -44 -47.5 -96.5t-34.5 -108t-21 -111.5t-7 -107
q0 -50 7 -106t21 -112t34.5 -108.5t47.5 -95.5h-35q-62 92 -93.5 197.5t-31.5 224.5zM430 88q-54 0 -90 30.5t-36 98.5v294h44v-300q0 -42 23.5 -63.5t58.5 -21.5q48 0 91 14.5t80 34.5v336h45v-415h-45v37q-38 -17 -81 -31t-90 -14z" />
    <glyph glyph-name="uni24B1" unicode="&#x24b1;" 
d="M907 314q0 -119 -31.5 -224.5t-93.5 -197.5h-35q27 43 47.5 95.5t34.5 108.5t21 112t7 106q0 51 -7 107t-21 111.5t-34.5 108t-47.5 96.5h35q62 -92 93.5 -197.5t31.5 -225.5zM23 314q0 120 31.5 225.5t93.5 197.5h35q-27 -44 -47.5 -96.5t-34.5 -108t-21 -111.5t-7 -107
q0 -50 7 -106t21 -112t34.5 -108.5t47.5 -95.5h-35q-62 92 -93.5 197.5t-31.5 224.5zM264 513h46l155 -368l154 368h46l-173 -412h-54z" />
    <glyph glyph-name="uni24B2" unicode="&#x24b2;" 
d="M907 314q0 -119 -31.5 -224.5t-93.5 -197.5h-35q27 43 47.5 95.5t34.5 108.5t21 112t7 106q0 51 -7 107t-21 111.5t-34.5 108t-47.5 96.5h35q62 -92 93.5 -197.5t31.5 -225.5zM23 314q0 120 31.5 225.5t93.5 197.5h35q-27 -44 -47.5 -96.5t-34.5 -108t-21 -111.5t-7 -107
q0 -50 7 -106t21 -112t34.5 -108.5t47.5 -95.5h-35q-62 92 -93.5 197.5t-31.5 224.5zM626 101h-56l-106 344l-104 -344h-56l-128 412h46l112 -366q8 23 14.5 46t13.5 46l56 183q7 23 14 45.5t14 45.5h37l113 -366q8 23 14.5 46t13.5 46l56 183q7 23 14 45.5t14 45.5h46z" />
    <glyph glyph-name="uni24B3" unicode="&#x24b3;" 
d="M907 314q0 -119 -31.5 -224.5t-93.5 -197.5h-35q27 43 47.5 95.5t34.5 108.5t21 112t7 106q0 51 -7 107t-21 111.5t-34.5 108t-47.5 96.5h35q62 -92 93.5 -197.5t31.5 -225.5zM23 314q0 120 31.5 225.5t93.5 197.5h35q-27 -44 -47.5 -96.5t-34.5 -108t-21 -111.5t-7 -107
q0 -50 7 -106t21 -112t34.5 -108.5t47.5 -95.5h-35q-62 92 -93.5 197.5t-31.5 224.5zM337 514l127 -164q32 42 64 82.5t64 81.5h53l-154 -198l167 -214h-52l-142 180q-8 -11 -17 -22.5t-18 -22.5l-71 -90l-1 -1v-1l-1 -1l-5 -5l-1 -1v-1l-1 -1l-17 -23l-1 -1v-1l-1 -1l-5 -5
l-1 -1v-1l-1 -1h-52l167 214l-154 198h53z" />
    <glyph glyph-name="uni24B4" unicode="&#x24b4;" 
d="M907 314q0 -119 -31.5 -224.5t-93.5 -197.5h-35q27 43 47.5 95.5t34.5 108.5t21 112t7 106q0 51 -7 107t-21 111.5t-34.5 108t-47.5 96.5h35q62 -92 93.5 -197.5t31.5 -225.5zM23 314q0 120 31.5 225.5t93.5 197.5h35q-27 -44 -47.5 -96.5t-34.5 -108t-21 -111.5t-7 -107
q0 -50 7 -106t21 -112t34.5 -108.5t47.5 -95.5h-35q-62 92 -93.5 197.5t-31.5 224.5zM429 183q-42 97 -86 198t-86 199h47l149 -347l173 347h47l-283 -570h-47z" />
    <glyph glyph-name="uni24B5" unicode="&#x24b5;" 
d="M907 314q0 -119 -31.5 -224.5t-93.5 -197.5h-35q27 43 47.5 95.5t34.5 108.5t21 112t7 106q0 51 -7 107t-21 111.5t-34.5 108t-47.5 96.5h35q62 -92 93.5 -197.5t31.5 -225.5zM23 314q0 120 31.5 225.5t93.5 197.5h35q-27 -44 -47.5 -96.5t-34.5 -108t-21 -111.5t-7 -107
q0 -50 7 -106t21 -112t34.5 -108.5t47.5 -95.5h-35q-62 92 -93.5 197.5t-31.5 224.5zM301 132l268 344h-260v39h320v-28l-268 -345h268v-39h-328v29z" />
    <glyph glyph-name="uni24D0" unicode="&#x24d0;" 
d="M465 -136q-93 0 -175 35.5t-143 96.5t-96.5 143t-35.5 175t35.5 175t96.5 143t143 96.5t175 35.5t175 -35.5t143 -96.5t96.5 -143t35.5 -175t-35.5 -175t-96.5 -143t-143 -96.5t-175 -35.5zM63 314q0 -83 31.5 -156.5t86 -128t128 -86t156.5 -31.5t156.5 31.5t128 86
t86 128t31.5 156.5t-31.5 156.5t-86 128t-128 86t-156.5 31.5t-156.5 -31.5t-128 -86t-86 -128t-31.5 -156.5zM604 367v14q0 59 -32.5 84.5t-103.5 25.5q-65 0 -96.5 -29t-31.5 -66v-13h-45v19q0 24 11 46.5t32.5 40.5t54 29t75.5 11q180 0 180 -141v-280h-44v52
q-17 -21 -58.5 -40t-93.5 -19q-76 0 -123 28t-47 86t49.5 89.5t140.5 44.5zM472 310q-64 -9 -105 -30t-41 -65q0 -38 33 -57t93 -19q27 0 54 7t49 20.5t35.5 33.5t13.5 45v83z" />
    <glyph glyph-name="uni24D1" unicode="&#x24d1;" 
d="M465 -136q-93 0 -175 35.5t-143 96.5t-96.5 143t-35.5 175t35.5 175t96.5 143t143 96.5t175 35.5t175 -35.5t143 -96.5t96.5 -143t35.5 -175t-35.5 -175t-96.5 -143t-143 -96.5t-175 -35.5zM63 314q0 -83 31.5 -156.5t86 -128t128 -86t156.5 -31.5t156.5 31.5t128 86
t86 128t31.5 156.5t-31.5 156.5t-86 128t-128 86t-156.5 31.5t-156.5 -31.5t-128 -86t-86 -128t-31.5 -156.5zM366 612v-139h135q47 0 82 -15.5t58.5 -42.5t35 -64t11.5 -80q0 -44 -11 -82.5t-33.5 -67t-58 -45t-84.5 -16.5h-179v552h44zM366 434v-334h145q33 0 58 14
t41.5 37t25 54t8.5 66q0 33 -8.5 63t-25.5 52t-42 35t-57 13h-145zM492 196q-2 37 -16 50t-47 15v6q33 1 47 14.5t16 49.5h5q2 -36 16.5 -49.5t46.5 -14.5v-6q-32 -2 -46.5 -15t-16.5 -50h-5z" />
    <glyph glyph-name="uni24D2" unicode="&#x24d2;" 
d="M465 -136q-93 0 -175 35.5t-143 96.5t-96.5 143t-35.5 175t35.5 175t96.5 143t143 96.5t175 35.5t175 -35.5t143 -96.5t96.5 -143t35.5 -175t-35.5 -175t-96.5 -143t-143 -96.5t-175 -35.5zM63 314q0 -83 31.5 -156.5t86 -128t128 -86t156.5 -31.5t156.5 31.5t128 86
t86 128t31.5 156.5t-31.5 156.5t-86 128t-128 86t-156.5 31.5t-156.5 -31.5t-128 -86t-86 -128t-31.5 -156.5zM472 529q42 0 75.5 -11t57 -29.5t36 -42.5t12.5 -50v-20h-45v14q0 21 -9.5 39t-27 32t-43 22t-56.5 8q-72 0 -111 -39.5t-39 -100.5v-72q0 -62 39 -101t111 -39
q31 0 56.5 8t43 22t27 32.5t9.5 38.5v14h45v-20q0 -26 -12.5 -50t-36 -42.5t-57 -29.5t-75.5 -11q-46 0 -82.5 13.5t-61.5 36.5t-38 54.5t-13 67.5v84q0 36 13 67.5t38 54.5t61.5 36.5t82.5 13.5z" />
    <glyph glyph-name="uni24D3" unicode="&#x24d3;" 
d="M465 -136q-93 0 -175 35.5t-143 96.5t-96.5 143t-35.5 175t35.5 175t96.5 143t143 96.5t175 35.5t175 -35.5t143 -96.5t96.5 -143t35.5 -175t-35.5 -175t-96.5 -143t-143 -96.5t-175 -35.5zM63 314q0 -83 31.5 -156.5t86 -128t128 -86t156.5 -31.5t156.5 31.5t128 86
t86 128t31.5 156.5t-31.5 156.5t-86 128t-128 86t-156.5 31.5t-156.5 -31.5t-128 -86t-86 -128t-31.5 -156.5zM608 612v-552h-179q-49 0 -84.5 16.5t-58 45t-33.5 67t-11 82.5q0 43 11.5 80t35 64t58.5 42.5t82 15.5h135v139h44zM419 434q-32 0 -57 -13t-42 -35t-25.5 -52
t-8.5 -63q0 -35 8.5 -66t25 -54t41.5 -37t58 -14h145v334h-145zM433 196q-2 37 -16.5 50t-46.5 15v6q32 1 46.5 14.5t16.5 49.5h5q2 -36 16 -49.5t47 -14.5v-6q-33 -2 -47 -15t-16 -50h-5z" />
    <glyph glyph-name="uni24D4" unicode="&#x24d4;" 
d="M465 -136q-93 0 -175 35.5t-143 96.5t-96.5 143t-35.5 175t35.5 175t96.5 143t143 96.5t175 35.5t175 -35.5t143 -96.5t96.5 -143t35.5 -175t-35.5 -175t-96.5 -143t-143 -96.5t-175 -35.5zM63 314q0 -83 31.5 -156.5t86 -128t128 -86t156.5 -31.5t156.5 31.5t128 86
t86 128t31.5 156.5t-31.5 156.5t-86 128t-128 86t-156.5 31.5t-156.5 -31.5t-128 -86t-86 -128t-31.5 -156.5zM465 139q66 0 102.5 28.5t36.5 66.5v7h44v-13q0 -24 -12.5 -46.5t-36 -40.5t-57.5 -29t-77 -11q-45 0 -80.5 13.5t-60 36.5t-37 54.5t-12.5 67.5v84
q0 36 12.5 67.5t37 54.5t60 36.5t80.5 13.5t80.5 -13.5t60 -36.5t37 -54.5t12.5 -67.5v-58h-335v-20q0 -62 37 -101t108 -39zM610 351q0 61 -37 100.5t-108 39.5t-108 -39.5t-37 -100.5v-15h290v15z" />
    <glyph glyph-name="uni24D5" unicode="&#x24d5;" 
d="M465 -136q-93 0 -175 35.5t-143 96.5t-96.5 143t-35.5 175t35.5 175t96.5 143t143 96.5t175 35.5t175 -35.5t143 -96.5t96.5 -143t35.5 -175t-35.5 -175t-96.5 -143t-143 -96.5t-175 -35.5zM63 314q0 -83 31.5 -156.5t86 -128t128 -86t156.5 -31.5t156.5 31.5t128 86
t86 128t31.5 156.5t-31.5 156.5t-86 128t-128 86t-156.5 31.5t-156.5 -31.5t-128 -86t-86 -128t-31.5 -156.5zM565 614v-38h-40q-35 0 -45.5 -18.5t-10.5 -50.5v-87h99v-39h-99v-360h-46v360h-70v39h68v85q0 49 26 79t75 30h43z" />
    <glyph glyph-name="uni24D6" unicode="&#x24d6;" 
d="M465 -136q-93 0 -175 35.5t-143 96.5t-96.5 143t-35.5 175t35.5 175t96.5 143t143 96.5t175 35.5t175 -35.5t143 -96.5t96.5 -143t35.5 -175t-35.5 -175t-96.5 -143t-143 -96.5t-175 -35.5zM63 314q0 -83 31.5 -156.5t86 -128t128 -86t156.5 -31.5t156.5 31.5t128 86
t86 128t31.5 156.5t-31.5 156.5t-86 128t-128 86t-156.5 31.5t-156.5 -31.5t-128 -86t-86 -128t-31.5 -156.5zM343 146v-14q0 -16 7.5 -33t23.5 -31t40 -23t57 -9q35 0 61 11.5t42.5 31.5t24.5 47t8 58v36q-23 -20 -59 -34t-83 -14q-44 0 -78.5 12.5t-58.5 34.5t-36.5 52.5
t-12.5 66.5v79q0 36 12.5 66.5t36.5 52.5t58.5 34.5t78.5 12.5t78.5 -12.5t58.5 -34.5t36.5 -52.5t12.5 -66.5v-239q0 -36 -11 -69t-33.5 -58t-56.5 -39.5t-79 -14.5q-43 0 -75 12t-53.5 31.5t-32.5 43.5t-11 48v14h44zM608 411q0 60 -37.5 96.5t-105.5 36.5t-105.5 -36.5
t-37.5 -96.5v-67q0 -61 37.5 -96.5t105.5 -35.5q48 0 82.5 14t60.5 45v140zM468 314q-2 40 -17 56t-49 18q34 2 49 17t17 56q2 -41 17.5 -56t47.5 -17q-32 -2 -47.5 -18t-17.5 -56z" />
    <glyph glyph-name="uni24D7" unicode="&#x24d7;" 
d="M465 -136q-93 0 -175 35.5t-143 96.5t-96.5 143t-35.5 175t35.5 175t96.5 143t143 96.5t175 35.5t175 -35.5t143 -96.5t96.5 -143t35.5 -175t-35.5 -175t-96.5 -143t-143 -96.5t-175 -35.5zM63 314q0 -83 31.5 -156.5t86 -128t128 -86t156.5 -31.5t156.5 31.5t128 86
t86 128t31.5 156.5t-31.5 156.5t-86 128t-128 86t-156.5 31.5t-156.5 -31.5t-128 -86t-86 -128t-31.5 -156.5zM530 484q54 0 90 -30t36 -98v-293h-45v299q0 42 -23 63.5t-58 21.5q-48 0 -91 -14.5t-81 -34.5v-335h-44v552h44v-174q37 15 82 29t90 14z" />
    <glyph glyph-name="uni24D8" unicode="&#x24d8;" 
d="M465 -136q-93 0 -175 35.5t-143 96.5t-96.5 143t-35.5 175t35.5 175t96.5 143t143 96.5t175 35.5t175 -35.5t143 -96.5t96.5 -143t35.5 -175t-35.5 -175t-96.5 -143t-143 -96.5t-175 -35.5zM63 314q0 -83 31.5 -156.5t86 -128t128 -86t156.5 -31.5t156.5 31.5t128 86
t86 128t31.5 156.5t-31.5 156.5t-86 128t-128 86t-156.5 31.5t-156.5 -31.5t-128 -86t-86 -128t-31.5 -156.5zM465 616q15 0 26.5 -10t11.5 -27t-11.5 -27.5t-26.5 -10.5t-26.5 10.5t-11.5 27.5t11.5 27t26.5 10zM443 25v427h44v-427h-44z" />
    <glyph glyph-name="uni24D9" unicode="&#x24d9;" 
d="M465 -136q-93 0 -175 35.5t-143 96.5t-96.5 143t-35.5 175t35.5 175t96.5 143t143 96.5t175 35.5t175 -35.5t143 -96.5t96.5 -143t35.5 -175t-35.5 -175t-96.5 -143t-143 -96.5t-175 -35.5zM63 314q0 -83 31.5 -156.5t86 -128t128 -86t156.5 -31.5t156.5 31.5t128 86
t86 128t31.5 156.5t-31.5 156.5t-86 128t-128 86t-156.5 31.5t-156.5 -31.5t-128 -86t-86 -128t-31.5 -156.5zM467 653q15 0 26.5 -10.5t11.5 -27.5q0 -18 -11.5 -28t-26.5 -10t-26.5 10t-11.5 28q0 17 11.5 27.5t26.5 10.5zM384 -8q35 0 48 20t13 52v424h44v-426
q0 -53 -28.5 -80t-76.5 -27v37z" />
    <glyph glyph-name="uni24DA" unicode="&#x24da;" 
d="M465 -136q-93 0 -175 35.5t-143 96.5t-96.5 143t-35.5 175t35.5 175t96.5 143t143 96.5t175 35.5t175 -35.5t143 -96.5t96.5 -143t35.5 -175t-35.5 -175t-96.5 -143t-143 -96.5t-175 -35.5zM63 314q0 -83 31.5 -156.5t86 -128t128 -86t156.5 -31.5t156.5 31.5t128 86
t86 128t31.5 156.5t-31.5 156.5t-86 128t-128 86t-156.5 31.5t-156.5 -31.5t-128 -86t-86 -128t-31.5 -156.5zM305 54v551h45v-362l235 224h57l-173 -166l197 -246h-55l-173 217l-88 -84v-134h-45z" />
    <glyph glyph-name="uni24DB" unicode="&#x24db;" 
d="M465 -136q-93 0 -175 35.5t-143 96.5t-96.5 143t-35.5 175t35.5 175t96.5 143t143 96.5t175 35.5t175 -35.5t143 -96.5t96.5 -143t35.5 -175t-35.5 -175t-96.5 -143t-143 -96.5t-175 -35.5zM63 314q0 -83 31.5 -156.5t86 -128t128 -86t156.5 -31.5t156.5 31.5t128 86
t86 128t31.5 156.5t-31.5 156.5t-86 128t-128 86t-156.5 31.5t-156.5 -31.5t-128 -86t-86 -128t-31.5 -156.5zM423 587h46v-500q0 -20 16 -20h22v-39h-30q-25 0 -39.5 15.5t-14.5 46.5v497z" />
    <glyph glyph-name="uni24DC" unicode="&#x24dc;" 
d="M465 -136q-93 0 -175 35.5t-143 96.5t-96.5 143t-35.5 175t35.5 175t96.5 143t143 96.5t175 35.5t175 -35.5t143 -96.5t96.5 -143t35.5 -175t-35.5 -175t-96.5 -143t-143 -96.5t-175 -35.5zM63 314q0 -83 31.5 -156.5t86 -128t128 -86t156.5 -31.5t156.5 31.5t128 86
t86 128t31.5 156.5t-31.5 156.5t-86 128t-128 86t-156.5 31.5t-156.5 -31.5t-128 -86t-86 -128t-31.5 -156.5zM235 99h-45v414h45v-36q32 16 71 30t80 14q69 0 95 -50q32 22 69.5 36t75.5 14q50 0 82 -30t32 -93v-299h-45v299q0 42 -19.5 63.5t-49.5 21.5q-38 0 -71.5 -13.5
t-62.5 -34.5q1 -5 1 -11.5v-12.5v-312h-44v312q0 72 -63 72q-42 0 -80 -14.5t-71 -34.5v-335z" />
    <glyph glyph-name="uni24DD" unicode="&#x24dd;" 
d="M465 -136q-93 0 -175 35.5t-143 96.5t-96.5 143t-35.5 175t35.5 175t96.5 143t143 96.5t175 35.5t175 -35.5t143 -96.5t96.5 -143t35.5 -175t-35.5 -175t-96.5 -143t-143 -96.5t-175 -35.5zM63 314q0 -83 31.5 -156.5t86 -128t128 -86t156.5 -31.5t156.5 31.5t128 86
t86 128t31.5 156.5t-31.5 156.5t-86 128t-128 86t-156.5 31.5t-156.5 -31.5t-128 -86t-86 -128t-31.5 -156.5zM513 527q54 0 90 -30t36 -98v-293h-45v299q0 42 -23 63t-58 21q-48 0 -91 -14.5t-81 -34.5v-334h-44v413h44v-36q37 16 82 30t90 14z" />
    <glyph glyph-name="uni24DE" unicode="&#x24de;" 
d="M465 -136q-93 0 -175 35.5t-143 96.5t-96.5 143t-35.5 175t35.5 175t96.5 143t143 96.5t175 35.5t175 -35.5t143 -96.5t96.5 -143t35.5 -175t-35.5 -175t-96.5 -143t-143 -96.5t-175 -35.5zM63 314q0 -83 31.5 -156.5t86 -128t128 -86t156.5 -31.5t156.5 31.5t128 86
t86 128t31.5 156.5t-31.5 156.5t-86 128t-128 86t-156.5 31.5t-156.5 -31.5t-128 -86t-86 -128t-31.5 -156.5zM465 529q46 0 82 -13.5t60.5 -36.5t37.5 -54.5t13 -67.5v-84q0 -36 -13 -67.5t-37.5 -54.5t-60.5 -36.5t-82 -13.5q-47 0 -82.5 13.5t-60.5 36.5t-37.5 54.5
t-12.5 67.5v84q0 36 12.5 67.5t37.5 54.5t60.5 36.5t82.5 13.5zM316 279q0 -62 38 -101t111 -39t111 39t38 101v72q0 61 -38 100.5t-111 39.5t-111 -39.5t-38 -100.5v-72zM465 244q-2 40 -17.5 55.5t-48.5 18.5q33 2 48.5 17t17.5 56q2 -41 17 -56t47 -17q-32 -3 -47 -18.5
t-17 -55.5z" />
    <glyph glyph-name="uni24DF" unicode="&#x24df;" 
d="M465 -136q-93 0 -175 35.5t-143 96.5t-96.5 143t-35.5 175t35.5 175t96.5 143t143 96.5t175 35.5t175 -35.5t143 -96.5t96.5 -143t35.5 -175t-35.5 -175t-96.5 -143t-143 -96.5t-175 -35.5zM63 314q0 -83 31.5 -156.5t86 -128t128 -86t156.5 -31.5t156.5 31.5t128 86
t86 128t31.5 156.5t-31.5 156.5t-86 128t-128 86t-156.5 31.5t-156.5 -31.5t-128 -86t-86 -128t-31.5 -156.5zM322 -3v570h179q49 0 84.5 -16.5t58 -45t33.5 -67t11 -81.5q0 -44 -11.5 -81t-35 -64.5t-58.5 -43t-82 -15.5h-135v-156h-44zM511 193q32 0 57 13t42 35.5
t25.5 52t8.5 63.5t-8.5 65.5t-25 54.5t-41.5 37t-58 14h-145v-335h145zM494 294q-2 39 -17 55t-49 18q34 2 49 17t17 57q2 -42 17.5 -57t47.5 -17q-32 -2 -47.5 -18t-17.5 -55z" />
    <glyph glyph-name="uni24E0" unicode="&#x24e0;" 
d="M465 -136q-93 0 -175 35.5t-143 96.5t-96.5 143t-35.5 175t35.5 175t96.5 143t143 96.5t175 35.5t175 -35.5t143 -96.5t96.5 -143t35.5 -175t-35.5 -175t-96.5 -143t-143 -96.5t-175 -35.5zM63 314q0 -83 31.5 -156.5t86 -128t128 -86t156.5 -31.5t156.5 31.5t128 86
t86 128t31.5 156.5t-31.5 156.5t-86 128t-128 86t-156.5 31.5t-156.5 -31.5t-128 -86t-86 -128t-31.5 -156.5zM555 -2v156h-135q-47 0 -82 15.5t-58.5 43t-35 64.5t-11.5 81q0 43 11 81.5t33.5 67t58 45t84.5 16.5h179v-570h-44zM555 194v335h-145q-33 0 -58 -14t-41.5 -37
t-25 -54.5t-8.5 -65.5t8.5 -63.5t25.5 -52t42 -35.5t57 -13h145zM435 441q2 -42 17.5 -57t47.5 -17q-32 -2 -47.5 -18t-17.5 -55q-2 39 -17 55t-49 18q34 2 49 17t17 57z" />
    <glyph glyph-name="uni24E1" unicode="&#x24e1;" 
d="M465 -136q-93 0 -175 35.5t-143 96.5t-96.5 143t-35.5 175t35.5 175t96.5 143t143 96.5t175 35.5t175 -35.5t143 -96.5t96.5 -143t35.5 -175t-35.5 -175t-96.5 -143t-143 -96.5t-175 -35.5zM63 314q0 -83 31.5 -156.5t86 -128t128 -86t156.5 -31.5t156.5 31.5t128 86
t86 128t31.5 156.5t-31.5 156.5t-86 128t-128 86t-156.5 31.5t-156.5 -31.5t-128 -86t-86 -128t-31.5 -156.5zM425 423q11 21 30 39.5t42 32t47.5 21.5t47.5 8v-39q-26 0 -51.5 -10t-48 -26.5t-40 -39t-27.5 -46.5v-260h-45v413h45v-93z" />
    <glyph glyph-name="uni24E2" unicode="&#x24e2;" 
d="M465 -136q-93 0 -175 35.5t-143 96.5t-96.5 143t-35.5 175t35.5 175t96.5 143t143 96.5t175 35.5t175 -35.5t143 -96.5t96.5 -143t35.5 -175t-35.5 -175t-96.5 -143t-143 -96.5t-175 -35.5zM63 314q0 -83 31.5 -156.5t86 -128t128 -86t156.5 -31.5t156.5 31.5t128 86
t86 128t31.5 156.5t-31.5 156.5t-86 128t-128 86t-156.5 31.5t-156.5 -31.5t-128 -86t-86 -128t-31.5 -156.5zM472 99q-45 0 -80.5 10t-60 28t-38 42t-13.5 51h45q0 -22 12.5 -39t33 -29t47 -18.5t54.5 -6.5q25 0 48.5 5.5t42 15t30 24t11.5 32.5q0 29 -25 47.5t-70 34.5
l-80 23q-71 19 -98 49t-27 62q0 23 12.5 42t34 32t50.5 20t62 7q37 0 67.5 -9.5t51.5 -25t32.5 -36t11.5 -41.5h-46q0 15 -8.5 28.5t-24 23.5t-37 16t-46.5 6q-50 0 -82 -15.5t-32 -45.5q0 -23 20 -41t70 -34l73 -21q61 -20 98.5 -48.5t37.5 -72.5q0 -24 -14 -45.5t-38 -37
t-56.5 -24.5t-68.5 -9z" />
    <glyph glyph-name="uni24E3" unicode="&#x24e3;" 
d="M465 -136q-93 0 -175 35.5t-143 96.5t-96.5 143t-35.5 175t35.5 175t96.5 143t143 96.5t175 35.5t175 -35.5t143 -96.5t96.5 -143t35.5 -175t-35.5 -175t-96.5 -143t-143 -96.5t-175 -35.5zM63 314q0 -83 31.5 -156.5t86 -128t128 -86t156.5 -31.5t156.5 31.5t128 86
t86 128t31.5 156.5t-31.5 156.5t-86 128t-128 86t-156.5 31.5t-156.5 -31.5t-128 -86t-86 -128t-31.5 -156.5zM499 30q-48 0 -71 30t-23 79v252h-62v38h64v151h46v-151h86v-38h-86v-254q0 -32 10.5 -50t45.5 -18h37v-39h-47z" />
    <glyph glyph-name="uni24E4" unicode="&#x24e4;" 
d="M465 -136q-93 0 -175 35.5t-143 96.5t-96.5 143t-35.5 175t35.5 175t96.5 143t143 96.5t175 35.5t175 -35.5t143 -96.5t96.5 -143t35.5 -175t-35.5 -175t-96.5 -143t-143 -96.5t-175 -35.5zM63 314q0 -83 31.5 -156.5t86 -128t128 -86t156.5 -31.5t156.5 31.5t128 86
t86 128t31.5 156.5t-31.5 156.5t-86 128t-128 86t-156.5 31.5t-156.5 -31.5t-128 -86t-86 -128t-31.5 -156.5zM420 89q-54 0 -90 30.5t-36 98.5v294h44v-300q0 -42 23.5 -63.5t58.5 -21.5q48 0 91 14.5t80 34.5v336h45v-415h-45v37q-38 -17 -81 -31t-90 -14z" />
    <glyph glyph-name="uni24E5" unicode="&#x24e5;" 
d="M465 -136q-93 0 -175 35.5t-143 96.5t-96.5 143t-35.5 175t35.5 175t96.5 143t143 96.5t175 35.5t175 -35.5t143 -96.5t96.5 -143t35.5 -175t-35.5 -175t-96.5 -143t-143 -96.5t-175 -35.5zM63 314q0 -83 31.5 -156.5t86 -128t128 -86t156.5 -31.5t156.5 31.5t128 86
t86 128t31.5 156.5t-31.5 156.5t-86 128t-128 86t-156.5 31.5t-156.5 -31.5t-128 -86t-86 -128t-31.5 -156.5zM264 507h46l155 -368l154 368h46l-173 -412h-54z" />
    <glyph glyph-name="uni24E6" unicode="&#x24e6;" 
d="M465 -136q-93 0 -175 35.5t-143 96.5t-96.5 143t-35.5 175t35.5 175t96.5 143t143 96.5t175 35.5t175 -35.5t143 -96.5t96.5 -143t35.5 -175t-35.5 -175t-96.5 -143t-143 -96.5t-175 -35.5zM63 314q0 -83 31.5 -156.5t86 -128t128 -86t156.5 -31.5t156.5 31.5t128 86
t86 128t31.5 156.5t-31.5 156.5t-86 128t-128 86t-156.5 31.5t-156.5 -31.5t-128 -86t-86 -128t-31.5 -156.5zM626 99h-56l-106 344l-104 -344h-56l-128 412h46l112 -366q8 23 14.5 46t13.5 46l56 183q7 23 14 45.5t14 45.5h37l113 -366q8 23 14.5 46t13.5 46l56 183
q7 23 14 45.5t14 45.5h46z" />
    <glyph glyph-name="uni24E7" unicode="&#x24e7;" 
d="M465 -136q-93 0 -175 35.5t-143 96.5t-96.5 143t-35.5 175t35.5 175t96.5 143t143 96.5t175 35.5t175 -35.5t143 -96.5t96.5 -143t35.5 -175t-35.5 -175t-96.5 -143t-143 -96.5t-175 -35.5zM63 314q0 -83 31.5 -156.5t86 -128t128 -86t156.5 -31.5t156.5 31.5t128 86
t86 128t31.5 156.5t-31.5 156.5t-86 128t-128 86t-156.5 31.5t-156.5 -31.5t-128 -86t-86 -128t-31.5 -156.5zM337 511l127 -164q32 42 64 82.5t64 81.5h53l-154 -198l167 -214h-52l-142 180q-8 -11 -17 -22.5t-18 -22.5l-71 -90l-1 -1v-1l-1 -1l-5 -5l-1 -1v-1l-1 -1
l-17 -23l-1 -1v-1l-1 -1l-5 -5l-1 -1v-1l-1 -1h-52l167 214l-154 198h53z" />
    <glyph glyph-name="uni24E8" unicode="&#x24e8;" 
d="M465 -136q-93 0 -175 35.5t-143 96.5t-96.5 143t-35.5 175t35.5 175t96.5 143t143 96.5t175 35.5t175 -35.5t143 -96.5t96.5 -143t35.5 -175t-35.5 -175t-96.5 -143t-143 -96.5t-175 -35.5zM63 314q0 -83 31.5 -156.5t86 -128t128 -86t156.5 -31.5t156.5 31.5t128 86
t86 128t31.5 156.5t-31.5 156.5t-86 128t-128 86t-156.5 31.5t-156.5 -31.5t-128 -86t-86 -128t-31.5 -156.5zM439 182q-42 97 -86 198t-86 199h47l149 -347l173 347h47l-283 -570h-47z" />
    <glyph glyph-name="uni24E9" unicode="&#x24e9;" 
d="M465 -136q-93 0 -175 35.5t-143 96.5t-96.5 143t-35.5 175t35.5 175t96.5 143t143 96.5t175 35.5t175 -35.5t143 -96.5t96.5 -143t35.5 -175t-35.5 -175t-96.5 -143t-143 -96.5t-175 -35.5zM63 314q0 -83 31.5 -156.5t86 -128t128 -86t156.5 -31.5t156.5 31.5t128 86
t86 128t31.5 156.5t-31.5 156.5t-86 128t-128 86t-156.5 31.5t-156.5 -31.5t-128 -86t-86 -128t-31.5 -156.5zM301 133l268 344h-260v39h320v-28l-268 -345h268v-39h-328v29z" />
    <glyph glyph-name="SF100000" unicode="&#x2500;" 
d="M0 320h930v-40h-930v40z" />
    <glyph glyph-name="uni2501" unicode="&#x2501;" 
d="M0 360h930v-120h-930v120z" />
    <glyph glyph-name="SF110000" unicode="&#x2502;" 
d="M446 800h38v-1000h-38v1000z" />
    <glyph glyph-name="uni2503" unicode="&#x2503;" 
d="M409 800h112v-1000h-112v1000z" />
    <glyph glyph-name="SF010000" unicode="&#x250c;" 
d="M484 280v-480h-38v520h484v-40h-446z" />
    <glyph glyph-name="uni250D" unicode="&#x250d;" 
d="M484 240v-440h-38v560h484v-120h-446z" />
    <glyph glyph-name="uni250E" unicode="&#x250e;" 
d="M521 280v-480h-112v520h521v-40h-409z" />
    <glyph glyph-name="uni250F" unicode="&#x250f;" 
d="M521 240v-440h-112v560h521v-120h-409z" />
    <glyph glyph-name="SF030000" unicode="&#x2510;" 
d="M446 -200v480h-446v40h484v-520h-38z" />
    <glyph glyph-name="uni2511" unicode="&#x2511;" 
d="M446 -200v440h-446v120h484v-560h-38z" />
    <glyph glyph-name="uni2512" unicode="&#x2512;" 
d="M409 -200v480h-409v40h521v-520h-112z" />
    <glyph glyph-name="uni2513" unicode="&#x2513;" 
d="M409 -200v440h-409v120h521v-560h-112z" />
    <glyph glyph-name="SF020000" unicode="&#x2514;" 
d="M446 280v520h38v-480h446v-40h-484z" />
    <glyph glyph-name="uni2515" unicode="&#x2515;" 
d="M446 240v560h38v-440h446v-120h-484z" />
    <glyph glyph-name="uni2516" unicode="&#x2516;" 
d="M409 800h112v-480h409v-40h-521v520z" />
    <glyph glyph-name="uni2517" unicode="&#x2517;" 
d="M409 800h112v-440h409v-120h-521v560z" />
    <glyph glyph-name="SF040000" unicode="&#x2518;" 
d="M0 280v40h446v480h38v-520h-484z" />
    <glyph glyph-name="uni2519" unicode="&#x2519;" 
d="M0 240v120h446v440h38v-560h-484z" />
    <glyph glyph-name="uni251A" unicode="&#x251a;" 
d="M0 320h409v480h112v-520h-521v40z" />
    <glyph glyph-name="uni251B" unicode="&#x251b;" 
d="M0 360h409v440h112v-560h-521v120z" />
    <glyph glyph-name="SF080000" unicode="&#x251c;" 
d="M484 280v-480h-38v1000h38v-480h446v-40h-446z" />
    <glyph glyph-name="uni251D" unicode="&#x251d;" 
d="M484 240v-440h-38v1000h38v-440h446v-120h-446z" />
    <glyph glyph-name="uni251E" unicode="&#x251e;" 
d="M484 280v-480h-38v480h-37v520h112v-480h409v-40h-446z" />
    <glyph glyph-name="uni251F" unicode="&#x251f;" 
d="M521 280v-480h-112v520h37v480h38v-480h446v-40h-409z" />
    <glyph glyph-name="uni2520" unicode="&#x2520;" 
d="M521 280v-480h-112v1000h112v-480h409v-40h-409z" />
    <glyph glyph-name="uni2521" unicode="&#x2521;" 
d="M484 240v-440h-38v440h-37v560h112v-440h409v-120h-446z" />
    <glyph glyph-name="uni2522" unicode="&#x2522;" 
d="M521 240v-440h-112v560h37v440h38v-440h446v-120h-409z" />
    <glyph glyph-name="uni2523" unicode="&#x2523;" 
d="M521 240v-440h-112v1000h112v-440h409v-120h-409z" />
    <glyph glyph-name="SF090000" unicode="&#x2524;" 
d="M446 -200v480h-446v40h446v480h38v-1000h-38z" />
    <glyph glyph-name="uni2525" unicode="&#x2525;" 
d="M446 -200v440h-446v120h446v440h38v-1000h-38z" />
    <glyph glyph-name="uni2526" unicode="&#x2526;" 
d="M484 280v-480h-38v480h-446v40h409v480h112v-520h-37z" />
    <glyph glyph-name="uni2527" unicode="&#x2527;" 
d="M409 -200v480h-409v40h446v480h38v-480h37v-520h-112z" />
    <glyph glyph-name="uni2528" unicode="&#x2528;" 
d="M409 -200v480h-409v40h409v480h112v-1000h-112z" />
    <glyph glyph-name="uni2529" unicode="&#x2529;" 
d="M484 240v-440h-38v440h-446v120h409v440h112v-560h-37z" />
    <glyph glyph-name="uni252A" unicode="&#x252a;" 
d="M409 -200v440h-409v120h446v440h38v-440h37v-560h-112z" />
    <glyph glyph-name="uni252B" unicode="&#x252b;" 
d="M409 -200v440h-409v120h409v440h112v-1000h-112z" />
    <glyph glyph-name="SF060000" unicode="&#x252c;" 
d="M484 280v-480h-38v480h-446v40h930v-40h-446z" />
    <glyph glyph-name="uni252D" unicode="&#x252d;" 
d="M446 -200v440h-446v120h484v-40h446v-40h-446v-480h-38z" />
    <glyph glyph-name="uni252E" unicode="&#x252e;" 
d="M484 240v-440h-38v480h-446v40h446v40h484v-120h-446z" />
    <glyph glyph-name="uni252F" unicode="&#x252f;" 
d="M484 240v-440h-38v440h-446v120h930v-120h-446z" />
    <glyph glyph-name="uni2530" unicode="&#x2530;" 
d="M521 280v-480h-112v480h-409v40h930v-40h-409z" />
    <glyph glyph-name="uni2531" unicode="&#x2531;" 
d="M521 280v-480h-112v440h-409v120h521v-40h409v-40h-409z" />
    <glyph glyph-name="uni2532" unicode="&#x2532;" 
d="M521 240v-440h-112v480h-409v40h409v40h521v-120h-409z" />
    <glyph glyph-name="uni2533" unicode="&#x2533;" 
d="M521 240v-440h-112v440h-409v120h930v-120h-409z" />
    <glyph glyph-name="SF070000" unicode="&#x2534;" 
d="M0 280v40h446v480h38v-480h446v-40h-930z" />
    <glyph glyph-name="uni2535" unicode="&#x2535;" 
d="M484 280v-40h-484v120h446v440h38v-480h446v-40h-446z" />
    <glyph glyph-name="uni2536" unicode="&#x2536;" 
d="M446 240v40h-446v40h446v480h38v-440h446v-120h-484z" />
    <glyph glyph-name="uni2537" unicode="&#x2537;" 
d="M0 240v120h446v440h38v-440h446v-120h-930z" />
    <glyph glyph-name="uni2538" unicode="&#x2538;" 
d="M0 280v40h409v480h112v-480h409v-40h-930z" />
    <glyph glyph-name="uni2539" unicode="&#x2539;" 
d="M0 360h409v440h112v-480h409v-40h-409v-40h-521v120z" />
    <glyph glyph-name="uni253A" unicode="&#x253a;" 
d="M409 280h-409v40h409v480h112v-440h409v-120h-521v40z" />
    <glyph glyph-name="uni253B" unicode="&#x253b;" 
d="M0 240v120h409v440h112v-440h409v-120h-930z" />
    <glyph glyph-name="SF050000" unicode="&#x253c;" 
d="M484 280v-480h-38v480h-446v40h446v480h38v-480h446v-40h-446z" />
    <glyph glyph-name="uni253D" unicode="&#x253d;" 
d="M484 280v-480h-38v440h-446v120h446v440h38v-480h446v-40h-446z" />
    <glyph glyph-name="uni253E" unicode="&#x253e;" 
d="M484 240v-440h-38v480h-446v40h446v480h38v-440h446v-120h-446z" />
    <glyph glyph-name="uni253F" unicode="&#x253f;" 
d="M484 240v-440h-38v440h-446v120h446v440h38v-440h446v-120h-446z" />
    <glyph glyph-name="uni2540" unicode="&#x2540;" 
d="M484 280v-480h-38v480h-446v40h409v480h112v-480h409v-40h-446z" />
    <glyph glyph-name="uni2541" unicode="&#x2541;" 
d="M521 280v-480h-112v480h-409v40h446v480h38v-480h446v-40h-409z" />
    <glyph glyph-name="uni2542" unicode="&#x2542;" 
d="M521 280v-480h-112v480h-409v40h409v480h112v-480h409v-40h-409z" />
    <glyph glyph-name="uni2543" unicode="&#x2543;" 
d="M484 240v-440h-38v440h-446v120h409v440h112v-480h409v-40h-409v-40h-37z" />
    <glyph glyph-name="uni2544" unicode="&#x2544;" 
d="M484 240v-440h-38v440h-37v40h-409v40h409v480h112v-440h409v-120h-446z" />
    <glyph glyph-name="uni2545" unicode="&#x2545;" 
d="M409 -200v440h-409v120h446v440h38v-440h37v-40h409v-40h-409v-480h-112z" />
    <glyph glyph-name="uni2546" unicode="&#x2546;" 
d="M521 240v-440h-112v480h-409v40h409v40h37v440h38v-440h446v-120h-409z" />
    <glyph glyph-name="uni2547" unicode="&#x2547;" 
d="M484 240v-440h-38v440h-446v120h409v440h112v-440h409v-120h-446z" />
    <glyph glyph-name="uni2548" unicode="&#x2548;" 
d="M521 240v-440h-112v440h-409v120h446v440h38v-440h446v-120h-409z" />
    <glyph glyph-name="uni2549" unicode="&#x2549;" 
d="M521 280v-480h-112v440h-409v120h409v440h112v-480h409v-40h-409z" />
    <glyph glyph-name="uni254A" unicode="&#x254a;" 
d="M521 240v-440h-112v480h-409v40h409v480h112v-440h409v-120h-409z" />
    <glyph glyph-name="uni254B" unicode="&#x254b;" 
d="M521 240v-440h-112v440h-409v120h409v440h112v-440h409v-120h-409z" />
    <glyph glyph-name="shade" unicode="&#x2592;" 
d="M795 735h93v-97h-93v97zM387 638h-93v97h93v-97zM137 638h-93v97h93v-97zM264 638h-93v97h93v-97zM639 638h-95v97h95v-97zM670 735h92v-97h-92v97zM419 638v97h94v-97h-94zM795 606h93v-92h-93v92zM387 514h-93v92h93v-92zM137 514h-93v92h93v-92zM264 514h-93v92h93
v-92zM639 514h-95v92h95v-92zM670 606h92v-92h-92v92zM419 514v92h94v-92h-94zM795 484h93v-92h-93v92zM387 392h-93v92h93v-92zM137 392h-93v92h93v-92zM264 392h-93v92h93v-92zM639 392h-95v92h95v-92zM670 484h92v-92h-92v92zM419 392v92h94v-92h-94zM419 264v95h94v-95
h-94zM670 359h92v-95h-92v95zM639 264h-95v95h95v-95zM264 264h-93v95h93v-95zM137 264h-93v95h93v-95zM387 264h-93v95h93v-95zM795 359h93v-95h-93v95zM795 232h93v-93h-93v93zM387 139h-93v93h93v-93zM137 139h-93v93h93v-93zM264 139h-93v93h93v-93zM639 139h-95v93h95
v-93zM670 232h92v-93h-92v93zM419 139v93h94v-93h-94zM795 109h93v-91h-93v91zM387 18h-93v91h93v-91zM137 18h-93v91h93v-91zM264 18h-93v91h93v-91zM639 18h-95v91h95v-91zM670 109h92v-91h-92v91zM419 18v91h94v-91h-94zM795 -13h93v-94h-93v94zM387 -107h-93v94h93v-94z
M137 -107h-93v94h93v-94zM264 -107h-93v94h93v-94zM639 -107h-95v94h95v-94zM670 -13h92v-94h-92v94zM419 -107v94h94v-94h-94z" />
    <glyph glyph-name="filledbox" unicode="&#x25a0;" 
d="M887 735v-842h-844v842h844z" />
    <glyph glyph-name="H22073" unicode="&#x25a1;" 
d="M886 735v-842h-842v842h842zM91 -60h748v748h-748v-748z" />
    <glyph glyph-name="uni25A3" unicode="&#x25a3;" 
d="M886 735v-842h-842v842h842zM91 -60h748v748h-748v-748zM226 553h478v-478h-478v478z" />
    <glyph glyph-name="uni25A4" unicode="&#x25a4;" 
d="M886 735v-842h-842v842h842zM91 688v-152h748v152h-748zM839 337v152h-748v-152h748zM91 291v-152h748v152h-748zM839 -60v152h-748v-152h748z" />
    <glyph glyph-name="uni25A5" unicode="&#x25a5;" 
d="M886 735v-842h-842v842h842zM839 688h-152v-748h152v748zM91 -60h152v748h-152v-748zM442 688h-152v-748h152v748zM488 -60h152v748h-152v-748z" />
    <glyph glyph-name="uni25A6" unicode="&#x25a6;" 
d="M886 735v-842h-842v842h842zM91 688v-152h152v152h-152zM442 688h-152v-152h152v152zM640 536v152h-152v-152h152zM839 688h-152v-152h152v152zM839 337v152h-152v-152h152zM243 489h-152v-152h152v152zM290 489v-152h152v152h-152zM488 489v-152h152v152h-152zM687 139
h152v152h-152v-152zM640 139v152h-152v-152h152zM290 139h152v152h-152v-152zM91 291v-152h152v152h-152zM839 -60v152h-152v-152h152zM91 -60h152v152h-152v-152zM488 -60h152v152h-152v-152zM290 92v-152h152v152h-152z" />
    <glyph glyph-name="uni25A7" unicode="&#x25a7;" 
d="M886 735v-842h-842v842h842zM839 688h-114l114 -114v114zM459 688h-135l515 -515v135zM839 506l-182 182h-130l312 -312v130zM839 -29v138l-579 579h-138zM668 -60h138l-715 715v-138zM467 -60h136l-512 512v-136zM91 117l177 -177h134l-311 311v-134zM91 -60h113
l-113 113v-113z" />
    <glyph glyph-name="uni25A8" unicode="&#x25a8;" 
d="M886 735v-842h-842v842h842zM91 688v-119l119 119h-119zM91 105v-139l722 722h-139zM409 688h-134l-184 -184v-134zM91 305v-136l519 519h-136zM839 513v138l-711 -711h138zM839 314v135l-509 -509h135zM533 -60h131l175 175v131zM839 -60v107l-107 -107h107z" />
    <glyph glyph-name="uni25A9" unicode="&#x25a9;" 
d="M886 735v-842h-842v842h842zM770 645l43 43h-88zM610 688h-83l42 -41zM409 688h-85l43 -42zM210 688h-88l44 -44zM535 613l-69 68l-67 -68l68 -67zM335 614l-68 67l-68 -69l66 -67zM736 611l-70 69l-65 -66l69 -68zM91 655v-86l43 43zM839 651l-38 -38l38 -39v77z
M367 581l-69 -68l68 -69l69 70zM167 580l-70 -69l68 -67l68 69zM636 512l-69 68l-68 -67l70 -69zM836 510l-69 69l-65 -65l69 -70zM467 343l70 69l-70 69l-68 -69zM265 344l69 68l-68 69l-69 -70zM737 410l-69 70l-67 -68l68 -69zM91 370l41 41l-41 41v-82zM839 449l-36 -37
l36 -36v73zM569 242l68 69l-68 69l-70 -69zM367 242l68 69l-68 69l-70 -69zM165 379l-69 -68l69 -68l67 68zM769 378l-68 -67l68 -68l67 68zM601 210l67 -67l69 68l-68 68zM399 210l68 -69l70 69l-70 69zM197 210l69 -68l68 67l-69 70zM91 169l41 41l-41 41v-82zM839 173v73
l-36 -37zM567 41l69 70l-67 67l-70 -69zM97 111l70 -69l66 67l-68 69zM767 43l69 69l-65 65l-69 -68zM367 40l68 69l-69 68l-68 -67zM199 10l68 -69l68 67l-70 69zM601 7l65 -65l70 70l-66 65zM399 8l67 -67l69 68l-68 68zM91 -34l43 43l-43 44v-87zM839 -29v76l-38 -38z
M128 -60h76l-38 38zM732 -60h74l-36 38zM330 -60h72l-35 36zM533 -60h70l-34 35z" />
    <glyph glyph-name="triagup" unicode="&#x25b2;" 
d="M950 -107h-970l485 840z" />
    <glyph glyph-name="uni25B3" unicode="&#x25b3;" 
d="M950 -107h-970l485 840zM60 -61h810l-405 702z" />
    <glyph glyph-name="uni25B6" unicode="&#x25b6;" 
d="M89 -156v934l808 -467z" />
    <glyph glyph-name="uni25B7" unicode="&#x25b7;" 
d="M89 -156v934l808 -467zM133 701v-780l676 390z" />
    <glyph glyph-name="triagdn" unicode="&#x25bc;" 
d="M-20 735h970l-485 -840z" />
    <glyph glyph-name="uni25BD" unicode="&#x25bd;" 
d="M-20 735h970l-485 -840zM870 689h-810l405 -702z" />
    <glyph glyph-name="uni25C0" unicode="&#x25c0;" 
d="M841 -156l-808 467l808 467v-934z" />
    <glyph glyph-name="uni25C1" unicode="&#x25c1;" 
d="M841 -156l-808 467l808 467v-934zM797 701l-676 -390l676 -390v780z" />
    <glyph glyph-name="uni25C6" unicode="&#x25c6;" 
d="M950 314l-485 -485l-485 485l485 485z" />
    <glyph glyph-name="uni25C7" unicode="&#x25c7;" 
d="M950 314l-485 -485l-485 485l485 485zM42 314l423 -423l423 423l-423 423z" />
    <glyph glyph-name="uni25C8" unicode="&#x25c8;" 
d="M950 314l-485 -485l-485 485l485 485zM42 314l423 -423l423 423l-423 423zM465 577l262 -263l-262 -262l-263 262z" />
    <glyph glyph-name="circle" unicode="&#x25cb;" 
d="M465 -134q-93 0 -174.5 35t-142.5 96t-96 142.5t-35 174.5t35 174.5t96 142.5t142.5 96t174.5 35t174.5 -35t142.5 -96t96 -142.5t35 -174.5t-35 -174.5t-96 -142.5t-142.5 -96t-174.5 -35zM61 314q0 -84 32 -157.5t86.5 -128t128 -86.5t157.5 -32t157.5 32t128 86.5
t86.5 128t32 157.5t-32 157.5t-86.5 128t-128 86.5t-157.5 32t-157.5 -32t-128 -86.5t-86.5 -128t-32 -157.5z" />
    <glyph glyph-name="uni25CE" unicode="&#x25ce;" 
d="M17 314q0 93 35 174.5t96 142.5t142.5 96t174.5 35t174.5 -35t142.5 -96t96 -142.5t35 -174.5t-35 -174.5t-96 -142.5t-142.5 -96t-174.5 -35t-174.5 35t-142.5 96t-96 142.5t-35 174.5zM869 314q0 84 -32 157.5t-86.5 128t-128 86.5t-157.5 32t-157.5 -32t-128 -86.5
t-86.5 -128t-32 -157.5t32 -157.5t86.5 -128t128 -86.5t157.5 -32t157.5 32t128 86.5t86.5 128t32 157.5zM152 314q0 65 24.5 122.5t67 100t99.5 67t122 24.5t122 -24.5t99.5 -67t67 -100t24.5 -122.5t-24.5 -122t-67 -99.5t-99.5 -67t-122 -24.5t-122 24.5t-99.5 67
t-67 99.5t-24.5 122zM738 314q0 57 -21.5 106.5t-58.5 87t-86.5 59t-106.5 21.5t-106.5 -21.5t-86.5 -59t-58.5 -87t-21.5 -106.5q0 -56 21.5 -106t58.5 -87t86.5 -58.5t106.5 -21.5t106.5 21.5t86.5 58.5t58.5 87t21.5 106z" />
    <glyph glyph-name="H18533" unicode="&#x25cf;" 
d="M465 -134q-93 0 -174.5 35t-142.5 96t-96 142.5t-35 174.5t35 174.5t96 142.5t142.5 96t174.5 35t174.5 -35t142.5 -96t96 -142.5t35 -174.5t-35 -174.5t-96 -142.5t-142.5 -96t-174.5 -35z" />
    <glyph glyph-name="uni25D0" unicode="&#x25d0;" 
d="M903 314q0 -91 -34.5 -170.5t-94 -139t-139 -94t-170.5 -34.5t-170.5 34.5t-139 94t-94 139t-34.5 170.5t34.5 170.5t94 139t139 94t170.5 34.5t170.5 -34.5t139 -94t94 -139t34.5 -170.5zM463 -93q85 0 159.5 32t130 87t87.5 129.5t32 158.5t-32 158.5t-87.5 129.5
t-130 87t-159.5 32v-814z" />
    <glyph glyph-name="uni25D1" unicode="&#x25d1;" 
d="M903 314q0 -91 -34.5 -170.5t-94 -139t-139 -94t-170.5 -34.5t-170.5 34.5t-139 94t-94 139t-34.5 170.5t34.5 170.5t94 139t139 94t170.5 34.5t170.5 -34.5t139 -94t94 -139t34.5 -170.5zM467 721q-85 0 -159.5 -32t-130 -87t-87.5 -129.5t-32 -158.5t32 -158.5
t87.5 -129.5t130 -87t159.5 -32v814z" />
    <glyph glyph-name="uni2605" unicode="&#x2605;" 
d="M925 435v-4l-281 -211l111 -347l-3 -2l-287 215l-287 -215l-3 2l111 347l-281 211v4h348l110 345h4l110 -345h348z" />
    <glyph glyph-name="uni2606" unicode="&#x2606;" 
d="M461 770h8l108 -342h348l2 -7l-283 -205l113 -341l-6 -5l-286 214l-286 -214l-6 5l113 341l-283 205l2 7h348zM112 391l227 -158l-94 -261l3 -2l217 170l217 -170l3 2l-94 261l227 158l-273 -7l-78 264h-4l-78 -264z" />
    <glyph glyph-name="uni260E" unicode="&#x260e;" 
d="M229 401v-11q0 -14 -5 -26t-23 -17l-146 -11q-19 0 -30.5 10t-11.5 30q0 61 20 105t54 74t79 47.5t95.5 27t102.5 12.5t101 3q48 0 100.5 -3t103 -12.5t95.5 -27t79 -47.5t54 -74t20 -105q0 -20 -11.5 -30t-30.5 -10l-146 11q-18 5 -23 17t-5 26v11l4 89h-77v-52
q0 -24 8 -46.5t23 -44.5t36.5 -45t48.5 -49q51 -53 73 -117t22 -130q0 -27 -14 -43t-44 -16h-632q-30 0 -44 16t-14 43q0 66 22 130t73 117q27 26 48.5 49t36.5 45t23 44.5t8 46.5v52h-77zM398 499v-100h134v100h-134zM295 177q0 -35 13.5 -66t36.5 -54t54 -36.5t66 -13.5
t66 13.5t54 36.5t36.5 54t13.5 66t-13.5 66t-36.5 54t-54 36.5t-66 13.5t-66 -13.5t-54 -36.5t-36.5 -54t-13.5 -66z" />
    <glyph glyph-name="uni260F" unicode="&#x260f;" 
d="M225 490l4 -89v-11q0 -14 -5 -26t-23 -17l-146 -11q-19 0 -30.5 10t-11.5 30q0 61 20 105t54 74t79 47.5t95.5 27t103 12.5t100.5 3t100.5 -3t103 -12.5t95.5 -27t79 -47.5t54 -74t20 -105q0 -20 -11.5 -30t-30.5 -10l-146 11q-18 5 -23 17t-5 26v11l4 89h-77v-52
q0 -24 8 -46.5t23 -44.5t36.5 -45t48.5 -49q51 -53 73 -117t22 -130q0 -27 -14 -43t-44 -16h-632q-30 0 -44 16t-14 43q0 66 22 130t73 117q27 26 48.5 49t36.5 45t23 44.5t8 46.5v52h-77zM465 621q-44 0 -93 -2.5t-96.5 -10.5t-91 -24t-76 -43t-52 -67.5t-19.5 -97.5
q0 -16 11 -16h3l145 11q11 1 11 15v4l-8 124h127v-76q0 -28 -9 -53t-25 -49.5t-38.5 -49t-49.5 -51.5q-51 -48 -70 -105.5t-19 -123.5q0 -20 7 -27.5t27 -7.5h632q20 0 27 7.5t7 27.5q0 66 -19 123.5t-70 105.5q-27 27 -49.5 51.5t-38.5 49t-25 49.5t-9 53v76h127l-8 -124
v-4q0 -14 11 -15l145 -11h3q11 0 11 16q0 57 -19.5 97.5t-52 67.5t-76 43t-91 24t-96.5 10.5t-93 2.5zM388 394v120h154v-120h-154zM518 490h-106v-72h106v72zM465 2q-37 0 -69.5 14.5t-57 39t-39 57t-14.5 69.5t14.5 69.5t39 57t57 39t69.5 14.5t69.5 -14.5t57 -39t39 -57
t14.5 -69.5t-14.5 -69.5t-39 -57t-57 -39t-69.5 -14.5zM309 182q0 -32 12.5 -60.5t33.5 -49.5t49.5 -33.5t60.5 -12.5t60.5 12.5t49.5 33.5t33.5 49.5t12.5 60.5t-12.5 60.5t-33.5 49.5t-49.5 33.5t-60.5 12.5t-60.5 -12.5t-49.5 -33.5t-33.5 -49.5t-12.5 -60.5z" />
    <glyph glyph-name="uni261C" unicode="&#x261c;" 
d="M792 114q-5 0 -10 -0.5t-11 -2.5q-62 -23 -128.5 -39t-132.5 -16q-22 0 -48.5 3t-37.5 8h-3l-5 -1q-43 0 -72 20t-32 66q-1 0 -1 1v2q-1 1 -1 2l-11 5q-16 11 -25.5 30.5t-10.5 46.5q0 6 -4 9q-20 10 -30 30q-7 17 -7 34q0 25 10.5 37t10.5 14q0 5 -6 5q-19 -1 -39 -1
h-38q-17 0 -37.5 1t-38.5 7t-30 18.5t-12 35.5q0 17 7 29t18.5 19.5t25 11.5t25.5 7q17 3 46.5 7t65.5 8t75.5 7.5t76.5 6.5t68.5 4.5t51.5 1.5q56 0 124 -23t161 -66q4 -1 9 -1h67q12 0 12 -12v-303q0 -5 -1 -6q-1 -3 -4.5 -4.5t-6.5 -1.5h-71zM260 392q20 0 39.5 4.5
t33.5 20.5q14 17 31 30.5t33 29.5l42 30q-38 -3 -86 -7.5t-93.5 -9t-82.5 -9t-54 -8.5q-23 -5 -35.5 -11t-18 -12t-6.5 -12t-1 -9q0 -6 2 -12.5t8 -11.5t17.5 -9t30.5 -5q6 -1 15 -1h20q20 0 43 0.5t43 1.5h19zM794 417q-7 0 -10 2q-81 38 -147.5 62t-107.5 24
q-34 0 -56.5 -6.5t-45.5 -23.5q-8 -6 -23.5 -19t-31.5 -28t-27.5 -30t-11.5 -26q0 -13 13 -18.5t24 -5.5q10 0 30 5.5t41.5 12.5t41 14.5t28.5 12.5q1 1 3 1q5 0 10 -5q15 -14 42.5 -29.5t58.5 -28.5t60.5 -21.5t49.5 -8.5q4 0 9 -2t5 -7t-4.5 -8.5t-10.5 -5.5q-2 -1 -8 -1
q-18 0 -49.5 9t-64 22.5t-60 29t-36.5 27.5l-4 -2q2 -2 3 -8.5t1 -12.5q0 -9 -2 -19q14 -11 24.5 -30t10.5 -37q0 -10 -4 -18q13 -7 19 -21t6 -28q0 -18 -8.5 -33.5t-21 -28.5t-28 -23t-30.5 -17h1q-3 0 -3 -3q0 -4 3 -4q8 -1 15 -1h15q66 0 132 17.5t128 40.5q2 2 5.5 2
h5.5l58 1q5 0 9 3.5t4 8.5v255q0 5 -3.5 7.5t-7.5 2.5h-50zM243 311q0 -17 8 -27.5t20 -16t27 -7.5t29 -2q12 0 22 2q32 4 69 15t61 35q7 5 9 11t2 12q0 12 -4 15t-14 3l-63 -19q-23 -5 -39 -5h-8t-8 1q-14 4 -24 11.5t-17 24.5q-4 7 -11 7q-5 0 -7 -1q-25 -10 -42 -30
q-6 -6 -8 -13.5t-2 -15.5zM372 170q15 0 41 7.5t51 20t43.5 29.5t18.5 36q0 10 -4.5 20.5t-16.5 10.5q-6 0 -10 -3q-1 0 -3 -2l-6 -3l-1 -1h-1q-39 -24 -78 -36.5t-84 -12.5h-15.5t-15.5 2q-6 0 -6 -7q2 -13 6.5 -26.5t18.5 -22.5q12 -7 28.5 -9.5t33.5 -2.5zM404 89
q15 0 39.5 8t48.5 21.5t41.5 31t17.5 35.5q0 6 -2 12q-6 15 -17 15q-8 0 -17 -7q-15 -11 -34.5 -21t-39.5 -18.5t-38.5 -13.5t-30.5 -5q-8 0 -16.5 0.5t-16.5 1.5q-5 0 -5 -5q5 -28 23.5 -41.5t46.5 -13.5z" />
    <glyph glyph-name="uni261E" unicode="&#x261e;" 
d="M67 114q-3 0 -6.5 1.5t-4.5 4.5q-1 1 -1 6v303q0 12 12 12h67q5 0 9 1q93 43 161 66t124 23q30 0 84 -3.5t112.5 -9t110 -11.5t77.5 -11q12 -3 25.5 -7t25 -11.5t18.5 -19.5t7 -29q0 -23 -12 -35.5t-30 -18.5t-38.5 -7t-37.5 -1h-38t-39 1q-6 0 -6 -5q0 -2 10.5 -14
t10.5 -37q0 -17 -7 -34q-10 -20 -30 -30q-4 -3 -4 -9q-1 -27 -10.5 -46.5t-25.5 -30.5l-11 -5q-1 -1 -1 -2q-1 -1 -1 -2v-1q-3 -46 -32 -66t-72 -20l-5 1h-3q-11 -5 -37.5 -8t-48.5 -3q-66 0 -132.5 16t-128.5 39q-6 2 -11 2.5t-10 0.5h-71zM689 392q20 -1 43 -1.5t43 -0.5
h20t15 1q37 3 47.5 14t10.5 24q0 3 -1 9t-6.5 12t-18 12t-35.5 11q-17 4 -54 8.5t-82.5 9t-93.5 9t-86 7.5l42 -30q16 -16 33 -29.5t31 -30.5q14 -16 33.5 -20.5t39.5 -4.5h19zM86 417q-4 0 -7.5 -2.5t-3.5 -7.5v-255q0 -5 4 -8.5t9 -3.5l58 -1h5.5t5.5 -2q62 -23 128 -40.5
t132 -17.5h15t15 1q3 0 3 4q0 3 -3 3h1q-15 7 -30.5 17t-28 23t-21 28.5t-8.5 33.5q0 14 6 28t19 21q-4 8 -4 18q0 18 10.5 37t24.5 30q-2 10 -2 19q0 6 1 12.5t3 8.5l-4 2q-9 -12 -36.5 -27.5t-60 -29t-64 -22.5t-49.5 -9q-6 0 -8 1q-6 2 -10.5 5.5t-4.5 8.5t5 7t9 2
q19 0 49 8.5t61 21.5t58.5 28.5t42.5 29.5q5 5 10 5q2 0 3 -1q9 -5 28.5 -12.5t41 -14.5t41 -12.5t30.5 -5.5t24 5.5t13 18.5q0 11 -11.5 26t-27.5 30t-31.5 28t-23.5 19q-23 17 -45.5 23.5t-56.5 6.5q-41 0 -107.5 -24t-147.5 -62q-3 -2 -10 -2h-50zM687 311q0 8 -2 15.5
t-8 13.5q-17 20 -42 30q-2 1 -7 1q-7 0 -11 -7q-7 -17 -17 -24.5t-24 -11.5q-4 -1 -8 -1h-8q-16 0 -39 5l-63 19q-10 0 -14 -3t-4 -15q0 -6 2 -12t9 -11q24 -24 61 -35t69 -15q10 -2 22 -2q14 0 29 2t27 7.5t20 16t8 27.5zM558 170q17 0 33.5 2.5t28.5 9.5q14 9 18.5 22.5
t6.5 26.5q0 7 -6 7q-8 -2 -15.5 -2h-15.5q-45 0 -84 12.5t-78 36.5h-1l-1 1l-6 3q-2 2 -3 2q-5 3 -10 3q-12 0 -16.5 -10.5t-4.5 -20.5q0 -19 18.5 -36t43.5 -29.5t51 -20t41 -7.5zM526 89q28 0 46.5 13.5t23.5 41.5q0 5 -5 5q-8 -1 -16.5 -1.5t-16.5 -0.5q-12 0 -30.5 5
t-38.5 13.5t-39.5 18.5t-34.5 21q-9 7 -17 7q-11 0 -17 -15q-2 -6 -2 -12q0 -18 17.5 -35.5t41.5 -31t48.5 -21.5t39.5 -8z" />
    <glyph glyph-name="female" unicode="&#x2640;" 
d="M229 524q0 43 16.5 84t47 72.5t74.5 50.5t98 19t98 -19t74.5 -50.5t47 -72.5t16.5 -84q0 -39 -14 -77.5t-41 -69.5t-66.5 -52.5t-89.5 -26.5v-132h253v-50h-253v-246h-50v246h-253v50h253v132q-50 5 -89.5 26.5t-66.5 52.5t-41 69.5t-14 77.5zM652 524q0 33 -13 64.5
t-37 56.5t-58.5 40.5t-78.5 15.5t-78.5 -15.5t-58.5 -40.5t-37 -56.5t-13 -64.5t13 -64.5t37 -56.5t58.5 -40.5t78.5 -15.5t78.5 15.5t58.5 40.5t37 56.5t13 64.5z" />
    <glyph glyph-name="male" unicode="&#x2642;" 
d="M557 173q0 -48 -18.5 -90.5t-50.5 -74.5t-75 -50.5t-91 -18.5t-90.5 18.5t-74.5 50.5t-50.5 74.5t-18.5 90.5t18.5 91t50.5 75t74.5 50.5t90.5 18.5q80 0 144 -50l272 266h-252v49h336v-336h-49v253l-267 -272q25 -29 38 -67t13 -78zM137 173q0 -37 13.5 -70.5t38.5 -59
t58.5 -40.5t74.5 -15q40 0 74.5 15t59 40.5t38.5 59t14 70.5t-14 71t-38.5 59.5t-59 40.5t-74.5 15q-41 0 -74.5 -15t-58.5 -40.5t-38.5 -59.5t-13.5 -71z" />
    <glyph glyph-name="spade" unicode="&#x2660;" 
d="M692 533q27 -26 60.5 -58.5t62 -71.5t48 -85t19.5 -100q0 -44 -14.5 -83.5t-40.5 -69.5t-63 -47.5t-82 -17.5q-38 0 -67.5 10t-51.5 27t-37.5 38t-24.5 44l93 -244h-258l93 244q-9 -23 -26 -44t-40 -38t-52 -27t-63 -10q-45 0 -81.5 17.5t-63 47.5t-41 69.5t-14.5 83.5
q0 54 19.5 100t48 85t62 71.5t60.5 58.5q33 32 67.5 67.5t65 69.5t54.5 64.5t38 51.5q2 4 4 0q13 -21 37.5 -51.5t55 -64.5t65 -69.5t67.5 -67.5z" />
    <glyph glyph-name="uni2661" unicode="&#x2661;" 
d="M473 583q16 42 39.5 71t51 47t58.5 26t61 8q43 0 81.5 -18.5t67 -51t45 -77t16.5 -95.5q0 -56 -20 -103.5t-49 -88t-63.5 -74t-62.5 -60.5q-34 -33 -68.5 -70t-64.5 -73.5t-54 -69t-38 -54.5q-2 -4 -4 0q-14 22 -38 54.5t-54 69t-64.5 73.5t-68.5 70q-29 27 -63 60.5
t-63 74t-49 88.5t-20 103q0 51 16.5 95.5t45 77t67 51t81.5 18.5q30 0 60.5 -8t58.5 -26t51 -47t40 -71q2 -6 4 0zM860 493q0 45 -14 83t-38 66.5t-56.5 44.5t-68.5 16q-67 0 -112.5 -37t-75.5 -113q-8 -24 -24 -24t-24 24q-30 76 -75.5 113t-112.5 37q-36 0 -68.5 -16
t-56.5 -44.5t-38 -66.5t-14 -83q0 -48 19 -92t46.5 -82t59.5 -71t59 -58q33 -31 63.5 -63.5t57.5 -63t48 -58.5t34 -49q2 -4 4 0q13 21 34.5 49t48 58.5t57.5 63t63 63.5q27 25 59 57.5t59.5 71t46.5 82.5t19 92z" />
    <glyph glyph-name="club" unicode="&#x2663;" 
d="M429 99q-20 -31 -39.5 -51.5t-43 -32.5t-52 -17t-64.5 -5q-42 0 -79 15t-64 42t-42.5 64t-15.5 82q0 43 15 80t42 64.5t64 43.5t81 16q23 0 46 -7t40 -16q1 -1 3 -1t4 3q1 3 0 6q-1 2 -3 3q-26 25 -44 62t-18 82q0 43 16 80.5t43.5 66t65 45t80.5 16.5t81 -16.5t65.5 -45
t43.5 -66t16 -80.5q0 -45 -18 -82t-44 -62q-2 -1 -3 -3q-2 -4 0 -6q1 -3 4 -3q1 0 3 1q17 9 40 16t46 7q43 0 80 -16t64 -43.5t42.5 -64.5t15.5 -80q0 -45 -15.5 -82t-42.5 -64t-64 -42t-79 -15q-36 0 -64.5 5t-52 17t-43.5 32.5t-39 51.5l92 -224h-255l92 224v0z" />
    <glyph glyph-name="uni2664" unicode="&#x2664;" 
d="M473 782q15 -22 40 -51.5t54.5 -61.5t62.5 -65.5t65 -63.5q27 -26 60.5 -58.5t62 -72t48 -85.5t19.5 -100q0 -44 -14.5 -83.5t-40.5 -69.5t-63 -48t-82 -18q-41 0 -78 22t-51 59q6 -69 23.5 -119.5t36.5 -75.5l-10 -11h-280l-10 11q19 25 36.5 75.5t23.5 119.5
q-14 -37 -51 -59t-78 -22q-45 0 -82 18t-63 48t-40.5 69.5t-14.5 83.5q0 54 19.5 100t48 85.5t62 72t60.5 58.5q32 30 65 63.5t62.5 65.5t54.5 61.5t40 51.5h14zM561 -87q-10 21 -17.5 46t-13 58.5t-8 78.5t-2.5 106h26q6 -39 20 -69.5t32.5 -51.5t41 -32t45.5 -11
q38 0 69 15t52.5 40.5t33.5 59.5t12 72q0 48 -18.5 90.5t-45.5 78.5t-57.5 66t-55.5 54q-31 29 -62.5 60.5t-60 61.5t-51 56.5t-35.5 46.5q-13 -20 -35.5 -46.5t-51 -56.5t-60 -61.5t-62.5 -60.5q-25 -24 -55.5 -54t-57.5 -66t-45.5 -78.5t-18.5 -90.5q0 -38 11.5 -72
t33.5 -59.5t53 -40.5t69 -15q23 0 45.5 11t41 32t32.5 51.5t20 69.5h26q0 -61 -2.5 -106t-8 -78.5t-13 -58.5t-17.5 -46h190z" />
    <glyph glyph-name="heart" unicode="&#x2665;" 
d="M476 570q22 83 79 121.5t128 38.5q43 0 81 -18.5t66.5 -51t45 -76.5t16.5 -95q0 -56 -20 -103.5t-49 -88t-63 -74t-62 -60.5q-34 -33 -68.5 -70t-64.5 -73t-54 -68.5t-38 -54.5q-2 -4 -4 0q-14 22 -38 54.5t-54 68.5t-64.5 73t-68.5 70q-28 27 -62 60.5t-63 74t-49 88.5
t-20 103q0 51 16.5 95t45 76.5t66.5 51t81 18.5q35 0 67.5 -9.5t60 -29t48 -49.5t31.5 -72q2 -7 5 -7t5 7z" />
    </font>
</defs>
</svg>
