<?xml version="1.0" standalone="no"?>
<!DOCTYPE svg PUBLIC "-//W3C//DTD SVG 1.1//EN" "http://www.w3.org/Graphics/SVG/1.1/DTD/svg11.dtd" >
<svg xmlns="http://www.w3.org/2000/svg" xmlns:xlink="http://www.w3.org/1999/xlink" version="1.1">
<metadata>
Created by FontForge 20170731 at Wed Mar 23 08:35:12 2022
 By Aleksey,,,
Copyright (c) 2022 PyeongChang County. All rights reserved.
</metadata>
<defs>
<font id="PyeongChangPeace-Bold" horiz-adv-x="930" >
  <font-face 
    font-family="PyeongChang Peace Bold"
    font-weight="700"
    font-stretch="normal"
    units-per-em="1000"
    panose-1="2 11 8 3 0 0 0 0 0 0"
    ascent="800"
    descent="-200"
    x-height="522"
    cap-height="737"
    bbox="-43 -363 1125 963"
    underline-thickness="50"
    underline-position="-150"
    unicode-range="U+0009-FFE6"
  />
<missing-glyph horiz-adv-x="1000" 
d="M132 698q0 27 12 39.5t41 12.5h630q29 0 41 -12.5t12 -39.5v-794q0 -27 -12 -39.5t-41 -12.5h-630q-29 0 -41 12.5t-12 39.5v794zM840 -104v810l-327 -405zM173 -122h652l-326 405zM499 318l326 406h-652zM160 705v-808l325 404z" />
    <glyph glyph-name=".notdef" horiz-adv-x="1000" 
d="M132 698q0 27 12 39.5t41 12.5h630q29 0 41 -12.5t12 -39.5v-794q0 -27 -12 -39.5t-41 -12.5h-630q-29 0 -41 12.5t-12 39.5v794zM840 -104v810l-327 -405zM173 -122h652l-326 405zM499 318l326 406h-652zM160 705v-808l325 404z" />
    <glyph glyph-name=".null" horiz-adv-x="0" 
 />
    <glyph glyph-name="nonmarkingreturn" unicode="&#xd;" horiz-adv-x="0" 
 />
    <glyph glyph-name="NULL" horiz-adv-x="0" 
 />
    <glyph glyph-name="NULL" horiz-adv-x="0" 
 />
    <glyph glyph-name="uni0009" unicode="&#x9;" horiz-adv-x="0" 
 />
    <glyph glyph-name="space" unicode=" " horiz-adv-x="229" 
 />
    <glyph glyph-name="space" unicode="&#xa0;" horiz-adv-x="229" 
 />
    <glyph glyph-name="exclam" unicode="!" horiz-adv-x="386" 
d="M91 760h204l-37 -568h-130zM193 -122q-51 0 -82 31.5t-31 79.5q0 49 31 81t82 32q50 0 81.5 -32t31.5 -81q0 -48 -31.5 -79.5t-81.5 -31.5z" />
    <glyph glyph-name="quotedbl" unicode="&#x22;" horiz-adv-x="569" 
d="M80 800h189l-27 -296h-125zM300 800h189l-37 -296h-125z" />
    <glyph glyph-name="numbersign" unicode="#" horiz-adv-x="678" 
d="M539 479l-38 -317h112v-130h-127l-17 -142h-128l17 142h-118l-17 -142h-128l17 142h-82v130h98l39 317h-100v130h116l16 129h125l-16 -129h121l16 129h125l-16 -129h94v-130h-109zM255 162h119l39 317h-120z" />
    <glyph glyph-name="dollar" unicode="$" horiz-adv-x="734" 
d="M684 152q0 -43 -14.5 -84.5t-44 -76t-72.5 -59.5t-100 -36v-108h-153v106q-55 9 -101 30.5t-79 55.5t-51.5 79.5t-18.5 101.5h203q0 -23 7.5 -43t23 -36t38.5 -25t53 -9q52 0 74 25.5t22 58.5q0 13 -8.5 24.5t-22 22t-29.5 20t-31 17.5l-161 83q-32 16 -58.5 34t-45.5 41
t-29.5 53.5t-10.5 72.5q0 96 59.5 156t165.5 76v118h153v-121q42 -9 78.5 -28.5t64.5 -48.5t44 -67.5t16 -84.5h-188q0 38 -24 59.5t-69 21.5q-42 0 -64 -20t-22 -52q0 -15 6.5 -25t18.5 -18.5t30 -17t41 -21.5l158 -86q30 -16 55.5 -32.5t44.5 -38t30 -50t11 -68.5z" />
    <glyph glyph-name="percent" unicode="%" horiz-adv-x="959" 
d="M224 314q-47 0 -86 13.5t-67.5 40.5t-44.5 68t-16 97t16 97t44.5 67.5t67.5 39.5t86 13q46 0 85.5 -13t68.5 -39.5t45 -67.5t16 -97t-16 -97t-45 -68t-68.5 -40.5t-85.5 -13.5zM259 -122h-136l578 872h136zM224 724q-2 -36 -15 -70t-37 -60t-57.5 -43t-75.5 -18
q42 -2 75.5 -18.5t57.5 -43t37 -60.5t15 -70q1 36 15 70t38 60.5t58 43t76 18.5q-42 1 -76 18t-58 43t-38 60t-15 70zM735 313q46 0 85.5 -13.5t68 -40.5t44.5 -68t16 -97t-16 -97t-44.5 -67.5t-68 -39.5t-85.5 -13q-47 0 -86 13t-68 39.5t-45 67.5t-16 97t16 97t45 68
t68 40.5t86 13.5zM735 -97q1 36 14.5 69.5t37.5 60t57.5 43t75.5 18.5q-42 1 -75.5 18t-57.5 43t-37.5 60t-14.5 70q-2 -36 -15.5 -70t-38 -60t-58 -43t-75.5 -18q42 -2 75.5 -18.5t58 -43t38 -60t15.5 -69.5z" />
    <glyph glyph-name="ampersand" unicode="&#x26;" horiz-adv-x="825" 
d="M788 343q0 -27 -5.5 -62.5t-17.5 -73t-30 -74.5t-43 -69q26 -14 56 -22t67 -8v-160q-81 0 -138.5 16.5t-103.5 48.5q-45 -26 -100.5 -45.5t-125.5 -19.5q-71 0 -129.5 16.5t-100 48t-64.5 77t-23 102.5q0 66 33.5 117.5t84.5 85.5l39 26l-18 20q-11 13 -23.5 30
t-22.5 37.5t-16.5 43t-6.5 45.5q0 48 18.5 89.5t50.5 72t76.5 48t95.5 17.5q52 0 95 -15t74.5 -41.5t49 -63.5t17.5 -82q0 -60 -26.5 -105t-71.5 -74l-60 -41l144 -155q28 35 39 74t11 96h175zM321 433l54 35q23 14 35 33.5t12 46.5q0 15 -7 27.5t-18 21.5t-25 14.5t-28 5.5
q-35 0 -58 -21.5t-23 -57.5q0 -12 5 -25.5t13 -27t18 -26t19 -22.5zM342 29q33 0 58.5 8t47.5 20l-162 180l-11 -8q-32 -23 -42.5 -49.5t-10.5 -49.5q0 -45 32.5 -73t87.5 -28z" />
    <glyph glyph-name="quotesingle" unicode="'" horiz-adv-x="364" 
d="M80 800h204l-37 -296h-130z" />
    <glyph glyph-name="parenleft" unicode="(" horiz-adv-x="401" 
d="M85 286q0 160 48 301t131 265h127q-36 -58 -62.5 -132.5t-44 -151.5t-26 -151t-8.5 -131t8.5 -131t26 -151.5t44 -151.5t62.5 -132h-127q-83 124 -131 265t-48 301z" />
    <glyph glyph-name="parenright" unicode=")" horiz-adv-x="401" 
d="M316 286q0 -160 -48 -301t-131 -265h-127q36 58 62.5 132t44 151.5t26 151.5t8.5 131t-8.5 131t-26 151t-44 151.5t-62.5 132.5h127q83 -124 131 -265t48 -301z" />
    <glyph glyph-name="asterisk" unicode="*" horiz-adv-x="484" 
d="M301 688l130 61l48 -147l-141 -28l98 -103l-125 -91l-69 124l-69 -125l-125 91l97 104l-140 27l48 147l128 -60l-17 142h155z" />
    <glyph glyph-name="plus" unicode="+" horiz-adv-x="672" 
d="M421 609v-212h201v-148h-201v-212h-170v212h-201v148h201v212h170z" />
    <glyph glyph-name="comma" unicode="," horiz-adv-x="336" 
d="M281 -16q4 -47 -12.5 -90.5t-48 -77.5t-75.5 -56t-95 -26v75q39 11 58.5 29.5t26.5 48.5q-37 9 -58.5 36t-21.5 66q0 49 31 81t82 32q50 0 79.5 -34.5t33.5 -83.5z" />
    <glyph glyph-name="hyphen" unicode="-" horiz-adv-x="432" 
d="M50 398h332v-150h-332v150z" />
    <glyph glyph-name="period" unicode="." horiz-adv-x="336" 
d="M168 -122q-51 0 -82 31.5t-31 79.5q0 49 31 81t82 32q50 0 81.5 -32t31.5 -81q0 -48 -31.5 -79.5t-81.5 -31.5z" />
    <glyph glyph-name="slash" unicode="/" horiz-adv-x="373" 
d="M236 832h132l-231 -1071h-132z" />
    <glyph glyph-name="zero" unicode="0" horiz-adv-x="750" 
d="M375 749q74 0 134 -22t102.5 -62.5t65.5 -97.5t23 -128v-251q0 -71 -23 -128t-65.5 -97.5t-102.5 -62.5t-134 -22t-134 22t-102.5 62.5t-65.5 97.5t-23 128v251q0 71 23 128t65.5 97.5t102.5 62.5t134 22zM78 314q63 0 116.5 -32t93 -86t62.5 -125.5t25 -151.5
q2 80 25 152t62.5 126t93 86t116.5 32q-63 0 -116.5 32t-93 86t-62.5 126t-25 152q-2 -80 -25 -152t-62.5 -126.5t-93 -86.5t-116.5 -32z" />
    <glyph glyph-name="one" unicode="1" horiz-adv-x="564" 
d="M214 -109v646l-164 -93v160l214 133h150v-846h-200z" />
    <glyph glyph-name="two" unicode="2" horiz-adv-x="687" 
d="M30 -109v133l275 245q34 30 61.5 55.5t46.5 50t29 50t10 56.5q0 48 -31 78t-85 30q-29 0 -52 -9t-38.5 -25.5t-22.5 -40t-3 -53.5h-180q-4 53 13 104.5t54.5 92.5t95.5 66t135 25q78 0 137 -21.5t98 -58t59 -86.5t20 -107q0 -33 -9 -63t-28 -60t-47.5 -61.5t-68.5 -66.5
l-226 -199q46 0 95.5 3t97.5 10t93.5 19.5t84.5 32.5v-200h-614z" />
    <glyph glyph-name="three" unicode="3" horiz-adv-x="697" 
d="M237 395h60q78 0 109 31t31 79q0 38 -28.5 62.5t-73.5 24.5q-20 0 -38.5 -5.5t-32.5 -15.5t-22.5 -24t-8.5 -30h-175q-2 46 16.5 88t55.5 74.5t91.5 51.5t124.5 19q66 0 120 -18t92 -48.5t58.5 -72t20.5 -87.5q0 -29 -10.5 -58.5t-27.5 -55t-39.5 -45.5t-47.5 -30
q33 -10 61.5 -27.5t49 -42.5t32.5 -58t12 -74q0 -56 -26 -102.5t-70 -80.5t-101.5 -53t-120.5 -19q-69 0 -129.5 16t-104.5 47.5t-69.5 79t-25.5 111.5h180q0 -21 10.5 -37.5t28.5 -28t41 -18t48 -6.5q30 0 55 7t44 20t29.5 31t10.5 41q0 27 -13 48.5t-35.5 36t-53.5 22
t-68 7.5h-60v140z" />
    <glyph glyph-name="four" unicode="4" horiz-adv-x="741" 
d="M721 17h-101v-126h-190v126h-405v150l415 570h180v-560h101v-160zM393 577q-2 -53 -16.5 -98.5t-41.5 -79.5t-65.5 -54t-88.5 -22q51 -2 90.5 -24.5t66.5 -59t41 -84t14 -98.5q0 51 14 98.5t40.5 84t66 59.5t90.5 25q-50 2 -88.5 22t-65.5 53.5t-41.5 79t-15.5 98.5z" />
    <glyph glyph-name="five" unicode="5" horiz-adv-x="728" 
d="M364 -126q-63 0 -123 16.5t-107 51t-75.5 87.5t-28.5 126h180q2 -27 14.5 -48.5t32.5 -37t45.5 -23.5t53.5 -8q34 0 60 11t43.5 30t26.5 44.5t9 54.5q0 31 -10.5 56t-29.5 42.5t-44.5 27t-55.5 9.5q-41 0 -78 -11.5t-70 -30.5l-113 54v413h526v-160h-328v-136
q10 4 24.5 7t30.5 5t31 3.5t27 1.5q54 0 106.5 -18t94 -53t67 -86.5t25.5 -118.5q0 -72 -29.5 -129t-76.5 -97t-107 -61.5t-121 -21.5z" />
    <glyph glyph-name="six" unicode="6" horiz-adv-x="732" 
d="M371 -125q-72 0 -131.5 21t-101.5 57.5t-65 86.5t-23 109v348q0 58 23.5 104.5t65.5 79.5t100 51t127 18q72 0 128.5 -18t96 -50.5t60.5 -76t21 -94.5v-5h-196v5q0 35 -31 57t-79 22q-25 0 -46.5 -6t-38 -17.5t-26 -27.5t-9.5 -37v-83q9 4 24.5 8t33 7t35.5 5t32 2
q69 0 127.5 -18t101.5 -50t67.5 -77t24.5 -100v-47q0 -59 -23 -109t-65 -86.5t-101.5 -57.5t-131.5 -21zM371 -76q1 66 19 110.5t52 72t84 40t115 13.5q-131 2 -199 56.5t-71 180.5q-4 -126 -72 -181t-198 -57q65 -1 114.5 -13.5t83.5 -39.5t52 -71.5t20 -110.5z" />
    <glyph glyph-name="seven" unicode="7" horiz-adv-x="641" 
d="M183 107q0 76 21.5 148.5t60.5 134.5t94 110.5t123 76.5h-472v160h621v-113q-52 -43 -97.5 -95t-79 -114t-52.5 -134t-19 -154v-236h-200v216z" />
    <glyph glyph-name="eight" unicode="8" horiz-adv-x="750" 
d="M375 750q146 0 226 -61.5t80 -177.5v-7q0 -49 -23 -91t-66 -70q56 -30 87 -78.5t31 -115.5v-11q0 -67 -24.5 -116t-69 -81t-106 -47.5t-135.5 -15.5t-135.5 15.5t-106 47.5t-69 81t-24.5 116v11q0 68 31 116.5t87 77.5q-43 28 -65.5 70.5t-22.5 90.5v7q0 116 80 177.5
t225 61.5zM372 710q-2 -39 -24 -71t-57 -54.5t-79.5 -35.5t-91.5 -14q47 -1 91.5 -12.5t79.5 -33.5t57 -54t24 -74q2 42 24 74t57 54t79.5 33.5t91.5 12.5q-47 1 -91.5 14t-79.5 35.5t-57 54.5t-24 71zM80 131q50 -4 102 -17.5t94 -39.5t69 -65.5t27 -96.5q0 55 25.5 95.5
t66 67t91 40t99.5 15.5q-49 1 -99.5 16.5t-91 43.5t-66 68t-25.5 92q0 -53 -27 -94t-69 -68.5t-94 -42t-102 -14.5z" />
    <glyph glyph-name="nine" unicode="9" horiz-adv-x="732" 
d="M361 750q72 0 131.5 -20.5t101.5 -57.5t65 -87t23 -108v-346q0 -58 -23.5 -104.5t-65.5 -79.5t-100 -51t-127 -18q-72 0 -128.5 18t-96 50.5t-60.5 76t-21 94.5v5h196v-5q0 -35 31 -57t79 -22q25 0 46.5 6t38 17.5t26 27.5t9.5 37v83q-9 -5 -24.5 -9t-33 -7t-35.5 -4.5
t-32 -1.5q-69 0 -127.5 17.5t-101.5 49.5t-67.5 76.5t-24.5 99.5v47q0 58 23 108t65 87t101.5 57.5t131.5 20.5zM361 701q-2 -66 -20 -110.5t-52 -71.5t-83.5 -39.5t-114.5 -13.5q67 -1 117.5 -15t84.5 -44t51 -76.5t17 -113.5q0 67 17 113.5t51 76.5t84.5 44t117.5 16
q-65 1 -115 13t-84 39.5t-52 71.5t-19 110z" />
    <glyph glyph-name="colon" unicode=":" horiz-adv-x="426" 
d="M213 432q-51 0 -82 31.5t-31 79.5q0 49 31 81t82 32q50 0 81.5 -32t31.5 -81q0 -48 -31.5 -79.5t-81.5 -31.5zM213 -18q-51 0 -82 31.5t-31 79.5q0 49 31 81t82 32q50 0 81.5 -32t31.5 -81q0 -48 -31.5 -79.5t-81.5 -31.5z" />
    <glyph glyph-name="semicolon" unicode=";" horiz-adv-x="431" 
d="M218 432q-51 0 -82 31.5t-31 79.5q0 49 31 81t82 32q50 0 81.5 -32t31.5 -81q0 -48 -31.5 -79.5t-81.5 -31.5zM331 98q-1 -47 -18 -88.5t-47.5 -74t-72.5 -53t-93 -24.5v75q35 11 54.5 26.5t27.5 41.5q-35 10 -56 37t-21 65q0 49 31 81t82 32q50 0 81.5 -32t31.5 -81v-5z
" />
    <glyph glyph-name="less" unicode="&#x3c;" horiz-adv-x="435" 
d="M205 293l220 -297v-206l-375 427v158l375 427v-206l-220 -297v-6z" />
    <glyph glyph-name="equal" unicode="=" horiz-adv-x="595" 
d="M40 543h515v-145h-515v145zM40 245h515v-145h-515v145z" />
    <glyph glyph-name="greater" unicode="&#x3e;" horiz-adv-x="435" 
d="M230 299l-220 297v206l375 -427v-158l-375 -427v206l220 297v6z" />
    <glyph glyph-name="question" unicode="?" horiz-adv-x="609" 
d="M197 225q0 48 17 86.5t43 70.5l78 92q27 31 27 65q0 38 -23.5 57t-58.5 19t-61 -20.5t-26 -61.5h-180q0 54 21.5 99t59 77.5t89 50.5t112.5 18q53 0 101 -13t84 -40.5t57.5 -70t21.5 -101.5q0 -43 -16.5 -76t-40.5 -62l-101 -122q-8 -9 -12.5 -22t-7 -27t-3.5 -27.5
t-1 -24.5h-180v33zM290 -122q-51 0 -82 31.5t-31 79.5q0 49 31 81t82 32q50 0 81.5 -32t31.5 -81q0 -48 -31.5 -79.5t-81.5 -31.5z" />
    <glyph glyph-name="at" unicode="@" horiz-adv-x="1165" 
d="M589 551q33 0 66 -11t51 -35v43h150v-304q0 -61 7.5 -93t27.5 -32q18 0 37 15.5t34 44t24.5 70t9.5 93.5q0 72 -21 136t-65 112t-113 76t-166 28q-86 0 -167.5 -32.5t-145 -93t-102 -148t-38.5 -197.5q0 -96 34.5 -168.5t91 -121.5t128.5 -73.5t147 -24.5q25 0 60.5 3.5
t72.5 9.5t70 14.5t53 18.5v-109q-60 -32 -131 -45.5t-141 -13.5q-98 0 -192 31.5t-167.5 95t-118.5 158.5t-45 221q0 129 48.5 238.5t131 189t193 124t235.5 44.5q109 0 197.5 -34.5t150.5 -96.5t95.5 -147.5t33.5 -188.5q0 -90 -27 -157.5t-66 -112.5t-82.5 -67.5
t-76.5 -22.5q-108 0 -136 89q-9 -19 -26.5 -35t-39 -28t-45.5 -19t-47 -7q-62 0 -110 20.5t-81.5 57.5t-51 87.5t-17.5 109.5t19 111.5t54 91.5t85 62t112 23zM581 499q-2 -47 -19.5 -88t-45 -72.5t-62 -50.5t-70.5 -21q36 -2 70.5 -21t62 -50.5t45 -72.5t19.5 -87
q2 46 19.5 87.5t45 73t62 50.5t70.5 21q-36 2 -70.5 21t-62 50t-45 72t-19.5 88z" />
    <glyph glyph-name="A" unicode="A" horiz-adv-x="826" 
d="M555 49h-284l-57 -158h-214l314 846h199l313 -846h-214zM596 371q-52 0 -86.5 22t-56 60t-30.5 87.5t-10 105.5q-1 -56 -10.5 -105.5t-30.5 -87.5t-56 -60t-86 -22q53 0 88 -24.5t56 -65t30 -92t9 -105.5q0 54 9 105.5t30 92t56 65t88 24.5z" />
    <glyph glyph-name="B" unicode="B" horiz-adv-x="772" 
d="M424 737q58 0 108.5 -12.5t87.5 -38.5t58 -65.5t21 -92.5q0 -26 -8 -52t-21.5 -49t-32 -42.5t-39.5 -31.5q30 -8 56 -28t45.5 -47t31 -59.5t11.5 -65.5q0 -63 -22 -112t-62 -82t-97 -50.5t-126 -17.5h-385v846h374zM382 710q-2 -43 -24 -75t-57 -54t-79.5 -33.5
t-91.5 -12.5q47 -1 91.5 -11.5t79.5 -31.5t57 -53.5t24 -77.5q2 45 24 77.5t57 53.5t79.5 31.5t91.5 11.5q-47 1 -91.5 12.5t-79.5 33.5t-57 54t-24 75zM382 350q0 -52 -24 -92t-63 -67.5t-87.5 -42.5t-97.5 -16q49 -2 97.5 -15.5t87.5 -40.5t63 -67.5t24 -95.5
q0 55 24 95.5t63 67t87.5 40t97.5 15.5q-49 1 -97.5 16t-87.5 43t-63 68t-24 92z" />
    <glyph glyph-name="C" unicode="C" horiz-adv-x="795" 
d="M765 218v-50q0 -67 -26.5 -121t-74.5 -91.5t-115.5 -57.5t-148.5 -20t-148.5 22t-115.5 62.5t-74.5 97.5t-26.5 128v251q0 71 26.5 128t74.5 97.5t115.5 62.5t148.5 22t148.5 -20t115.5 -57.5t74.5 -91.5t26.5 -121v-40h-200v30q0 70 -43.5 105t-121.5 35t-121.5 -41
t-43.5 -119v-231q0 -78 43.5 -119t121.5 -41t121.5 35t43.5 105v40h200z" />
    <glyph glyph-name="D" unicode="D" horiz-adv-x="788" 
d="M50 737h364q81 0 146 -30t110 -85.5t69 -133.5t24 -174t-24 -174t-69 -133.5t-110 -85.5t-146 -30h-364v846zM68 319q65 0 125.5 -32.5t107.5 -88t75.5 -129.5t28.5 -157q0 83 28.5 157t75.5 130t107.5 88.5t125.5 32.5q-65 0 -125.5 33t-107.5 89t-75.5 130t-28.5 157
q0 -83 -28.5 -157.5t-75.5 -130.5t-107.5 -89t-125.5 -33z" />
    <glyph glyph-name="E" unicode="E" horiz-adv-x="659" 
d="M50 -109v846h579v-160h-379v-175h369v-162h-369v-209q55 0 104.5 3.5t95 10.5t90 18.5t89.5 27.5v-200h-579z" />
    <glyph glyph-name="F" unicode="F" horiz-adv-x="621" 
d="M611 577h-361v-214h336v-165h-336v-307h-200v846h561v-160z" />
    <glyph glyph-name="G" unicode="G" horiz-adv-x="815" 
d="M785 168q0 -67 -26.5 -121t-75.5 -91.5t-118.5 -57.5t-154.5 -20q-81 0 -150 22t-119 62.5t-78 97.5t-28 128v251q0 71 28 128t78 97.5t119 62.5t150 22t147.5 -19.5t114 -56t73 -88.5t25.5 -116v-40h-200v30q0 63 -41 96.5t-119 33.5t-126.5 -41t-48.5 -119v-231
q0 -78 48.5 -119t126.5 -41q85 0 134 35t49 105v18h-195v150h387v-178z" />
    <glyph glyph-name="H" unicode="H" horiz-adv-x="796" 
d="M546 -109v347h-296v-347h-200v846h200v-339h296v339h200v-846h-200z" />
    <glyph glyph-name="I" unicode="I" horiz-adv-x="300" 
d="M250 -109h-200v846h200v-846z" />
    <glyph glyph-name="J" unicode="J" horiz-adv-x="650" 
d="M200 144q0 -48 27.5 -69.5t72.5 -21.5q49 0 74.5 28t25.5 76v580h200v-574q0 -57 -20 -108.5t-58.5 -90.5t-94.5 -62.5t-127 -23.5t-125.5 21t-91 57t-55 84.5t-18.5 103.5h190z" />
    <glyph glyph-name="K" unicode="K" horiz-adv-x="778" 
d="M50 737h200v-325l258 325h220l-272 -341l312 -505h-220l-212 355l-86 -108v-247h-200v846z" />
    <glyph glyph-name="L" unicode="L" horiz-adv-x="613" 
d="M50 737h200v-703q46 1 93.5 4.5t93.5 11t88 18.5t78 28v-205h-553v846z" />
    <glyph glyph-name="M" unicode="M" horiz-adv-x="923" 
d="M632 737h241v-846h-187v349q0 19 1.5 45t3.5 53.5t4.5 55.5t4.5 51l-164 -534h-149l-164 534q2 -23 4.5 -51t4.5 -55.5t3.5 -53.5t1.5 -45v-349h-187v846h241l142 -449q9 -35 16 -68.5t12 -67.5q6 34 12.5 67.5t16.5 68.5z" />
    <glyph glyph-name="N" unicode="N" horiz-adv-x="801" 
d="M553 -109l-249 417q-16 26 -29.5 48t-32.5 48q6 -71 6 -136v-377h-198v846h198l243 -397q19 -31 36.5 -64t31.5 -70q-5 35 -5.5 71t-0.5 71v389h198v-846h-198z" />
    <glyph glyph-name="O" unicode="O" horiz-adv-x="820" 
d="M410 749q85 0 154.5 -22t118.5 -62.5t75.5 -97.5t26.5 -128v-251q0 -71 -26.5 -128t-75.5 -97.5t-118.5 -62.5t-154.5 -22t-154.5 22t-118.5 62.5t-75.5 97.5t-26.5 128v251q0 71 26.5 128t75.5 97.5t118.5 62.5t154.5 22zM63 314q43 0 85.5 -15t81 -42.5t71.5 -65.5
t57.5 -84t38 -98t13.5 -107q0 83 30 158t78.5 131.5t111 90t127.5 33.5q-65 0 -127.5 33.5t-111 90t-78.5 131.5t-30 158q0 -83 -30 -158t-78.5 -132t-111 -90.5t-127.5 -33.5z" />
    <glyph glyph-name="P" unicode="P" horiz-adv-x="752" 
d="M50 -109v846h375q69 0 126 -22t97 -62t62 -95.5t22 -122.5q0 -66 -23.5 -120t-64.5 -92t-97 -58.5t-122 -20.5h-175v-253h-200zM387 705q0 -55 -23.5 -102.5t-61.5 -83t-85.5 -56t-96.5 -22.5q49 -2 96.5 -24.5t85.5 -58.5t61.5 -83t23.5 -98q0 51 23.5 98t61.5 83.5
t85.5 59t96.5 24.5q-49 2 -96.5 22.5t-85.5 55.5t-61.5 82.5t-23.5 102.5z" />
    <glyph glyph-name="Q" unicode="Q" horiz-adv-x="820" 
d="M410 750q85 0 154.5 -22t118.5 -62.5t75.5 -97.5t26.5 -128v-242q0 -59 -18.5 -108.5t-53.5 -87.5t-84.5 -64.5t-110.5 -38.5q5 -17 31 -31t86 -14h100v-160h-70q-65 0 -126.5 9.5t-110 33t-79 62t-33.5 97.5q-65 11 -117 36.5t-88.5 64.5t-56 89.5t-19.5 111.5v242
q0 71 26.5 128t75.5 97.5t118.5 62.5t154.5 22zM63 319q65 0 127.5 -32.5t111 -88t78.5 -129.5t30 -157q0 83 30 157t78.5 130t111 88.5t127.5 32.5q-65 0 -127.5 33t-111 89t-78.5 130t-30 157q0 -83 -30 -157.5t-78.5 -130.5t-111 -89t-127.5 -33z" />
    <glyph glyph-name="R" unicode="R" horiz-adv-x="766" 
d="M50 -109v846h375q69 0 125.5 -20.5t96.5 -58.5t62 -92t22 -121q0 -90 -41 -153t-110 -96l186 -305h-220l-167 273h-129v-273h-200zM387 705q0 -55 -23.5 -101t-61.5 -79.5t-85.5 -52.5t-96.5 -21q49 -2 96.5 -23t85.5 -55t61.5 -79.5t23.5 -96.5q0 51 23.5 96.5t61.5 80
t85.5 55.5t96.5 23q-49 2 -96.5 21t-85.5 52t-61.5 79t-23.5 101z" />
    <glyph glyph-name="S" unicode="S" horiz-adv-x="729" 
d="M368 -122q-75 0 -139 19t-110.5 55t-72.5 87.5t-26 116.5h203q0 -25 11.5 -46t31.5 -36t47 -23t57 -8q26 0 48 7t38.5 18.5t25.5 26.5t9 32q0 14 -8.5 26t-21.5 22.5t-29.5 19t-31.5 14.5l-206 85q-66 28 -105 77t-39 134q0 56 24.5 101t67 77t101 49.5t127.5 17.5
q62 0 117 -18.5t96 -52t64.5 -80.5t23.5 -104h-188q0 19 -9.5 35.5t-25 29t-36 19.5t-42.5 7q-21 0 -40 -5t-33.5 -14.5t-23.5 -23t-9 -29.5q0 -15 6 -26t18 -20t30 -17.5t42 -18.5l203 -84q31 -13 56.5 -31t44.5 -42.5t29.5 -56t10.5 -71.5q0 -50 -24 -98.5t-67.5 -86.5
t-106 -61t-138.5 -23z" />
    <glyph glyph-name="T" unicode="T" horiz-adv-x="714" 
d="M457 -109h-200v686h-247v160h694v-160h-247v-686z" />
    <glyph glyph-name="U" unicode="U" horiz-adv-x="780" 
d="M740 737v-509q0 -73 -23 -136.5t-67 -111t-109.5 -75t-150.5 -27.5t-150.5 27.5t-109.5 75t-67 111t-23 136.5v509h200v-509q0 -90 39 -140t111 -50t111 50t39 140v509h200z" />
    <glyph glyph-name="V" unicode="V" horiz-adv-x="816" 
d="M512 -109h-208l-304 846h202l149 -418q9 -26 16.5 -50t14 -48t13 -49t13.5 -52q14 55 26 101t31 98l149 418h202z" />
    <glyph glyph-name="W" unicode="W" horiz-adv-x="1069" 
d="M889 -109h-268l-78 457l-9 53l-4 -26t-4 -27l-78 -457h-268l-170 846h208l79 -440q9 -51 17 -100t16 -100q7 50 15 99.5t16 99.5l76 441h195l76 -441q8 -50 16 -99.5t15 -99.5q8 51 16 100t17 100l79 440h208z" />
    <glyph glyph-name="X" unicode="X" horiz-adv-x="787" 
d="M238 737l155 -262l155 262h226l-258 -420l261 -426h-226l-158 268l-157 -268h-226l261 426l-259 420h226z" />
    <glyph glyph-name="Y" unicode="Y" horiz-adv-x="800" 
d="M300 -109v329l-300 517h226l174 -325l174 325h226l-300 -517v-329h-200z" />
    <glyph glyph-name="Z" unicode="Z" horiz-adv-x="686" 
d="M25 21l395 556h-385v160h621v-130l-397 -581q50 0 104.5 3t107.5 10t102 19.5t88 32.5v-200h-636v130z" />
    <glyph glyph-name="bracketleft" unicode="[" horiz-adv-x="385" 
d="M100 832h280v-110h-130v-852h130v-110h-280v1072z" />
    <glyph glyph-name="backslash" unicode="\" horiz-adv-x="371" 
d="M5 832h131l230 -1072h-131z" />
    <glyph glyph-name="bracketright" unicode="]" horiz-adv-x="385" 
d="M285 -240h-280v110h130v852h-130v110h280v-1072z" />
    <glyph glyph-name="asciicircum" unicode="^" horiz-adv-x="576" 
d="M571 583h-165l-118 136l-118 -136h-165l191 288h184z" />
    <glyph glyph-name="underscore" unicode="_" horiz-adv-x="629" 
d="M5 -121h619v-113h-619v113z" />
    <glyph glyph-name="grave" unicode="`" horiz-adv-x="637" 
d="M105 709l137 136l202 -241l-99 -98z" />
    <glyph glyph-name="a" unicode="a" horiz-adv-x="697" 
d="M276 -122q-51 0 -96 12t-78 35t-52.5 57.5t-19.5 79.5q0 47 14.5 85t47 66.5t85 47t129.5 27.5l150 17v14q0 38 -30 53.5t-80 15.5q-48 0 -74 -16.5t-26 -42.5v-10h-196v20q0 40 21 75.5t59.5 61.5t93 41t122.5 15q65 0 121 -16t97 -44t64.5 -67.5t23.5 -85.5v-428h-186
v36q-28 -20 -80 -34.5t-110 -14.5zM336 261q-2 -35 -18 -66.5t-41.5 -55t-58 -38t-67.5 -15.5q36 -2 69.5 -17t59 -39t41 -55.5t15.5 -65.5q0 34 15 65.5t40.5 56t59 39.5t69.5 17q-35 1 -67.5 15.5t-58 38t-41.5 54.5t-17 66z" />
    <glyph glyph-name="b" unicode="b" horiz-adv-x="702" 
d="M236 737v-215h149q69 0 124.5 -23.5t93.5 -65t58.5 -98.5t20.5 -123q0 -67 -19 -125.5t-56.5 -102t-93 -68.5t-128.5 -25h-345v846h196zM367 489q-3 -134 -62 -206.5t-188 -76.5q129 -4 188 -74.5t62 -209.5q2 139 61 209t189 74q-130 4 -189 77t-61 207z" />
    <glyph glyph-name="c" unicode="c" horiz-adv-x="692" 
d="M662 161v-40q0 -47 -20 -90.5t-59.5 -77.5t-99 -54.5t-137.5 -20.5q-71 0 -129 19.5t-99.5 55t-64.5 86t-23 112.5v112q0 62 23 112.5t64.5 86t99.5 55t129 19.5q75 0 133.5 -20.5t99 -54.5t62 -78t21.5 -90v-30h-196v20q0 19 -8.5 36.5t-24 31.5t-37.5 22.5t-50 8.5
t-50 -10t-37.5 -27.5t-24 -41t-8.5 -50.5v-92q0 -27 8.5 -50.5t24 -41t37.5 -27.5t50 -10t50 8.5t37.5 22.5t24 31.5t8.5 36.5v30h196z" />
    <glyph glyph-name="d" unicode="d" horiz-adv-x="692" 
d="M662 737v-846h-345q-73 0 -128.5 25t-93 68.5t-56.5 102t-19 125.5q0 66 20.5 123t58.5 98.5t93.5 65t124.5 23.5h149v215h196zM335 -93q0 147 58.5 221t191.5 78q-130 4 -189 76.5t-61 206.5q-3 -134 -62 -207t-188 -77q133 -4 191.5 -77.5t58.5 -220.5z" />
    <glyph glyph-name="e" unicode="e" horiz-adv-x="702" 
d="M226 133q0 -27 10 -47.5t27.5 -34t40 -20.5t47.5 -7q54 0 84.5 12.5t30.5 36.5v19h196v-29q0 -40 -23.5 -74t-65 -59t-98.5 -39t-124 -14q-69 0 -127.5 19.5t-101.5 55t-67.5 84t-24.5 107.5v120q0 62 24.5 112.5t67.5 86t101.5 55t127.5 19.5t127.5 -19.5t101.5 -55
t67.5 -86t24.5 -112.5v-126h-446v-4zM361 489q-2 -42 -22.5 -71t-51 -47t-67 -26.5t-72.5 -9.5q37 -1 74.5 -11t68.5 -30t50.5 -50t19.5 -72q0 42 18 72t47.5 50.5t66 30.5t72.5 11q-35 1 -70.5 9.5t-64.5 26.5t-48 46.5t-21 70.5z" />
    <glyph glyph-name="f" unicode="f" horiz-adv-x="430" 
d="M415 646h-49q-33 0 -53.5 -19.5t-20.5 -67.5v-33h128v-160h-128v-475h-196v475h-86v160h86v27q0 51 12.5 97t40.5 80.5t74 55t114 20.5h78v-160z" />
    <glyph glyph-name="g" unicode="g" horiz-adv-x="722" 
d="M361 536q72 0 133 -20.5t105 -57.5t68.5 -87t24.5 -108v-382q0 -47 -25 -89t-69 -74t-103.5 -51t-128.5 -19q-72 0 -130 17t-99.5 46t-64 67.5t-22.5 82.5v25h196v-15q0 -32 32 -50.5t88 -18.5q28 0 52 7t41.5 19t27 28t9.5 35v39q-9 -6 -26 -10.5t-36.5 -7t-39 -3.5
t-33.5 -1q-69 0 -129 20.5t-105 56t-71 83.5t-26 103v92q0 58 24.5 108t68.5 87t105 57.5t133 20.5zM361 496q-3 -140 -62 -205.5t-188 -68.5q133 -4 191.5 -76t58.5 -213q0 141 58.5 213.5t191.5 76.5q-130 3 -189 68t-61 205z" />
    <glyph glyph-name="h" unicode="h" horiz-adv-x="661" 
d="M350 515q132 23 204 -31t72 -192v-401h-196v381q0 60 -28 81t-82 8l-84 -20v-450h-196v846h196v-242l114 20v0z" />
    <glyph glyph-name="i" unicode="i" horiz-adv-x="276" 
d="M138 588q-24 0 -44 8.5t-34 23.5t-22 35t-8 43t8 43.5t22 35.5t34 24t44 9q48 0 78 -32.5t30 -79.5q0 -23 -8 -43t-22.5 -35t-34 -23.5t-43.5 -8.5zM40 522h196v-631h-196v631z" />
    <glyph glyph-name="j" unicode="j" horiz-adv-x="368" 
d="M230 588q-24 0 -44 8.5t-34 23.5t-22 35t-8 43t8 43.5t22 35.5t34 24t44 9q48 0 78 -32.5t30 -79.5q0 -23 -8 -43t-22.5 -35t-34 -23.5t-43.5 -8.5zM10 -192h45q36 0 56.5 22t20.5 71v613h196v-599q0 -54 -10.5 -102.5t-37 -85t-71 -58t-112.5 -21.5h-87v160z" />
    <glyph glyph-name="k" unicode="k" horiz-adv-x="683" 
d="M236 315l201 207h220l-248 -258l274 -373h-220l-175 247l-52 -55v-192h-196v846h196v-422z" />
    <glyph glyph-name="l" unicode="l" horiz-adv-x="333" 
d="M50 737h196v-656q0 -26 13 -34.5t34 -8.5h40v-160h-52q-61 0 -104.5 15t-71.5 42t-41.5 65t-13.5 85v652z" />
    <glyph glyph-name="m" unicode="m" horiz-adv-x="1022" 
d="M322 511q74 18 131.5 7t95.5 -49q32 15 66.5 27t64.5 18q69 13 125.5 5.5t96.5 -36t62 -77.5t22 -118v-397h-196v377q0 60 -30.5 81.5t-84.5 7.5l-68 -18q2 -12 3 -24.5t1 -26.5v-397h-196v377q0 60 -28 83t-82 7l-69 -20v-447h-196v631h196v-33z" />
    <glyph glyph-name="n" unicode="n" horiz-adv-x="662" 
d="M350 514q133 26 204.5 -30.5t71.5 -195.5v-397h-196v377q0 121 -110 92l-84 -22v-447h-196v631h196v-30l114 22v0z" />
    <glyph glyph-name="o" unicode="o" horiz-adv-x="712" 
d="M356 536q76 0 136.5 -22t102.5 -59.5t64.5 -87t22.5 -104.5v-113q0 -59 -22.5 -108.5t-64.5 -86.5t-102.5 -57.5t-136.5 -20.5t-136.5 20.5t-102.5 57.5t-64.5 86.5t-22.5 108.5v113q0 55 22.5 104.5t64.5 87t102.5 59.5t136.5 22zM356 491q-3 -140 -62 -210.5
t-188 -73.5q129 -4 188 -77.5t62 -206.5q2 134 61 207.5t189 77.5q-130 3 -189 73t-61 210z" />
    <glyph glyph-name="p" unicode="p" horiz-adv-x="702" 
d="M40 -353v875h345q73 0 128.5 -25t93 -68.5t56.5 -102t19 -125.5q0 -66 -20.5 -123t-58.5 -98.5t-93.5 -65t-124.5 -23.5h-149v-244h-196zM367 490q-3 -140 -62 -210t-188 -73q129 -4 188 -77.5t62 -207.5q2 134 61 208t189 78q-130 3 -189 72.5t-61 209.5z" />
    <glyph glyph-name="q" unicode="q" horiz-adv-x="702" 
d="M466 -353v244h-149q-69 0 -124.5 23.5t-93.5 65t-58.5 98.5t-20.5 123q0 67 19 125.5t56.5 102t93 68.5t128.5 25h345v-875h-196zM335 -78q2 134 61 207.5t189 77.5q-130 3 -189 73t-61 210q-3 -140 -62 -209.5t-188 -72.5q129 -4 188 -78t62 -208z" />
    <glyph glyph-name="r" unicode="r" horiz-adv-x="442" 
d="M236 412q8 21 22 41t33.5 35.5t44.5 24.5t57 9h39v-170h-26q-32 0 -60 -12.5t-50.5 -35.5t-38 -54.5t-21.5 -69.5v-289h-196v631h196v-110z" />
    <glyph glyph-name="s" unicode="s" horiz-adv-x="634" 
d="M309 -126q-73 3 -129.5 22t-94.5 49.5t-55.5 71.5t-11.5 88h180q-4 -18 6 -32t27 -24.5t39.5 -16t43.5 -6.5q50 -2 78 13.5t28 36.5q0 15 -17.5 25.5t-40.5 18.5l-176 58q-68 23 -106.5 65.5t-38.5 103.5q0 47 22.5 82.5t60.5 59t88.5 35.5t107.5 12t107 -15.5t86 -42
t54 -62.5t11 -78h-170q1 15 -6.5 25.5t-20.5 17t-29.5 9.5t-32.5 3q-34 0 -58 -9t-24 -23t12 -23t38 -20l199 -71q29 -11 54 -25.5t43 -35t27 -47.5t7 -62q-3 -45 -27 -83.5t-64.5 -66t-95.5 -42t-121 -11.5z" />
    <glyph glyph-name="t" unicode="t" horiz-adv-x="426" 
d="M416 -109h-87q-68 0 -113 21.5t-71 58t-36.5 85t-10.5 102.5v203h-88v160h88v217h196v-217h122v-160h-122v-217q0 -49 20.5 -71t56.5 -22h45v-160z" />
    <glyph glyph-name="u" unicode="u" horiz-adv-x="662" 
d="M312 -102q-133 -26 -204.5 30.5t-71.5 195.5v398h196v-378q0 -121 110 -92l84 22v448h196v-631h-196v29z" />
    <glyph glyph-name="v" unicode="v" horiz-adv-x="690" 
d="M480 -109h-270l-210 631h204l95 -295q11 -37 23 -76t23 -77q10 38 22.5 77t23.5 76l95 295h204z" />
    <glyph glyph-name="w" unicode="w" horiz-adv-x="965" 
d="M816 -109h-254l-67 306q-3 14 -6.5 30t-6.5 33q-3 -17 -6 -33t-6 -30l-67 -306h-254l-139 631h197l57 -296q8 -46 16 -90.5t16 -90.5l96 477h181l96 -477q8 46 16 90.5t16 90.5l57 296h197z" />
    <glyph glyph-name="x" unicode="x" horiz-adv-x="679" 
d="M229 523l110 -168l111 168h218l-215 -312l221 -320h-217l-118 183l-117 -183h-217l220 320l-214 312h218z" />
    <glyph glyph-name="y" unicode="y" horiz-adv-x="702" 
d="M246 -110l-241 633h206l134 -407l146 407h206l-362 -876h-190z" />
    <glyph glyph-name="z" unicode="z" horiz-adv-x="556" 
d="M10 21l280 342h-255v160h496v-130l-296 -365q85 4 166.5 17.5t144.5 45.5v-200h-536v130z" />
    <glyph glyph-name="braceleft" unicode="{" horiz-adv-x="398" 
d="M307 -240q-80 0 -124.5 41t-43.5 126l1 214q0 17 -4 34t-14.5 30.5t-30.5 22t-51 9.5v118q31 1 51 9.5t30.5 22t14.5 30.5t4 34l-1 213q-1 85 43.5 126.5t124.5 41.5h86v-110h-23q-67 0 -67 -83v-187q0 -74 -27 -109t-77 -48q50 -11 77 -46.5t27 -109.5v-186
q0 -83 67 -83h23v-110h-86z" />
    <glyph glyph-name="bar" unicode="|" horiz-adv-x="430" 
d="M150 880h130v-1232h-130v1232z" />
    <glyph glyph-name="braceright" unicode="}" horiz-adv-x="398" 
d="M5 -240v110h23q67 0 67 83v186q0 74 26.5 109.5t76.5 46.5q-50 13 -76.5 48t-26.5 109v187q0 83 -67 83h-23v110h86q80 0 124.5 -41.5t43.5 -126.5l-1 -213q0 -17 4 -34t14.5 -30.5t30 -22t51.5 -9.5v-118q-32 -1 -51.5 -9.5t-30 -22t-14.5 -30.5t-4 -34l1 -214
q1 -85 -43.5 -126t-124.5 -41h-86z" />
    <glyph glyph-name="asciitilde" unicode="~" horiz-adv-x="638" 
d="M435 205q-18 -2 -35.5 3t-33.5 13l-93 49q-17 8 -34 15.5t-33 7.5q-27 0 -50 -20.5t-43 -48.5l-83 59q14 37 34.5 68t44 53.5t49 35t49.5 13.5q27 1 49 -6t42 -17l78 -39q14 -8 29.5 -15t28.5 -7q25 0 47.5 19.5t42.5 45.5l84 -58q-34 -75 -76.5 -121t-96.5 -50z" />
    <glyph glyph-name="exclamdown" unicode="&#xa1;" horiz-adv-x="386" 
d="M193 536q51 0 82 -31.5t31 -79.5q0 -49 -31 -81t-82 -32q-50 0 -81.5 32t-31.5 81q0 48 31.5 79.5t81.5 31.5zM295 -346h-204l37 568h130z" />
    <glyph glyph-name="cent" unicode="&#xa2;" 
d="M381 -353l17 236q-57 8 -103 30.5t-78.5 57t-50 80t-17.5 100.5v112q0 60 21 109t60 84.5t94 56t122 23.5l15 201h96l-15 -207q57 -10 101.5 -33t75 -55t46.5 -70.5t16 -78.5v-30h-196v20q0 25 -14.5 47.5t-40.5 36.5l-24 -330q38 11 58.5 37.5t20.5 56.5v30h196v-40
q0 -44 -18 -86t-54 -75.5t-90 -55t-125 -25.5l-17 -232h-96zM435 379q-42 -10 -66 -44.5t-24 -81.5v-92q0 -39 17 -70t48 -47z" />
    <glyph glyph-name="cent" unicode="&#xffe0;" 
d="M381 -353l17 236q-57 8 -103 30.5t-78.5 57t-50 80t-17.5 100.5v112q0 60 21 109t60 84.5t94 56t122 23.5l15 201h96l-15 -207q57 -10 101.5 -33t75 -55t46.5 -70.5t16 -78.5v-30h-196v20q0 25 -14.5 47.5t-40.5 36.5l-24 -330q38 11 58.5 37.5t20.5 56.5v30h196v-40
q0 -44 -18 -86t-54 -75.5t-90 -55t-125 -25.5l-17 -232h-96zM435 379q-42 -10 -66 -44.5t-24 -81.5v-92q0 -39 17 -70t48 -47z" />
    <glyph glyph-name="sterling" unicode="&#xa3;" 
d="M382 44h399v-148h-647v118q29 13 54.5 32.5t45 44.5t30.5 55t11 63q0 9 -0.5 22.5t-2.5 24.5h-132v81h94q-9 28 -16.5 61.5t-7.5 58.5q0 60 23.5 107t65.5 80t99 50.5t124 17.5q84 0 147.5 -27.5t111.5 -85.5l-102 -102q-58 68 -137 68q-66 0 -106.5 -30.5t-40.5 -88.5
q0 -23 4.5 -51t11.5 -53h241v-86h-212q1 -11 1.5 -25t0.5 -23q0 -42 -14.5 -82.5t-45.5 -76.5v-5z" />
    <glyph glyph-name="sterling" unicode="&#xffe1;" 
d="M382 44h399v-148h-647v118q29 13 54.5 32.5t45 44.5t30.5 55t11 63q0 9 -0.5 22.5t-2.5 24.5h-132v81h94q-9 28 -16.5 61.5t-7.5 58.5q0 60 23.5 107t65.5 80t99 50.5t124 17.5q84 0 147.5 -27.5t111.5 -85.5l-102 -102q-58 68 -137 68q-66 0 -106.5 -30.5t-40.5 -88.5
q0 -23 4.5 -51t11.5 -53h241v-86h-212q1 -11 1.5 -25t0.5 -23q0 -42 -14.5 -82.5t-45.5 -76.5v-5z" />
    <glyph glyph-name="currency" unicode="&#xa4;" horiz-adv-x="609" 
d="M22 131l69 70q-38 53 -38 126t37 125l-68 70l88 88l80 -79q54 26 114 26q61 0 115 -26l80 79l88 -88l-70 -70q39 -51 39 -125q0 -38 -10.5 -69t-28.5 -57l70 -70l-88 -89l-81 81q-27 -13 -56 -19t-58 -6t-58 6t-55 19l-81 -81zM304 221q40 0 67.5 28.5t27.5 77.5
t-27.5 78t-67.5 29t-67 -29t-27 -78t27 -77.5t67 -28.5z" />
    <glyph glyph-name="yen" unicode="&#xa5;" 
d="M169 378h102l-186 322h215l165 -309l165 309h215l-187 -322h102v-86h-152l-35 -60h187v-86h-200v-250h-190v250h-201v86h187l-35 60h-152v86z" />
    <glyph glyph-name="yen" unicode="&#xffe5;" 
d="M169 378h102l-186 322h215l165 -309l165 309h215l-187 -322h102v-86h-152l-35 -60h187v-86h-200v-250h-190v250h-201v86h187l-35 60h-152v86z" />
    <glyph glyph-name="section" unicode="&#xa7;" 
d="M696 580q-18 10 -42 19.5t-50 16.5t-54 11t-53 4q-50 0 -72 -9.5t-22 -32.5q0 -24 25.5 -38t85.5 -33q46 -14 86 -31t69.5 -40t46 -55t16.5 -77q0 -46 -22 -86t-57 -65q8 -6 16.5 -17.5t16 -26.5t12.5 -33.5t5 -37.5q0 -53 -24.5 -87t-62.5 -53.5t-83 -27.5t-85 -8
q-26 0 -57 2.5t-63 8t-62 15t-53 23.5v131q21 -15 49.5 -26.5t60 -19.5t63 -12.5t58.5 -4.5q45 0 69.5 7.5t24.5 34.5q0 13 -6 21.5t-19.5 16t-35.5 15t-53 17.5q-45 14 -86 34t-72.5 46.5t-50 61t-18.5 77.5q0 38 23 78t70 63q-17 15 -31.5 46.5t-14.5 64.5q0 44 19.5 77
t53.5 54.5t80 32.5t100 11q49 0 103.5 -7.5t95.5 -25.5v-135zM394 412q-8 -4 -18.5 -11.5t-19.5 -17t-15 -19.5t-6 -20q0 -26 23 -51.5t73 -42.5q39 -14 66.5 -23.5t46.5 -14.5q7 4 14 15t13 23.5t9.5 25.5t3.5 22q0 21 -20.5 38t-50 31t-62.5 25t-57 20z" />
    <glyph glyph-name="dieresis" unicode="&#xa8;" horiz-adv-x="637" 
d="M192 598q-38 0 -61.5 25t-23.5 60q0 36 23.5 60.5t61.5 24.5t61.5 -24.5t23.5 -60.5q0 -35 -23.5 -60t-61.5 -25zM445 598q-38 0 -61.5 25t-23.5 60q0 36 23.5 60.5t61.5 24.5t61.5 -24.5t23.5 -60.5q0 -35 -23.5 -60t-61.5 -25z" />
    <glyph glyph-name="copyright" unicode="&#xa9;" horiz-adv-x="790" 
d="M395 -66q-79 0 -148 30t-120.5 81.5t-81.5 120.5t-30 148q0 78 30 147t81.5 120.5t120.5 81.5t148 30t148 -30t120.5 -81.5t81.5 -120.5t30 -147q0 -79 -30 -148t-81.5 -120.5t-120.5 -81.5t-148 -30zM63 314q0 -66 26.5 -126.5t71.5 -106.5t105.5 -73t128.5 -27
q69 0 129.5 27t105.5 73t71 106.5t26 126.5t-26 126t-71 105.5t-105.5 72.5t-129.5 27q-68 0 -128.5 -27t-105.5 -72.5t-71.5 -105.5t-26.5 -126zM589 286v-26q0 -29 -12.5 -55.5t-36.5 -47.5t-60.5 -33.5t-84.5 -12.5q-44 0 -79.5 12t-61 34t-39.5 53.5t-14 69.5v68
q0 38 14 69t39.5 53t61 34t79.5 12q46 0 82 -12.5t61 -33.5t38 -47.5t13 -54.5v-20h-120v12q0 23 -19.5 42t-54.5 19q-34 0 -54 -22.5t-20 -55.5v-57q0 -33 20 -56.5t54 -23.5q35 0 54.5 19t19.5 43v18h120z" />
    <glyph glyph-name="ordfeminine" unicode="&#xaa;" horiz-adv-x="519" 
d="M206 274q-37 0 -69 8.5t-56 25t-37.5 41t-13.5 56.5q0 34 10.5 61t33.5 47.5t61 34t92 19.5l107 12v9q0 27 -22 38.5t-57 11.5t-53 -12.5t-18 -30.5v-7h-140v15q0 29 15 54t42.5 44t66.5 29.5t87 10.5q46 0 86.5 -11.5t69.5 -31.5t46 -48.5t17 -61.5v-305h-134v26
q-19 -14 -56 -24.5t-78 -10.5zM248 547q-2 -25 -13 -47.5t-29.5 -39t-42 -27t-48.5 -11.5q26 -1 50 -12t42.5 -28t29.5 -39.5t11 -46.5q0 24 11 46.5t29.5 40t42 28.5t48.5 12q-25 1 -48 11t-41.5 27t-29.5 39t-12 47z" />
    <glyph glyph-name="guillemotleft" unicode="&#xab;" 
d="M236 325l277 -270v-132l-396 380v43l396 380v-132zM536 325l277 -270v-132l-396 380v43l396 380v-132z" />
    <glyph glyph-name="guillemotleft" unicode="&#x226a;" 
d="M236 325l277 -270v-132l-396 380v43l396 380v-132zM536 325l277 -270v-132l-396 380v43l396 380v-132z" />
    <glyph glyph-name="logicalnot" unicode="&#xac;" 
d="M827 550v-350h-143v214h-589v136h732z" />
    <glyph glyph-name="logicalnot" unicode="&#xffe2;" 
d="M827 550v-350h-143v214h-589v136h732z" />
    <glyph glyph-name="uni00AD" unicode="&#xad;" horiz-adv-x="609" 
d="M40 398h529v-160h-529v160z" />
    <glyph glyph-name="uni00AD" unicode="&#x2013;" horiz-adv-x="609" 
d="M40 398h529v-160h-529v160z" />
    <glyph glyph-name="registered" unicode="&#xae;" horiz-adv-x="535" 
d="M267 295q-47 0 -89 17.5t-73 48t-49 73t-18 93.5q0 50 18 92.5t49 73t73 48t89 17.5t88.5 -17.5t72.5 -48t49 -73t18 -92.5q0 -51 -18 -93.5t-49 -73t-72.5 -48t-88.5 -17.5zM103 527q0 -46 15.5 -81.5t44.5 -58.5v273h122q45 0 72 -25.5t27 -69.5q0 -29 -13.5 -49
t-35.5 -31l51 -84q21 23 33 54.5t12 71.5t-12 72t-34 54.5t-52 34.5t-66 12t-66 -12t-52 -34.5t-34 -54.5t-12 -72zM272 645q-2 -35 -28.5 -56t-57.5 -22q15 -1 30.5 -7.5t27.5 -17t19.5 -24.5t8.5 -30q1 16 9 30t20 24.5t27.5 17t30.5 7.5q-31 1 -58 22t-29 56zM165 386
q40 -33 102 -33q60 0 102 33h-45l-54 88h-42v-88h-63z" />
    <glyph glyph-name="degree" unicode="&#xb0;" horiz-adv-x="423" 
d="M211 449q-36 0 -66.5 12.5t-53.5 35t-36 53.5t-13 67t13 67t36 53.5t53.5 35t66.5 12.5t66.5 -12.5t53.5 -35t36 -53.5t13 -67t-13 -67t-36 -53.5t-53.5 -35t-66.5 -12.5zM211 761q-2 -72 -32 -108t-96 -38q66 -2 96 -39t32 -106q2 69 31.5 106.5t96.5 39.5
q-67 2 -96.5 37.5t-31.5 107.5z" />
    <glyph glyph-name="plusminus" unicode="&#xb1;" horiz-adv-x="632" 
d="M401 679v-177h181v-138h-181v-177h-170v177h-181v138h181v177h170zM582 137v-138h-532v138h532z" />
    <glyph glyph-name="twosuperior" unicode="&#xb2;" horiz-adv-x="402" 
d="M30 283v72l150 131q37 32 58 56.5t21 57.5q0 26 -17 41.5t-46 15.5q-32 0 -49.5 -18t-12.5 -50h-98q-2 28 7 56t29.5 50t51.5 35.5t73 13.5t74 -11.5t53.5 -31.5t32 -47t10.5 -58q0 -35 -19.5 -65.5t-62.5 -68.5l-123 -107q51 0 105 7.5t96 28.5v-108h-333z" />
    <glyph glyph-name="threesuperior" unicode="&#xb3;" horiz-adv-x="401" 
d="M137 553h33q42 0 59 16t17 42q0 21 -15 34t-40 13q-22 0 -38.5 -11t-16.5 -30h-95q-1 25 9 48t30 40t49.5 27.5t67.5 10.5q36 0 65 -9.5t49.5 -26t31.5 -38.5t11 -47q0 -15 -5.5 -31t-15 -30t-21.5 -24.5t-25 -16.5q36 -10 60 -37t24 -70q0 -30 -14 -55.5t-38 -44
t-55.5 -28.5t-65.5 -10q-38 0 -70.5 8.5t-56.5 25.5t-37.5 42.5t-13.5 60.5h98q0 -23 21.5 -36t47.5 -13q32 0 54 15t22 38q0 28 -24 43.5t-62 17.5h-40v76z" />
    <glyph glyph-name="acute" unicode="&#xb4;" horiz-adv-x="481" 
d="M210 501l-130 101l179 237l142 -108z" />
    <glyph glyph-name="paragraph" unicode="&#xb6;" horiz-adv-x="575" 
d="M226 273q-35 0 -69 12t-61 39.5t-43.5 72t-16.5 108.5t16.5 108.5t43.5 72t61 39.5t69 12h299v-845h-110v748h-79v-748h-110v381z" />
    <glyph glyph-name="periodcentered" unicode="&#xb7;" horiz-adv-x="610" 
d="M303 199q-51 0 -82 31.5t-31 79.5q0 49 31 81t82 32q50 0 81.5 -32t31.5 -81q0 -48 -31.5 -79.5t-81.5 -31.5z" />
    <glyph glyph-name="periodcentered" unicode="&#x30fb;" horiz-adv-x="610" 
d="M303 199q-51 0 -82 31.5t-31 79.5q0 49 31 81t82 32q50 0 81.5 -32t31.5 -81q0 -48 -31.5 -79.5t-81.5 -31.5z" />
    <glyph glyph-name="cedilla" unicode="&#xb8;" horiz-adv-x="600" 
d="M178 -185q66 1 91 11t25 30q0 23 -23.5 29.5t-83.5 6.5l26 113h116l-12 -57q51 -3 77.5 -31t26.5 -72q0 -30 -17.5 -53.5t-49.5 -39t-76.5 -23t-99.5 -5.5v91z" />
    <glyph glyph-name="onesuperior" unicode="&#xb9;" horiz-adv-x="324" 
d="M137 284v346l-87 -50v86l114 71h80v-453h-107z" />
    <glyph glyph-name="ordmasculine" unicode="&#xba;" horiz-adv-x="403" 
d="M201 744q46 0 83.5 -12t64 -33.5t41 -52.5t14.5 -69v-134q0 -38 -14.5 -69t-41 -52.5t-64 -33.5t-83.5 -12t-83.5 12t-63.5 33.5t-40.5 52.5t-14.5 69v134q0 38 14.5 69t40.5 52.5t63.5 33.5t83.5 12zM201 723q-2 -42 -18 -80t-40.5 -67t-56.5 -46.5t-65 -19.5
q33 -2 65 -19.5t56.5 -46.5t40.5 -66.5t18 -79.5q1 42 17 79.5t41 66.5t57 47t66 20q-33 2 -65 19.5t-57.5 46.5t-41.5 66.5t-17 79.5z" />
    <glyph glyph-name="guillemotright" unicode="&#xbb;" 
d="M417 726l396 -380v-43l-396 -380v132l277 270l-277 269v132zM117 726l396 -380v-43l-396 -380v132l277 270l-277 269v132z" />
    <glyph glyph-name="guillemotright" unicode="&#x226b;" 
d="M417 726l396 -380v-43l-396 -380v132l277 270l-277 269v132zM117 726l396 -380v-43l-396 -380v132l277 270l-277 269v132z" />
    <glyph glyph-name="onequarter" unicode="&#xbc;" 
d="M699 737h132l-638 -846h-132zM163 284v346l-87 -50v86l114 71h80v-453h-107zM860 -42h-54v-67h-101v67h-217v81l222 305h96v-300h54v-86zM685 258q-1 -28 -9 -52.5t-22.5 -42.5t-35 -29t-47.5 -12q28 -1 49 -13t35.5 -31.5t22 -45t7.5 -52.5q0 27 7.5 52.5t21.5 45
t35.5 32t48.5 13.5q-54 2 -83 40.5t-30 94.5z" />
    <glyph glyph-name="onehalf" unicode="&#xbd;" 
d="M699 737h132l-638 -846h-132zM163 284v346l-87 -50v86l114 71h80v-453h-107zM537 -109v72l150 130q36 33 57.5 57.5t21.5 56.5q0 26 -17.5 42t-46.5 16q-31 0 -49 -18.5t-13 -50.5h-97q-2 28 7 56t29.5 50t51.5 35.5t73 13.5t74 -11.5t53.5 -31.5t32 -47t10.5 -57
q0 -35 -19.5 -65.5t-63.5 -68.5l-123 -107q51 0 105 7t96 28v-107h-332z" />
    <glyph glyph-name="threequarters" unicode="&#xbe;" 
d="M167 567h32q42 0 59 16t17 42q0 21 -15 34t-40 13q-22 0 -38.5 -11t-16.5 -30h-95q-1 25 9 48t30 40t49.5 27.5t67.5 10.5q36 0 65 -9.5t49.5 -26t31.5 -38.5t11 -47q0 -15 -5.5 -31t-14.5 -30t-21.5 -24.5t-25.5 -16.5q36 -10 60 -37t24 -70q0 -30 -14 -55.5t-38 -44
t-55.5 -28.5t-65.5 -10q-37 0 -69.5 8.5t-56.5 25.5t-37.5 42.5t-13.5 60.5h97q0 -23 21.5 -36t47.5 -13q32 0 54 15t22 38q0 29 -26 45t-67 16h-32v76zM739 737h132l-638 -846h-132zM860 -42h-54v-67h-101v67h-217v81l222 305h96v-300h54v-86zM685 258q-1 -28 -9 -52.5
t-22.5 -42.5t-35 -29t-47.5 -12q28 -1 49 -13t35.5 -31.5t22 -45t7.5 -52.5q0 27 7.5 52.5t21.5 45t35.5 32t48.5 13.5q-54 2 -83 40.5t-30 94.5z" />
    <glyph glyph-name="questiondown" unicode="&#xbf;" horiz-adv-x="609" 
d="M302 537q51 0 82 -31.5t31 -79.5q0 -49 -31 -81t-82 -32q-50 0 -81.5 32t-31.5 81q0 48 31.5 79.5t81.5 31.5zM395 190q0 -48 -17 -86.5t-43 -70.5l-78 -92q-27 -32 -27 -65q0 -38 23.5 -57t58.5 -19t61 20.5t26 61.5h180q0 -54 -21.5 -99t-59 -77.5t-89 -50.5
t-112.5 -18q-53 0 -101 13t-84 40.5t-57.5 70t-21.5 101.5q0 43 16.5 76t40.5 62l101 122q7 9 12 22t7.5 27t3.5 27.5t1 24.5h180v-33z" />
    <glyph glyph-name="AE" unicode="&#xc6;" 
d="M911 58v-167h-463v192h-180l-81 -192h-208l348 846h570v-164h-251v-163h224v-167h-224v-185h265zM410 141q0 118 46.5 183t153.5 69q-52 1 -89.5 18.5t-61.5 48.5t-36 74t-13 97q-1 -54 -13 -97.5t-36.5 -74.5t-61.5 -49t-89 -19q107 -4 153.5 -68t46.5 -182z" />
    <glyph glyph-name="Eth" unicode="&#xd0;" horiz-adv-x="758" 
d="M10 380h40v357h354q81 0 144.5 -30t106.5 -85.5t65.5 -133.5t22.5 -174t-22.5 -174t-65.5 -133.5t-106.5 -86t-144.5 -30.5h-354v380h-40v110zM250 380h170v-110h-170v-220h54q59 0 103.5 14t74.5 45t45.5 81.5t15.5 123.5t-15.5 123.5t-45.5 81.5t-74.5 44.5
t-103.5 13.5h-54v-197z" />
    <glyph glyph-name="multiply" unicode="&#xd7;" horiz-adv-x="682" 
d="M638 515l-189 -187l189 -187l-110 -104l-187 185l-187 -185l-110 104l189 187l-189 187l110 104l187 -185l187 185z" />
    <glyph glyph-name="Oslash" unicode="&#xd8;" horiz-adv-x="820" 
d="M731 614q54 -74 54 -175v-251q0 -71 -26.5 -128t-75.5 -97.5t-118.5 -62.5t-154.5 -22q-72 0 -131.5 15.5t-106.5 44.5l-62 -75l-79 64l64 78q-60 75 -60 183v251q0 71 26.5 128t75.5 97.5t118.5 62.5t154.5 22q75 0 136.5 -16.5t109.5 -48.5l54 65l79 -64zM235 199v-12
t1 -12l306 370q-22 21 -54.5 32.5t-77.5 11.5q-89 0 -132 -43.5t-43 -117.5v-229zM285 75q45 -37 125 -37q89 0 132 43.5t43 117.5v239z" />
    <glyph glyph-name="Thorn" unicode="&#xde;" horiz-adv-x="790" 
d="M96 737h198v-132h110q67 0 126.5 -13.5t104 -44.5t70.5 -83t26 -128q0 -74 -26.5 -127.5t-71.5 -88.5t-104 -51.5t-125 -16.5h-110v-161h-198v846zM405 89q2 117 50.5 175.5t156.5 61.5q-107 3 -156 63t-51 172q-2 -112 -51 -172.5t-157 -63.5q108 -3 157 -61t51 -175z
" />
    <glyph glyph-name="germandbls" unicode="&#xdf;" horiz-adv-x="752" 
d="M475 -125q-24 0 -39.5 1.5t-29.5 4.5t-29 7.5t-37 11.5v147q19 -6 33.5 -10.5t28.5 -7t29 -4t36 -1.5q29 0 46.5 15t17.5 38q0 21 -13.5 36t-33.5 28t-43.5 26.5t-43.5 32.5t-33.5 45.5t-13.5 66.5q0 34 11 57t24 44t24 44t11 56q0 34 -24.5 56t-59.5 22q-40 0 -63 -24.5
t-23 -77.5v-599h-200v615q0 118 67 181t218 63q67 0 119.5 -17.5t88.5 -46t54.5 -65.5t18.5 -76q0 -43 -12.5 -73t-27 -53t-27 -42t-12.5 -41q0 -19 13.5 -32.5t33.5 -26.5t43 -28.5t43 -38.5t33.5 -55t13.5 -78q0 -41 -16.5 -77.5t-48 -64t-76.5 -43.5t-101 -16z" />
    <glyph glyph-name="ae" unicode="&#xe6;" 
d="M216 -123q-51 0 -88 16t-61 42.5t-35.5 59.5t-11.5 67q0 36 6.5 72.5t30 68t68 54t121.5 31.5l148 17l2 11v3q0 38 -25 53.5t-75 15.5q-48 0 -69 -16.5t-21 -42.5v-10h-176v20q0 40 16 75.5t49 61.5t83 41t118 15q63 0 108 -15t80 -42q18 15 36 26t38 19t44.5 12t55.5 4
q69 0 118 -19.5t81 -55t47 -86t15 -112.5v-126h-357v-35q0 -20 8.5 -35t21 -24.5t27.5 -14t29 -4.5q39 0 67 17.5t28 41.5v9h166v-19q0 -40 -20 -75.5t-55 -62.5t-82.5 -42.5t-103.5 -15.5q-48 0 -93.5 18.5t-84.5 44.5q-76 -30 -136 -46.5t-118 -16.5zM673 177
q0 34 12.5 62t34 48t51.5 31.5t66 12.5q-35 1 -64.5 10.5t-51.5 27.5t-34.5 44.5t-13.5 61.5q-2 -35 -16 -61.5t-37 -45t-54 -28t-66 -10.5q36 -1 67.5 -12.5t55 -31t37 -47.5t13.5 -62zM276 -91q0 34 15 65.5t40.5 56t59 39.5t69.5 17q-35 1 -67.5 15.5t-58 38t-41.5 54.5
t-17 66q-2 -35 -18 -66.5t-41.5 -55t-58 -38t-67.5 -15.5q36 -2 69.5 -17t59 -39t41 -55.5t15.5 -65.5z" />
    <glyph glyph-name="eth" unicode="&#xf0;" horiz-adv-x="714" 
d="M481 615q38 -38 69.5 -81t54 -93.5t35 -110t12.5 -129.5q0 -77 -21 -137.5t-60.5 -102.5t-96 -64t-127.5 -22q-60 0 -113.5 16.5t-94 51t-64 86t-23.5 122.5q0 69 22 121t58 87.5t82.5 53.5t95.5 18q33 0 67 -11t60 -36q-17 46 -43 84t-61 73l-180 -91l-50 86l145 74
q-26 16 -53 31.5t-57 31.5l86 121q45 -23 89.5 -50t86.5 -58l181 91l51 -86zM355 -103q0 123 48.5 184.5t158.5 64.5q-107 3 -156 63t-51 172q-2 -112 -51 -172.5t-157 -63.5q111 -3 159.5 -64t48.5 -184z" />
    <glyph glyph-name="divide" unicode="&#xf7;" horiz-adv-x="672" 
d="M229 528q0 49 30 79t79 30t79 -30t30 -79t-30 -79t-79 -30t-79 30t-30 79zM622 397v-148h-572v148h572zM229 118q0 49 30 79t79 30t79 -30t30 -79t-30 -79t-79 -30t-79 30t-30 79z" />
    <glyph glyph-name="oslash" unicode="&#xf8;" horiz-adv-x="708" 
d="M590 427q34 -41 53.5 -96.5t19.5 -124.5q0 -78 -26 -139.5t-68.5 -104t-98.5 -65t-116 -22.5q-46 0 -89 13t-81 37l-53 -66l-72 56l58 73q-34 41 -53.5 95.5t-19.5 122.5q0 79 26 140.5t69 104.5t99 65.5t116 22.5q91 0 168 -49l54 67l73 -56zM421 364q-26 22 -67 22
q-56 0 -87.5 -46t-31.5 -121q0 -22 2 -41t5 -36zM287 52q26 -23 67 -23q56 0 87 45.5t31 120.5q0 47 -7 79z" />
    <glyph glyph-name="thorn" unicode="&#xfe;" horiz-adv-x="731" 
d="M80 738h197v-261q32 28 69 45t79 17q60 0 107.5 -23t81 -65t51.5 -101t18 -132q0 -82 -22.5 -145.5t-59.5 -107.5t-84.5 -67t-98.5 -23q-46 0 -78 16t-63 43v-287h-197v1091zM405 -33q0 123 48.5 184.5t158.5 64.5q-107 3 -156 63t-51 172q-2 -112 -51 -172.5t-157 -63.5
q111 -3 159.5 -64t48.5 -184z" />
    <glyph glyph-name="dcroat" unicode="&#x111;" horiz-adv-x="692" 
d="M281 680h185v57h196v-57h29v-110h-29v-680h-345q-73 0 -128.5 25.5t-93 69t-56.5 102t-19 125.5q0 66 20.5 123t58.5 98.5t93.5 65t124.5 23.5h149v48h-185v110zM335 -93q0 147 58.5 221t191.5 78q-130 4 -189 76.5t-61 206.5q-3 -134 -62 -207t-188 -77
q133 -4 191.5 -77.5t58.5 -220.5z" />
    <glyph glyph-name="Hbar" unicode="&#x126;" horiz-adv-x="796" 
d="M10 600h40v137h200v-137h296v137h200v-137h40v-110h-40v-599h-200v347h-296v-347h-200v599h-40v110zM546 398v92h-296v-92h296z" />
    <glyph glyph-name="hbar" unicode="&#x127;" horiz-adv-x="661" 
d="M10 640h30v97h196v-97h200v-110h-200v-75l114 20q132 23 204 -31t72 -192v-362h-196v342q0 60 -28 81t-82 8l-84 -20v-411h-196v640h-30v110z" />
    <glyph glyph-name="dotlessi" unicode="&#x131;" horiz-adv-x="276" 
d="M40 524h196v-633h-196v633z" />
    <glyph glyph-name="IJ" unicode="&#x132;" horiz-adv-x="650" 
d="M250 -109h-200v846h200v-846zM600 163q0 -57 -20 -108.5t-58.5 -90.5t-94.5 -62.5t-127 -23.5v175q49 0 74.5 28t25.5 76v580h200v-574z" />
    <glyph glyph-name="ij" unicode="&#x133;" horiz-adv-x="592" 
d="M138 598q-24 0 -44 8.5t-34 23.5t-22 35t-8 43t8 43.5t22 35.5t34 24t44 9q48 0 78 -32.5t30 -79.5q0 -23 -8 -43t-22.5 -35t-34 -23.5t-43.5 -8.5zM454 598q-24 0 -44 8.5t-34 23.5t-22 35t-8 43t8 43.5t22 35.5t34 24t44 9q48 0 78 -32.5t30 -79.5q0 -23 -8 -43
t-22.5 -35t-34 -23.5t-43.5 -8.5zM40 524h196v-634h-196v634zM234 -192h45q36 0 56.5 22t20.5 71v623h196v-609q0 -54 -10.5 -102.5t-37 -85t-71 -58t-112.5 -21.5h-87v160z" />
    <glyph glyph-name="kgreenlandic" unicode="&#x138;" horiz-adv-x="713" 
d="M50 523h190v-213l216 213h219l-228 -234l256 -398h-219l-165 267l-79 -82v-185h-190v632z" />
    <glyph glyph-name="Ldot" unicode="&#x13f;" horiz-adv-x="593" 
d="M50 737h200v-704q92 2 176.5 15.5t156.5 46.5v-205h-533v847zM430 202q-51 0 -82 31.5t-31 79.5q0 49 31 81t82 32q50 0 81.5 -32t31.5 -81q0 -48 -31.5 -79.5t-81.5 -31.5z" />
    <glyph glyph-name="ldot" unicode="&#x140;" horiz-adv-x="576" 
d="M50 737h196v-656q0 -26 13 -34.5t34 -8.5h40v-160h-52q-61 0 -104.5 15t-71.5 42t-41.5 65t-13.5 85v652zM403 240q-51 0 -82 31.5t-31 79.5q0 49 31 81t82 32q50 0 81.5 -32t31.5 -81q0 -48 -31.5 -79.5t-81.5 -31.5z" />
    <glyph glyph-name="Lslash" unicode="&#x141;" horiz-adv-x="593" 
d="M10 270l40 25v442h200v-316l236 149v-110l-236 -149v-278q92 2 176.5 15.5t156.5 46.5v-205h-533v295l-40 -25v110z" />
    <glyph glyph-name="lslash" unicode="&#x142;" horiz-adv-x="446" 
d="M316 485l120 85v-110l-120 -85v-294q0 -26 13 -34.5t34 -8.5h40v-160h-52q-61 0 -104.5 15t-71.5 42t-41.5 65t-13.5 84v153l-110 -77v110l110 77v390h196v-252z" />
    <glyph glyph-name="napostrophe" unicode="&#x149;" horiz-adv-x="769" 
d="M457 514q133 26 204.5 -30.5t71.5 -195.5v-397h-196v377q0 121 -110 92l-84 -22v-447h-196v567q-23 -11 -47 -17.5t-50 -8.5v75q39 11 58.5 29.5t26.5 48.5q-37 9 -58.5 36t-21.5 66q0 49 31 81t82 32q50 0 79.5 -34.5t33.5 -83.5q3 -45 -11 -86t-42 -74h115v-30l114 22
v0z" />
    <glyph glyph-name="Eng" unicode="&#x14a;" horiz-adv-x="801" 
d="M751 -138q0 -66 -47.5 -106t-135.5 -40h-93v116h41q23 0 30 11.5t7 31.5v16l-249 417q-16 26 -29.5 48t-32.5 48q6 -71 6 -136v-377h-198v846h198l243 -397q19 -31 36.5 -64t31.5 -70q-5 35 -5.5 71t-0.5 71v389h198v-875v0z" />
    <glyph glyph-name="eng" unicode="&#x14b;" horiz-adv-x="662" 
d="M350 514q133 26 204.5 -30.5t71.5 -195.5v-426q0 -66 -47.5 -106t-135.5 -40h-91v116h41q23 0 30 11.5t7 31.5v393q0 121 -110 92l-84 -22v-447h-196v631h196v-30l114 22v0z" />
    <glyph glyph-name="OE" unicode="&#x152;" 
d="M476 -110v18q-23 -14 -50 -22t-76 -8q-85 0 -146.5 22t-101 62.5t-58.5 97.5t-19 128v251q0 71 19 128t58.5 97.5t101 62.5t146.5 22q49 0 76 -8t50 -22v18h449v-160h-269v-175h269v-162h-269v-210q37 0 69.5 3.5t64 10.5t64.5 18.5t71 27.5v-200h-449zM53 314
q65 0 119.5 -33.5t94 -90t61.5 -131t22 -157.5q0 83 22 158t61.5 131.5t94 90t119.5 33.5q-63 0 -116.5 32t-93 86t-62.5 126t-25 152q-2 -80 -25 -152t-62.5 -126.5t-93 -86.5t-116.5 -32z" />
    <glyph glyph-name="oe" unicode="&#x153;" 
d="M524 133q0 -27 8.5 -47.5t22 -34t30.5 -20.5t34 -7q39 0 67 17.5t28 41.5v9h196v-19q0 -40 -18 -75.5t-53 -62.5t-86.5 -42.5t-118.5 -15.5q-66 0 -111.5 18t-71.5 51q-26 -32 -62.5 -50.5t-92.5 -18.5q-76 0 -128.5 20.5t-85.5 57.5t-47.5 86.5t-14.5 108.5v113
q0 55 14.5 104.5t47.5 87t85.5 59.5t128.5 22q55 0 91 -19t62 -51q34 34 83.5 52t116.5 18q69 0 119.5 -19.5t84.5 -55t50.5 -86t16.5 -112.5v-126h-396v-4zM296 491q-1 -70 -14.5 -122.5t-42 -88t-74 -54t-109.5 -19.5q66 -2 111.5 -22.5t74 -58.5t41.5 -93t13 -125
q0 70 12.5 125t41 93.5t74.5 59t112 22.5q-65 1 -110 19.5t-73.5 53.5t-42 87.5t-14.5 122.5zM659 485q-2 -35 -16 -61.5t-37 -45t-54 -28t-66 -10.5q36 -1 67.5 -12.5t55 -31t37 -47.5t13.5 -62q0 34 13.5 62t37 48t54.5 31.5t67 12.5q-35 1 -65.5 10.5t-54 27.5
t-37.5 44.5t-15 61.5z" />
    <glyph glyph-name="Tbar" unicode="&#x166;" horiz-adv-x="684" 
d="M442 400h202v-110h-202v-399h-200v399h-202v110h202v177h-247v160h694v-160h-247v-177z" />
    <glyph glyph-name="tbar" unicode="&#x167;" horiz-adv-x="426" 
d="M294 361v-61h120v-110h-120v-46q0 -49 20.5 -71t56.5 -22h45v-160h-87q-68 0 -113 21.5t-71 58t-36.5 85t-10.5 102.5v32h-88v110h88v61h-88v160h88v217h196v-217h122v-160h-122z" />
    <glyph glyph-name="caron" unicode="&#x2c7;" 
d="M777 799l-311 -297l-312 298h185l126 -109l119 108h193z" />
    <glyph glyph-name="uni02D0" unicode="&#x2d0;" 
d="M465 432l-113 224h226zM352 -18l113 224l113 -224h-226z" />
    <glyph glyph-name="uni02D0" unicode="&#x2236;" 
d="M465 432l-113 224h226zM352 -18l113 224l113 -224h-226z" />
    <glyph glyph-name="breve" unicode="&#x2d8;" horiz-adv-x="833" 
d="M437 595q-62 0 -105 17.5t-70.5 46.5t-40.5 66t-14 76h165q2 -38 17.5 -58.5t47.5 -20.5t46.5 20.5t16.5 58.5h166q-2 -39 -15 -76t-40 -66t-70 -46.5t-104 -17.5z" />
    <glyph glyph-name="dotaccent" unicode="&#x2d9;" 
d="M466 515q-23 0 -42.5 8.5t-34 23.5t-23 34t-8.5 40q0 22 7.5 42.5t21.5 35.5t34 24t44 9q50 0 77.5 -33t27.5 -78q0 -43 -27 -74.5t-77 -31.5z" />
    <glyph glyph-name="ring" unicode="&#x2da;" 
d="M465 453q-36 0 -66.5 12.5t-53.5 35t-36 53.5t-13 67t13 67t36 53.5t53.5 35t66.5 12.5t66.5 -12.5t53.5 -35t36 -53.5t13 -67t-13 -67t-36 -53.5t-53.5 -35t-66.5 -12.5zM465 538q35 0 56 23t21 60t-21 60t-56 23q-34 0 -55 -23t-21 -60t21 -60t55 -23z" />
    <glyph glyph-name="ogonek" unicode="&#x2db;" 
d="M603 -264h-93q-88 0 -135.5 40t-47.5 106v115h198v-122q0 -20 7 -31.5t30 -11.5h41v-96z" />
    <glyph glyph-name="tilde" unicode="&#x2dc;" horiz-adv-x="638" 
d="M435 205q-18 -2 -35.5 3t-33.5 13l-93 49q-17 8 -34 15.5t-33 7.5q-27 0 -50 -20.5t-43 -48.5l-83 59q14 37 34.5 68t44 53.5t49 35t49.5 13.5q27 1 49 -6t42 -17l78 -39q14 -8 29.5 -15t28.5 -7q25 0 47.5 19.5t42.5 45.5l84 -58q-34 -75 -76.5 -121t-96.5 -50z" />
    <glyph glyph-name="hungarumlaut" unicode="&#x2dd;" 
d="M481 800h189l-65 -296h-125zM261 800h189l-65 -296h-125z" />
    <glyph glyph-name="Alpha" unicode="&#x391;" horiz-adv-x="846" 
d="M565 49h-284l-57 -158h-214l314 846h199l313 -846h-214zM606 371q-52 0 -86.5 22t-56 60t-30.5 87.5t-10 105.5q-1 -56 -10.5 -105.5t-30.5 -87.5t-56 -60t-86 -22q53 0 88 -24.5t56 -65t30 -92t9 -105.5q0 54 9 105.5t30 92t56 65t88 24.5z" />
    <glyph glyph-name="Beta" unicode="&#x392;" horiz-adv-x="797" 
d="M424 737q58 0 108.5 -12.5t87.5 -38.5t58 -65.5t21 -92.5q0 -26 -8 -52t-21.5 -49t-32 -42.5t-39.5 -31.5q30 -8 56 -28t45.5 -47t31 -59.5t11.5 -65.5q0 -63 -22 -112t-62 -82t-97 -50.5t-126 -17.5h-385v846h374zM382 710q-2 -43 -24 -75t-57 -54t-79.5 -33.5
t-91.5 -12.5q47 -1 91.5 -11.5t79.5 -31.5t57 -53.5t24 -77.5q2 45 24 77.5t57 53.5t79.5 31.5t91.5 11.5q-47 1 -91.5 12.5t-79.5 33.5t-57 54t-24 75zM382 350q0 -52 -24 -92t-63 -67.5t-87.5 -42.5t-97.5 -16q49 -2 97.5 -15.5t87.5 -40.5t63 -67.5t24 -95.5
q0 55 24 95.5t63 67t87.5 40t97.5 15.5q-49 1 -97.5 16t-87.5 43t-63 68t-24 92z" />
    <glyph glyph-name="Gamma" unicode="&#x393;" horiz-adv-x="665" 
d="M96 737h527v-164h-329v-682h-198v846z" />
    <glyph glyph-name="uni0394" unicode="&#x394;" horiz-adv-x="889" 
d="M43 11l283 726h238l283 -726v-120h-804v120zM630 58l-182 529h-5l-187 -529h374z" />
    <glyph glyph-name="Epsilon" unicode="&#x395;" horiz-adv-x="659" 
d="M50 -109v846h579v-160h-379v-175h369v-162h-369v-209q55 0 104.5 3.5t95 10.5t90 18.5t89.5 27.5v-200h-579z" />
    <glyph glyph-name="Zeta" unicode="&#x396;" horiz-adv-x="646" 
d="M10 21l395 556h-385v160h621v-130l-397 -581q50 0 104.5 3t107.5 10t102 19.5t88 32.5v-200h-636v130z" />
    <glyph glyph-name="Eta" unicode="&#x397;" horiz-adv-x="796" 
d="M546 -109v347h-296v-347h-200v846h200v-339h296v339h200v-846h-200z" />
    <glyph glyph-name="Theta" unicode="&#x398;" horiz-adv-x="820" 
d="M410 749q85 0 154.5 -22t118.5 -62.5t75.5 -97.5t26.5 -128v-251q0 -71 -26.5 -128t-75.5 -97.5t-118.5 -62.5t-154.5 -22t-154.5 22t-118.5 62.5t-75.5 97.5t-26.5 128v251q0 71 26.5 128t75.5 97.5t118.5 62.5t154.5 22zM410 589q-89 0 -132 -43.5t-43 -117.5v-230
q0 -74 43 -117t132 -43t132 43t43 117v230q0 74 -43 117.5t-132 43.5zM300 401h220v-155h-220v155z" />
    <glyph glyph-name="Iota" unicode="&#x399;" horiz-adv-x="300" 
d="M250 -109h-200v846h200v-846z" />
    <glyph glyph-name="Kappa" unicode="&#x39a;" horiz-adv-x="778" 
d="M50 737h200v-325l258 325h220l-272 -341l312 -505h-220l-212 355l-86 -108v-247h-200v846z" />
    <glyph glyph-name="Lambda" unicode="&#x39b;" horiz-adv-x="643" 
d="M806 -109h-202l-149 418q-19 52 -31 98t-26 101q-14 -55 -26 -101t-31 -98l-149 -418h-202l304 846h208z" />
    <glyph glyph-name="Mu" unicode="&#x39c;" horiz-adv-x="903" 
d="M632 737h241v-846h-187v349q0 19 1.5 45t3.5 53.5t4.5 55.5t4.5 51l-164 -534h-149l-164 534q2 -23 4.5 -51t4.5 -55.5t3.5 -53.5t1.5 -45v-349h-187v846h241l142 -449q9 -35 16 -68.5t12 -67.5q6 34 12.5 67.5t16.5 68.5z" />
    <glyph glyph-name="Nu" unicode="&#x39d;" horiz-adv-x="801" 
d="M553 -109l-249 417q-16 26 -29.5 48t-32.5 48q6 -71 6 -136v-377h-198v846h198l243 -397q19 -31 36.5 -64t31.5 -70q-5 35 -5.5 71t-0.5 71v389h198v-846h-198z" />
    <glyph glyph-name="Xi" unicode="&#x39e;" horiz-adv-x="732" 
d="M81 737h571v-164h-571v164zM113 410h506v-167h-506v167zM68 58h597v-167h-597v167z" />
    <glyph glyph-name="Omicron" unicode="&#x39f;" horiz-adv-x="820" 
d="M410 749q85 0 154.5 -22t118.5 -62.5t75.5 -97.5t26.5 -128v-251q0 -71 -26.5 -128t-75.5 -97.5t-118.5 -62.5t-154.5 -22t-154.5 22t-118.5 62.5t-75.5 97.5t-26.5 128v251q0 71 26.5 128t75.5 97.5t118.5 62.5t154.5 22zM63 314q43 0 85.5 -15t81 -42.5t71.5 -65.5
t57.5 -84t38 -98t13.5 -107q0 83 30 158t78.5 131.5t111 90t127.5 33.5q-65 0 -127.5 33.5t-111 90t-78.5 131.5t-30 158q0 -83 -30 -158t-78.5 -132t-111 -90.5t-127.5 -33.5z" />
    <glyph glyph-name="Pi" unicode="&#x3a0;" horiz-adv-x="845" 
d="M96 737h654v-846h-198v682h-258v-682h-198v846z" />
    <glyph glyph-name="Rho" unicode="&#x3a1;" horiz-adv-x="762" 
d="M50 -109v846h375q69 0 126 -22t97 -62t62 -95.5t22 -122.5q0 -66 -23.5 -120t-64.5 -92t-97 -58.5t-122 -20.5h-175v-253h-200zM387 705q0 -55 -23.5 -102.5t-61.5 -83t-85.5 -56t-96.5 -22.5q49 -2 96.5 -24.5t85.5 -58.5t61.5 -83t23.5 -98q0 51 23.5 98t61.5 83.5
t85.5 59t96.5 24.5q-49 2 -96.5 22.5t-85.5 55.5t-61.5 82.5t-23.5 102.5z" />
    <glyph glyph-name="Sigma" unicode="&#x3a3;" horiz-adv-x="700" 
d="M47 11l252 308l-248 300v118h571v-164h-324l200 -249l-204 -266h362v-167h-609v120z" />
    <glyph glyph-name="Tau" unicode="&#x3a4;" horiz-adv-x="684" 
d="M442 -109h-200v686h-247v160h694v-160h-247v-686z" />
    <glyph glyph-name="Upsilon" unicode="&#x3a5;" horiz-adv-x="819" 
d="M319 -109v329l-300 517h226l174 -325l174 325h226l-300 -517v-329h-200z" />
    <glyph glyph-name="Phi" unicode="&#x3a6;" 
d="M553 660q76 -7 137 -33t103.5 -69.5t65 -103.5t22.5 -135t-22.5 -136.5t-65 -106t-103.5 -71t-137 -33.5v-109h-175v109q-77 7 -137.5 33.5t-103 71t-65 106t-22.5 136.5t22.5 135t65 103.5t103 69.5t137.5 33v106h175v-106zM553 122q69 13 105 67t36 130q0 75 -36 127
t-105 65v-389zM378 511q-69 -13 -105 -65t-36 -127q0 -76 36 -130t105 -67v389z" />
    <glyph glyph-name="Chi" unicode="&#x3a7;" horiz-adv-x="767" 
d="M228 737l155 -262l155 262h226l-258 -420l261 -426h-226l-158 268l-157 -268h-226l261 426l-259 420h226z" />
    <glyph glyph-name="Psi" unicode="&#x3a8;" 
d="M876 737v-213q0 -86 -20.5 -149t-60 -105.5t-98.5 -65.5t-135 -29v-284h-184v284q-76 6 -134.5 29t-98.5 65.5t-60.5 105.5t-20.5 149v213h194v-201q0 -53 6.5 -89.5t21 -60.5t37 -37t55.5 -17v405h184v-405q32 4 54.5 17t37 37t21 60.5t6.5 89.5v201h195z" />
    <glyph glyph-name="uni03A9" unicode="&#x3a9;" horiz-adv-x="910" 
d="M57 51h135v4q-20 21 -40.5 51.5t-37 69.5t-27.5 84.5t-11 95.5q0 86 27.5 159t77 126t119 82.5t154.5 29.5t155 -29.5t120 -82.5t77.5 -126t27.5 -159q0 -50 -11 -95.5t-27.5 -84.5t-37.5 -69.5t-40 -51.5v-4h135v-160h-344v143q63 60 92.5 134.5t29.5 167.5q0 52 -12 97
t-35 78.5t-56 52.5t-74 19t-73.5 -19t-55 -52.5t-34.5 -78.5t-12 -97q0 -93 29.5 -167.5t92.5 -134.5v-143h-344v160z" />
    <glyph glyph-name="alpha" unicode="&#x3b1;" horiz-adv-x="761" 
d="M299 -125q-58 0 -105 22.5t-80.5 65.5t-51.5 103.5t-18 137.5q0 79 23 141t62 105t89.5 66t105.5 23q53 0 96.5 -28.5t74.5 -93.5h5l20 106h195q-12 -54 -26.5 -115t-27 -119.5t-21 -110t-8.5 -86.5q0 -32 17.5 -44.5t43.5 -12.5q19 0 41 8l24 -145q-18 -10 -46.5 -16.5
t-67.5 -6.5q-68 0 -108.5 23t-59.5 80h-5q-63 -103 -172 -103zM355 -30q2 116 50.5 174.5t156.5 61.5q-107 3 -156 63t-51 172q-2 -112 -51 -172.5t-157 -63.5q108 -3 157 -61t51 -174z" />
    <glyph glyph-name="beta" unicode="&#x3b2;" horiz-adv-x="769" 
d="M79 469q0 67 18 121.5t54.5 93t93 59.5t134.5 21q53 0 103.5 -12t90 -38.5t63.5 -69t24 -102.5q0 -63 -26.5 -104t-77.5 -73v-5q35 -8 65.5 -25.5t53.5 -45t36.5 -64t13.5 -80.5q0 -70 -22.5 -121t-58.5 -84t-81.5 -49t-91.5 -16q-51 0 -105 17t-102 68q5 -76 8 -148.5
t7 -144.5h-200v802zM387 343q2 86 50 129t155 45q-107 2 -155 46.5t-50 127.5q-2 -83 -50 -127.5t-155 -46.5q107 -2 155 -45t50 -129zM387 -40q0 91 48 136t157 47q-107 2 -155 46.5t-50 127.5q-2 -83 -50 -128t-155 -47q110 -2 157.5 -46.5t47.5 -135.5z" />
    <glyph glyph-name="gamma" unicode="&#x3b3;" horiz-adv-x="685" 
d="M232 -158q0 54 -18.5 125.5t-49 154t-69 172.5t-78.5 181l183 64q39 -85 78.5 -178.5t74.5 -196.5h6q23 48 42 89t33 82t23 86.5t12 101.5h195q-14 -81 -30.5 -151t-43.5 -141t-67.5 -148.5t-101.5 -173.5v-262h-189v195z" />
    <glyph glyph-name="delta" unicode="&#x3b4;" horiz-adv-x="699" 
d="M581 569q-65 21 -126 35.5t-111 14.5q-27 0 -39.5 -8.5t-12.5 -21.5q0 -16 14.5 -31t39 -31.5t56.5 -36.5t67 -45q42 -31 76 -59.5t57.5 -60.5t36 -70.5t12.5 -89.5q0 -66 -21 -120t-60 -91.5t-95.5 -58t-127.5 -20.5q-61 0 -115.5 18.5t-95 54t-64 88t-23.5 120.5
q0 49 15.5 87.5t41.5 68.5t60 53t72 40q-26 19 -49 39.5t-41 45t-28.5 53t-10.5 64.5q0 32 14 60.5t43 50t73.5 34t104.5 12.5q70 0 143.5 -14.5t136.5 -35.5zM365 -73q0 123 48.5 184.5t158.5 64.5q-107 3 -156 63t-51 172q-2 -112 -51 -172.5t-157 -63.5q111 -3 159.5 -64
t48.5 -184z" />
    <glyph glyph-name="epsilon" unicode="&#x3b5;" horiz-adv-x="603" 
d="M360 -125q-153 0 -226 49t-73 148q0 63 32 98.5t89 49.5v5q-28 8 -49.5 22.5t-36 32.5t-22 37.5t-7.5 38.5q0 40 15.5 73.5t49 58t85.5 38t125 13.5q57 0 107.5 -8t90.5 -27v-156q-15 10 -39.5 17t-51.5 12t-52.5 7.5t-42.5 2.5q-43 0 -68.5 -16t-25.5 -42
q0 -13 8.5 -22.5t22.5 -16t32.5 -9.5t38.5 -3h90v-129h-110q-46 0 -66.5 -13t-20.5 -44q0 -65 125 -65q50 0 91 8.5t84 27.5v-154q-42 -14 -88.5 -24t-106.5 -10z" />
    <glyph glyph-name="zeta" unicode="&#x3b6;" horiz-adv-x="599" 
d="M324 -347q27 36 47 76.5t20.5 74t-23.5 55.5t-84 22q-45 0 -87 14.5t-74.5 47.5t-52 86.5t-19.5 131.5q0 54 11.5 109t38 110.5t70 110t107.5 105.5h-188v142h474v-154h-6q-71 -37 -127.5 -90.5t-96 -112t-60.5 -116t-21 -102.5q0 -37 6.5 -61.5t23 -39.5t44.5 -21t72 -6
q54 0 89 -19t53.5 -50t22.5 -71t-3 -82.5t-23.5 -84t-38.5 -75.5h-175z" />
    <glyph glyph-name="eta" unicode="&#x3b7;" horiz-adv-x="718" 
d="M458 258q0 64 -20 88t-59 24q-24 0 -42.5 -11.5t-32 -29.5t-20.5 -40.5t-7 -44.5v-353h-197v632h172l2 -77h5q40 49 86.5 71t112.5 22q51 0 86 -18t57 -51.5t32 -81t10 -106.5v-635h-185v611z" />
    <glyph glyph-name="theta" unicode="&#x3b8;" horiz-adv-x="743" 
d="M371 764q73 0 130.5 -25.5t98 -79t62 -137t21.5 -199.5t-21.5 -200.5t-62 -139.5t-98 -81.5t-130.5 -26.5t-130.5 26.5t-97.5 81.5t-61.5 139.5t-21.5 200.5q0 117 21.5 200.5t61.5 137t97.5 78.5t130.5 25zM491 408q-3 61 -15 99.5t-29 60.5t-37 29.5t-39 7.5t-39 -7.5
t-37 -29.5t-29 -60.5t-15 -99.5h240zM251 238q3 -60 15 -99.5t29 -62.5t37 -32t39 -9t39 9t37 32t29 62.5t15 99.5h-240z" />
    <glyph glyph-name="iota" unicode="&#x3b9;" horiz-adv-x="389" 
d="M268 -125q-55 0 -91.5 16t-58 45t-30 69.5t-8.5 90.5v427h200v-434q0 -31 6 -42.5t34 -11.5q4 0 12.5 0.5t18 1.5t18 2.5t13.5 3.5v-155q-21 -7 -46.5 -10t-67.5 -3z" />
    <glyph glyph-name="kappa" unicode="&#x3ba;" horiz-adv-x="703" 
d="M476 -109q-17 22 -33.5 45.5t-35 50t-39 58.5t-45.5 71l-2 -2q-16 -16 -27 -33.5t-17.5 -39t-9 -48.5t-2.5 -63v-39h-185v632h192v-204h5q70 85 162.5 141.5t205.5 78.5v-185q-48 -10 -90.5 -31.5t-92.5 -63.5q24 -47 54 -97t62.5 -99t66 -93.5t65.5 -78.5h-234z" />
    <glyph glyph-name="lambda" unicode="&#x3bb;" horiz-adv-x="711" 
d="M17 -109l241 603l-4 17q-9 44 -30.5 66t-59.5 22q-30 0 -55.5 -5.5t-48.5 -16.5v170q30 11 61.5 14t76.5 3q56 0 98 -16t75.5 -48.5t60.5 -82t52 -117.5l224 -609h-214l-119 363h-6l-139 -363h-213z" />
    <glyph glyph-name="uni03BC" unicode="&#x3bc;" horiz-adv-x="760" 
d="M80 523h197v-367q0 -32 4.5 -53.5t13.5 -34.5t22.5 -18.5t32.5 -5.5q15 0 32.5 7.5t32.5 24t25 42.5t10 64v341h200v-429q0 -31 8.5 -42.5t35.5 -11.5q8 0 26 2t28 6v-145q-21 -10 -42 -16.5t-63 -6.5q-68 0 -111 24t-60 75h-3q-22 -47 -56 -72t-74 -25q-21 0 -40 5
t-34 21v-241h-185v856z" />
    <glyph glyph-name="nu" unicode="&#x3bd;" horiz-adv-x="672" 
d="M230 -109q-20 88 -46.5 176t-57.5 170.5t-64 155.5t-65 130h213q24 -42 46.5 -96.5t41 -113t33.5 -116t24 -105.5h6q45 106 65.5 215t28.5 216h197q-7 -84 -22.5 -163t-39 -156.5t-54.5 -155t-69 -157.5h-237v0z" />
    <glyph glyph-name="xi" unicode="&#x3be;" horiz-adv-x="603" 
d="M328 -352q13 18 22.5 41t16 46.5t9 44t2.5 33.5t-6 23t-19.5 18.5t-36 15t-57.5 11.5q-49 7 -87.5 24t-64.5 46t-40 72t-14 102q0 81 35.5 137.5t105.5 80.5v6q-27 10 -48.5 22t-36 28t-22 36.5t-7.5 48.5q0 30 13.5 60.5t39.5 50.5h-114v142h549v-154h-180
q-50 0 -80 -18.5t-30 -67.5q0 -41 30.5 -59.5t102.5 -18.5h124v-170h-135q-31 0 -57.5 -4.5t-46 -15t-30.5 -28.5t-11 -45q0 -31 4.5 -52t18 -35t39 -22t67.5 -12q105 -11 151 -52.5t46 -115.5q0 -17 -1 -41t-6 -53.5t-15 -61.5t-27 -63h-204z" />
    <glyph glyph-name="omicron" unicode="&#x3bf;" horiz-adv-x="712" 
d="M356 536q76 0 136.5 -22t102.5 -59.5t64.5 -87t22.5 -104.5v-113q0 -59 -22.5 -108.5t-64.5 -86.5t-102.5 -57.5t-136.5 -20.5t-136.5 20.5t-102.5 57.5t-64.5 86.5t-22.5 108.5v113q0 55 22.5 104.5t64.5 87t102.5 59.5t136.5 22zM356 491q-3 -140 -62 -210.5
t-188 -73.5q129 -4 188 -77.5t62 -206.5q2 134 61 207.5t189 77.5q-130 3 -189 73t-61 210z" />
    <glyph glyph-name="pi" unicode="&#x3c0;" horiz-adv-x="815" 
d="M669 -125q-55 0 -92 11.5t-60 36.5t-33 63.5t-10 92.5v290h-142q0 -112 -9 -233t-22 -245h-209q24 128 35 251.5t11 226.5h-117v154h765v-154h-125v-278q0 -32 14 -44t43 -12q8 0 26 1.5t32 3.5v-150q-18 -8 -43.5 -11.5t-63.5 -3.5z" />
    <glyph glyph-name="rho" unicode="&#x3c1;" horiz-adv-x="725" 
d="M74 191q0 90 23 156t64 108.5t97 63t122 20.5q69 0 124 -21.5t94 -63t59.5 -101t20.5 -135.5q0 -82 -22.5 -145.5t-59 -107.5t-84 -67t-97.5 -23q-39 0 -81 15t-74 54q4 -72 7.5 -140t6.5 -137h-200v524zM375 -43q0 123 48.5 184.5t158.5 64.5q-107 3 -156 63t-51 172
q-2 -112 -51 -172.5t-157 -63.5q111 -3 159.5 -64t48.5 -184z" />
    <glyph glyph-name="sigma" unicode="&#x3c3;" horiz-adv-x="733" 
d="M345 -125q-62 0 -117 21t-96 62.5t-64.5 102t-23.5 139.5q0 81 26 142t69.5 101t99 60t115.5 20h365v-162q-26 3 -48 5.5t-42.5 4t-42 3t-45.5 2.5v-5q46 -27 71.5 -80t25.5 -123q0 -68 -21.5 -122t-60.5 -92t-93 -58.5t-118 -20.5zM345 -40q2 116 50.5 174.5t156.5 61.5
q-107 3 -156 63t-51 172q-2 -112 -51 -172.5t-157 -63.5q108 -3 157 -61t51 -174z" />
    <glyph glyph-name="tau" unicode="&#x3c4;" horiz-adv-x="631" 
d="M399 -125q-51 0 -86 16t-56.5 45.5t-30.5 71t-9 91.5v270h-184v154h565v-154h-196v-278q0 -32 13.5 -44t35.5 -12q9 0 21 0.5t25.5 2l27 3t24.5 4.5v-147q-33 -10 -69.5 -16.5t-80.5 -6.5z" />
    <glyph glyph-name="upsilon" unicode="&#x3c5;" horiz-adv-x="679" 
d="M332 -125q-72 0 -125 20.5t-87.5 57t-51.5 86.5t-17 109v375h191v-392q0 -46 26.5 -71t63.5 -25q48 0 72.5 43t24.5 137q0 60 -8.5 141t-31.5 167h191q21 -77 33.5 -148.5t12.5 -150.5q0 -81 -18.5 -145.5t-55.5 -109.5t-92 -69.5t-128 -24.5z" />
    <glyph glyph-name="phi" unicode="&#x3c6;" 
d="M556 532q67 -3 127 -26t105.5 -64.5t72 -100.5t26.5 -135q0 -75 -27 -134t-72.5 -100t-105.5 -63.5t-126 -26.5v-235h-181v235q-66 4 -126 26.5t-105.5 63.5t-72.5 100t-27 134q0 76 27 135t72.5 100.5t105.5 64.5t126 26v158h181v-158zM556 29q63 3 96 47.5t33 129.5
q0 172 -129 180v-357zM375 386q-128 -8 -128 -180q0 -85 32.5 -129.5t95.5 -47.5v357z" />
    <glyph glyph-name="chi" unicode="&#x3c7;" horiz-adv-x="676" 
d="M10 -353l209 457l-210 419h215l121 -235h5l85 235h226l-187 -415l221 -461h-216l-129 290h-5l-111 -290h-224z" />
    <glyph glyph-name="psi" unicode="&#x3c8;" 
d="M842 523q23 -70 35 -134.5t12 -137.5q0 -90 -18.5 -159t-57 -117t-98.5 -73.5t-144 -26.5v-228h-201v228q-91 2 -150 29t-93 70.5t-47 100.5t-13 119v329h197v-344q0 -28 1.5 -54.5t11.5 -47.5t31.5 -34t61.5 -13v660h201v-660q35 1 56.5 12t33.5 36t16 64.5t4 98.5
q0 56 -8.5 130t-31.5 152h201z" />
    <glyph glyph-name="omega" unicode="&#x3c9;" 
d="M290 -125q-116 0 -173.5 78t-57.5 243q0 37 5 80t15 86.5t25.5 84.5t35.5 76h190q-23 -39 -40 -83.5t-29 -90t-18 -90t-6 -81.5q0 -64 16.5 -103.5t56.5 -39.5q79 0 79 113v227h174v-227q0 -63 17 -88t55 -25q33 0 53.5 44t20.5 129q0 37 -4 76.5t-13 80t-24 80.5t-37 78
h186q42 -69 60.5 -147t18.5 -175q0 -164 -52.5 -245t-171.5 -81q-57 0 -108.5 18.5t-85.5 63.5h-5q-34 -45 -80 -63.5t-103 -18.5z" />
    <glyph glyph-name="uni0401" unicode="&#x401;" horiz-adv-x="662" 
d="M214 777q-41 0 -66 26.5t-25 67.5q0 38 25 64.5t66 26.5t67.5 -26.5t26.5 -64.5q0 -41 -26 -67.5t-68 -26.5zM500 777q-42 0 -67 26.5t-25 67.5q0 38 25 64.5t67 26.5q40 0 66 -26.5t26 -64.5q0 -41 -26 -67.5t-66 -26.5zM50 -109v846h579v-160h-379v-175h369v-162h-369
v-209q55 0 104.5 3.5t95 10.5t90 18.5t89.5 27.5v-200h-579z" />
    <glyph glyph-name="uni0410" unicode="&#x410;" horiz-adv-x="846" 
d="M565 49h-284l-57 -158h-214l314 846h199l313 -846h-214zM606 371q-52 0 -86.5 22t-56 60t-30.5 87.5t-10 105.5q-1 -56 -10.5 -105.5t-30.5 -87.5t-56 -60t-86 -22q53 0 88 -24.5t56 -65t30 -92t9 -105.5q0 54 9 105.5t30 92t56 65t88 24.5z" />
    <glyph glyph-name="uni0411" unicode="&#x411;" horiz-adv-x="766" 
d="M96 737h572v-164h-374v-163h108q65 0 123 -13t101.5 -42.5t69 -77.5t25.5 -118q0 -72 -24.5 -122.5t-67.5 -83t-100 -47.5t-121 -15h-312v846zM405 -98q0 123 48.5 184.5t158.5 64.5q-107 3 -156 63t-51 172q-2 -112 -51 -172.5t-157 -63.5q111 -3 159.5 -64t48.5 -184z
" />
    <glyph glyph-name="uni0412" unicode="&#x412;" horiz-adv-x="797" 
d="M424 737q58 0 108.5 -12.5t87.5 -38.5t58 -65.5t21 -92.5q0 -26 -8 -52t-21.5 -49t-32 -42.5t-39.5 -31.5q30 -8 56 -28t45.5 -47t31 -59.5t11.5 -65.5q0 -63 -22 -112t-62 -82t-97 -50.5t-126 -17.5h-385v846h374zM382 710q-2 -43 -24 -75t-57 -54t-79.5 -33.5
t-91.5 -12.5q47 -1 91.5 -11.5t79.5 -31.5t57 -53.5t24 -77.5q2 45 24 77.5t57 53.5t79.5 31.5t91.5 11.5q-47 1 -91.5 12.5t-79.5 33.5t-57 54t-24 75zM382 350q0 -52 -24 -92t-63 -67.5t-87.5 -42.5t-97.5 -16q49 -2 97.5 -15.5t87.5 -40.5t63 -67.5t24 -95.5
q0 55 24 95.5t63 67t87.5 40t97.5 15.5q-49 1 -97.5 16t-87.5 43t-63 68t-24 92z" />
    <glyph glyph-name="uni0413" unicode="&#x413;" horiz-adv-x="665" 
d="M96 737h527v-164h-329v-682h-198v846z" />
    <glyph glyph-name="uni0414" unicode="&#x414;" horiz-adv-x="856" 
d="M842 58v-411h-193v244h-441v-244h-194v411q34 13 61.5 60t49 113t37.5 142.5t26.5 147.5t15.5 129t6 87h530v-679h102zM445 -43q0 61 21 122.5t57.5 111.5t85 81.5t103.5 33.5q-54 1 -102 33t-84 80.5t-58 107t-23 114.5q-1 -56 -23 -115t-58.5 -107.5t-84.5 -80.5
t-102 -33q55 -2 104 -33.5t85.5 -81t57.5 -111t21 -122.5z" />
    <glyph glyph-name="uni0415" unicode="&#x415;" horiz-adv-x="659" 
d="M50 -109v846h579v-160h-379v-175h369v-162h-369v-209q55 0 104.5 3.5t95 10.5t90 18.5t89.5 27.5v-200h-579z" />
    <glyph glyph-name="uni0416" unicode="&#x416;" 
d="M926 -109h-202l-168 357h-1v-357h-179v357l-168 -357h-203l229 444l-69 162q-20 42 -41 57t-50 15h-10.5t-16.5 -0.5t-17.5 -1.5t-14.5 -3v178q15 7 29 9t32 2q36 0 67.5 -7t59 -24.5t51.5 -46t45 -70.5l77 -172v304h179v-304l76 172q22 42 46 70.5t52 46t59.5 24.5
t67.5 7q17 0 31.5 -2t28.5 -9v-178q-6 2 -14.5 3t-17.5 1.5t-16.5 0.5h-10.5q-29 0 -49.5 -15t-40.5 -57l-69 -162z" />
    <glyph glyph-name="uni0417" unicode="&#x417;" horiz-adv-x="697" 
d="M237 395h60q78 0 109 31t31 79q0 38 -28.5 62.5t-73.5 24.5q-20 0 -38.5 -5.5t-32.5 -15.5t-22.5 -24t-8.5 -30h-175q-2 46 16.5 88t55.5 74.5t91.5 51.5t124.5 19q66 0 120 -18t92 -48.5t58.5 -72t20.5 -87.5q0 -29 -10.5 -58.5t-27.5 -55t-39.5 -45.5t-47.5 -30
q33 -10 61.5 -27.5t49 -42.5t32.5 -58t12 -74q0 -56 -26 -102.5t-70 -80.5t-101.5 -53t-120.5 -19q-69 0 -129.5 16t-104.5 47.5t-69.5 79t-25.5 111.5h180q0 -21 10.5 -37.5t28.5 -28t41 -18t48 -6.5q30 0 55 7t44 20t29.5 31t10.5 41q0 27 -13 48.5t-35.5 36t-53.5 22
t-68 7.5h-60v140z" />
    <glyph glyph-name="uni0418" unicode="&#x418;" horiz-adv-x="801" 
d="M751 736v-846h-198v389q0 35 0.5 71t5.5 71q-14 -37 -31.5 -70t-36.5 -64l-243 -397h-198v846h198v-377q0 -32 -1.5 -66.5t-4.5 -69.5q19 26 32.5 48t29.5 48l249 417h198z" />
    <glyph glyph-name="uni0419" unicode="&#x419;" horiz-adv-x="801" 
d="M437 757q-62 0 -105 17.5t-70.5 46.5t-40.5 66t-14 76h165q2 -38 17.5 -58.5t47.5 -20.5t46.5 20.5t16.5 58.5h166q-2 -39 -15 -76t-40 -66t-70 -46.5t-104 -17.5zM751 736v-846h-198v389q0 35 0.5 71t5.5 71q-14 -37 -31.5 -70t-36.5 -64l-243 -397h-198v846h198v-377
q0 -32 -1.5 -66.5t-4.5 -69.5q19 26 32.5 48t29.5 48l249 417h198z" />
    <glyph glyph-name="uni041A" unicode="&#x41a;" horiz-adv-x="751" 
d="M755 -109h-208l-215 347h-84v-347h-198v846h198v-341h85l105 209q23 41 47.5 69t52 45.5t58.5 25.5t67 8q17 0 31.5 -2t28.5 -9v-178q-5 2 -13.5 3t-17.5 1.5t-17 0.5h-11q-29 0 -48.5 -15.5t-41.5 -56.5l-87 -167z" />
    <glyph glyph-name="uni041B" unicode="&#x41b;" horiz-adv-x="840" 
d="M351 318q-2 -121 -26.5 -203t-69 -132.5t-107.5 -72t-142 -21.5v177q45 0 73.5 21.5t44.5 61.5t22 98t6 131v359h592v-846h-198v682h-191z" />
    <glyph glyph-name="uni041C" unicode="&#x41c;" horiz-adv-x="903" 
d="M632 737h241v-846h-187v349q0 19 1.5 45t3.5 53.5t4.5 55.5t4.5 51l-164 -534h-149l-164 534q2 -23 4.5 -51t4.5 -55.5t3.5 -53.5t1.5 -45v-349h-187v846h241l142 -449q9 -35 16 -68.5t12 -67.5q6 34 12.5 67.5t16.5 68.5z" />
    <glyph glyph-name="uni041D" unicode="&#x41d;" horiz-adv-x="796" 
d="M546 -109v347h-296v-347h-200v846h200v-339h296v339h200v-846h-200z" />
    <glyph glyph-name="uni041E" unicode="&#x41e;" horiz-adv-x="820" 
d="M410 749q85 0 154.5 -22t118.5 -62.5t75.5 -97.5t26.5 -128v-251q0 -71 -26.5 -128t-75.5 -97.5t-118.5 -62.5t-154.5 -22t-154.5 22t-118.5 62.5t-75.5 97.5t-26.5 128v251q0 71 26.5 128t75.5 97.5t118.5 62.5t154.5 22zM63 314q43 0 85.5 -15t81 -42.5t71.5 -65.5
t57.5 -84t38 -98t13.5 -107q0 83 30 158t78.5 131.5t111 90t127.5 33.5q-65 0 -127.5 33.5t-111 90t-78.5 131.5t-30 158q0 -83 -30 -158t-78.5 -132t-111 -90.5t-127.5 -33.5z" />
    <glyph glyph-name="uni041F" unicode="&#x41f;" horiz-adv-x="845" 
d="M96 737h654v-846h-198v682h-258v-682h-198v846z" />
    <glyph glyph-name="uni0420" unicode="&#x420;" horiz-adv-x="762" 
d="M50 -109v846h375q69 0 126 -22t97 -62t62 -95.5t22 -122.5q0 -66 -23.5 -120t-64.5 -92t-97 -58.5t-122 -20.5h-175v-253h-200zM387 705q0 -55 -23.5 -102.5t-61.5 -83t-85.5 -56t-96.5 -22.5q49 -2 96.5 -24.5t85.5 -58.5t61.5 -83t23.5 -98q0 51 23.5 98t61.5 83.5
t85.5 59t96.5 24.5q-49 2 -96.5 22.5t-85.5 55.5t-61.5 82.5t-23.5 102.5z" />
    <glyph glyph-name="uni0421" unicode="&#x421;" horiz-adv-x="795" 
d="M765 218v-50q0 -67 -26.5 -121t-74.5 -91.5t-115.5 -57.5t-148.5 -20t-148.5 22t-115.5 62.5t-74.5 97.5t-26.5 128v251q0 71 26.5 128t74.5 97.5t115.5 62.5t148.5 22t148.5 -20t115.5 -57.5t74.5 -91.5t26.5 -121v-40h-200v30q0 70 -43.5 105t-121.5 35t-121.5 -41
t-43.5 -119v-231q0 -78 43.5 -119t121.5 -41t121.5 35t43.5 105v40h200z" />
    <glyph glyph-name="uni0422" unicode="&#x422;" horiz-adv-x="684" 
d="M442 -109h-200v686h-247v160h694v-160h-247v-686z" />
    <glyph glyph-name="uni0423" unicode="&#x423;" horiz-adv-x="706" 
d="M250 104l-241 633h206l134 -407l146 407h206l-362 -876h-190z" />
    <glyph glyph-name="uni0424" unicode="&#x424;" 
d="M549 645q161 -10 239 -92t78 -234q0 -154 -78 -238t-239 -94v-112h-171v112q-161 10 -238 94t-77 238q0 152 77 234t238 92v108h171v-108zM549 132q74 7 102.5 54.5t28.5 132.5q0 83 -28.5 128.5t-102.5 52.5v-368zM378 500q-37 -3 -62 -16.5t-40 -36t-21.5 -54.5
t-6.5 -74t6.5 -75t21.5 -56.5t40 -37.5t62 -18v368z" />
    <glyph glyph-name="uni0425" unicode="&#x425;" horiz-adv-x="767" 
d="M228 737l155 -262l155 262h226l-258 -420l261 -426h-226l-158 268l-157 -268h-226l261 426l-259 420h226z" />
    <glyph glyph-name="uni0426" unicode="&#x426;" horiz-adv-x="855" 
d="M841 58v-406h-193v239h-552v846h198v-679h247v679h198v-679h102z" />
    <glyph glyph-name="uni0427" unicode="&#x427;" horiz-adv-x="805" 
d="M512 181q-28 -5 -54.5 -7t-66.5 -2q-74 0 -132.5 16.5t-99 53t-62 95t-21.5 143.5v257h193v-257q0 -83 34 -116.5t108 -33.5q35 0 58 2t43 5v400h198v-846h-198v290z" />
    <glyph glyph-name="uni0428" unicode="&#x428;" 
d="M66 737h193v-679h109v679h188v-679h109v679h194v-846h-793v846z" />
    <glyph glyph-name="uni0429" unicode="&#x429;" 
d="M892 58v-406h-195v239h-631v846h193v-679h109v679h188v-679h109v679h194v-679h33z" />
    <glyph glyph-name="uni042A" unicode="&#x42a;" 
d="M271 573h-239v164h438v-315h82q66 0 126.5 -15t106 -46.5t72.5 -80.5t27 -116q0 -76 -25.5 -128t-70 -84.5t-103.5 -46.5t-126 -14h-288v682zM555 -80q2 116 50.5 174.5t156.5 61.5q-107 3 -156 63t-51 172q-2 -112 -51 -172.5t-157 -63.5q108 -3 157 -61t51 -174z" />
    <glyph glyph-name="uni042B" unicode="&#x42b;" 
d="M66 737h198v-315h75q70 0 130 -14.5t103.5 -45.5t68 -80t24.5 -118q0 -76 -25.5 -128t-70.5 -84.5t-105.5 -46.5t-129.5 -14h-268v846zM699 737h198v-846h-198v846zM345 -93q0 123 48.5 184.5t158.5 64.5q-107 3 -156 63t-51 172q-2 -112 -51 -172.5t-157 -63.5
q111 -3 159.5 -64t48.5 -184z" />
    <glyph glyph-name="uni042C" unicode="&#x42c;" horiz-adv-x="702" 
d="M236 737v-215h149q69 0 124.5 -23.5t93.5 -65t58.5 -98.5t20.5 -123q0 -67 -19 -125.5t-56.5 -102t-93 -68.5t-128.5 -25h-345v846h196zM367 489q-3 -134 -62 -206.5t-188 -76.5q129 -4 188 -74.5t62 -209.5q2 139 61 209t189 74q-130 4 -189 77t-61 207z" />
    <glyph glyph-name="uni042D" unicode="&#x42d;" horiz-adv-x="741" 
d="M78 695q63 58 230 58q375 0 375 -443q0 -222 -97 -328.5t-282 -106.5q-82 0 -142.5 11.5t-94.5 31.5v174q20 -9 49 -17.5t61 -14.5t64.5 -9.5t59.5 -3.5q90 0 137.5 48t44.5 148h-320v167h317q-1 86 -48 129.5t-135 43.5q-23 0 -53.5 -3t-61.5 -9t-58.5 -16.5
t-45.5 -25.5v166z" />
    <glyph glyph-name="uni042E" unicode="&#x42e;" 
d="M292 413q11 79 32.5 142.5t58 107t89.5 67t127 23.5q84 0 144 -30t98.5 -86t56.5 -136.5t18 -181.5q0 -102 -18 -184t-56.5 -139.5t-98.5 -89t-144 -31.5q-76 0 -130.5 25.5t-91 73.5t-57.5 115.5t-30 151.5h-66v-350h-178v846h178v-324h68zM886 316q-78 0 -132.5 24
t-89.5 68.5t-51.5 108t-17.5 142.5q-2 -79 -18.5 -142.5t-51 -108.5t-89 -69t-132.5 -24q80 0 135.5 -24t90 -70t50 -113.5t15.5 -153.5q0 86 15.5 153.5t50 114t90 70.5t135.5 24z" />
    <glyph glyph-name="uni042F" unicode="&#x42f;" horiz-adv-x="804" 
d="M516 -110v273h-129l-167 -273h-220l186 305q-69 33 -110 96t-41 153q0 67 22 121t62 92t96.5 58.5t125.5 20.5h375v-846h-200zM379 704q0 -55 -23.5 -101t-61.5 -79t-85.5 -52t-96.5 -21q49 -2 96.5 -23t85.5 -55.5t61.5 -80t23.5 -96.5q0 51 23.5 96.5t61.5 79.5
t85.5 55t96.5 23q-49 2 -96.5 21t-85.5 52.5t-61.5 79.5t-23.5 101z" />
    <glyph glyph-name="uni0430" unicode="&#x430;" horiz-adv-x="697" 
d="M276 -122q-51 0 -96 12t-78 35t-52.5 57.5t-19.5 79.5q0 47 14.5 85t47 66.5t85 47t129.5 27.5l150 17v14q0 38 -30 53.5t-80 15.5q-48 0 -74 -16.5t-26 -42.5v-10h-196v20q0 40 21 75.5t59.5 61.5t93 41t122.5 15q65 0 121 -16t97 -44t64.5 -67.5t23.5 -85.5v-428h-186
v36q-28 -20 -80 -34.5t-110 -14.5zM336 261q-2 -35 -18 -66.5t-41.5 -55t-58 -38t-67.5 -15.5q36 -2 69.5 -17t59 -39t41 -55.5t15.5 -65.5q0 34 15 65.5t40.5 56t59 39.5t69.5 17q-35 1 -67.5 15.5t-58 38t-41.5 54.5t-17 66z" />
    <glyph glyph-name="uni0431" unicode="&#x431;" horiz-adv-x="716" 
d="M642 617q-25 -20 -66 -31.5t-84 -16.5q-65 -9 -109.5 -17t-73 -26t-43.5 -51t-21 -91q33 38 79.5 57t98.5 19q49 0 93 -16t77 -49.5t52.5 -86t19.5 -125.5t-22.5 -130t-62 -96.5t-94.5 -60.5t-119 -21q-152 0 -233.5 94t-81.5 289q0 140 29.5 230t82.5 144.5t126 80.5
t161 38q29 4 51 7.5t39.5 8t33 10t30.5 11.5zM365 -80q2 116 50.5 174.5t156.5 61.5q-107 3 -156 63t-51 172q-2 -112 -51 -172.5t-157 -63.5q108 -3 157 -61t51 -174z" />
    <glyph glyph-name="uni0432" unicode="&#x432;" horiz-adv-x="644" 
d="M80 523h271q53 0 100 -8.5t82 -28t55.5 -51.5t20.5 -80q0 -20 -6 -39.5t-18.5 -37t-33 -31.5t-49.5 -22v-5q60 -14 95.5 -48.5t35.5 -98.5q0 -49 -21.5 -83.5t-57.5 -56.5t-84 -32t-102 -10h-288v632zM170 358q85 -2 125.5 -38t41.5 -115q0 79 42.5 115t123.5 38
q-79 2 -121.5 36t-44.5 111q-2 -77 -43.5 -111t-123.5 -36zM503 58q-79 2 -121.5 36t-44.5 111q-2 -77 -43.5 -111t-123.5 -36q82 -2 123.5 -36.5t43.5 -109.5q2 75 44.5 109.5t121.5 36.5z" />
    <glyph glyph-name="uni0433" unicode="&#x433;" horiz-adv-x="552" 
d="M80 523h439v-154h-242v-478h-197v632z" />
    <glyph glyph-name="uni0434" unicode="&#x434;" horiz-adv-x="751" 
d="M738 45v-373h-189v219h-347v-219h-190v373h41q11 6 21 18.5t18.5 37.5t17 66.5t16.5 107.5l28 248h481v-478h103zM385 -43q0 123 48.5 184.5t158.5 64.5q-107 3 -156 63t-51 172q-2 -112 -51 -172.5t-157 -63.5q111 -3 159.5 -64t48.5 -184z" />
    <glyph glyph-name="uni0435" unicode="&#x435;" horiz-adv-x="702" 
d="M226 133q0 -27 10 -47.5t27.5 -34t40 -20.5t47.5 -7q54 0 84.5 12.5t30.5 36.5v19h196v-29q0 -40 -23.5 -74t-65 -59t-98.5 -39t-124 -14q-69 0 -127.5 19.5t-101.5 55t-67.5 84t-24.5 107.5v120q0 62 24.5 112.5t67.5 86t101.5 55t127.5 19.5t127.5 -19.5t101.5 -55
t67.5 -86t24.5 -112.5v-126h-446v-4zM361 489q-2 -42 -22.5 -71t-51 -47t-67 -26.5t-72.5 -9.5q37 -1 74.5 -11t68.5 -30t50.5 -50t19.5 -72q0 42 18 72t47.5 50.5t66 30.5t72.5 11q-35 1 -70.5 9.5t-64.5 26.5t-48 46.5t-21 70.5z" />
    <glyph glyph-name="uni0436" unicode="&#x436;" 
d="M907 -109h-211l-130 248h-14v-248h-175v248h-14l-130 -248h-211l200 327l-33 73q-17 37 -36 48.5t-42 11.5q-3 0 -13 -0.5t-20.5 -1t-20 -1.5t-12.5 -2v184q13 4 30.5 6.5t32.5 2.5q70 0 119 -28.5t85 -104.5l53 -112h12v229h175v-229h11l54 112q18 38 39 63.5t45.5 41
t54 22t64.5 6.5q14 0 32.5 -2.5t31.5 -6.5v-184q-3 1 -12.5 2t-20 1.5t-20.5 1t-13 0.5q-23 0 -42.5 -11t-35.5 -49l-33 -75z" />
    <glyph glyph-name="uni0437" unicode="&#x437;" horiz-adv-x="596" 
d="M280 -125q-65 0 -110.5 11.5t-86.5 33.5v154q19 -13 43 -22t48.5 -14.5t47 -8t38.5 -2.5q48 0 80.5 16.5t32.5 48.5q0 30 -22 43.5t-68 13.5h-152v129h142q80 0 80 56q0 25 -22 39t-67 14q-20 0 -44 -1t-48.5 -5t-47.5 -10.5t-41 -17.5v151q26 10 48 16.5t44 10.5t46.5 6
t56.5 2q51 0 99 -10.5t84.5 -33t58.5 -57t22 -82.5q0 -19 -5.5 -39t-17.5 -38t-31 -32t-46 -22v-5q60 -14 92 -49.5t32 -98.5q0 -48 -24.5 -85t-65 -62t-92 -37.5t-104.5 -12.5z" />
    <glyph glyph-name="uni0438" unicode="&#x438;" horiz-adv-x="743" 
d="M80 523h191v-358l213 358h180v-632h-191v358l-214 -358h-179v632z" />
    <glyph glyph-name="uni0439" unicode="&#x439;" horiz-adv-x="743" 
d="M379 619q-111 0 -165 55.5t-57 153.5h153q2 -53 16.5 -79t52.5 -26t52.5 26t16.5 79h152q-2 -98 -56.5 -153.5t-164.5 -55.5zM80 523h191v-358l213 358h180v-632h-191v358l-214 -358h-179v632z" />
    <glyph glyph-name="uni043A" unicode="&#x43a;" horiz-adv-x="704" 
d="M694 -109h-215l-142 248h-60v-248h-197v632h197v-229h57l55 112q19 40 40 66t45.5 41t54 20.5t64.5 5.5q14 0 27.5 -2.5t24.5 -6.5v-184q-3 1 -10.5 2t-16 1.5t-16.5 1t-11 0.5q-12 0 -22.5 -2t-20.5 -8t-19 -18t-17 -32l-31 -68z" />
    <glyph glyph-name="uni043B" unicode="&#x43b;" horiz-adv-x="735" 
d="M84 -125q-23 0 -41 4t-36 11v158q4 -1 12.5 -2t18.5 -2t19 -1.5t14 -0.5q25 0 46 20t21 70v391h518v-632h-197v478h-137v-273q0 -54 -19.5 -95t-52.5 -69t-76 -42.5t-90 -14.5z" />
    <glyph glyph-name="uni043C" unicode="&#x43c;" horiz-adv-x="843" 
d="M80 523h224l118 -365h6l112 365h224v-632h-175v397l-115 -393h-106l-116 393v-397h-172v632z" />
    <glyph glyph-name="uni043D" unicode="&#x43d;" horiz-adv-x="743" 
d="M80 523h197v-224h190v224h197v-632h-197v235h-190v-235h-197v632z" />
    <glyph glyph-name="uni043E" unicode="&#x43e;" horiz-adv-x="712" 
d="M356 536q76 0 136.5 -22t102.5 -59.5t64.5 -87t22.5 -104.5v-113q0 -59 -22.5 -108.5t-64.5 -86.5t-102.5 -57.5t-136.5 -20.5t-136.5 20.5t-102.5 57.5t-64.5 86.5t-22.5 108.5v113q0 55 22.5 104.5t64.5 87t102.5 59.5t136.5 22zM356 491q-3 -140 -62 -210.5
t-188 -73.5q129 -4 188 -77.5t62 -206.5q2 134 61 207.5t189 77.5q-130 3 -189 73t-61 210z" />
    <glyph glyph-name="uni043F" unicode="&#x43f;" horiz-adv-x="733" 
d="M80 523h574v-632h-197v478h-180v-478h-197v632z" />
    <glyph glyph-name="uni0440" unicode="&#x440;" horiz-adv-x="702" 
d="M40 -353v875h345q73 0 128.5 -25t93 -68.5t56.5 -102t19 -125.5q0 -66 -20.5 -123t-58.5 -98.5t-93.5 -65t-124.5 -23.5h-149v-244h-196zM367 490q-3 -140 -62 -210t-188 -73q129 -4 188 -77.5t62 -207.5q2 134 61 208t189 78q-130 3 -189 72.5t-61 209.5z" />
    <glyph glyph-name="uni0441" unicode="&#x441;" horiz-adv-x="692" 
d="M662 161v-40q0 -47 -20 -90.5t-59.5 -77.5t-99 -54.5t-137.5 -20.5q-71 0 -129 19.5t-99.5 55t-64.5 86t-23 112.5v112q0 62 23 112.5t64.5 86t99.5 55t129 19.5q75 0 133.5 -20.5t99 -54.5t62 -78t21.5 -90v-30h-196v20q0 19 -8.5 36.5t-24 31.5t-37.5 22.5t-50 8.5
t-50 -10t-37.5 -27.5t-24 -41t-8.5 -50.5v-92q0 -27 8.5 -50.5t24 -41t37.5 -27.5t50 -10t50 8.5t37.5 22.5t24 31.5t8.5 36.5v30h196z" />
    <glyph glyph-name="uni0442" unicode="&#x442;" horiz-adv-x="631" 
d="M217 369h-184v154h565v-154h-184v-478h-197v478z" />
    <glyph glyph-name="uni0443" unicode="&#x443;" horiz-adv-x="702" 
d="M246 -110l-241 633h206l134 -407l146 407h206l-362 -876h-190z" />
    <glyph glyph-name="uni0444" unicode="&#x444;" 
d="M368 -98q-26 -14 -52.5 -20.5t-57.5 -6.5q-112 0 -168 83t-56 238q0 78 18 138t48.5 101.5t71 62.5t86.5 21q38 0 62.5 -5t47.5 -19v253h193v-258q28 16 58 22.5t63 6.5q106 0 159.5 -82.5t53.5 -228.5q0 -82 -17.5 -144t-48.5 -104t-72.5 -63.5t-90.5 -21.5
q-31 0 -55 3.5t-50 20.5v-252h-193v255zM623 489q-2 -135 -35 -207t-108 -76q75 -4 108 -74t35 -210q2 140 35.5 209.5t108.5 73.5q-75 4 -108.5 76.5t-35.5 207.5zM303 489q-2 -135 -35 -207t-108 -76q75 -4 108 -74t35 -210q2 140 35.5 209.5t108.5 73.5
q-75 4 -108.5 76.5t-35.5 207.5z" />
    <glyph glyph-name="uni0445" unicode="&#x445;" horiz-adv-x="679" 
d="M229 523l110 -168l111 168h218l-215 -312l221 -320h-217l-118 183l-117 -183h-217l220 320l-214 312h218z" />
    <glyph glyph-name="uni0446" unicode="&#x446;" horiz-adv-x="762" 
d="M749 45v-393h-188v239h-481v632h197v-478h173v478h198v-478h101z" />
    <glyph glyph-name="uni0447" unicode="&#x447;" horiz-adv-x="705" 
d="M428 71q-13 -3 -24.5 -4.5t-24 -2.5t-27.5 -1.5t-34 -0.5q-56 0 -103 13.5t-81.5 43.5t-54 77t-19.5 114v213h197v-213q0 -47 24 -70.5t80 -23.5q20 0 35.5 2t31.5 6v299h197v-632h-197v180z" />
    <glyph glyph-name="uni0448" unicode="&#x448;" 
d="M70 523h194v-478h106v478h188v-478h105v478h197v-632h-790v632z" />
    <glyph glyph-name="uni0449" unicode="&#x449;" 
d="M932 45v-373h-188v219h-674v632h194v-478h96v478h189v-478h85v478h197v-478h101z" />
    <glyph glyph-name="uni044A" unicode="&#x44a;" horiz-adv-x="796" 
d="M219 369h-186v154h384v-198h62q57 0 107 -11t87 -36t58 -66t21 -101q0 -62 -21 -104.5t-58 -68t-87 -36.5t-107 -11h-260v478zM287 105q97 -2 145.5 -42.5t50.5 -128.5q2 88 51.5 128.5t142.5 42.5q-93 2 -143 42t-52 129q-2 -89 -50.5 -129t-144.5 -42z" />
    <glyph glyph-name="uni044B" unicode="&#x44b;" 
d="M80 523h197v-198h41q57 0 107 -11t87 -36t58 -66t21 -101q0 -62 -21 -104.5t-58 -68t-87 -36.5t-107 -11h-238v632zM653 523h198v-632h-198v632zM137 105q97 -2 145.5 -42.5t50.5 -128.5q2 88 51.5 128.5t142.5 42.5q-93 2 -143 42t-52 129q-2 -89 -50.5 -129t-144.5 -42
z" />
    <glyph glyph-name="uni044C" unicode="&#x44c;" horiz-adv-x="660" 
d="M80 523h197v-198h65q57 0 107 -11t87 -36t58 -66t21 -101q0 -62 -21 -104.5t-58 -68t-87 -36.5t-107 -11h-262v632zM343 -76q0 94 49.5 136.5t144.5 44.5q-93 2 -143 42t-52 129q-2 -89 -50.5 -129t-144.5 -42q99 -2 147.5 -44.5t48.5 -136.5z" />
    <glyph glyph-name="uni044D" unicode="&#x44d;" horiz-adv-x="596" 
d="M74 506q17 9 33.5 15t35 10t41 6t51.5 2q163 0 240 -82.5t77 -250.5q0 -164 -74.5 -247.5t-239.5 -83.5q-27 0 -49.5 2t-42.5 6t-39 11t-40 16v146q12 -9 30.5 -14.5t39.5 -9t41.5 -4.5t36.5 -1q74 0 113 27.5t35 94.5h-252v129h250q2 60 -33.5 84.5t-104.5 24.5
q-15 0 -36 -0.5t-42.5 -3t-40.5 -7.5t-30 -13v143z" />
    <glyph glyph-name="uni044E" unicode="&#x44e;" 
d="M370 298q12 57 31.5 102t49.5 75.5t71.5 47t96.5 16.5q121 0 185.5 -87.5t64.5 -245.5q0 -156 -65 -243.5t-185 -87.5q-56 0 -98 17t-72.5 49.5t-50 78.5t-30.5 105h-91v-234h-197v632h197v-225h93zM622 441q-2 -116 -51.5 -175t-157.5 -62q108 -3 157.5 -64t51.5 -172
q2 111 51 172.5t157 64.5q-108 3 -157 61.5t-51 174.5z" />
    <glyph glyph-name="uni044F" unicode="&#x44f;" horiz-adv-x="802" 
d="M658 523v-632h-198v200h-63l-122 -200h-219l166 242q-46 26 -75.5 69t-29.5 109q0 60 20.5 100.5t56.5 65.5t84.5 35.5t103.5 10.5h276zM413 134q0 94 49.5 136.5t144.5 44.5q-93 2 -143 42t-52 129q-2 -89 -50.5 -129t-144.5 -42q99 -2 147.5 -44.5t48.5 -136.5z" />
    <glyph glyph-name="uni0451" unicode="&#x451;" horiz-adv-x="702" 
d="M484 611q-41 0 -67.5 27.5t-26.5 66.5q0 40 26.5 67.5t67.5 27.5q42 0 69 -27.5t27 -67.5q0 -39 -27 -66.5t-69 -27.5zM203 611q-42 0 -68 27.5t-26 66.5q0 40 26 67.5t68 27.5t68.5 -27.5t26.5 -67.5q0 -39 -26.5 -66.5t-68.5 -27.5zM226 133q0 -27 10 -47.5t27.5 -34
t40 -20.5t47.5 -7q54 0 84.5 12.5t30.5 36.5v19h196v-29q0 -40 -23.5 -74t-65 -59t-98.5 -39t-124 -14q-69 0 -127.5 19.5t-101.5 55t-67.5 84t-24.5 107.5v120q0 62 24.5 112.5t67.5 86t101.5 55t127.5 19.5t127.5 -19.5t101.5 -55t67.5 -86t24.5 -112.5v-126h-446v-4z
M361 489q-2 -42 -22.5 -71t-51 -47t-67 -26.5t-72.5 -9.5q37 -1 74.5 -11t68.5 -30t50.5 -50t19.5 -72q0 42 18 72t47.5 50.5t66 30.5t72.5 11q-35 1 -70.5 9.5t-64.5 26.5t-48 46.5t-21 70.5z" />
    <glyph glyph-name="emdash" unicode="&#x2014;" 
d="M890 375v-90h-850v90h850z" />
    <glyph glyph-name="emdash" unicode="&#x2015;" 
d="M890 375v-90h-850v90h850z" />
    <glyph glyph-name="quoteleft" unicode="&#x2018;" horiz-adv-x="351" 
d="M70 560q-4 47 12.5 90.5t48 77.5t75.5 56t95 26v-75q-39 -11 -58.5 -29.5t-26.5 -48.5q37 -9 58.5 -36t21.5 -66q0 -49 -31 -81t-82 -32q-50 0 -79.5 34.5t-33.5 83.5z" />
    <glyph glyph-name="quoteright" unicode="&#x2019;" horiz-adv-x="351" 
d="M281 682q4 -47 -12.5 -90.5t-48 -77.5t-75.5 -56t-95 -26v75q39 11 58.5 29.5t26.5 48.5q-37 9 -58.5 36t-21.5 66q0 49 31 81t82 32q50 0 79.5 -34.5t33.5 -83.5z" />
    <glyph glyph-name="quotedblleft" unicode="&#x201c;" horiz-adv-x="631" 
d="M372 560q-1 48 14.5 92t45 77.5t70 55t89.5 25.5v-75q-37 -11 -55.5 -29.5t-24.5 -48.5q35 -9 55.5 -36t20.5 -66q0 -49 -30 -81t-78 -32q-47 0 -76 34.5t-31 83.5zM233 442q-48 0 -76.5 34.5t-30.5 83.5q-1 48 14.5 91.5t44.5 77.5t70 55.5t90 25.5v-75
q-37 -11 -56 -29.5t-25 -48.5q35 -9 55.5 -36t20.5 -66q0 -49 -29.5 -81t-77.5 -32z" />
    <glyph glyph-name="quotedblright" unicode="&#x201d;" horiz-adv-x="631" 
d="M259 682q1 -48 -14.5 -92t-45 -77.5t-70 -55t-89.5 -25.5v75q37 11 55.5 29.5t24.5 48.5q-35 9 -55.5 36t-20.5 66q0 49 30 81t78 32q47 0 76 -34.5t31 -83.5zM398 800q48 0 76.5 -34.5t30.5 -83.5q1 -48 -14.5 -91.5t-44.5 -77.5t-70 -55.5t-90 -25.5v75q37 11 56 29.5
t25 48.5q-35 9 -55.5 36t-20.5 66q0 49 29.5 81t77.5 32z" />
    <glyph glyph-name="dagger" unicode="&#x2020;" 
d="M540 509h185v-128h-185v-490h-150v490h-185v128h185v227h150v-227z" />
    <glyph glyph-name="daggerdbl" unicode="&#x2021;" 
d="M540 526h185v-128h-185v-164h185v-128h-185v-214h-150v214h-185v128h185v164h-185v128h185v210h150v-210z" />
    <glyph glyph-name="twodotenleader" unicode="&#x2025;" horiz-adv-x="672" 
d="M168 218q-51 0 -82 31.5t-31 79.5q0 49 31 81t82 32q50 0 81.5 -32t31.5 -81q0 -48 -31.5 -79.5t-81.5 -31.5zM504 218q-51 0 -82 31.5t-31 79.5q0 49 31 81t82 32q50 0 81.5 -32t31.5 -81q0 -48 -31.5 -79.5t-81.5 -31.5z" />
    <glyph glyph-name="ellipsis" unicode="&#x2026;" horiz-adv-x="1008" 
d="M168 218q-51 0 -82 31.5t-31 79.5q0 49 31 81t82 32q50 0 81.5 -32t31.5 -81q0 -48 -31.5 -79.5t-81.5 -31.5zM504 218q-51 0 -82 31.5t-31 79.5q0 49 31 81t82 32q50 0 81.5 -32t31.5 -81q0 -48 -31.5 -79.5t-81.5 -31.5zM840 218q-51 0 -82 31.5t-31 79.5q0 49 31 81
t82 32q50 0 81.5 -32t31.5 -81q0 -48 -31.5 -79.5t-81.5 -31.5z" />
    <glyph glyph-name="ellipsis" unicode="&#x22ef;" horiz-adv-x="1008" 
d="M168 218q-51 0 -82 31.5t-31 79.5q0 49 31 81t82 32q50 0 81.5 -32t31.5 -81q0 -48 -31.5 -79.5t-81.5 -31.5zM504 218q-51 0 -82 31.5t-31 79.5q0 49 31 81t82 32q50 0 81.5 -32t31.5 -81q0 -48 -31.5 -79.5t-81.5 -31.5zM840 218q-51 0 -82 31.5t-31 79.5q0 49 31 81
t82 32q50 0 81.5 -32t31.5 -81q0 -48 -31.5 -79.5t-81.5 -31.5z" />
    <glyph glyph-name="perthousand" unicode="&#x2030;" 
d="M148 314q-60 0 -99 53.5t-39 165.5t39 164.5t99 52.5t99.5 -52.5t39.5 -164.5t-39.5 -165.5t-99.5 -53.5zM181 -122h-108l374 872h107zM148 724q-1 -36 -9.5 -70t-24 -60t-37 -43t-48.5 -18q27 -2 48.5 -18.5t37 -43t24 -60.5t9.5 -70q1 36 9.5 70t24.5 60.5t38 43
t49 18.5q-27 1 -49 18t-38 43t-24.5 60t-9.5 70zM478 313q61 0 100 -53.5t39 -165.5q0 -56 -10.5 -97t-29 -67.5t-44 -39.5t-55.5 -13t-55.5 13t-43.5 39.5t-28.5 67.5t-10.5 97q0 112 39 165.5t99 53.5zM782 313q60 0 99 -53.5t39 -165.5q0 -56 -10.5 -97t-28.5 -67.5
t-43.5 -39.5t-55.5 -13t-55.5 13t-44 39.5t-29 67.5t-10.5 97q0 112 39.5 165.5t99.5 53.5zM478 -97q1 36 9.5 69.5t24 60t37.5 43t49 18.5q-27 1 -49 18t-37.5 43t-24 60t-9.5 70q-1 -36 -9.5 -70t-24.5 -60t-37.5 -43t-48.5 -18q27 -2 48.5 -18.5t37.5 -43t24.5 -60
t9.5 -69.5zM782 -97q1 36 9.5 69.5t24 60t37 43t48.5 18.5q-27 1 -48.5 18t-37 43t-24 60t-9.5 70q-1 -36 -10 -70t-24.5 -60t-37.5 -43t-49 -18q27 -2 49 -18.5t37.5 -43t24.5 -60t10 -69.5z" />
    <glyph glyph-name="minute" unicode="&#x2032;" horiz-adv-x="351" 
d="M80 800h204l-73 -296h-131v296z" />
    <glyph glyph-name="second" unicode="&#x2033;" horiz-adv-x="631" 
d="M300 800h189l-65 -296h-125zM80 800h189l-65 -296h-125z" />
    <glyph glyph-name="uni203B" unicode="&#x203b;" 
d="M464 498q-27 0 -49 9t-37.5 25t-24.5 37.5t-9 47.5q0 52 33 86t87 34q53 0 86.5 -34t33.5 -86q0 -26 -9 -47.5t-25 -37.5t-38 -25t-48 -9zM463 344l351 351l31 -30l-351 -352l351 -352l-31 -31l-351 352l-353 -353l-31 31l353 353l-352 352l31 30zM161 193
q-54 0 -87 33.5t-33 84.5q0 52 33 86t87 34t87.5 -34t33.5 -86q0 -51 -33.5 -84.5t-87.5 -33.5zM769 193q-27 0 -49.5 9t-38 25t-24.5 37.5t-9 46.5q0 52 33.5 86t87.5 34q53 0 86.5 -34t33.5 -86q0 -51 -33.5 -84.5t-86.5 -33.5zM464 -109q-54 0 -87 33.5t-33 84.5
q0 53 33 87t87 34q53 0 86.5 -34t33.5 -87q0 -51 -33.5 -84.5t-86.5 -33.5z" />
    <glyph glyph-name="uni203E" unicode="&#x203e;" 
d="M965 800v-50h-1000v50h1000z" />
    <glyph glyph-name="uni203E" unicode="&#xffe3;" 
d="M965 800v-50h-1000v50h1000z" />
    <glyph glyph-name="uni2074" unicode="&#x2074;" horiz-adv-x="423" 
d="M403 351h-55v-67h-103v67h-220v81l226 305h97v-299h55v-87zM225 652q-2 -57 -31 -95.5t-85 -40.5q28 -2 49.5 -14t36.5 -31.5t22.5 -45t7.5 -52.5q0 27 7.5 52.5t22 45.5t36 32t49.5 14q-54 2 -84 40t-31 95z" />
    <glyph glyph-name="uni207F" unicode="&#x207f;" horiz-adv-x="494" 
d="M262 731q94 18 145 -22t51 -139v-286h-139v271q0 42 -20.5 59t-58.5 6l-60 -16v-320h-140v453h140v-22l82 16v0z" />
    <glyph glyph-name="uni2081" unicode="&#x2081;" horiz-adv-x="327" 
d="M139 -109v346l-89 -50v87l116 70h81v-453h-108z" />
    <glyph glyph-name="uni2082" unicode="&#x2082;" horiz-adv-x="402" 
d="M30 -109v72l150 130q37 33 58 57.5t21 57.5q0 26 -17 41.5t-46 15.5q-32 0 -49.5 -18t-12.5 -50h-98q-2 28 7 56t29.5 50t51.5 35.5t73 13.5t74 -11.5t53.5 -31.5t32 -47t10.5 -58q0 -35 -19.5 -65.5t-62.5 -68.5l-123 -107q51 0 105 7t96 28v-107h-333z" />
    <glyph glyph-name="uni2083" unicode="&#x2083;" horiz-adv-x="401" 
d="M137 163h33q42 0 59 16t17 42q0 21 -15 34t-40 13q-22 0 -38.5 -11t-16.5 -30h-95q-1 25 9 48t30 40t49.5 27.5t67.5 10.5q36 0 65 -9.5t49.5 -26t31.5 -38.5t11 -47q0 -15 -5.5 -31t-15 -30t-21.5 -24.5t-25 -16.5q36 -10 60 -37t24 -70q0 -30 -14 -55.5t-38 -44
t-55.5 -28.5t-65.5 -10q-38 0 -70.5 8.5t-56.5 25.5t-37.5 42.5t-13.5 60.5h98q0 -23 21.5 -36t47.5 -13q32 0 54 15t22 38q0 28 -24 43.5t-62 17.5h-40v76z" />
    <glyph glyph-name="uni2084" unicode="&#x2084;" horiz-adv-x="423" 
d="M403 -42h-55v-67h-103v67h-220v81l226 305h97v-299h55v-87zM225 259q-2 -57 -31 -95.5t-85 -40.5q28 -2 49.5 -14t36.5 -31.5t22.5 -45t7.5 -52.5q0 27 7.5 52.5t22 45.5t36 32t49.5 14q-54 2 -84 40t-31 95z" />
    <glyph glyph-name="uni20A9" unicode="&#x20a9;" horiz-adv-x="929" 
d="M873 414h52v-69h-65l-84 -449h-236l-68 435q-2 8 -2 14h-11q-2 -10 -2 -14l-69 -435h-236l-83 449h-64v69h51l-53 286h183l47 -286h100l46 286h171l45 -286h100l48 286h183zM284 92q6 48 13 94.5t15 94.5l10 64h-78l11 -63q8 -48 15 -95t14 -95zM673 282l10 63h-77
l11 -64q15 -95 27 -189z" />
    <glyph glyph-name="Euro" unicode="&#x20ac;" horiz-adv-x="795" 
d="M1 426h52v1q0 67 25 122t71 93t110 59t141 21t141 -19t109.5 -55t71 -87t25.5 -115v-38h-190v29q0 66 -41 99.5t-116 33.5q-72 0 -113.5 -37.5t-43.5 -106.5h223v-89h-223v-55h223v-89h-223q2 -72 42.5 -109.5t114.5 -37.5q75 0 116 33.5t41 99.5v38h190v-47
q0 -64 -25.5 -115t-71 -87t-109.5 -55t-141 -19t-141 21t-110 59t-71 92.5t-25 122.5v4h-52v89h52v55h-52v89z" />
    <glyph glyph-name="uni2103" unicode="&#x2103;" 
d="M167 453q-32 0 -59.5 12.5t-48 35t-32.5 53.5t-12 67t12 67t32.5 53.5t48 35t59.5 12.5t60 -12.5t48.5 -35t32 -53.5t11.5 -67t-11.5 -67t-32 -53.5t-48.5 -35t-60 -12.5zM167 538q31 0 50 23t19 60t-19 60t-50 23q-30 0 -49 -23t-19 -60t19 -60t49 -23zM919 196v-45
q0 -60 -21.5 -108.5t-61 -82.5t-95 -52t-122.5 -18t-122 19.5t-94.5 56t-61 88t-21.5 115.5v226q0 64 21.5 115.5t61 88t94.5 56t122 19.5t122.5 -18t95 -52t61 -82.5t21.5 -108.5v-36h-164v27q0 63 -35.5 94.5t-100.5 31.5q-64 0 -99.5 -37t-35.5 -107v-208
q0 -70 35.5 -107t99.5 -37q65 0 100.5 31.5t35.5 94.5v36h164z" />
    <glyph glyph-name="uni2109" unicode="&#x2109;" 
d="M219 453q-36 0 -66.5 12.5t-53.5 35t-36 53.5t-13 67t13 67t36 53.5t53.5 35t66.5 12.5t66.5 -12.5t53.5 -35t36 -53.5t13 -67t-13 -67t-36 -53.5t-53.5 -35t-66.5 -12.5zM219 538q35 0 56 23t21 60t-21 60t-56 23q-34 0 -55 -23t-21 -60t21 -60t55 -23zM603 519v-192
h296v-149h-296v-276h-176v761h494v-144h-318z" />
    <glyph glyph-name="uni2113" unicode="&#x2113;" horiz-adv-x="547" 
d="M549 -30q-40 -36 -88.5 -65t-109.5 -29q-39 0 -75 11t-65.5 32.5t-51 53.5t-31.5 75l-53 -34l-65 114l112 71v264q0 76 16.5 131.5t45.5 91.5t69 53.5t88 17.5q42 0 76.5 -14t59 -40t38 -63.5t13.5 -85.5q0 -55 -13 -105.5t-41.5 -99t-73 -95.5t-107.5 -94v-26
q0 -56 25 -80.5t60 -24.5q33 0 59.5 17.5t46.5 35.5zM293 330q48 46 70.5 105t22.5 119q0 35 -11 52.5t-28 17.5q-22 0 -38 -30.5t-16 -105.5v-158z" />
    <glyph glyph-name="uni2116" unicode="&#x2116;" 
d="M693 750q46 0 83 -21.5t62.5 -58.5t39 -85.5t13.5 -102.5v-111q0 -57 -13.5 -106t-39 -85t-62.5 -56.5t-83 -20.5q-47 0 -83.5 20.5t-62.5 56.5t-39.5 85t-13.5 106v111q0 54 13.5 102.5t39.5 85.5t62.5 58.5t83.5 21.5zM345 -103l-152 414q-10 26 -18 47.5t-20 47.5
q2 -35 3 -69t1 -66v-374h-121v840h121l148 -394q11 -31 22 -64t20 -69q-3 34 -3.5 70t-0.5 71v386h120v-840h-120zM693 706q-2 -138 -38 -207t-115 -72q79 -4 115 -75.5t38 -203.5q2 132 37.5 204t114.5 76q-79 3 -114.5 71.5t-37.5 206.5zM508 38h382v-150h-382v150z" />
    <glyph glyph-name="uni2121" unicode="&#x2121;" horiz-adv-x="833" 
d="M201 366h-88v301h-98v70h284v-70h-98v-301zM317 366v371h234v-70h-146v-77h142v-71h-142v-92q34 0 70 6.5t76 20.5v-88h-234zM575 737h88v-308q41 1 72 7t63 20v-90h-223v371z" />
    <glyph glyph-name="trademark" unicode="&#x2122;" horiz-adv-x="726" 
d="M208 366h-86v301h-107v70h299v-70h-106v-301zM580 737h104v-371h-81v153q0 17 2 43.5t4 46.5l-70 -234h-65l-71 234q2 -20 4 -46.5t2 -43.5v-153h-80v371h104l61 -197q7 -29 12 -59q3 14 5.5 29t7.5 30z" />
    <glyph glyph-name="Omega" unicode="&#x2126;" 
d="M85 94h130v4q-23 18 -43 44.5t-35.5 60t-24.5 73t-9 84.5q0 78 26 142t73.5 109.5t114.5 71t148 25.5t148 -25.5t114.5 -71t74 -109.5t26.5 -142q0 -45 -9 -84.5t-24.5 -73t-36 -60t-42.5 -44.5v-4h130v-144h-329v129q69 54 103 116.5t34 146.5q0 47 -15 86t-40.5 67.5
t-60 44t-73.5 15.5t-73.5 -15.5t-60 -44t-40 -67.5t-14.5 -86q0 -84 34.5 -146.5t102.5 -116.5v-129h-329v144z" />
    <glyph glyph-name="uni212B" unicode="&#x212b;" horiz-adv-x="846" 
d="M565 49h-284l-57 -158h-214l300 810q-24 20 -38 48.5t-14 62.5q0 33 13 60.5t36 47.5t53.5 31.5t66.5 11.5t66.5 -11.5t53.5 -31.5t36 -47.5t13 -60.5q0 -36 -16 -66t-42 -50l298 -805h-214zM351 812q0 -32 19 -52.5t50 -22.5h14q32 2 51 22.5t19 52.5q0 33 -21 54
t-56 21q-34 0 -55 -21t-21 -54zM606 371q-52 0 -86.5 22t-56 60t-30.5 87.5t-10 105.5q-1 -56 -10.5 -105.5t-30.5 -87.5t-56 -60t-86 -22q51 0 86 -23.5t56 -62.5t30.5 -89t10.5 -102q1 52 10 102t30.5 89t56 62.5t86.5 23.5z" />
    <glyph glyph-name="onethird" unicode="&#x2153;" 
d="M699 737h132l-638 -846h-132zM163 284v346l-87 -50v86l114 71h80v-453h-107zM663 162h33q42 0 59 16t17 42q0 21 -15 33.5t-40 12.5q-22 0 -38.5 -11t-16.5 -29h-95q-1 25 9 48t30 40t49.5 27.5t67.5 10.5q36 0 65 -9.5t49.5 -26t31.5 -38.5t11 -47q0 -15 -5.5 -31
t-15 -30t-21.5 -25t-25 -16q35 -11 59.5 -37.5t24.5 -69.5q0 -30 -14 -55.5t-38 -44t-55.5 -28.5t-65.5 -10q-38 0 -70.5 8.5t-56.5 25.5t-37.5 42.5t-13.5 59.5h98q0 -22 21.5 -35t47.5 -13q32 0 54 15t22 38q0 28 -23 43t-59 18h-44v76z" />
    <glyph glyph-name="twothirds" unicode="&#x2154;" 
d="M37 283v72l149 131q37 32 58.5 56.5t21.5 57.5q0 26 -17 41.5t-46 15.5q-32 0 -50 -18t-13 -50h-97q-2 28 7 56t29.5 50t51.5 35.5t72 13.5q43 0 75 -11.5t53.5 -31.5t32 -47t10.5 -58q0 -35 -20 -65.5t-63 -68.5l-123 -107q51 0 105.5 7.5t96.5 28.5v-108h-333zM749 737
h132l-638 -846h-132zM663 162h33q42 0 59 16t17 42q0 21 -15 33.5t-40 12.5q-22 0 -38.5 -11t-16.5 -29h-95q-1 25 9 48t30 40t49.5 27.5t67.5 10.5q36 0 65 -9.5t49.5 -26t31.5 -38.5t11 -47q0 -15 -5.5 -31t-15 -30t-21.5 -25t-25 -16q35 -11 59.5 -37.5t24.5 -69.5
q0 -30 -14 -55.5t-38 -44t-55.5 -28.5t-65.5 -10q-38 0 -70.5 8.5t-56.5 25.5t-37.5 42.5t-13.5 59.5h98q0 -22 21.5 -35t47.5 -13q32 0 54 15t22 38q0 28 -23 43t-59 18h-44v76z" />
    <glyph glyph-name="oneeighth" unicode="&#x215b;" 
d="M679 737h132l-638 -846h-132zM163 284v346l-87 -50v86l114 71h80v-453h-107zM690 339q79 0 122.5 -32.5t43.5 -94.5v-4q0 -26 -12.5 -49t-36.5 -38q30 -17 47 -42.5t17 -60.5v-6q0 -36 -13 -62.5t-37 -43.5t-57.5 -25.5t-73.5 -8.5t-73.5 8.5t-57.5 25.5t-37 43.5
t-13 62.5v6q0 35 16.5 61.5t46.5 41.5q-23 15 -35.5 38t-12.5 49v4q0 62 43.5 94.5t122.5 32.5zM689 317q-2 -20 -13.5 -36.5t-29.5 -28.5t-41 -19.5t-48 -8.5q25 -2 48 -8t41 -17.5t29.5 -28.5t13.5 -39q1 22 12 39t29 28.5t41 17.5t48 8q-25 1 -48 8.5t-41 19.5t-29 28.5
t-12 36.5zM530 8q26 -2 53.5 -9t50.5 -20t38 -33.5t17 -49.5q1 28 15 49t36 34.5t48 20.5t52 7q-26 1 -52 9t-48 22t-36 34.5t-15 46.5q-2 -27 -17 -47.5t-38 -35t-50.5 -21.5t-53.5 -7z" />
    <glyph glyph-name="threeeighths" unicode="&#x215c;" 
d="M157 567h32q42 0 59 16t17 42q0 21 -15 34t-40 13q-22 0 -38.5 -11t-16.5 -30h-95q-1 25 9 48t30 40t49.5 27.5t67.5 10.5q36 0 65 -9.5t49.5 -26t31.5 -38.5t11 -47q0 -15 -5.5 -31t-14.5 -30t-21.5 -24.5t-25.5 -16.5q36 -10 60 -37t24 -70q0 -30 -14 -55.5t-38 -44
t-55.5 -28.5t-65.5 -10q-37 0 -69.5 8.5t-56.5 25.5t-37.5 42.5t-13.5 60.5h97q0 -23 21.5 -36t47.5 -13q32 0 54 15t22 38q0 29 -26 45t-67 16h-32v76zM699 737h132l-638 -846h-132zM700 339q79 0 122.5 -32.5t43.5 -94.5v-4q0 -26 -12.5 -49t-36.5 -38q30 -17 47 -42.5
t17 -60.5v-6q0 -36 -13 -62.5t-37 -43.5t-57.5 -25.5t-73.5 -8.5t-73.5 8.5t-57.5 25.5t-37 43.5t-13 62.5v6q0 35 16.5 61.5t46.5 41.5q-23 15 -35.5 38t-12.5 49v4q0 62 43.5 94.5t122.5 32.5zM699 317q-2 -20 -13.5 -36.5t-29.5 -28.5t-41 -19.5t-48 -8.5q25 -2 48 -8
t41 -17.5t29.5 -28.5t13.5 -39q1 22 12 39t29 28.5t41 17.5t48 8q-25 1 -48 8.5t-41 19.5t-29 28.5t-12 36.5zM540 8q26 -2 53.5 -9t50.5 -20t38 -33.5t17 -49.5q1 28 15 49t36 34.5t48 20.5t52 7q-26 1 -52 9t-48 22t-36 34.5t-15 46.5q-2 -27 -17 -47.5t-38 -35
t-50.5 -21.5t-53.5 -7z" />
    <glyph glyph-name="fiveeighths" unicode="&#x215d;" 
d="M211 274q-34 0 -66.5 9t-58 27t-41 46.5t-15.5 67.5h97q3 -29 26 -45.5t53 -16.5q37 0 56.5 21t19.5 53q0 34 -21.5 53.5t-54.5 19.5q-22 0 -42 -6.5t-38 -16.5l-61 29v222h285v-87h-178v-73q11 5 29.5 7.5t31.5 2.5q29 0 57.5 -9.5t51 -28.5t36.5 -46t14 -63
q0 -39 -16 -70t-41.5 -52t-58 -32.5t-65.5 -11.5zM714 737h132l-638 -846h-132zM700 339q79 0 122.5 -32.5t43.5 -94.5v-4q0 -26 -12.5 -49t-36.5 -38q30 -17 47 -42.5t17 -60.5v-6q0 -36 -13 -62.5t-37 -43.5t-57.5 -25.5t-73.5 -8.5t-73.5 8.5t-57.5 25.5t-37 43.5
t-13 62.5v6q0 35 16.5 61.5t46.5 41.5q-23 15 -35.5 38t-12.5 49v4q0 62 43.5 94.5t122.5 32.5zM699 317q-2 -20 -13.5 -36.5t-29.5 -28.5t-41 -19.5t-48 -8.5q25 -2 48 -8t41 -17.5t29.5 -28.5t13.5 -39q1 22 12 39t29 28.5t41 17.5t48 8q-25 1 -48 8.5t-41 19.5t-29 28.5
t-12 36.5zM540 8q26 -2 53.5 -9t50.5 -20t38 -33.5t17 -49.5q1 28 15 49t36 34.5t48 20.5t52 7q-26 1 -52 9t-48 22t-36 34.5t-15 46.5q-2 -27 -17 -47.5t-38 -35t-50.5 -21.5t-53.5 -7z" />
    <glyph glyph-name="seveneighths" unicode="&#x215e;" 
d="M175 400q0 41 11.5 80t32.5 72t51 59t66 41h-255v85h337v-59q-28 -23 -52.5 -51t-43 -61.5t-29 -72t-10.5 -82.5v-127h-108v116zM684 737h132l-638 -846h-132zM690 339q79 0 122.5 -32.5t43.5 -94.5v-4q0 -26 -12.5 -49t-36.5 -38q30 -17 47 -42.5t17 -60.5v-6
q0 -36 -13 -62.5t-37 -43.5t-57.5 -25.5t-73.5 -8.5t-73.5 8.5t-57.5 25.5t-37 43.5t-13 62.5v6q0 35 16.5 61.5t46.5 41.5q-23 15 -35.5 38t-12.5 49v4q0 62 43.5 94.5t122.5 32.5zM689 317q-2 -20 -13.5 -36.5t-29.5 -28.5t-41 -19.5t-48 -8.5q25 -2 48 -8t41 -17.5
t29.5 -28.5t13.5 -39q1 22 12 39t29 28.5t41 17.5t48 8q-25 1 -48 8.5t-41 19.5t-29 28.5t-12 36.5zM530 8q26 -2 53.5 -9t50.5 -20t38 -33.5t17 -49.5q1 28 15 49t36 34.5t48 20.5t52 7q-26 1 -52 9t-48 22t-36 34.5t-15 46.5q-2 -27 -17 -47.5t-38 -35t-50.5 -21.5
t-53.5 -7z" />
    <glyph glyph-name="uni2160" unicode="&#x2160;" 
d="M565 -109h-200v846h200v-846z" />
    <glyph glyph-name="uni2161" unicode="&#x2161;" 
d="M199 736h180v-845h-180v845zM551 736h180v-845h-180v845z" />
    <glyph glyph-name="uni2162" unicode="&#x2162;" 
d="M43 737h180v-846h-180v846zM375 737h180v-846h-180v846zM707 737h180v-846h-180v846z" />
    <glyph glyph-name="uni2163" unicode="&#x2163;" 
d="M512 -109l-194 845h181l144 -656h5l145 656h188l-194 -845h-275zM61 -109v845h180v-845h-180z" />
    <glyph glyph-name="uni2164" unicode="&#x2164;" 
d="M569 -109h-208l-304 846h202l149 -418q9 -26 16.5 -50t14 -48t13 -49t13.5 -52q14 55 26 101t31 98l149 418h202z" />
    <glyph glyph-name="uni2165" unicode="&#x2165;" 
d="M-43 736h188l145 -656h5l144 656h181l-194 -845h-275zM697 736h180v-845h-180v845z" />
    <glyph glyph-name="uni2166" unicode="&#x2166;" 
d="M-18 737h188l75 -656h5l74 656h181l-124 -846h-275zM522 737h180v-846h-180v846zM764 737h180v-846h-180v846z" />
    <glyph glyph-name="uni2167" unicode="&#x2167;" 
d="M-18 737h148l65 -656h5l64 656h141l-94 -846h-225zM792 737h140v-846h-140v846zM612 737h140v-846h-140v846zM432 737h140v-846h-140v846z" />
    <glyph glyph-name="uni2168" unicode="&#x2168;" 
d="M45 737h180v-846h-180v846zM453 737l131 -262l131 262h190l-218 -420l221 -426h-191l-133 268l-133 -268h-191l221 426l-219 420h191z" />
    <glyph glyph-name="uni2169" unicode="&#x2169;" 
d="M309 737l155 -262l155 262h226l-258 -420l261 -426h-226l-158 268l-157 -268h-226l261 426l-259 420h226z" />
    <glyph glyph-name="uni2170" unicode="&#x2170;" 
d="M465 588q-24 0 -44 8.5t-34 23.5t-22 35t-8 43t8 43.5t22 35.5t34 24t44 9q48 0 78 -32.5t30 -79.5q0 -23 -8 -43t-22.5 -35t-34 -23.5t-43.5 -8.5zM367 522h196v-631h-196v631z" />
    <glyph glyph-name="uni2171" unicode="&#x2171;" 
d="M295 588q-24 0 -44 8.5t-34 23.5t-22 35t-8 43t8 43.5t22 35.5t34 24t44 9q48 0 78 -32.5t30 -79.5q0 -23 -8 -43t-22.5 -35t-34 -23.5t-43.5 -8.5zM635 588q-24 0 -44 8.5t-34 23.5t-22 35t-8 43t8 43.5t22 35.5t34 24t44 9q48 0 78 -32.5t30 -79.5q0 -23 -8 -43
t-22.5 -35t-34 -23.5t-43.5 -8.5zM197 522h196v-631h-196v631zM537 522h196v-631h-196v631z" />
    <glyph glyph-name="uni2172" unicode="&#x2172;" 
d="M156 588q-22 0 -40.5 8.5t-31.5 23.5t-20 35t-7 43q0 47 27 79.5t72 32.5q21 0 39 -9t31 -24t20.5 -35.5t7.5 -43.5t-7.5 -43t-20.5 -35t-31 -23.5t-39 -8.5zM466 588q-22 0 -40 8.5t-31 23.5t-20.5 35t-7.5 43q0 47 27.5 79.5t71.5 32.5t71.5 -32.5t27.5 -79.5
q0 -23 -7.5 -43t-20.5 -35t-31 -23.5t-40 -8.5zM776 588q-22 0 -40 8.5t-31 23.5t-20 35t-7 43q0 47 27 79.5t71 32.5t71.5 -32.5t27.5 -79.5q0 -23 -7.5 -43t-20.5 -35t-31 -23.5t-40 -8.5zM66 522h179v-631h-179v631zM377 522h178v-631h-178v631zM687 522h179v-631h-179
v631z" />
    <glyph glyph-name="uni2173" unicode="&#x2173;" 
d="M195 588q-24 0 -44 8.5t-34 23.5t-22 35t-8 43t8 43.5t22 35.5t34 24t44 9q48 0 78 -32.5t30 -79.5q0 -23 -8 -43t-22.5 -35t-34 -23.5t-43.5 -8.5zM97 523h196v-632h-196v632zM734 -109h-231l-180 631h175l80 -295q9 -37 19.5 -76t20.5 -77q8 38 18.5 77t20.5 76l81 295
h175z" />
    <glyph glyph-name="uni2174" unicode="&#x2174;" 
d="M600 -109h-270l-210 631h204l95 -295q11 -37 23 -76t23 -77q10 38 22.5 77t23.5 76l95 295h204z" />
    <glyph glyph-name="uni2175" unicode="&#x2175;" 
d="M735 588q-24 0 -43.5 8.5t-34 23.5t-22.5 35t-8 43q0 47 30 79.5t78 32.5q24 0 44 -9t34 -24t22 -35.5t8 -43.5t-8 -43t-22 -35t-34 -23.5t-44 -8.5zM637 -109v632h196v-632h-196zM192 522l81 -295q10 -37 20.5 -76t18.5 -77q10 38 20.5 77t19.5 76l80 295h175l-180 -631
h-231l-179 631h175z" />
    <glyph glyph-name="uni2176" unicode="&#x2176;" 
d="M617 588q-20 0 -36.5 8.5t-28.5 23.5t-18.5 35t-6.5 43t6.5 43.5t18.5 35.5t28.5 24t36.5 9q41 0 66 -32.5t25 -79.5q0 -23 -6.5 -43t-18.5 -35t-29 -23.5t-37 -8.5zM818 588q-20 0 -36.5 8.5t-28.5 23.5t-18.5 35t-6.5 43q0 47 25 79.5t65 32.5t65 -32.5t25 -79.5
q0 -23 -6.5 -43t-18.5 -35t-28.5 -23.5t-36.5 -8.5zM535 -109v632h164v-632h-164zM736 -109v632h164v-632h-164zM163 522l68 -295q8 -37 16.5 -76t16.5 -77q8 38 16.5 77t16.5 76l67 295h146l-150 -631h-193l-150 631h146z" />
    <glyph glyph-name="uni2177" unicode="&#x2177;" 
d="M503 588q-16 0 -29.5 8.5t-23 23.5t-15 35t-5.5 43q0 47 20.5 79.5t52.5 32.5q16 0 29.5 -9t23 -24t15 -35.5t5.5 -43.5t-5.5 -43t-15 -35t-23 -23.5t-29.5 -8.5zM665 588q-16 0 -29.5 8.5t-23 23.5t-15 35t-5.5 43t5.5 43.5t15 35.5t23 24t29.5 9t29.5 -9t23 -24
t15 -35.5t5.5 -43.5t-5.5 -43t-15 -35t-23 -23.5t-29.5 -8.5zM827 588q-16 0 -29.5 8.5t-23 23.5t-15 35t-5.5 43t5.5 43.5t15 35.5t23 24t29.5 9t29.5 -9t23 -24t15 -35.5t5.5 -43.5t-5.5 -43t-15 -35t-23 -23.5t-29.5 -8.5zM436 -109v632h133v-632h-133zM599 -109v632h133
v-632h-133zM761 -109v632h133v-632h-133zM135 522l55 -295q7 -37 14 -76t13 -77q6 38 13.5 77t13.5 76l54 295h118l-121 -631h-157l-121 631h118z" />
    <glyph glyph-name="uni2178" unicode="&#x2178;" 
d="M195 588q-24 0 -44 8.5t-34 23.5t-22 35t-8 43t8 43.5t22 35.5t34 24t44 9q48 0 78 -32.5t30 -79.5q0 -23 -8 -43t-22.5 -35t-34 -23.5t-43.5 -8.5zM97 523h196v-632h-196v632zM511 523l91 -169l89 169h178l-175 -312l180 -320h-177l-96 183l-96 -183h-177l180 320
l-175 312h178z" />
    <glyph glyph-name="uni2179" unicode="&#x2179;" 
d="M354 523l110 -168l111 168h218l-215 -312l221 -320h-217l-118 183l-117 -183h-217l220 320l-214 312h218z" />
    <glyph glyph-name="arrowleft" unicode="&#x2190;" 
d="M275 270l105 -83l-77 -98l-263 241l263 241l77 -98l-105 -83h610v-120h-610z" />
    <glyph glyph-name="arrowup" unicode="&#x2191;" 
d="M405 517l-83 -105l-98 77l241 263l241 -263l-98 -77l-83 105v-610h-120v610z" />
    <glyph glyph-name="arrowright" unicode="&#x2192;" 
d="M45 390h610l-105 83l77 98l263 -241l-263 -241l-77 98l105 83h-610v120z" />
    <glyph glyph-name="arrowdown" unicode="&#x2193;" 
d="M525 122l83 105l98 -77l-241 -263l-241 263l98 77l83 -105v610h120v-610z" />
    <glyph glyph-name="arrowboth" unicode="&#x2194;" 
d="M273 571l77 -98l-105 -83h440l-105 83l77 98l263 -241l-263 -241l-77 98l105 83h-440l105 -83l-77 -98l-263 241z" />
    <glyph glyph-name="arrowupdn" unicode="&#x2195;" 
d="M706 507l-98 -77l-83 105v-440l83 105l98 -77l-241 -263l-241 263l98 77l83 -105v440l-83 -105l-98 77l241 263z" />
    <glyph glyph-name="uni2196" unicode="&#x2196;" 
d="M287 420l16 -133l-124 -15l-15 357l356 -16l-15 -124l-133 16l432 -431l-85 -85z" />
    <glyph glyph-name="uni2197" unicode="&#x2197;" 
d="M164 74l432 431l-133 -16l-15 124l356 16l-15 -357l-124 15l16 133l-432 -431z" />
    <glyph glyph-name="uni2198" unicode="&#x2198;" 
d="M681 198l-16 133l124 15l15 -357l-356 16l15 124l133 -16l-432 431l85 85z" />
    <glyph glyph-name="uni2199" unicode="&#x2199;" 
d="M804 544l-432 -431l133 16l15 -124l-356 -16l15 357l124 -15l-16 -133l432 431z" />
    <glyph glyph-name="arrowdblright" unicode="&#x21d2;" 
d="M744 334l-93 76h-586v116h484l-86 85l93 66l364 -343l-364 -342l-93 66l86 85h-484v116h586z" />
    <glyph glyph-name="arrowdblboth" unicode="&#x21d4;" 
d="M-10 334l300 343l76 -66l-70 -85h338l-70 85l76 66l300 -343l-300 -342l-76 66l70 85h-338l70 -85l-76 -66zM212 259h506l77 75l-77 76h-506l-77 -76z" />
    <glyph glyph-name="universal" unicode="&#x2200;" 
d="M34 736h166l80 -197h356l74 197h186l-349 -802h-164zM591 419h-262l134 -331h4z" />
    <glyph glyph-name="partialdiff" unicode="&#x2202;" 
d="M662 425q-3 42 -16 69.5t-35.5 45t-53.5 25t-70 9.5q-27 1 -62 -4t-69 -13.5t-62.5 -19.5t-41.5 -22v148q52 31 109 45.5t138 15.5q62 1 121 -15.5t106 -52t78 -91.5t38 -135q4 -45 -0.5 -99.5t-20 -110.5t-43.5 -109.5t-71 -96.5t-102 -72t-137 -35q-73 -6 -131.5 9
t-100.5 46t-67 76.5t-30 99.5q-6 64 16.5 117t63.5 92t95 62.5t111 28.5q71 6 127 -13t109 -67l2 1q2 20 1.5 36t-2.5 30zM312 162q3 -31 15.5 -50.5t32 -31t44.5 -14.5t53 -1q41 4 69.5 15t48 29t31 42.5t19.5 56.5q-17 32 -37 50t-42 27t-45.5 10t-47.5 -1
q-28 -2 -55 -9.5t-47 -22.5t-31 -39.5t-8 -60.5z" />
    <glyph glyph-name="existential" unicode="&#x2203;" 
d="M818 702v-742h-688v150h508v152h-508v140h508v150h-508v150h688z" />
    <glyph glyph-name="gradient" unicode="&#x2207;" 
d="M58 575v108h814v-108l-295 -636h-224zM669 533h-413l202 -459h5z" />
    <glyph glyph-name="element" unicode="&#x2208;" 
d="M431 512q-88 0 -122 -27.5t-31 -83.5h543v-140h-543q-3 -56 31 -83.5t122 -27.5h390v-150h-390q-88 0 -151 22t-103 64t-59 103.5t-19 141.5t19 141.5t59 103.5t103 64t151 22h390v-150h-390z" />
    <glyph glyph-name="suchthat" unicode="&#x220b;" 
d="M109 662h390q88 0 151 -22t103 -64t59 -103.5t19 -141.5t-19 -141.5t-59 -103.5t-103 -64t-151 -22h-390v150h390q88 0 122 27.5t31 83.5h-543v140h543q3 56 -31 83.5t-122 27.5h-390v150z" />
    <glyph glyph-name="product" unicode="&#x220f;" 
d="M136 738h659v-1091h-179v936h-301v-936h-179v1091z" />
    <glyph glyph-name="summation" unicode="&#x2211;" 
d="M353 -191h414v-162h-604v195l225 352l-215 335v208h568v-160h-373v-4l241 -369l-256 -387v-8z" />
    <glyph glyph-name="radical" unicode="&#x221a;" 
d="M965 833v-50h-415l-302 -888h-32l-152 312l-36 -46l-28 22l160 182l115 -242l239 710h451z" />
    <glyph glyph-name="proportional" unicode="&#x221d;" 
d="M589 354q27 -51 62 -78t94 -27q13 0 30 0.5t33 2t29 3t19 4.5v-123q-43 -20 -94 -20q-41 0 -75.5 10.5t-65 29t-57.5 43.5t-51 54q-24 -29 -47.5 -54t-50.5 -43.5t-59 -29t-73 -10.5q-36 0 -73.5 15t-68.5 45t-50.5 74.5t-19.5 103.5t19.5 103.5t50.5 74t68.5 44.5
t73.5 15q41 0 73 -10.5t59 -29t50.5 -43.5t47.5 -54q24 29 51 54t57.5 43.5t65 29t75.5 10.5q54 0 94 -20v-122q-6 2 -19 4t-29 3.5t-33 2t-30 0.5q-30 0 -53 -8.5t-41.5 -22.5t-33.5 -33.5t-28 -40.5zM205 354q0 -23 8 -42.5t21 -33.5t30 -21.5t36 -7.5q30 0 48.5 8
t33 22.5t27 33.5t29.5 41q-17 21 -29.5 40.5t-27 33.5t-33 22.5t-48.5 8.5q-19 0 -36 -7.5t-30 -21.5t-21 -33.5t-8 -42.5z" />
    <glyph glyph-name="infinity" unicode="&#x221e;" 
d="M466 451q22 29 45.5 54t50 43t57.5 28.5t69 10.5q33 0 66.5 -15t60.5 -44.5t44 -73.5t17 -103t-17 -103t-44 -73t-60.5 -44t-66.5 -15q-38 0 -69 10.5t-57.5 28.5t-50 43t-45.5 54q-22 -29 -45.5 -54t-50 -43t-58 -28.5t-69.5 -10.5q-33 0 -66.5 15t-60.5 44t-44 73
t-17 103t17 103t44 73.5t60.5 44.5t66.5 15q38 0 69.5 -10.5t58 -28.5t50 -43t45.5 -54zM181 351q0 -46 22.5 -75t57.5 -29q27 0 46 8t33.5 22.5t27 33.5t28.5 40q-16 21 -28.5 40t-27 33.5t-33.5 22.5t-46 8q-35 0 -57.5 -28.5t-22.5 -75.5zM536 351q16 -21 29 -40
t27 -33.5t32.5 -22.5t46.5 -8q35 0 57 29t22 75q0 47 -22 75.5t-57 28.5q-28 0 -46.5 -8t-32.5 -22.5t-27 -33.5t-29 -40z" />
    <glyph glyph-name="angle" unicode="&#x2220;" 
d="M342 100h514v-140h-798v24l652 756l105 -105l-473 -532v-3z" />
    <glyph glyph-name="uni2225" unicode="&#x2225;" horiz-adv-x="830" 
d="M150 737h160v-846h-160v846zM520 737h160v-846h-160v846z" />
    <glyph glyph-name="logicaland" unicode="&#x2227;" 
d="M463 532l-243 -598h-186l349 802h164l349 -802h-186l-243 598h-4z" />
    <glyph glyph-name="logicalor" unicode="&#x2228;" 
d="M710 736h186l-349 -802h-164l-349 802h186l243 -598h4z" />
    <glyph glyph-name="intersection" unicode="&#x2229;" 
d="M144 410q0 69 24.5 129.5t67.5 105.5t101.5 71t127.5 26t127.5 -26t101.5 -71t67.5 -105.5t24.5 -129.5v-476h-160v476q0 89 -37 135.5t-124 46.5t-124 -46.5t-37 -135.5v-476h-160v476v0z" />
    <glyph glyph-name="union" unicode="&#x222a;" 
d="M144 742h160v-476q0 -89 37 -135.5t124 -46.5t124 46.5t37 135.5v476h160v-476q0 -69 -24.5 -129.5t-67.5 -105.5t-101.5 -71t-127.5 -26t-127.5 26t-101.5 71t-67.5 105.5t-24.5 129.5v476z" />
    <glyph glyph-name="integral" unicode="&#x222b;" 
d="M421 500q12 79 38.5 130t62 81t76.5 42t83 12q20 0 40.5 -2t40.5 -6v-139q-14 3 -33.5 4t-31.5 1q-23 0 -38 -8t-25 -26t-16.5 -47.5t-13.5 -72.5l-87 -557q-12 -79 -38.5 -130t-61.5 -81t-76 -42t-83 -12q-41 0 -81 8v139q14 -3 33.5 -4t30.5 -1q23 0 38 8t25 26
t16.5 47.5t13.5 72.5z" />
    <glyph glyph-name="uni222C" unicode="&#x222c;" 
d="M241 500q7 79 32.5 130.5t62.5 81.5t80 41.5t85 11.5q20 0 40.5 -2t40.5 -6v-139q-14 3 -33.5 4t-31.5 1q-23 0 -39 -8t-26.5 -26t-17 -47.5t-10.5 -72.5l-47 -557q-7 -79 -32.5 -130.5t-62 -81.5t-79.5 -41.5t-85 -11.5q-41 0 -81 8v139q14 -3 33.5 -4t30.5 -1
q23 0 39 8t26.5 26t17 47.5t10.5 72.5zM561 500q7 79 32.5 130.5t62.5 81.5t80 41.5t85 11.5q20 0 40.5 -2t40.5 -6v-139q-14 3 -33.5 4t-31.5 1q-23 0 -39 -8t-26.5 -26t-17 -47.5t-10.5 -72.5l-47 -557q-7 -79 -32.5 -130.5t-62 -81.5t-79.5 -41.5t-85 -11.5q-41 0 -81 8
v139q14 -3 33.5 -4t30.5 -1q23 0 39 8t26.5 26t17 47.5t10.5 72.5z" />
    <glyph glyph-name="uni222E" unicode="&#x222e;" 
d="M353 50q-40 27 -66 71t-26 101q0 38 11 70.5t31 58t47.5 43.5t59.5 28l21 125q7 45 28 84t51.5 68t69.5 46.5t84 19.5q25 0 49.5 -1.5t48.5 -6.5v-139q-40 8 -76 5q-15 -1 -27.5 -8.5t-23 -30.5t-20 -66t-18.5 -115q45 -26 74.5 -72.5t29.5 -108.5q0 -74 -40 -125.5
t-102 -72.5l-22 1l-20 -113q-14 -77 -40.5 -128t-61 -81.5t-75 -43t-82.5 -12.5q-41 0 -81 8v139q14 -3 33.5 -4t30.5 -1q23 0 37.5 8.5t24.5 26.5t16.5 47.5t14.5 71.5zM373 352q-2 -61 -26.5 -93.5t-80.5 -34.5q56 -2 80.5 -34t26.5 -95q1 63 25.5 94.5t80.5 33.5
q-56 2 -80.5 35t-25.5 94zM587 351q-2 -61 -26 -93.5t-80 -34.5q56 -2 80 -34t26 -95q1 63 26 94.5t81 33.5q-56 2 -81 35t-26 94z" />
    <glyph glyph-name="therefore" unicode="&#x2234;" 
d="M465 462q-52 0 -84 32.5t-32 81.5q0 51 32 83.5t84 32.5q25 0 46.5 -8.5t37 -24t24 -37t8.5 -46.5q0 -49 -32.5 -81.5t-83.5 -32.5zM208 0q-51 0 -83.5 32.5t-32.5 81.5q0 25 8.5 46.5t24 37t36.5 24t47 8.5q25 0 46.5 -8.5t37 -24t24 -37t8.5 -46.5q0 -49 -32.5 -81.5
t-83.5 -32.5zM722 0q-52 0 -84 32.5t-32 81.5q0 51 32 83.5t84 32.5q51 0 83.5 -32.5t32.5 -83.5q0 -24 -8.5 -45t-24 -36.5t-37 -24t-46.5 -8.5z" />
    <glyph glyph-name="uni2235" unicode="&#x2235;" 
d="M208 692q51 0 83.5 -32.5t32.5 -81.5q0 -25 -8.5 -46.5t-24 -37t-37 -24t-46.5 -8.5q-26 0 -47 8.5t-36.5 24t-24 37t-8.5 46.5q0 49 32.5 81.5t83.5 32.5zM722 692q25 0 46.5 -8.5t37 -24t24 -36.5t8.5 -45q0 -51 -32.5 -83.5t-83.5 -32.5q-52 0 -84 32.5t-32 83.5
q0 49 32 81.5t84 32.5zM465 230q51 0 83.5 -32.5t32.5 -81.5q0 -25 -8.5 -46.5t-24 -37t-37 -24t-46.5 -8.5q-52 0 -84 32.5t-32 83.5q0 49 32 81.5t84 32.5z" />
    <glyph glyph-name="similar" unicode="&#x223c;" 
d="M581 205q-18 -2 -35.5 3t-33.5 13l-93 49q-17 8 -34 15.5t-33 7.5q-27 0 -50 -20.5t-43 -48.5l-83 59q14 37 34.5 68t44 53.5t49 35t49.5 13.5q27 1 49 -6t42 -17l78 -39q14 -8 29.5 -15t28.5 -7q25 0 47.5 19.5t42.5 45.5l84 -58q-34 -75 -76.5 -121t-96.5 -50z" />
    <glyph glyph-name="similar" unicode="&#xff5e;" 
d="M581 205q-18 -2 -35.5 3t-33.5 13l-93 49q-17 8 -34 15.5t-33 7.5q-27 0 -50 -20.5t-43 -48.5l-83 59q14 37 34.5 68t44 53.5t49 35t49.5 13.5q27 1 49 -6t42 -17l78 -39q14 -8 29.5 -15t28.5 -7q25 0 47.5 19.5t42.5 45.5l84 -58q-34 -75 -76.5 -121t-96.5 -50z" />
    <glyph glyph-name="similar" unicode="&#x301c;" 
d="M581 205q-18 -2 -35.5 3t-33.5 13l-93 49q-17 8 -34 15.5t-33 7.5q-27 0 -50 -20.5t-43 -48.5l-83 59q14 37 34.5 68t44 53.5t49 35t49.5 13.5q27 1 49 -6t42 -17l78 -39q14 -8 29.5 -15t28.5 -7q25 0 47.5 19.5t42.5 45.5l84 -58q-34 -75 -76.5 -121t-96.5 -50z" />
    <glyph glyph-name="uni223D" unicode="&#x223d;" 
d="M412 374q23 34 46 67.5t52 58t67.5 38t92.5 8.5q45 -4 82 -18t64 -40t41.5 -64.5t14.5 -92.5t-20 -94.5t-50.5 -67t-67 -40t-68.5 -13.5q-45 0 -81 18v121q10 -5 29.5 -7t33.5 -2q36 0 56.5 21t20.5 64q0 42 -20.5 68.5t-52.5 26.5q-21 0 -37.5 -10.5t-31.5 -28t-30 -41
t-33 -49.5q-23 -35 -47.5 -69t-54.5 -60.5t-68 -41.5t-88 -10q-45 4 -82 18.5t-64 40t-41.5 64t-14.5 92.5t20 94.5t50.5 67t67 40t68.5 13.5q45 0 80 -18v-121q-10 5 -29 7t-33 2q-36 0 -56.5 -21t-20.5 -64q0 -42 20.5 -68.5t52.5 -26.5q21 0 37.5 11.5t31.5 31t30 44.5
t33 51z" />
    <glyph glyph-name="uni2252" unicode="&#x2252;" 
d="M329 510q-51 0 -82 31.5t-31 79.5q0 49 31 81t82 32q50 0 81.5 -32t31.5 -81q0 -48 -31.5 -79.5t-81.5 -31.5zM775 476v-110h-620v110h620zM775 296v-110h-620v110h620zM598 -72q-51 0 -82 31.5t-31 79.5q0 49 31 81t82 32q50 0 81.5 -32t31.5 -81q0 -48 -31.5 -79.5
t-81.5 -31.5z" />
    <glyph glyph-name="notequal" unicode="&#x2260;" 
d="M554 381l-31 -100h252v-130h-302l-61 -169l-133 41l47 128h-171v130h220l31 100h-251v130h302l61 169l133 -41l-47 -128h171v-130h-221z" />
    <glyph glyph-name="equivalence" unicode="&#x2261;" 
d="M775 606v-140h-620v140h620zM775 406v-140h-620v140h620zM775 206v-140h-620v140h620z" />
    <glyph glyph-name="lessequal" unicode="&#x2264;" 
d="M336 425l427 -170v-132l-596 260v93l596 250v-132zM793 36v-110h-656v110h656z" />
    <glyph glyph-name="greaterequal" unicode="&#x2265;" 
d="M167 726l596 -250v-93l-596 -260v132l427 170l-427 169v132zM793 -74h-656v110h656v-110z" />
    <glyph glyph-name="propersubset" unicode="&#x2282;" 
d="M466 10q-184 0 -273 84.5t-89 236.5t89 236.5t273 84.5h360v-140h-360q-105 0 -153.5 -46.5t-48.5 -134.5t48.5 -134.5t153.5 -46.5h360v-140h-360v0z" />
    <glyph glyph-name="propersuperset" unicode="&#x2283;" 
d="M104 10v140h360q105 0 153.5 46.5t48.5 134.5t-48.5 134.5t-153.5 46.5h-360v140h360q184 0 273 -84.5t89 -236.5t-89 -236.5t-273 -84.5h-360z" />
    <glyph glyph-name="reflexsubset" unicode="&#x2286;" 
d="M446 170q-169 0 -255.5 73t-86.5 203t86.5 203t255.5 73h380v-120h-380q-48 0 -86 -12.5t-63.5 -33.5t-39 -49.5t-13.5 -60.5t13.5 -60.5t39 -49.5t63.5 -33.5t86 -12.5h380v-120h-380zM823 46v-120h-656v120h656z" />
    <glyph glyph-name="reflexsuperset" unicode="&#x2287;" 
d="M104 170v120h380q48 0 86 12.5t63.5 33.5t39 49.5t13.5 60.5t-13.5 60.5t-39 49.5t-63.5 33.5t-86 12.5h-380v120h380q169 0 255.5 -73t86.5 -203t-86.5 -203t-255.5 -73h-380zM763 -74h-656v120h656v-120z" />
    <glyph glyph-name="uni2299" unicode="&#x2299;" 
d="M465 -40q-77 0 -144 29t-117.5 79.5t-79.5 117.5t-29 144q0 76 29 143.5t79.5 118t117.5 79.5t144 29q76 0 143.5 -29t118 -79.5t79.5 -118t29 -143.5q0 -77 -29 -144t-79.5 -117.5t-118 -79.5t-143.5 -29zM215 330q0 -52 19.5 -97.5t53.5 -79.5t79.5 -53.5t97.5 -19.5
t97.5 19.5t79.5 53.5t53.5 79.5t19.5 97.5t-19.5 97.5t-53.5 79.5t-79.5 53.5t-97.5 19.5t-97.5 -19.5t-79.5 -53.5t-53.5 -79.5t-19.5 -97.5zM465 219q-51 0 -82 31.5t-31 79.5q0 49 31 81t82 32q50 0 81.5 -32t31.5 -81q0 -48 -31.5 -79.5t-81.5 -31.5z" />
    <glyph glyph-name="uni2299" unicode="&#x25c9;" 
d="M465 -40q-77 0 -144 29t-117.5 79.5t-79.5 117.5t-29 144q0 76 29 143.5t79.5 118t117.5 79.5t144 29q76 0 143.5 -29t118 -79.5t79.5 -118t29 -143.5q0 -77 -29 -144t-79.5 -117.5t-118 -79.5t-143.5 -29zM215 330q0 -52 19.5 -97.5t53.5 -79.5t79.5 -53.5t97.5 -19.5
t97.5 19.5t79.5 53.5t53.5 79.5t19.5 97.5t-19.5 97.5t-53.5 79.5t-79.5 53.5t-97.5 19.5t-97.5 -19.5t-79.5 -53.5t-53.5 -79.5t-19.5 -97.5zM465 219q-51 0 -82 31.5t-31 79.5q0 49 31 81t82 32q50 0 81.5 -32t31.5 -81q0 -48 -31.5 -79.5t-81.5 -31.5z" />
    <glyph glyph-name="perpendicular" unicode="&#x22a5;" 
d="M886 127v-150h-842v150h331v518h180v-518h331z" />
    <glyph glyph-name="uni2312" unicode="&#x2312;" 
d="M89 708q25 19 58.5 36.5t78.5 30.5t103.5 21t135.5 8q76 0 135 -8t104 -21t78 -30.5t59 -36.5v-146q-38 27 -76.5 47t-82.5 33t-97 19.5t-120 6.5t-120 -6.5t-97.5 -19.5t-82.5 -33t-76 -47v146v0z" />
    <glyph glyph-name="uni2460" unicode="&#x2460;" 
d="M465 -136q-93 0 -175 35.5t-143 96.5t-96.5 143t-35.5 175t35.5 175t96.5 143t143 96.5t175 35.5t175 -35.5t143 -96.5t96.5 -143t35.5 -175t-35.5 -175t-96.5 -143t-143 -96.5t-175 -35.5zM63 314q0 -83 31.5 -156.5t86 -128t128 -86t156.5 -31.5t156.5 31.5t128 86
t86 128t31.5 156.5t-31.5 156.5t-86 128t-128 86t-156.5 31.5t-156.5 -31.5t-128 -86t-86 -128t-31.5 -156.5zM424 118v323l-82 -46v80l107 66h75v-423h-100z" />
    <glyph glyph-name="uni2461" unicode="&#x2461;" 
d="M465 -136q-93 0 -175 35.5t-143 96.5t-96.5 143t-35.5 175t35.5 175t96.5 143t143 96.5t175 35.5t175 -35.5t143 -96.5t96.5 -143t35.5 -175t-35.5 -175t-96.5 -143t-143 -96.5t-175 -35.5zM63 314q0 -83 31.5 -156.5t86 -128t128 -86t156.5 -31.5t156.5 31.5t128 86
t86 128t31.5 156.5t-31.5 156.5t-86 128t-128 86t-156.5 31.5t-156.5 -31.5t-128 -86t-86 -128t-31.5 -156.5zM315 118v67l137 122q35 31 54.5 53t19.5 53q0 24 -16 39t-42 15q-29 0 -45.5 -17t-12.5 -47h-90q-2 27 6.5 52.5t27.5 46t47.5 33t67.5 12.5q78 0 117.5 -39.5
t39.5 -96.5q0 -33 -18.5 -62t-58.5 -64l-113 -99q47 0 97 6t89 26v-100h-307z" />
    <glyph glyph-name="uni2462" unicode="&#x2462;" 
d="M465 -136q-93 0 -175 35.5t-143 96.5t-96.5 143t-35.5 175t35.5 175t96.5 143t143 96.5t175 35.5t175 -35.5t143 -96.5t96.5 -143t35.5 -175t-35.5 -175t-96.5 -143t-143 -96.5t-175 -35.5zM63 314q0 -83 31.5 -156.5t86 -128t128 -86t156.5 -31.5t156.5 31.5t128 86
t86 128t31.5 156.5t-31.5 156.5t-86 128t-128 86t-156.5 31.5t-156.5 -31.5t-128 -86t-86 -128t-31.5 -156.5zM410 370h30q39 0 54.5 15.5t15.5 39.5q0 20 -14 32t-37 12q-20 0 -35.5 -10.5t-15.5 -27.5h-87q-1 23 8 44.5t27.5 37.5t46 25.5t62.5 9.5q33 0 60 -9t45.5 -24.5
t29 -36t10.5 -43.5q0 -15 -5 -29.5t-13.5 -27.5t-20 -23t-23.5 -15q33 -10 55 -34.5t22 -66.5q0 -28 -13 -51t-35 -40t-51 -26.5t-60 -9.5q-35 0 -64.5 8t-52 23.5t-35 39.5t-12.5 56h90q0 -21 19.5 -33t44.5 -12q29 0 49 13t20 36q0 28 -24 42.5t-61 14.5h-30v70z" />
    <glyph glyph-name="uni2463" unicode="&#x2463;" 
d="M465 -136q-93 0 -175 35.5t-143 96.5t-96.5 143t-35.5 175t35.5 175t96.5 143t143 96.5t175 35.5t175 -35.5t143 -96.5t96.5 -143t35.5 -175t-35.5 -175t-96.5 -143t-143 -96.5t-175 -35.5zM63 314q0 -83 31.5 -156.5t86 -128t128 -86t156.5 -31.5t156.5 31.5t128 86
t86 128t31.5 156.5t-31.5 156.5t-86 128t-128 86t-156.5 31.5t-156.5 -31.5t-128 -86t-86 -128t-31.5 -156.5zM642 181h-50v-63h-95v63h-203v75l208 285h90v-280h50v-80zM478 461q-2 -53 -28.5 -89t-77.5 -38q26 -1 45.5 -12.5t33 -29.5t20.5 -41.5t7 -49.5q0 26 7 49.5
t20.5 42t33 30t44.5 12.5q-50 2 -76.5 37.5t-28.5 88.5z" />
    <glyph glyph-name="uni2464" unicode="&#x2464;" 
d="M465 -136q-93 0 -175 35.5t-143 96.5t-96.5 143t-35.5 175t35.5 175t96.5 143t143 96.5t175 35.5t175 -35.5t143 -96.5t96.5 -143t35.5 -175t-35.5 -175t-96.5 -143t-143 -96.5t-175 -35.5zM63 314q0 -83 31.5 -156.5t86 -128t128 -86t156.5 -31.5t156.5 31.5t128 86
t86 128t31.5 156.5t-31.5 156.5t-86 128t-128 86t-156.5 31.5t-156.5 -31.5t-128 -86t-86 -128t-31.5 -156.5zM474 110q-32 0 -62 8t-53 25.5t-37.5 44t-14.5 62.5h90q2 -27 23 -42.5t50 -15.5q34 0 51.5 20.5t17.5 49.5q0 31 -20 49t-50 18q-20 0 -38.5 -5.5t-35.5 -15.5
l-56 27v207h263v-80h-164v-68q10 4 27.5 6t28.5 2q27 0 53.5 -9t47 -26.5t33.5 -43t13 -59.5q0 -36 -14.5 -64.5t-38.5 -48.5t-54 -30.5t-60 -10.5z" />
    <glyph glyph-name="uni2465" unicode="&#x2465;" 
d="M465 -136q-93 0 -175 35.5t-143 96.5t-96.5 143t-35.5 175t35.5 175t96.5 143t143 96.5t175 35.5t175 -35.5t143 -96.5t96.5 -143t35.5 -175t-35.5 -175t-96.5 -143t-143 -96.5t-175 -35.5zM63 314q0 -83 31.5 -156.5t86 -128t128 -86t156.5 -31.5t156.5 31.5t128 86
t86 128t31.5 156.5t-31.5 156.5t-86 128t-128 86t-156.5 31.5t-156.5 -31.5t-128 -86t-86 -128t-31.5 -156.5zM472 110q-36 0 -65.5 10.5t-50.5 29t-32.5 43.5t-11.5 54v174q0 29 11.5 52.5t32.5 40t50 25.5t64 9q72 0 112.5 -34.5t40.5 -85.5v-2h-98v2q0 18 -15.5 29
t-39.5 11q-25 0 -42.5 -12t-17.5 -32v-42q9 5 28.5 8t33.5 3q34 0 63.5 -9t51.5 -25t34 -38.5t12 -49.5v-24q0 -29 -11.5 -54t-32.5 -43.5t-51 -29t-66 -10.5zM472 135q2 66 36 91t99 27q-66 1 -99.5 28t-35.5 90q-2 -63 -35.5 -90.5t-99.5 -28.5q33 -1 57.5 -7t41.5 -19.5
t26 -35.5t10 -55z" />
    <glyph glyph-name="uni2466" unicode="&#x2466;" 
d="M465 -136q-93 0 -175 35.5t-143 96.5t-96.5 143t-35.5 175t35.5 175t96.5 143t143 96.5t175 35.5t175 -35.5t143 -96.5t96.5 -143t35.5 -175t-35.5 -175t-96.5 -143t-143 -96.5t-175 -35.5zM63 314q0 -83 31.5 -156.5t86 -128t128 -86t156.5 -31.5t156.5 31.5t128 86
t86 128t31.5 156.5t-31.5 156.5t-86 128t-128 86t-156.5 31.5t-156.5 -31.5t-128 -86t-86 -128t-31.5 -156.5zM388 226q0 38 10.5 74t30 67.5t47.5 55.5t62 38h-236v80h310v-56q-52 -43 -88 -104.5t-36 -144.5v-118h-100v108z" />
    <glyph glyph-name="uni2467" unicode="&#x2467;" 
d="M465 -136q-93 0 -175 35.5t-143 96.5t-96.5 143t-35.5 175t35.5 175t96.5 143t143 96.5t175 35.5t175 -35.5t143 -96.5t96.5 -143t35.5 -175t-35.5 -175t-96.5 -143t-143 -96.5t-175 -35.5zM63 314q0 -83 31.5 -156.5t86 -128t128 -86t156.5 -31.5t156.5 31.5t128 86
t86 128t31.5 156.5t-31.5 156.5t-86 128t-128 86t-156.5 31.5t-156.5 -31.5t-128 -86t-86 -128t-31.5 -156.5zM465 548q73 0 113 -31t40 -89v-3q0 -51 -44 -81q28 -15 43.5 -39t15.5 -58v-5q0 -34 -12.5 -58.5t-34.5 -40.5t-53 -23.5t-68 -7.5t-67.5 7.5t-52.5 23.5
t-34.5 40.5t-12.5 58.5v5q0 34 15.5 58.5t43.5 38.5q-22 14 -33 35.5t-11 45.5v3q0 58 40 89t112 31zM464 528q-1 -20 -12 -36t-28.5 -27.5t-40 -18t-45.5 -6.5q24 -1 46.5 -7t40.5 -17.5t28.5 -28t10.5 -38.5q0 22 10.5 38.5t28 28t40.5 17.5t47 7q-24 0 -46.5 6.5
t-39.5 18t-28 27.5t-12 36zM318 238q24 -2 49 -8.5t46 -19t35 -31t16 -45.5q1 26 14 45.5t33.5 32t45 19t48.5 7.5q-24 1 -48.5 8t-45 20t-33.5 32t-14 44q-2 -25 -16 -44.5t-35 -32.5t-46 -20t-49 -7z" />
    <glyph glyph-name="uni2468" unicode="&#x2468;" 
d="M465 -136q-93 0 -175 35.5t-143 96.5t-96.5 143t-35.5 175t35.5 175t96.5 143t143 96.5t175 35.5t175 -35.5t143 -96.5t96.5 -143t35.5 -175t-35.5 -175t-96.5 -143t-143 -96.5t-175 -35.5zM63 314q0 -83 31.5 -156.5t86 -128t128 -86t156.5 -31.5t156.5 31.5t128 86
t86 128t31.5 156.5t-31.5 156.5t-86 128t-128 86t-156.5 31.5t-156.5 -31.5t-128 -86t-86 -128t-31.5 -156.5zM463 548q36 0 66 -10.5t51 -29t32.5 -43.5t11.5 -54v-173q0 -29 -12 -52t-33 -39.5t-50 -25.5t-63 -9q-72 0 -112.5 34t-40.5 85v3h98v-3q0 -17 15.5 -28
t39.5 -11q25 0 42.5 11.5t17.5 32.5v41q-10 -5 -29.5 -8t-33.5 -3q-34 0 -63.5 9t-51 25t-33.5 38.5t-12 49.5v23q0 29 11.5 54t32.5 43.5t50.5 29t65.5 10.5zM463 523q-2 -65 -36 -90.5t-99 -26.5q67 -2 101 -30t34 -95q0 67 34 95t101 30q-65 1 -99.5 26.5t-35.5 90.5z
" />
    <glyph glyph-name="uni2469" unicode="&#x2469;" 
d="M465 -136q-93 0 -175 35.5t-143 96.5t-96.5 143t-35.5 175t35.5 175t96.5 143t143 96.5t175 35.5t175 -35.5t143 -96.5t96.5 -143t35.5 -175t-35.5 -175t-96.5 -143t-143 -96.5t-175 -35.5zM63 314q0 -83 31.5 -156.5t86 -128t128 -86t156.5 -31.5t156.5 31.5t128 86
t86 128t31.5 156.5t-31.5 156.5t-86 128t-128 86t-156.5 31.5t-156.5 -31.5t-128 -86t-86 -128t-31.5 -156.5zM580 547q75 0 119 -41.5t44 -113.5v-125q0 -72 -44 -113.5t-119 -41.5q-74 0 -118 41.5t-44 113.5v125q0 72 44 113.5t118 41.5zM277 118v323l-82 -46v80l107 66
h75v-423h-100zM580 528q-1 -39 -12 -74.5t-30 -62.5t-44.5 -43.5t-55.5 -17.5q31 -2 57 -19.5t45 -45.5t29.5 -64.5t10.5 -76.5q0 40 10.5 76.5t29.5 64.5t45 45.5t57 19.5q-30 1 -56 17.5t-44.5 43.5t-29.5 62.5t-12 74.5z" />
    <glyph glyph-name="uni246A" unicode="&#x246a;" 
d="M465 -136q-93 0 -175 35.5t-143 96.5t-96.5 143t-35.5 175t35.5 175t96.5 143t143 96.5t175 35.5t175 -35.5t143 -96.5t96.5 -143t35.5 -175t-35.5 -175t-96.5 -143t-143 -96.5t-175 -35.5zM63 314q0 -83 31.5 -156.5t86 -128t128 -86t156.5 -31.5t156.5 31.5t128 86
t86 128t31.5 156.5t-31.5 156.5t-86 128t-128 86t-156.5 31.5t-156.5 -31.5t-128 -86t-86 -128t-31.5 -156.5zM560 118v323l-82 -46v80l107 66h75v-423h-100zM287 118v323l-82 -46v80l107 66h75v-423h-100z" />
    <glyph glyph-name="uni246B" unicode="&#x246b;" 
d="M465 -136q-93 0 -175 35.5t-143 96.5t-96.5 143t-35.5 175t35.5 175t96.5 143t143 96.5t175 35.5t175 -35.5t143 -96.5t96.5 -143t35.5 -175t-35.5 -175t-96.5 -143t-143 -96.5t-175 -35.5zM63 314q0 -83 31.5 -156.5t86 -128t128 -86t156.5 -31.5t156.5 31.5t128 86
t86 128t31.5 156.5t-31.5 156.5t-86 128t-128 86t-156.5 31.5t-156.5 -31.5t-128 -86t-86 -128t-31.5 -156.5zM411 118v67l137 122q35 31 54.5 53t19.5 53q0 24 -16 39t-42 15q-29 0 -45.5 -17t-12.5 -47h-90q-2 27 6.5 52.5t27.5 46t47.5 33t67.5 12.5q78 0 117.5 -39.5
t39.5 -96.5q0 -33 -18.5 -62t-58.5 -64l-113 -99q47 0 97 6t89 26v-100h-307zM277 118v323l-82 -46v80l107 66h75v-423h-100z" />
    <glyph glyph-name="uni246C" unicode="&#x246c;" 
d="M465 -136q-93 0 -175 35.5t-143 96.5t-96.5 143t-35.5 175t35.5 175t96.5 143t143 96.5t175 35.5t175 -35.5t143 -96.5t96.5 -143t35.5 -175t-35.5 -175t-96.5 -143t-143 -96.5t-175 -35.5zM63 314q0 -83 31.5 -156.5t86 -128t128 -86t156.5 -31.5t156.5 31.5t128 86
t86 128t31.5 156.5t-31.5 156.5t-86 128t-128 86t-156.5 31.5t-156.5 -31.5t-128 -86t-86 -128t-31.5 -156.5zM511 370h37q35 2 49 17t14 38q0 20 -14 32t-37 12q-20 0 -35.5 -10.5t-15.5 -27.5h-87q-1 23 8 44.5t27.5 37.5t46 25.5t62.5 9.5q33 0 60 -9t45.5 -24.5t29 -36
t10.5 -43.5q0 -15 -5 -29.5t-13.5 -27.5t-20 -23t-23.5 -15q33 -10 55 -34.5t22 -66.5q0 -28 -13 -51t-35 -40t-51 -26.5t-60 -9.5q-35 0 -64.5 8t-52 23.5t-35 39.5t-12.5 56h90q0 -21 19.5 -33t44.5 -12q29 0 49 13t20 36q0 26 -22 40.5t-56 16.5h-37v70zM277 118v323
l-82 -46v80l107 66h75v-423h-100z" />
    <glyph glyph-name="uni246D" unicode="&#x246d;" 
d="M465 -136q-93 0 -175 35.5t-143 96.5t-96.5 143t-35.5 175t35.5 175t96.5 143t143 96.5t175 35.5t175 -35.5t143 -96.5t96.5 -143t35.5 -175t-35.5 -175t-96.5 -143t-143 -96.5t-175 -35.5zM63 314q0 -83 31.5 -156.5t86 -128t128 -86t156.5 -31.5t156.5 31.5t128 86
t86 128t31.5 156.5t-31.5 156.5t-86 128t-128 86t-156.5 31.5t-156.5 -31.5t-128 -86t-86 -128t-31.5 -156.5zM753 181h-50v-63h-95v63h-203v75l208 285h90v-280h50v-80zM277 118v323l-82 -46v80l107 66h75v-423h-100zM589 461q-2 -53 -28.5 -89t-77.5 -38q26 -1 45.5 -12.5
t33 -29.5t20.5 -41.5t7 -49.5q0 26 7 49.5t20.5 42t33 30t44.5 12.5q-50 2 -76.5 37.5t-28.5 88.5z" />
    <glyph glyph-name="uni246E" unicode="&#x246e;" 
d="M465 -136q-93 0 -175 35.5t-143 96.5t-96.5 143t-35.5 175t35.5 175t96.5 143t143 96.5t175 35.5t175 -35.5t143 -96.5t96.5 -143t35.5 -175t-35.5 -175t-96.5 -143t-143 -96.5t-175 -35.5zM63 314q0 -83 31.5 -156.5t86 -128t128 -86t156.5 -31.5t156.5 31.5t128 86
t86 128t31.5 156.5t-31.5 156.5t-86 128t-128 86t-156.5 31.5t-156.5 -31.5t-128 -86t-86 -128t-31.5 -156.5zM575 110q-32 0 -62 8t-53 25.5t-37.5 44t-14.5 62.5h90q2 -27 23 -42.5t50 -15.5q34 0 51.5 20.5t17.5 49.5q0 31 -20 49t-50 18q-20 0 -38.5 -5.5t-35.5 -15.5
l-56 27v207h263v-80h-164v-68q10 4 27.5 6t28.5 2q27 0 53.5 -9t47 -26.5t33.5 -43t13 -59.5q0 -36 -14.5 -64.5t-38.5 -48.5t-54 -30.5t-60 -10.5zM277 118v323l-82 -46v80l107 66h75v-423h-100z" />
    <glyph glyph-name="uni2474" unicode="&#x2474;" 
d="M15 314q0 120 36 225.5t98 197.5h44q-26 -44 -46 -99t-33 -113t-19.5 -113t-6.5 -98t6.5 -98t19.5 -112.5t33 -113t46 -98.5h-44q-62 92 -98 197.5t-36 224.5zM915 314q0 -119 -35.5 -224.5t-97.5 -197.5h-45q27 43 46.5 98.5t32.5 113t19.5 112.5t6.5 98t-6.5 98
t-19.5 113t-32.5 113t-46.5 99h45q62 -92 97.5 -197.5t35.5 -225.5zM424 118v323l-82 -46v80l107 66h75v-423h-100z" />
    <glyph glyph-name="uni2475" unicode="&#x2475;" 
d="M15 314q0 120 36 225.5t98 197.5h44q-26 -44 -46 -99t-33 -113t-19.5 -113t-6.5 -98t6.5 -98t19.5 -112.5t33 -113t46 -98.5h-44q-62 92 -98 197.5t-36 224.5zM915 314q0 -119 -35.5 -224.5t-97.5 -197.5h-45q27 43 46.5 98.5t32.5 113t19.5 112.5t6.5 98t-6.5 98
t-19.5 113t-32.5 113t-46.5 99h45q62 -92 97.5 -197.5t35.5 -225.5zM315 118v67l137 122q35 31 54.5 53t19.5 53q0 24 -16 39t-42 15q-29 0 -45.5 -17t-12.5 -47h-90q-2 27 6.5 52.5t27.5 46t47.5 33t67.5 12.5q78 0 117.5 -39.5t39.5 -96.5q0 -33 -18.5 -62t-58.5 -64
l-113 -99q47 0 97 6t89 26v-100h-307z" />
    <glyph glyph-name="uni2476" unicode="&#x2476;" 
d="M915 314q0 -119 -35.5 -224.5t-97.5 -197.5h-45q27 43 46.5 98.5t32.5 113t19.5 112.5t6.5 98t-6.5 98t-19.5 113t-32.5 113t-46.5 99h45q62 -92 97.5 -197.5t35.5 -225.5zM15 314q0 120 36 225.5t98 197.5h44q-26 -44 -46 -99t-33 -113t-19.5 -113t-6.5 -98t6.5 -98
t19.5 -112.5t33 -113t46 -98.5h-44q-62 92 -98 197.5t-36 224.5zM410 370h30q39 0 54.5 15.5t15.5 39.5q0 20 -14 32t-37 12q-20 0 -35.5 -10.5t-15.5 -27.5h-87q-1 23 8 44.5t27.5 37.5t46 25.5t62.5 9.5q33 0 60 -9t45.5 -24.5t29 -36t10.5 -43.5q0 -15 -5 -29.5
t-13.5 -27.5t-20 -23t-23.5 -15q33 -10 55 -34.5t22 -66.5q0 -28 -13 -51t-35 -40t-51 -26.5t-60 -9.5q-35 0 -64.5 8t-52 23.5t-35 39.5t-12.5 56h90q0 -21 19.5 -33t44.5 -12q29 0 49 13t20 36q0 28 -24 42.5t-61 14.5h-30v70z" />
    <glyph glyph-name="uni2477" unicode="&#x2477;" 
d="M915 314q0 -119 -35.5 -224.5t-97.5 -197.5h-45q27 43 46.5 98.5t32.5 113t19.5 112.5t6.5 98t-6.5 98t-19.5 113t-32.5 113t-46.5 99h45q62 -92 97.5 -197.5t35.5 -225.5zM15 314q0 120 36 225.5t98 197.5h44q-26 -44 -46 -99t-33 -113t-19.5 -113t-6.5 -98t6.5 -98
t19.5 -112.5t33 -113t46 -98.5h-44q-62 92 -98 197.5t-36 224.5zM642 181h-50v-63h-95v63h-203v75l208 285h90v-280h50v-80zM478 461q-2 -53 -28.5 -89t-77.5 -38q25 -1 44.5 -12t33 -28t20.5 -40t8 -48q1 25 8 48t20.5 40.5t32.5 28.5t44 12q-50 2 -76.5 37.5t-28.5 88.5z
" />
    <glyph glyph-name="uni2478" unicode="&#x2478;" 
d="M15 314q0 120 36 225.5t98 197.5h44q-26 -44 -46 -99t-33 -113t-19.5 -113t-6.5 -98t6.5 -98t19.5 -112.5t33 -113t46 -98.5h-44q-62 92 -98 197.5t-36 224.5zM915 314q0 -119 -35.5 -224.5t-97.5 -197.5h-45q27 43 46.5 98.5t32.5 113t19.5 112.5t6.5 98t-6.5 98
t-19.5 113t-32.5 113t-46.5 99h45q62 -92 97.5 -197.5t35.5 -225.5zM474 110q-32 0 -62 8t-53 25.5t-37.5 44t-14.5 62.5h90q2 -27 23 -42.5t50 -15.5q34 0 51.5 20.5t17.5 49.5q0 31 -20 49t-50 18q-20 0 -38.5 -5.5t-35.5 -15.5l-56 27v207h263v-80h-164v-68q10 4 27.5 6
t28.5 2q27 0 53.5 -9t47 -26.5t33.5 -43t13 -59.5q0 -36 -14.5 -64.5t-38.5 -48.5t-54 -30.5t-60 -10.5z" />
    <glyph glyph-name="uni2479" unicode="&#x2479;" 
d="M915 314q0 -119 -35.5 -224.5t-97.5 -197.5h-45q27 43 46.5 98.5t32.5 113t19.5 112.5t6.5 98t-6.5 98t-19.5 113t-32.5 113t-46.5 99h45q62 -92 97.5 -197.5t35.5 -225.5zM15 314q0 120 36 225.5t98 197.5h44q-26 -44 -46 -99t-33 -113t-19.5 -113t-6.5 -98t6.5 -98
t19.5 -112.5t33 -113t46 -98.5h-44q-62 92 -98 197.5t-36 224.5zM472 110q-36 0 -65.5 10.5t-50.5 29t-32.5 43.5t-11.5 54v174q0 29 11.5 52.5t32.5 40t50 25.5t64 9q72 0 112.5 -34.5t40.5 -85.5v-2h-98v2q0 18 -15.5 29t-39.5 11q-25 0 -42.5 -12t-17.5 -32v-42
q9 5 28.5 8t33.5 3q34 0 63.5 -9t51.5 -25t34 -38.5t12 -49.5v-24q0 -29 -11.5 -54t-32.5 -43.5t-51 -29t-66 -10.5zM472 128q0 69 34 96t101 29q-66 1 -99.5 28t-35.5 90q-2 -63 -35.5 -90.5t-99.5 -28.5q33 -1 58.5 -7.5t42.5 -21t25.5 -38t8.5 -57.5z" />
    <glyph glyph-name="uni247A" unicode="&#x247a;" 
d="M15 314q0 120 36 225.5t98 197.5h44q-26 -44 -46 -99t-33 -113t-19.5 -113t-6.5 -98t6.5 -98t19.5 -112.5t33 -113t46 -98.5h-44q-62 92 -98 197.5t-36 224.5zM915 314q0 -119 -35.5 -224.5t-97.5 -197.5h-45q27 43 46.5 98.5t32.5 113t19.5 112.5t6.5 98t-6.5 98
t-19.5 113t-32.5 113t-46.5 99h45q62 -92 97.5 -197.5t35.5 -225.5zM388 226q0 38 10.5 74t30 67.5t47.5 55.5t62 38h-236v80h310v-56q-52 -43 -88 -104.5t-36 -144.5v-118h-100v108z" />
    <glyph glyph-name="uni247B" unicode="&#x247b;" 
d="M915 314q0 -119 -35.5 -224.5t-97.5 -197.5h-45q27 43 46.5 98.5t32.5 113t19.5 112.5t6.5 98t-6.5 98t-19.5 113t-32.5 113t-46.5 99h45q62 -92 97.5 -197.5t35.5 -225.5zM15 314q0 120 36 225.5t98 197.5h44q-26 -44 -46 -99t-33 -113t-19.5 -113t-6.5 -98t6.5 -98
t19.5 -112.5t33 -113t46 -98.5h-44q-62 92 -98 197.5t-36 224.5zM465 548q73 0 113 -31t40 -89v-3q0 -51 -44 -81q28 -15 43.5 -39t15.5 -58v-5q0 -34 -12.5 -58.5t-34.5 -40.5t-53 -23.5t-68 -7.5t-67.5 7.5t-52.5 23.5t-34.5 40.5t-12.5 58.5v5q0 34 15.5 58.5t43.5 38.5
q-22 14 -33 35.5t-11 45.5v3q0 58 40 89t112 31zM464 528q-1 -20 -12 -36t-28.5 -27.5t-40 -18t-45.5 -6.5q24 -1 46.5 -7t40.5 -17.5t28.5 -28t10.5 -38.5q0 22 10.5 38.5t28 28t40.5 17.5t47 7q-24 0 -46.5 6.5t-39.5 18t-28 27.5t-12 36zM318 238q24 -2 49 -8.5t46 -19
t35 -31t16 -45.5q1 26 14 45.5t33.5 32t45 19t48.5 7.5q-24 1 -48.5 8t-45 20t-33.5 32t-14 44q-2 -25 -16 -44.5t-35 -32.5t-46 -20t-49 -7z" />
    <glyph glyph-name="uni247C" unicode="&#x247c;" 
d="M915 314q0 -119 -35.5 -224.5t-97.5 -197.5h-45q27 43 46.5 98.5t32.5 113t19.5 112.5t6.5 98t-6.5 98t-19.5 113t-32.5 113t-46.5 99h45q62 -92 97.5 -197.5t35.5 -225.5zM15 314q0 120 36 225.5t98 197.5h44q-26 -44 -46 -99t-33 -113t-19.5 -113t-6.5 -98t6.5 -98
t19.5 -112.5t33 -113t46 -98.5h-44q-62 92 -98 197.5t-36 224.5zM463 548q36 0 66 -10.5t51 -29t32.5 -43.5t11.5 -54v-173q0 -29 -12 -52t-33 -39.5t-50 -25.5t-63 -9q-72 0 -112.5 34t-40.5 85v3h98v-3q0 -17 15.5 -28t39.5 -11q25 0 42.5 11.5t17.5 32.5v41
q-10 -5 -29.5 -8t-33.5 -3q-34 0 -63.5 9t-51 25t-33.5 38.5t-12 49.5v23q0 29 11.5 54t32.5 43.5t50.5 29t65.5 10.5zM463 523q-2 -65 -36 -90.5t-99 -26.5q67 -2 101 -30t34 -95q0 67 34 95t101 30q-65 1 -99.5 26.5t-35.5 90.5z" />
    <glyph glyph-name="uni247D" unicode="&#x247d;" 
d="M915 314q0 -119 -35.5 -224.5t-97.5 -197.5h-45q27 43 46.5 98.5t32.5 113t19.5 112.5t6.5 98t-6.5 98t-19.5 113t-32.5 113t-46.5 99h45q62 -92 97.5 -197.5t35.5 -225.5zM15 314q0 120 36 225.5t98 197.5h44q-26 -44 -46 -99t-33 -113t-19.5 -113t-6.5 -98t6.5 -98
t19.5 -112.5t33 -113t46 -98.5h-44q-62 92 -98 197.5t-36 224.5zM580 547q75 0 119 -41.5t44 -113.5v-125q0 -72 -44 -113.5t-119 -41.5q-74 0 -118 41.5t-44 113.5v125q0 72 44 113.5t118 41.5zM277 118v323l-82 -46v80l107 66h75v-423h-100zM580 528q-1 -39 -12 -74.5
t-30 -62.5t-44.5 -43.5t-55.5 -17.5q31 -2 57 -19.5t45 -45.5t29.5 -64.5t10.5 -76.5q0 40 10.5 76.5t29.5 64.5t45 45.5t57 19.5q-30 1 -56 17.5t-44.5 43.5t-29.5 62.5t-12 74.5z" />
    <glyph glyph-name="uni247E" unicode="&#x247e;" 
d="M15 314q0 120 36 225.5t98 197.5h44q-26 -44 -46 -99t-33 -113t-19.5 -113t-6.5 -98t6.5 -98t19.5 -112.5t33 -113t46 -98.5h-44q-62 92 -98 197.5t-36 224.5zM915 314q0 -119 -35.5 -224.5t-97.5 -197.5h-45q27 43 46.5 98.5t32.5 113t19.5 112.5t6.5 98t-6.5 98
t-19.5 113t-32.5 113t-46.5 99h45q62 -92 97.5 -197.5t35.5 -225.5zM560 118v323l-82 -46v80l107 66h75v-423h-100zM287 118v323l-82 -46v80l107 66h75v-423h-100z" />
    <glyph glyph-name="uni247F" unicode="&#x247f;" 
d="M15 314q0 120 36 225.5t98 197.5h44q-26 -44 -46 -99t-33 -113t-19.5 -113t-6.5 -98t6.5 -98t19.5 -112.5t33 -113t46 -98.5h-44q-62 92 -98 197.5t-36 224.5zM915 314q0 -119 -35.5 -224.5t-97.5 -197.5h-45q27 43 46.5 98.5t32.5 113t19.5 112.5t6.5 98t-6.5 98
t-19.5 113t-32.5 113t-46.5 99h45q62 -92 97.5 -197.5t35.5 -225.5zM411 118v67l137 122q35 31 54.5 53t19.5 53q0 24 -16 39t-42 15q-29 0 -45.5 -17t-12.5 -47h-90q-2 27 6.5 52.5t27.5 46t47.5 33t67.5 12.5q78 0 117.5 -39.5t39.5 -96.5q0 -33 -18.5 -62t-58.5 -64
l-113 -99q47 0 97 6t89 26v-100h-307zM277 118v323l-82 -46v80l107 66h75v-423h-100z" />
    <glyph glyph-name="uni2480" unicode="&#x2480;" 
d="M915 314q0 -119 -35.5 -224.5t-97.5 -197.5h-45q27 43 46.5 98.5t32.5 113t19.5 112.5t6.5 98t-6.5 98t-19.5 113t-32.5 113t-46.5 99h45q62 -92 97.5 -197.5t35.5 -225.5zM15 314q0 120 36 225.5t98 197.5h44q-26 -44 -46 -99t-33 -113t-19.5 -113t-6.5 -98t6.5 -98
t19.5 -112.5t33 -113t46 -98.5h-44q-62 92 -98 197.5t-36 224.5zM511 370h37q35 2 49 17t14 38q0 20 -14 32t-37 12q-20 0 -35.5 -10.5t-15.5 -27.5h-87q-1 23 8 44.5t27.5 37.5t46 25.5t62.5 9.5q33 0 60 -9t45.5 -24.5t29 -36t10.5 -43.5q0 -15 -5 -29.5t-13.5 -27.5
t-20 -23t-23.5 -15q33 -10 55 -34.5t22 -66.5q0 -28 -13 -51t-35 -40t-51 -26.5t-60 -9.5q-35 0 -64.5 8t-52 23.5t-35 39.5t-12.5 56h90q0 -21 19.5 -33t44.5 -12q29 0 49 13t20 36q0 28 -24 42.5t-61 14.5h-30v70zM277 118v323l-82 -46v80l107 66h75v-423h-100z" />
    <glyph glyph-name="uni2481" unicode="&#x2481;" 
d="M915 314q0 -119 -35.5 -224.5t-97.5 -197.5h-45q27 43 46.5 98.5t32.5 113t19.5 112.5t6.5 98t-6.5 98t-19.5 113t-32.5 113t-46.5 99h45q62 -92 97.5 -197.5t35.5 -225.5zM15 314q0 120 36 225.5t98 197.5h44q-26 -44 -46 -99t-33 -113t-19.5 -113t-6.5 -98t6.5 -98
t19.5 -112.5t33 -113t46 -98.5h-44q-62 92 -98 197.5t-36 224.5zM753 181h-50v-63h-95v63h-203v75l208 285h90v-280h50v-80zM277 118v323l-82 -46v80l107 66h75v-423h-100zM589 461q-2 -53 -28.5 -89t-77.5 -38q25 -1 44.5 -12t33 -28t20.5 -40t8 -48q1 25 8 48t20.5 40.5
t32.5 28.5t44 12q-50 2 -76.5 37.5t-28.5 88.5z" />
    <glyph glyph-name="uni2482" unicode="&#x2482;" 
d="M15 314q0 120 36 225.5t98 197.5h44q-26 -44 -46 -99t-33 -113t-19.5 -113t-6.5 -98t6.5 -98t19.5 -112.5t33 -113t46 -98.5h-44q-62 92 -98 197.5t-36 224.5zM915 314q0 -119 -35.5 -224.5t-97.5 -197.5h-45q27 43 46.5 98.5t32.5 113t19.5 112.5t6.5 98t-6.5 98
t-19.5 113t-32.5 113t-46.5 99h45q62 -92 97.5 -197.5t35.5 -225.5zM575 110q-32 0 -62 8t-53 25.5t-37.5 44t-14.5 62.5h90q2 -27 23 -42.5t50 -15.5q34 0 51.5 20.5t17.5 49.5q0 31 -20 49t-50 18q-20 0 -38.5 -5.5t-35.5 -15.5l-56 27v207h263v-80h-164v-68q10 4 27.5 6
t28.5 2q27 0 53.5 -9t47 -26.5t33.5 -43t13 -59.5q0 -36 -14.5 -64.5t-38.5 -48.5t-54 -30.5t-60 -10.5zM277 118v323l-82 -46v80l107 66h75v-423h-100z" />
    <glyph glyph-name="uni249C" unicode="&#x249c;" 
d="M915 314q0 -119 -35.5 -224.5t-97.5 -197.5h-45q27 43 46.5 98.5t32.5 113t19.5 112.5t6.5 98t-6.5 98t-19.5 113t-32.5 113t-46.5 99h45q62 -92 97.5 -197.5t35.5 -225.5zM15 314q0 120 36 225.5t98 197.5h44q-26 -44 -46 -99t-33 -113t-19.5 -113t-6.5 -98t6.5 -98
t19.5 -112.5t33 -113t46 -98.5h-44q-62 92 -98 197.5t-36 224.5zM413 103q-33 0 -62.5 8t-51 23t-34 37.5t-12.5 51.5q0 61 40 98.5t139 48.5l98 11v9q0 25 -20 35t-52 10q-31 0 -48 -10.5t-17 -27.5v-7h-127v13q0 26 13.5 49t38.5 40t60.5 27t79.5 10q42 0 78.5 -10.5
t63.5 -29t42 -44t15 -55.5v-279h-121v24q-18 -13 -51.5 -22.5t-71.5 -9.5zM452 124q0 22 10 42.5t26.5 36t38 25.5t45.5 11q-23 1 -44.5 10t-38 24.5t-26.5 36t-11 43.5q-1 -23 -11.5 -43.5t-27 -36t-38 -24.5t-43.5 -10q23 -1 45 -11t38.5 -25.5t26.5 -36t10 -42.5z" />
    <glyph glyph-name="uni249D" unicode="&#x249d;" 
d="M915 314q0 -119 -35.5 -224.5t-97.5 -197.5h-45q27 43 46.5 98.5t32.5 113t19.5 112.5t6.5 98t-6.5 98t-19.5 113t-32.5 113t-46.5 99h45q62 -92 97.5 -197.5t35.5 -225.5zM15 314q0 120 36 225.5t98 197.5h44q-26 -44 -46 -99t-33 -113t-19.5 -113t-6.5 -98t6.5 -98
t19.5 -112.5t33 -113t46 -98.5h-44q-62 92 -98 197.5t-36 224.5zM414 614v-140h97q45 0 81 -15t60.5 -42t38 -64t13.5 -80q0 -44 -12.5 -82t-37 -66.5t-60.5 -45t-83 -16.5h-225v551h128zM499 452q-2 -87 -40.5 -134t-122.5 -49q87 -2 125 -50.5t38 -144.5q0 96 37.5 144
t124.5 50q-84 2 -122.5 49.5t-39.5 134.5z" />
    <glyph glyph-name="uni249E" unicode="&#x249e;" 
d="M15 314q0 120 36 225.5t98 197.5h44q-26 -44 -46 -99t-33 -113t-19.5 -113t-6.5 -98t6.5 -98t19.5 -112.5t33 -113t46 -98.5h-44q-62 92 -98 197.5t-36 224.5zM915 314q0 -119 -35.5 -224.5t-97.5 -197.5h-45q27 43 46.5 98.5t32.5 113t19.5 112.5t6.5 98t-6.5 98
t-19.5 113t-32.5 113t-46.5 99h45q62 -92 97.5 -197.5t35.5 -225.5zM670 287v-26q0 -30 -13 -58.5t-38.5 -50.5t-64 -35.5t-89.5 -13.5q-46 0 -84 12.5t-65 36t-41.5 56t-14.5 73.5v72q0 40 14.5 73t41.5 56.5t65 36t84 12.5q48 0 86.5 -13.5t64.5 -35.5t40 -50.5t14 -58.5
v-20h-127v13q0 25 -21 45t-57 20t-57 -24.5t-21 -59.5v-60q0 -35 21 -59.5t57 -24.5t57 20t21 45v19h127z" />
    <glyph glyph-name="uni249F" unicode="&#x249f;" 
d="M915 314q0 -119 -35.5 -224.5t-97.5 -197.5h-45q27 43 46.5 98.5t32.5 113t19.5 112.5t6.5 98t-6.5 98t-19.5 113t-32.5 113t-46.5 99h45q62 -92 97.5 -197.5t35.5 -225.5zM15 314q0 120 36 225.5t98 197.5h44q-26 -44 -46 -99t-33 -113t-19.5 -113t-6.5 -98t6.5 -98
t19.5 -112.5t33 -113t46 -98.5h-44q-62 92 -98 197.5t-36 224.5zM644 613v-551h-225q-47 0 -83 16.5t-60.5 45t-37 66.5t-12.5 82q0 43 13.5 80t38 64t60.5 42t81 15h97v140h128zM431 82q2 92 40 138t123 48q-85 2 -123 48.5t-40 134.5q-2 -87 -40.5 -134.5t-122.5 -49.5
q84 -2 122.5 -48t40.5 -137z" />
    <glyph glyph-name="uni24A0" unicode="&#x24a0;" 
d="M915 314q0 -119 -35.5 -224.5t-97.5 -197.5h-45q27 43 46.5 98.5t32.5 113t19.5 112.5t6.5 98t-6.5 98t-19.5 113t-32.5 113t-46.5 99h45q62 -92 97.5 -197.5t35.5 -225.5zM15 314q0 120 36 225.5t98 197.5h44q-26 -44 -46 -99t-33 -113t-19.5 -113t-6.5 -98t6.5 -98
t19.5 -112.5t33 -113t46 -98.5h-44q-62 92 -98 197.5t-36 224.5zM384 269q0 -35 24.5 -53t56.5 -18q35 0 55 8t20 24v12h127v-19q0 -26 -15.5 -48t-42.5 -38.5t-64 -25.5t-80 -9q-45 0 -83 13t-66 36t-44 54.5t-16 69.5v78q0 40 16 73t44 56.5t66 36t83 12.5t83 -12.5
t66 -36t44 -56.5t16 -73v-82h-290v-2zM471 314q2 42 27 65t69 25q-44 2 -69 22t-27 65q-2 -45 -29.5 -65.5t-71.5 -22.5q44 -2 71.5 -24.5t29.5 -64.5z" />
    <glyph glyph-name="uni24A1" unicode="&#x24a1;" 
d="M915 314q0 -119 -35.5 -224.5t-97.5 -197.5h-45q27 43 46.5 98.5t32.5 113t19.5 112.5t6.5 98t-6.5 98t-19.5 113t-32.5 113t-46.5 99h45q62 -92 97.5 -197.5t35.5 -225.5zM15 314q0 120 36 225.5t98 197.5h44q-26 -44 -46 -99t-33 -113t-19.5 -113t-6.5 -98t6.5 -98
t19.5 -112.5t33 -113t46 -98.5h-44q-62 92 -98 197.5t-36 224.5zM585 520h-32q-21 0 -34.5 -12.5t-13.5 -44.5v-21h83v-104h-83v-316h-127v316h-56v104h56v17q0 33 8 63t26 52.5t48 36t74 13.5h51v-104z" />
    <glyph glyph-name="uni24A2" unicode="&#x24a2;" 
d="M915 314q0 -119 -35.5 -224.5t-97.5 -197.5h-45q27 43 46.5 98.5t32.5 113t19.5 112.5t6.5 98t-6.5 98t-19.5 113t-32.5 113t-46.5 99h45q62 -92 97.5 -197.5t35.5 -225.5zM15 314q0 120 36 225.5t98 197.5h44q-26 -44 -46 -99t-33 -113t-19.5 -113t-6.5 -98t6.5 -98
t19.5 -112.5t33 -113t46 -98.5h-44q-62 92 -98 197.5t-36 224.5zM465 601q47 0 86.5 -13.5t68 -37.5t44.5 -56.5t16 -70.5v-248q0 -30 -16.5 -57.5t-45 -48.5t-67 -33.5t-83.5 -12.5q-47 0 -84.5 11t-64.5 30t-41.5 44t-14.5 54v16h127v-10q0 -20 21 -32.5t57 -12.5
q38 0 61.5 17t23.5 41v26q-6 -4 -17 -7t-24 -4.5t-25.5 -2.5t-21.5 -1q-45 0 -84 13.5t-68 36.5t-46 54t-17 67v60q0 38 16 70.5t44.5 56.5t68 37.5t86.5 13.5zM465 218q2 88 40 132.5t123 46.5q-85 2 -123 44t-40 133q-2 -91 -40 -133.5t-123 -44.5q84 -2 122.5 -46.5
t40.5 -131.5z" />
    <glyph glyph-name="uni24A3" unicode="&#x24a3;" 
d="M15 314q0 120 36 225.5t98 197.5h44q-26 -44 -46 -99t-33 -113t-19.5 -113t-6.5 -98t6.5 -98t19.5 -112.5t33 -113t46 -98.5h-44q-62 92 -98 197.5t-36 224.5zM915 314q0 -119 -35.5 -224.5t-97.5 -197.5h-45q27 43 46.5 98.5t32.5 113t19.5 112.5t6.5 98t-6.5 98
t-19.5 113t-32.5 113t-46.5 99h45q62 -92 97.5 -197.5t35.5 -225.5zM496 468q86 16 132.5 -19t46.5 -125v-262h-127v249q0 39 -18 52t-53 5l-55 -13v-293h-127v551h127v-158z" />
    <glyph glyph-name="uni24A4" unicode="&#x24a4;" 
d="M15 314q0 120 36 225.5t98 197.5h44q-26 -44 -46 -99t-33 -113t-19.5 -113t-6.5 -98t6.5 -98t19.5 -112.5t33 -113t46 -98.5h-44q-62 92 -98 197.5t-36 224.5zM915 314q0 -119 -35.5 -224.5t-97.5 -197.5h-45q27 43 46.5 98.5t32.5 113t19.5 112.5t6.5 98t-6.5 98
t-19.5 113t-32.5 113t-46.5 99h45q62 -92 97.5 -197.5t35.5 -225.5zM465 491q-32 0 -51 21t-19 50q0 31 19 52t51 21q31 0 50.5 -21t19.5 -52q0 -29 -19.5 -50t-50.5 -21zM401 443h128v-412h-128v412z" />
    <glyph glyph-name="uni24A5" unicode="&#x24a5;" 
d="M15 314q0 120 36 225.5t98 197.5h44q-26 -44 -46 -99t-33 -113t-19.5 -113t-6.5 -98t6.5 -98t19.5 -112.5t33 -113t46 -98.5h-44q-62 92 -98 197.5t-36 224.5zM915 314q0 -119 -35.5 -224.5t-97.5 -197.5h-45q27 43 46.5 98.5t32.5 113t19.5 112.5t6.5 98t-6.5 98
t-19.5 113t-32.5 113t-46.5 99h45q62 -92 97.5 -197.5t35.5 -225.5zM466 541q-31 0 -50.5 21t-19.5 50q0 30 19.5 51.5t50.5 21.5t51 -21.5t20 -51.5q0 -29 -20 -50t-51 -21zM323 27h30q23 0 36.5 14.5t13.5 46.5v404h127v-395q0 -35 -7 -66.5t-24 -55.5t-46 -38t-73 -14
h-57v104z" />
    <glyph glyph-name="uni24A6" unicode="&#x24a6;" 
d="M915 314q0 -119 -35.5 -224.5t-97.5 -197.5h-45q27 43 46.5 98.5t32.5 113t19.5 112.5t6.5 98t-6.5 98t-19.5 113t-32.5 113t-46.5 99h45q62 -92 97.5 -197.5t35.5 -225.5zM15 314q0 120 36 225.5t98 197.5h44q-26 -44 -46 -99t-33 -113t-19.5 -113t-6.5 -98t6.5 -98
t19.5 -112.5t33 -113t46 -98.5h-44q-62 92 -98 197.5t-36 224.5zM413 338l131 134h143l-161 -167l177 -244h-143l-113 162l-34 -36v-126h-127v551h127v-274z" />
    <glyph glyph-name="uni24A7" unicode="&#x24a7;" 
d="M915 314q0 -119 -35.5 -224.5t-97.5 -197.5h-45q27 43 46.5 98.5t32.5 113t19.5 112.5t6.5 98t-6.5 98t-19.5 113t-32.5 113t-46.5 99h45q62 -92 97.5 -197.5t35.5 -225.5zM15 314q0 120 36 225.5t98 197.5h44q-26 -44 -46 -99t-33 -113t-19.5 -113t-6.5 -98t6.5 -98
t19.5 -112.5t33 -113t46 -98.5h-44q-62 92 -98 197.5t-36 224.5zM510 158q1 -15 8.5 -20.5t21.5 -5.5h26v-104h-33q-80 0 -115 36.5t-35 97.5v425h127v-429z" />
    <glyph glyph-name="uni24A8" unicode="&#x24a8;" 
d="M915 314q0 -119 -35.5 -224.5t-97.5 -197.5h-45q27 43 46.5 98.5t32.5 113t19.5 112.5t6.5 98t-6.5 98t-19.5 113t-32.5 113t-46.5 99h45q62 -92 97.5 -197.5t35.5 -225.5zM15 314q0 120 36 225.5t98 197.5h44q-26 -44 -46 -99t-33 -113t-19.5 -113t-6.5 -98t6.5 -98
t19.5 -112.5t33 -113t46 -98.5h-44q-62 92 -98 197.5t-36 224.5zM341 505q96 24 147 -27q21 10 43.5 17.5t42.5 11.5q90 17 144 -20t54 -127v-258h-127v245q0 39 -20 53t-55 5l-43 -11q1 -8 1.5 -16.5t0.5 -17.5v-258h-128v245q0 39 -18 54.5t-53 4.5l-45 -13v-291h-127v411
h127v-22z" />
    <glyph glyph-name="uni24A9" unicode="&#x24a9;" 
d="M15 314q0 120 36 225.5t98 197.5h44q-26 -44 -46 -99t-33 -113t-19.5 -113t-6.5 -98t6.5 -98t19.5 -112.5t33 -113t46 -98.5h-44q-62 92 -98 197.5t-36 224.5zM915 314q0 -119 -35.5 -224.5t-97.5 -197.5h-45q27 43 46.5 98.5t32.5 113t19.5 112.5t6.5 98t-6.5 98
t-19.5 113t-32.5 113t-46.5 99h45q62 -92 97.5 -197.5t35.5 -225.5zM476 507q86 17 132.5 -19.5t46.5 -127.5v-258h-127v245q0 79 -71 60l-55 -14v-291h-127v410h127v-19z" />
    <glyph glyph-name="uni24AA" unicode="&#x24aa;" 
d="M915 314q0 -119 -35.5 -224.5t-97.5 -197.5h-45q27 43 46.5 98.5t32.5 113t19.5 112.5t6.5 98t-6.5 98t-19.5 113t-32.5 113t-46.5 99h45q62 -92 97.5 -197.5t35.5 -225.5zM15 314q0 120 36 225.5t98 197.5h44q-26 -44 -46 -99t-33 -113t-19.5 -113t-6.5 -98t6.5 -98
t19.5 -112.5t33 -113t46 -98.5h-44q-62 92 -98 197.5t-36 224.5zM465 531q49 0 88.5 -14.5t67 -39t42 -56.5t14.5 -68v-73q0 -38 -14.5 -70.5t-42 -56.5t-67 -37.5t-88.5 -13.5q-50 0 -89 13.5t-66.5 37.5t-42 56.5t-14.5 70.5v73q0 36 14.5 68t42 56.5t66.5 39t89 14.5z
M465 501q-2 -90 -40.5 -136t-122.5 -48q84 -3 122.5 -50.5t40.5 -135.5q2 88 40 135.5t123 50.5q-85 2 -123 47.5t-40 136.5z" />
    <glyph glyph-name="uni24AB" unicode="&#x24ab;" 
d="M915 314q0 -119 -35.5 -224.5t-97.5 -197.5h-45q27 43 46.5 98.5t32.5 113t19.5 112.5t6.5 98t-6.5 98t-19.5 113t-32.5 113t-46.5 99h45q62 -92 97.5 -197.5t35.5 -225.5zM15 314q0 120 36 225.5t98 197.5h44q-26 -44 -46 -99t-33 -113t-19.5 -113t-6.5 -98t6.5 -98
t19.5 -112.5t33 -113t46 -98.5h-44q-62 92 -98 197.5t-36 224.5zM296 0v569h225q47 0 83 -16.5t60.5 -45t37 -66.5t12.5 -81t-13.5 -80t-38 -64.5t-60.5 -43t-81 -15.5h-97v-157h-128zM509 548q-2 -91 -40.5 -137t-122.5 -48q84 -2 122.5 -49.5t40.5 -135.5q2 88 39.5 135.5
t122.5 50.5q-85 2 -122.5 47.5t-39.5 136.5z" />
    <glyph glyph-name="uni24AC" unicode="&#x24ac;" 
d="M915 314q0 -119 -35.5 -224.5t-97.5 -197.5h-45q27 43 46.5 98.5t32.5 113t19.5 112.5t6.5 98t-6.5 98t-19.5 113t-32.5 113t-46.5 99h45q62 -92 97.5 -197.5t35.5 -225.5zM15 314q0 120 36 225.5t98 197.5h44q-26 -44 -46 -99t-33 -113t-19.5 -113t-6.5 -98t6.5 -98
t19.5 -112.5t33 -113t46 -98.5h-44q-62 92 -98 197.5t-36 224.5zM506 0v157h-97q-45 0 -81 15.5t-60.5 43t-38 64.5t-13.5 80t12.5 81t37 66.5t60.5 45t83 16.5h225v-569h-128zM421 169q0 92 38 141.5t125 52.5q-85 2 -123 48t-40 137q-2 -91 -40 -136.5t-123 -47.5
q87 -3 125 -52.5t38 -142.5z" />
    <glyph glyph-name="uni24AD" unicode="&#x24ad;" 
d="M915 314q0 -119 -35.5 -224.5t-97.5 -197.5h-45q27 43 46.5 98.5t32.5 113t19.5 112.5t6.5 98t-6.5 98t-19.5 113t-32.5 113t-46.5 99h45q62 -92 97.5 -197.5t35.5 -225.5zM15 314q0 120 36 225.5t98 197.5h44q-26 -44 -46 -99t-33 -113t-19.5 -113t-6.5 -98t6.5 -98
t19.5 -112.5t33 -113t46 -98.5h-44q-62 92 -98 197.5t-36 224.5zM485 441q11 28 36 49.5t66 21.5h25v-110h-17q-42 0 -72 -31.5t-38 -80.5v-188h-127v410h127v-71z" />
    <glyph glyph-name="uni24AE" unicode="&#x24ae;" 
d="M15 314q0 120 36 225.5t98 197.5h44q-26 -44 -46 -99t-33 -113t-19.5 -113t-6.5 -98t6.5 -98t19.5 -112.5t33 -113t46 -98.5h-44q-62 92 -98 197.5t-36 224.5zM915 314q0 -119 -35.5 -224.5t-97.5 -197.5h-45q27 43 46.5 98.5t32.5 113t19.5 112.5t6.5 98t-6.5 98
t-19.5 113t-32.5 113t-46.5 99h45q62 -92 97.5 -197.5t35.5 -225.5zM466 102q-47 0 -81.5 12t-57 32t-33.5 47t-11 56h110q0 -23 22.5 -36.5t46.5 -13.5t43 8t19 22q0 12 -10 20.5t-33 16.5l-94 35q-37 13 -63.5 41t-26.5 68q0 28 13 50.5t35.5 38.5t53.5 24.5t68 8.5
t68 -9.5t53 -26t34.5 -39t12.5 -47.5h-110q0 16 -16.5 26.5t-37.5 10.5q-22 0 -36.5 -7.5t-14.5 -19.5q0 -13 15.5 -20.5t37.5 -15.5l95 -36q34 -13 56.5 -40t22.5 -68q0 -27 -12.5 -52t-35.5 -44t-56.5 -30.5t-76.5 -11.5z" />
    <glyph glyph-name="uni24AF" unicode="&#x24af;" 
d="M915 314q0 -119 -35.5 -224.5t-97.5 -197.5h-45q27 43 46.5 98.5t32.5 113t19.5 112.5t6.5 98t-6.5 98t-19.5 113t-32.5 113t-46.5 99h45q62 -92 97.5 -197.5t35.5 -225.5zM15 314q0 120 36 225.5t98 197.5h44q-26 -44 -46 -99t-33 -113t-19.5 -113t-6.5 -98t6.5 -98
t19.5 -112.5t33 -113t46 -98.5h-44q-62 92 -98 197.5t-36 224.5zM577 28h-57q-44 0 -73 14t-46 38t-24 55.5t-7 66.5v133h-57v104h57v141h128v-141h79v-104h-79v-142q0 -61 50 -61h29v-104z" />
    <glyph glyph-name="uni24B0" unicode="&#x24b0;" 
d="M15 314q0 120 36 225.5t98 197.5h44q-26 -44 -46 -99t-33 -113t-19.5 -113t-6.5 -98t6.5 -98t19.5 -112.5t33 -113t46 -98.5h-44q-62 92 -98 197.5t-36 224.5zM915 314q0 -119 -35.5 -224.5t-97.5 -197.5h-45q27 43 46.5 98.5t32.5 113t19.5 112.5t6.5 98t-6.5 98
t-19.5 113t-32.5 113t-46.5 99h45q62 -92 97.5 -197.5t35.5 -225.5zM454 107q-86 -17 -132.5 19.5t-46.5 127.5v258h127v-245q0 -79 71 -60l55 14v291h127v-410h-127v19z" />
    <glyph glyph-name="uni24B1" unicode="&#x24b1;" 
d="M915 314q0 -119 -35.5 -224.5t-97.5 -197.5h-45q27 43 46.5 98.5t32.5 113t19.5 112.5t6.5 98t-6.5 98t-19.5 113t-32.5 113t-46.5 99h45q62 -92 97.5 -197.5t35.5 -225.5zM15 314q0 120 36 225.5t98 197.5h44q-26 -44 -46 -99t-33 -113t-19.5 -113t-6.5 -98t6.5 -98
t19.5 -112.5t33 -113t46 -98.5h-44q-62 92 -98 197.5t-36 224.5zM553 102h-176l-136 410h132l62 -191q2 -6 3.5 -12.5t3.5 -12.5l16 -50q2 -6 3.5 -12.5t3.5 -12.5q7 24 14.5 50t15.5 50l62 191h132z" />
    <glyph glyph-name="uni24B2" unicode="&#x24b2;" 
d="M915 314q0 -119 -35.5 -224.5t-97.5 -197.5h-45q27 43 46.5 98.5t32.5 113t19.5 112.5t6.5 98t-6.5 98t-19.5 113t-32.5 113t-46.5 99h45q62 -92 97.5 -197.5t35.5 -225.5zM15 314q0 120 36 225.5t98 197.5h44q-26 -44 -46 -99t-33 -113t-19.5 -113t-6.5 -98t6.5 -98
t19.5 -112.5t33 -113t46 -98.5h-44q-62 92 -98 197.5t-36 224.5zM681 102h-165l-43 199l-9 41q-2 -11 -4 -21.5t-4 -19.5l-43 -199h-165l-91 410h128l37 -192q12 -62 21 -118l63 310h117l63 -310q9 56 21 118l37 192h128z" />
    <glyph glyph-name="uni24B3" unicode="&#x24b3;" 
d="M915 314q0 -119 -35.5 -224.5t-97.5 -197.5h-45q27 43 46.5 98.5t32.5 113t19.5 112.5t6.5 98t-6.5 98t-19.5 113t-32.5 113t-46.5 99h45q62 -92 97.5 -197.5t35.5 -225.5zM15 314q0 120 36 225.5t98 197.5h44q-26 -44 -46 -99t-33 -113t-19.5 -113t-6.5 -98t6.5 -98
t19.5 -112.5t33 -113t46 -98.5h-44q-62 92 -98 197.5t-36 224.5zM393 513l71 -109l72 109h142l-139 -203l143 -208h-141l-77 119l-76 -119h-141l143 208l-139 203h142z" />
    <glyph glyph-name="uni24B4" unicode="&#x24b4;" 
d="M15 314q0 120 36 225.5t98 197.5h44q-26 -44 -46 -99t-33 -113t-19.5 -113t-6.5 -98t6.5 -98t19.5 -112.5t33 -113t46 -98.5h-44q-62 92 -98 197.5t-36 224.5zM915 314q0 -119 -35.5 -224.5t-97.5 -197.5h-45q27 43 46.5 98.5t32.5 113t19.5 112.5t6.5 98t-6.5 98
t-19.5 113t-32.5 113t-46.5 99h45q62 -92 97.5 -197.5t35.5 -225.5zM397 168l-157 412h134l87 -266l95 266h134l-235 -570h-124z" />
    <glyph glyph-name="uni24B5" unicode="&#x24b5;" 
d="M915 314q0 -119 -35.5 -224.5t-97.5 -197.5h-45q27 43 46.5 98.5t32.5 113t19.5 112.5t6.5 98t-6.5 98t-19.5 113t-32.5 113t-46.5 99h45q62 -92 97.5 -197.5t35.5 -225.5zM15 314q0 120 36 225.5t98 197.5h44q-26 -44 -46 -99t-33 -113t-19.5 -113t-6.5 -98t6.5 -98
t19.5 -112.5t33 -113t46 -98.5h-44q-62 92 -98 197.5t-36 224.5zM291 186l182 223h-166v104h322v-84l-192 -238q54 2 107.5 11.5t94.5 29.5v-130h-348v84z" />
    <glyph glyph-name="uni24D0" unicode="&#x24d0;" 
d="M465 -136q-93 0 -175 35.5t-143 96.5t-96.5 143t-35.5 175t35.5 175t96.5 143t143 96.5t175 35.5t175 -35.5t143 -96.5t96.5 -143t35.5 -175t-35.5 -175t-96.5 -143t-143 -96.5t-175 -35.5zM63 314q0 -83 31.5 -156.5t86 -128t128 -86t156.5 -31.5t156.5 31.5t128 86
t86 128t31.5 156.5t-31.5 156.5t-86 128t-128 86t-156.5 31.5t-156.5 -31.5t-128 -86t-86 -128t-31.5 -156.5zM413 103q-33 0 -62.5 8t-51 23t-34 37.5t-12.5 51.5q0 61 40 98.5t139 48.5l98 11v9q0 25 -20 35t-52 10q-31 0 -48 -10.5t-17 -27.5v-7h-127v13q0 26 13.5 49
t38.5 40t60.5 27t79.5 10q42 0 78.5 -10.5t63.5 -29t42 -44t15 -55.5v-279h-121v24q-18 -13 -51.5 -22.5t-71.5 -9.5zM452 128q1 22 11 41.5t26.5 34.5t38 24.5t44.5 10.5q-23 1 -44.5 10t-38 24.5t-26.5 36t-11 43.5q-1 -23 -11.5 -43.5t-27 -36t-38 -24.5t-43.5 -10
q22 -1 43.5 -10.5t38 -24.5t27 -34.5t11.5 -41.5z" />
    <glyph glyph-name="uni24D1" unicode="&#x24d1;" 
d="M465 -136q-93 0 -175 35.5t-143 96.5t-96.5 143t-35.5 175t35.5 175t96.5 143t143 96.5t175 35.5t175 -35.5t143 -96.5t96.5 -143t35.5 -175t-35.5 -175t-96.5 -143t-143 -96.5t-175 -35.5zM63 314q0 -83 31.5 -156.5t86 -128t128 -86t156.5 -31.5t156.5 31.5t128 86
t86 128t31.5 156.5t-31.5 156.5t-86 128t-128 86t-156.5 31.5t-156.5 -31.5t-128 -86t-86 -128t-31.5 -156.5zM414 614v-140h97q45 0 81 -15t60.5 -42t38 -64t13.5 -80q0 -44 -12.5 -82t-37 -66.5t-60.5 -45t-83 -16.5h-225v551h128zM499 452q-2 -87 -40.5 -134t-122.5 -49
q84 -2 122.5 -48.5t40.5 -137.5q2 91 39.5 137t122.5 48q-84 2 -122.5 49.5t-39.5 134.5z" />
    <glyph glyph-name="uni24D2" unicode="&#x24d2;" 
d="M465 -136q-93 0 -175 35.5t-143 96.5t-96.5 143t-35.5 175t35.5 175t96.5 143t143 96.5t175 35.5t175 -35.5t143 -96.5t96.5 -143t35.5 -175t-35.5 -175t-96.5 -143t-143 -96.5t-175 -35.5zM63 314q0 -83 31.5 -156.5t86 -128t128 -86t156.5 -31.5t156.5 31.5t128 86
t86 128t31.5 156.5t-31.5 156.5t-86 128t-128 86t-156.5 31.5t-156.5 -31.5t-128 -86t-86 -128t-31.5 -156.5zM670 287v-26q0 -30 -13 -58.5t-38.5 -50.5t-64 -35.5t-89.5 -13.5q-46 0 -84 12.5t-65 36t-41.5 56t-14.5 73.5v72q0 40 14.5 73t41.5 56.5t65 36t84 12.5
q48 0 86.5 -13.5t64.5 -35.5t40 -50.5t14 -58.5v-20h-127v13q0 25 -21 45t-57 20t-57 -24.5t-21 -59.5v-60q0 -35 21 -59.5t57 -24.5t57 20t21 45v19h127z" />
    <glyph glyph-name="uni24D3" unicode="&#x24d3;" 
d="M465 -136q-93 0 -175 35.5t-143 96.5t-96.5 143t-35.5 175t35.5 175t96.5 143t143 96.5t175 35.5t175 -35.5t143 -96.5t96.5 -143t35.5 -175t-35.5 -175t-96.5 -143t-143 -96.5t-175 -35.5zM63 314q0 -83 31.5 -156.5t86 -128t128 -86t156.5 -31.5t156.5 31.5t128 86
t86 128t31.5 156.5t-31.5 156.5t-86 128t-128 86t-156.5 31.5t-156.5 -31.5t-128 -86t-86 -128t-31.5 -156.5zM644 613v-551h-225q-47 0 -83 16.5t-60.5 45t-37 66.5t-12.5 82q0 43 13.5 80t38 64t60.5 42t81 15h97v140h128zM431 73q0 95 38 144t125 51q-85 2 -123 48.5
t-40 134.5q-2 -87 -40.5 -134.5t-122.5 -49.5q87 -2 125 -50t38 -144z" />
    <glyph glyph-name="uni24D4" unicode="&#x24d4;" 
d="M465 -136q-93 0 -175 35.5t-143 96.5t-96.5 143t-35.5 175t35.5 175t96.5 143t143 96.5t175 35.5t175 -35.5t143 -96.5t96.5 -143t35.5 -175t-35.5 -175t-96.5 -143t-143 -96.5t-175 -35.5zM63 314q0 -83 31.5 -156.5t86 -128t128 -86t156.5 -31.5t156.5 31.5t128 86
t86 128t31.5 156.5t-31.5 156.5t-86 128t-128 86t-156.5 31.5t-156.5 -31.5t-128 -86t-86 -128t-31.5 -156.5zM384 269q0 -35 24.5 -53t56.5 -18q35 0 55 8t20 24v12h127v-19q0 -26 -15.5 -48t-42.5 -38.5t-64 -25.5t-80 -9q-45 0 -83 13t-66 36t-44 54.5t-16 69.5v78
q0 40 16 73t44 56.5t66 36t83 12.5t83 -12.5t66 -36t44 -56.5t16 -73v-82h-290v-2zM471 314q2 42 27 65t69 25q-44 2 -69 22t-27 65q-2 -45 -29.5 -65.5t-71.5 -22.5q44 -2 71.5 -24.5t29.5 -64.5z" />
    <glyph glyph-name="uni24D5" unicode="&#x24d5;" 
d="M465 -136q-93 0 -175 35.5t-143 96.5t-96.5 143t-35.5 175t35.5 175t96.5 143t143 96.5t175 35.5t175 -35.5t143 -96.5t96.5 -143t35.5 -175t-35.5 -175t-96.5 -143t-143 -96.5t-175 -35.5zM63 314q0 -83 31.5 -156.5t86 -128t128 -86t156.5 -31.5t156.5 31.5t128 86
t86 128t31.5 156.5t-31.5 156.5t-86 128t-128 86t-156.5 31.5t-156.5 -31.5t-128 -86t-86 -128t-31.5 -156.5zM585 520h-32q-21 0 -34.5 -12.5t-13.5 -44.5v-21h83v-104h-83v-316h-127v316h-56v104h56v17q0 33 8 63t26 52.5t48 36t74 13.5h51v-104z" />
    <glyph glyph-name="uni24D6" unicode="&#x24d6;" 
d="M465 -136q-93 0 -175 35.5t-143 96.5t-96.5 143t-35.5 175t35.5 175t96.5 143t143 96.5t175 35.5t175 -35.5t143 -96.5t96.5 -143t35.5 -175t-35.5 -175t-96.5 -143t-143 -96.5t-175 -35.5zM63 314q0 -83 31.5 -156.5t86 -128t128 -86t156.5 -31.5t156.5 31.5t128 86
t86 128t31.5 156.5t-31.5 156.5t-86 128t-128 86t-156.5 31.5t-156.5 -31.5t-128 -86t-86 -128t-31.5 -156.5zM465 601q47 0 86.5 -13.5t68 -37.5t44.5 -56.5t16 -70.5v-248q0 -30 -16.5 -57.5t-45 -48.5t-67 -33.5t-83.5 -12.5q-47 0 -84.5 11t-64.5 30t-41.5 44t-14.5 54
v16h127v-10q0 -20 21 -32.5t57 -12.5q38 0 61.5 17t23.5 41v26q-6 -4 -17 -7t-24 -4.5t-25.5 -2.5t-21.5 -1q-45 0 -84 13.5t-68 36.5t-46 54t-17 67v60q0 38 16 70.5t44.5 56.5t68 37.5t86.5 13.5zM465 218q2 88 40 132.5t123 46.5q-85 2 -123 44t-40 133
q-2 -91 -40 -133.5t-123 -44.5q84 -2 122.5 -46.5t40.5 -131.5z" />
    <glyph glyph-name="uni24D7" unicode="&#x24d7;" 
d="M465 -136q-93 0 -175 35.5t-143 96.5t-96.5 143t-35.5 175t35.5 175t96.5 143t143 96.5t175 35.5t175 -35.5t143 -96.5t96.5 -143t35.5 -175t-35.5 -175t-96.5 -143t-143 -96.5t-175 -35.5zM63 314q0 -83 31.5 -156.5t86 -128t128 -86t156.5 -31.5t156.5 31.5t128 86
t86 128t31.5 156.5t-31.5 156.5t-86 128t-128 86t-156.5 31.5t-156.5 -31.5t-128 -86t-86 -128t-31.5 -156.5zM496 468q86 16 132.5 -19t46.5 -125v-262h-127v249q0 39 -18 52t-53 5l-55 -13v-293h-127v551h127v-158z" />
    <glyph glyph-name="uni24D8" unicode="&#x24d8;" 
d="M465 -136q-93 0 -175 35.5t-143 96.5t-96.5 143t-35.5 175t35.5 175t96.5 143t143 96.5t175 35.5t175 -35.5t143 -96.5t96.5 -143t35.5 -175t-35.5 -175t-96.5 -143t-143 -96.5t-175 -35.5zM63 314q0 -83 31.5 -156.5t86 -128t128 -86t156.5 -31.5t156.5 31.5t128 86
t86 128t31.5 156.5t-31.5 156.5t-86 128t-128 86t-156.5 31.5t-156.5 -31.5t-128 -86t-86 -128t-31.5 -156.5zM465 491q-32 0 -51 21t-19 50q0 31 19 52t51 21q31 0 50.5 -21t19.5 -52q0 -29 -19.5 -50t-50.5 -21zM401 443h128v-412h-128v412z" />
    <glyph glyph-name="uni24D9" unicode="&#x24d9;" 
d="M465 -136q-93 0 -175 35.5t-143 96.5t-96.5 143t-35.5 175t35.5 175t96.5 143t143 96.5t175 35.5t175 -35.5t143 -96.5t96.5 -143t35.5 -175t-35.5 -175t-96.5 -143t-143 -96.5t-175 -35.5zM63 314q0 -65 19 -123.5t53.5 -107.5t82.5 -86t105 -59v89h30q23 0 36.5 14.5
t13.5 46.5v404h127v-395q0 -35 -7 -66.5t-24 -55.5t-46 -38t-73 -14h-10q23 -5 46.5 -8t48.5 -3q83 0 156.5 31.5t128 86t86 128t31.5 156.5t-31.5 156.5t-86 128t-128 86t-156.5 31.5t-156.5 -31.5t-128 -86t-86 -128t-31.5 -156.5zM466 541q-31 0 -50.5 21t-19.5 50
q0 30 19.5 51.5t50.5 21.5t51 -21.5t20 -51.5q0 -29 -20 -50t-51 -21z" />
    <glyph glyph-name="uni24DA" unicode="&#x24da;" 
d="M465 -136q-93 0 -175 35.5t-143 96.5t-96.5 143t-35.5 175t35.5 175t96.5 143t143 96.5t175 35.5t175 -35.5t143 -96.5t96.5 -143t35.5 -175t-35.5 -175t-96.5 -143t-143 -96.5t-175 -35.5zM63 314q0 -83 31.5 -156.5t86 -128t128 -86t156.5 -31.5t156.5 31.5t128 86
t86 128t31.5 156.5t-31.5 156.5t-86 128t-128 86t-156.5 31.5t-156.5 -31.5t-128 -86t-86 -128t-31.5 -156.5zM413 338l131 134h143l-161 -167l177 -244h-143l-113 162l-34 -36v-126h-127v551h127v-274z" />
    <glyph glyph-name="uni24DB" unicode="&#x24db;" 
d="M465 -136q-93 0 -175 35.5t-143 96.5t-96.5 143t-35.5 175t35.5 175t96.5 143t143 96.5t175 35.5t175 -35.5t143 -96.5t96.5 -143t35.5 -175t-35.5 -175t-96.5 -143t-143 -96.5t-175 -35.5zM63 314q0 -83 31.5 -156.5t86 -128t128 -86t156.5 -31.5t156.5 31.5t128 86
t86 128t31.5 156.5t-31.5 156.5t-86 128t-128 86t-156.5 31.5t-156.5 -31.5t-128 -86t-86 -128t-31.5 -156.5zM383 587h127v-427q0 -17 8 -22.5t22 -5.5h26v-104h-33q-80 0 -115 37t-35 98v424z" />
    <glyph glyph-name="uni24DC" unicode="&#x24dc;" 
d="M465 -136q-93 0 -175 35.5t-143 96.5t-96.5 143t-35.5 175t35.5 175t96.5 143t143 96.5t175 35.5t175 -35.5t143 -96.5t96.5 -143t35.5 -175t-35.5 -175t-96.5 -143t-143 -96.5t-175 -35.5zM63 314q0 -83 31.5 -156.5t86 -128t128 -86t156.5 -31.5t156.5 31.5t128 86
t86 128t31.5 156.5t-31.5 156.5t-86 128t-128 86t-156.5 31.5t-156.5 -31.5t-128 -86t-86 -128t-31.5 -156.5zM341 505q96 24 147 -27q21 10 43.5 17.5t42.5 11.5q90 17 144 -20t54 -127v-258h-127v245q0 39 -20 53t-55 5l-43 -11q1 -8 1.5 -16.5t0.5 -17.5v-258h-128v245
q0 39 -18 54.5t-53 4.5l-45 -13v-291h-127v411h127v-22z" />
    <glyph glyph-name="uni24DD" unicode="&#x24dd;" 
d="M465 -136q-93 0 -175 35.5t-143 96.5t-96.5 143t-35.5 175t35.5 175t96.5 143t143 96.5t175 35.5t175 -35.5t143 -96.5t96.5 -143t35.5 -175t-35.5 -175t-96.5 -143t-143 -96.5t-175 -35.5zM63 314q0 -83 31.5 -156.5t86 -128t128 -86t156.5 -31.5t156.5 31.5t128 86
t86 128t31.5 156.5t-31.5 156.5t-86 128t-128 86t-156.5 31.5t-156.5 -31.5t-128 -86t-86 -128t-31.5 -156.5zM476 507q86 17 132.5 -19.5t46.5 -127.5v-258h-127v245q0 79 -71 60l-55 -14v-291h-127v410h127v-19z" />
    <glyph glyph-name="uni24DE" unicode="&#x24de;" 
d="M465 -136q-93 0 -175 35.5t-143 96.5t-96.5 143t-35.5 175t35.5 175t96.5 143t143 96.5t175 35.5t175 -35.5t143 -96.5t96.5 -143t35.5 -175t-35.5 -175t-96.5 -143t-143 -96.5t-175 -35.5zM63 314q0 -83 31.5 -156.5t86 -128t128 -86t156.5 -31.5t156.5 31.5t128 86
t86 128t31.5 156.5t-31.5 156.5t-86 128t-128 86t-156.5 31.5t-156.5 -31.5t-128 -86t-86 -128t-31.5 -156.5zM465 531q49 0 88.5 -14.5t67 -39t42 -56.5t14.5 -68v-73q0 -38 -14.5 -70.5t-42 -56.5t-67 -37.5t-88.5 -13.5q-50 0 -89 13.5t-66.5 37.5t-42 56.5t-14.5 70.5
v73q0 36 14.5 68t42 56.5t66.5 39t89 14.5zM465 501q-2 -90 -40.5 -136t-122.5 -48q87 -3 125 -52.5t38 -142.5q0 92 38 142t125 53q-85 2 -123 47.5t-40 136.5z" />
    <glyph glyph-name="uni24DF" unicode="&#x24df;" 
d="M465 -136q-93 0 -175 35.5t-143 96.5t-96.5 143t-35.5 175t35.5 175t96.5 143t143 96.5t175 35.5t175 -35.5t143 -96.5t96.5 -143t35.5 -175t-35.5 -175t-96.5 -143t-143 -96.5t-175 -35.5zM63 314q0 -83 31.5 -156.5t86 -128t128 -86t156.5 -31.5t156.5 31.5t128 86
t86 128t31.5 156.5t-31.5 156.5t-86 128t-128 86t-156.5 31.5t-156.5 -31.5t-128 -86t-86 -128t-31.5 -156.5zM296 0v569h225q47 0 83 -16.5t60.5 -45t37 -66.5t12.5 -81t-13.5 -80t-38 -64.5t-60.5 -43t-81 -15.5h-97v-157h-128zM509 548q-2 -91 -40.5 -137t-122.5 -48
q84 -2 122.5 -49.5t40.5 -135.5q2 88 39.5 135.5t122.5 50.5q-85 2 -122.5 47.5t-39.5 136.5z" />
    <glyph glyph-name="uni24E0" unicode="&#x24e0;" 
d="M465 -136q-93 0 -175 35.5t-143 96.5t-96.5 143t-35.5 175t35.5 175t96.5 143t143 96.5t175 35.5t175 -35.5t143 -96.5t96.5 -143t35.5 -175t-35.5 -175t-96.5 -143t-143 -96.5t-175 -35.5zM63 314q0 -83 31.5 -156.5t86 -128t128 -86t156.5 -31.5t156.5 31.5t128 86
t86 128t31.5 156.5t-31.5 156.5t-86 128t-128 86t-156.5 31.5t-156.5 -31.5t-128 -86t-86 -128t-31.5 -156.5zM506 0v157h-97q-45 0 -81 15.5t-60.5 43t-38 64.5t-13.5 80t12.5 81t37 66.5t60.5 45t83 16.5h225v-569h-128zM421 178q2 88 40 135.5t123 49.5q-85 2 -123 48
t-40 137q-2 -91 -40 -136.5t-123 -47.5q84 -3 122.5 -50.5t40.5 -135.5z" />
    <glyph glyph-name="uni24E1" unicode="&#x24e1;" 
d="M465 -136q-93 0 -175 35.5t-143 96.5t-96.5 143t-35.5 175t35.5 175t96.5 143t143 96.5t175 35.5t175 -35.5t143 -96.5t96.5 -143t35.5 -175t-35.5 -175t-96.5 -143t-143 -96.5t-175 -35.5zM63 314q0 -83 31.5 -156.5t86 -128t128 -86t156.5 -31.5t156.5 31.5t128 86
t86 128t31.5 156.5t-31.5 156.5t-86 128t-128 86t-156.5 31.5t-156.5 -31.5t-128 -86t-86 -128t-31.5 -156.5zM485 441q11 28 36 49.5t66 21.5h25v-110h-17q-42 0 -72 -31.5t-38 -80.5v-188h-127v410h127v-71z" />
    <glyph glyph-name="uni24E2" unicode="&#x24e2;" 
d="M465 -136q-93 0 -175 35.5t-143 96.5t-96.5 143t-35.5 175t35.5 175t96.5 143t143 96.5t175 35.5t175 -35.5t143 -96.5t96.5 -143t35.5 -175t-35.5 -175t-96.5 -143t-143 -96.5t-175 -35.5zM63 314q0 -83 31.5 -156.5t86 -128t128 -86t156.5 -31.5t156.5 31.5t128 86
t86 128t31.5 156.5t-31.5 156.5t-86 128t-128 86t-156.5 31.5t-156.5 -31.5t-128 -86t-86 -128t-31.5 -156.5zM466 102q-47 0 -81.5 12t-57 32t-33.5 47t-11 56h110q0 -23 22.5 -36.5t46.5 -13.5t43 8t19 22q0 12 -10 20.5t-33 16.5l-94 35q-37 13 -63.5 41t-26.5 68
q0 28 13 50.5t35.5 38.5t53.5 24.5t68 8.5t68 -9.5t53 -26t34.5 -39t12.5 -47.5h-110q0 16 -16.5 26.5t-37.5 10.5q-22 0 -36.5 -7.5t-14.5 -19.5q0 -13 15.5 -20.5t37.5 -15.5l95 -36q34 -13 56.5 -40t22.5 -68q0 -27 -12.5 -52t-35.5 -44t-56.5 -30.5t-76.5 -11.5z" />
    <glyph glyph-name="uni24E3" unicode="&#x24e3;" 
d="M465 -136q-93 0 -175 35.5t-143 96.5t-96.5 143t-35.5 175t35.5 175t96.5 143t143 96.5t175 35.5t175 -35.5t143 -96.5t96.5 -143t35.5 -175t-35.5 -175t-96.5 -143t-143 -96.5t-175 -35.5zM63 314q0 -83 31.5 -156.5t86 -128t128 -86t156.5 -31.5t156.5 31.5t128 86
t86 128t31.5 156.5t-31.5 156.5t-86 128t-128 86t-156.5 31.5t-156.5 -31.5t-128 -86t-86 -128t-31.5 -156.5zM577 28h-57q-44 0 -73 14t-46 38t-24 55.5t-7 66.5v133h-57v104h57v141h128v-141h79v-104h-79v-142q0 -61 50 -61h29v-104z" />
    <glyph glyph-name="uni24E4" unicode="&#x24e4;" 
d="M465 -136q-93 0 -175 35.5t-143 96.5t-96.5 143t-35.5 175t35.5 175t96.5 143t143 96.5t175 35.5t175 -35.5t143 -96.5t96.5 -143t35.5 -175t-35.5 -175t-96.5 -143t-143 -96.5t-175 -35.5zM63 314q0 -83 31.5 -156.5t86 -128t128 -86t156.5 -31.5t156.5 31.5t128 86
t86 128t31.5 156.5t-31.5 156.5t-86 128t-128 86t-156.5 31.5t-156.5 -31.5t-128 -86t-86 -128t-31.5 -156.5zM454 107q-86 -17 -132.5 19.5t-46.5 127.5v258h127v-245q0 -79 71 -60l55 14v291h127v-410h-127v19z" />
    <glyph glyph-name="uni24E5" unicode="&#x24e5;" 
d="M465 -136q-93 0 -175 35.5t-143 96.5t-96.5 143t-35.5 175t35.5 175t96.5 143t143 96.5t175 35.5t175 -35.5t143 -96.5t96.5 -143t35.5 -175t-35.5 -175t-96.5 -143t-143 -96.5t-175 -35.5zM63 314q0 -83 31.5 -156.5t86 -128t128 -86t156.5 -31.5t156.5 31.5t128 86
t86 128t31.5 156.5t-31.5 156.5t-86 128t-128 86t-156.5 31.5t-156.5 -31.5t-128 -86t-86 -128t-31.5 -156.5zM553 102h-176l-136 410h132l62 -191q2 -6 3.5 -12.5t3.5 -12.5l16 -50q2 -6 3.5 -12.5t3.5 -12.5q7 24 14.5 50t15.5 50l62 191h132z" />
    <glyph glyph-name="uni24E6" unicode="&#x24e6;" 
d="M465 -136q-93 0 -175 35.5t-143 96.5t-96.5 143t-35.5 175t35.5 175t96.5 143t143 96.5t175 35.5t175 -35.5t143 -96.5t96.5 -143t35.5 -175t-35.5 -175t-96.5 -143t-143 -96.5t-175 -35.5zM63 314q0 -83 31.5 -156.5t86 -128t128 -86t156.5 -31.5t156.5 31.5t128 86
t86 128t31.5 156.5t-31.5 156.5t-86 128t-128 86t-156.5 31.5t-156.5 -31.5t-128 -86t-86 -128t-31.5 -156.5zM681 102h-165l-43 199l-9 41q-2 -11 -4 -21.5t-4 -19.5l-43 -199h-165l-91 410h128l37 -192q12 -62 21 -118l63 310h117l63 -310q9 56 21 118l37 192h128z" />
    <glyph glyph-name="uni24E7" unicode="&#x24e7;" 
d="M465 -136q-93 0 -175 35.5t-143 96.5t-96.5 143t-35.5 175t35.5 175t96.5 143t143 96.5t175 35.5t175 -35.5t143 -96.5t96.5 -143t35.5 -175t-35.5 -175t-96.5 -143t-143 -96.5t-175 -35.5zM63 314q0 -83 31.5 -156.5t86 -128t128 -86t156.5 -31.5t156.5 31.5t128 86
t86 128t31.5 156.5t-31.5 156.5t-86 128t-128 86t-156.5 31.5t-156.5 -31.5t-128 -86t-86 -128t-31.5 -156.5zM393 513l71 -109l72 109h142l-139 -203l143 -208h-141l-77 119l-76 -119h-141l143 208l-139 203h142z" />
    <glyph glyph-name="uni24E8" unicode="&#x24e8;" 
d="M465 -136q-93 0 -175 35.5t-143 96.5t-96.5 143t-35.5 175t35.5 175t96.5 143t143 96.5t175 35.5t175 -35.5t143 -96.5t96.5 -143t35.5 -175t-35.5 -175t-96.5 -143t-143 -96.5t-175 -35.5zM63 314q0 -83 31.5 -156.5t86 -128t128 -86t156.5 -31.5t156.5 31.5t128 86
t86 128t31.5 156.5t-31.5 156.5t-86 128t-128 86t-156.5 31.5t-156.5 -31.5t-128 -86t-86 -128t-31.5 -156.5zM397 168l-157 412h134l87 -266l95 266h134l-235 -570h-124z" />
    <glyph glyph-name="uni24E9" unicode="&#x24e9;" 
d="M465 -136q-93 0 -175 35.5t-143 96.5t-96.5 143t-35.5 175t35.5 175t96.5 143t143 96.5t175 35.5t175 -35.5t143 -96.5t96.5 -143t35.5 -175t-35.5 -175t-96.5 -143t-143 -96.5t-175 -35.5zM63 314q0 -83 31.5 -156.5t86 -128t128 -86t156.5 -31.5t156.5 31.5t128 86
t86 128t31.5 156.5t-31.5 156.5t-86 128t-128 86t-156.5 31.5t-156.5 -31.5t-128 -86t-86 -128t-31.5 -156.5zM291 186l182 223h-166v104h322v-84l-192 -238q54 2 107.5 11.5t94.5 29.5v-130h-348v84z" />
    <glyph glyph-name="SF100000" unicode="&#x2500;" 
d="M0 320h930v-40h-930v40z" />
    <glyph glyph-name="uni2501" unicode="&#x2501;" 
d="M0 360h930v-120h-930v120z" />
    <glyph glyph-name="SF110000" unicode="&#x2502;" 
d="M446 800h38v-1000h-38v1000z" />
    <glyph glyph-name="uni2503" unicode="&#x2503;" 
d="M409 800h112v-1000h-112v1000z" />
    <glyph glyph-name="SF010000" unicode="&#x250c;" 
d="M484 280v-480h-38v520h484v-40h-446z" />
    <glyph glyph-name="uni250D" unicode="&#x250d;" 
d="M484 240v-440h-38v560h484v-120h-446z" />
    <glyph glyph-name="uni250E" unicode="&#x250e;" 
d="M521 280v-480h-112v520h521v-40h-409z" />
    <glyph glyph-name="uni250F" unicode="&#x250f;" 
d="M521 240v-440h-112v560h521v-120h-409z" />
    <glyph glyph-name="SF030000" unicode="&#x2510;" 
d="M446 -200v480h-446v40h484v-520h-38z" />
    <glyph glyph-name="uni2511" unicode="&#x2511;" 
d="M446 -200v440h-446v120h484v-560h-38z" />
    <glyph glyph-name="uni2512" unicode="&#x2512;" 
d="M409 -200v480h-409v40h521v-520h-112z" />
    <glyph glyph-name="uni2513" unicode="&#x2513;" 
d="M409 -200v440h-409v120h521v-560h-112z" />
    <glyph glyph-name="SF020000" unicode="&#x2514;" 
d="M446 280v520h38v-480h446v-40h-484z" />
    <glyph glyph-name="uni2515" unicode="&#x2515;" 
d="M446 240v560h38v-440h446v-120h-484z" />
    <glyph glyph-name="uni2516" unicode="&#x2516;" 
d="M409 800h112v-480h409v-40h-521v520z" />
    <glyph glyph-name="uni2517" unicode="&#x2517;" 
d="M409 800h112v-440h409v-120h-521v560z" />
    <glyph glyph-name="SF040000" unicode="&#x2518;" 
d="M0 280v40h446v480h38v-520h-484z" />
    <glyph glyph-name="uni2519" unicode="&#x2519;" 
d="M0 240v120h446v440h38v-560h-484z" />
    <glyph glyph-name="uni251A" unicode="&#x251a;" 
d="M0 320h409v480h112v-520h-521v40z" />
    <glyph glyph-name="uni251B" unicode="&#x251b;" 
d="M0 360h409v440h112v-560h-521v120z" />
    <glyph glyph-name="SF080000" unicode="&#x251c;" 
d="M484 280v-480h-38v1000h38v-480h446v-40h-446z" />
    <glyph glyph-name="uni251D" unicode="&#x251d;" 
d="M484 240v-440h-38v1000h38v-440h446v-120h-446z" />
    <glyph glyph-name="uni251E" unicode="&#x251e;" 
d="M484 280v-480h-38v480h-37v520h112v-480h409v-40h-446z" />
    <glyph glyph-name="uni251F" unicode="&#x251f;" 
d="M521 280v-480h-112v520h37v480h38v-480h446v-40h-409z" />
    <glyph glyph-name="uni2520" unicode="&#x2520;" 
d="M521 280v-480h-112v1000h112v-480h409v-40h-409z" />
    <glyph glyph-name="uni2521" unicode="&#x2521;" 
d="M484 240v-440h-38v440h-37v560h112v-440h409v-120h-446z" />
    <glyph glyph-name="uni2522" unicode="&#x2522;" 
d="M521 240v-440h-112v560h37v440h38v-440h446v-120h-409z" />
    <glyph glyph-name="uni2523" unicode="&#x2523;" 
d="M521 240v-440h-112v1000h112v-440h409v-120h-409z" />
    <glyph glyph-name="SF090000" unicode="&#x2524;" 
d="M446 -200v480h-446v40h446v480h38v-1000h-38z" />
    <glyph glyph-name="uni2525" unicode="&#x2525;" 
d="M446 -200v440h-446v120h446v440h38v-1000h-38z" />
    <glyph glyph-name="uni2526" unicode="&#x2526;" 
d="M484 280v-480h-38v480h-446v40h409v480h112v-520h-37z" />
    <glyph glyph-name="uni2527" unicode="&#x2527;" 
d="M409 -200v480h-409v40h446v480h38v-480h37v-520h-112z" />
    <glyph glyph-name="uni2528" unicode="&#x2528;" 
d="M409 -200v480h-409v40h409v480h112v-1000h-112z" />
    <glyph glyph-name="uni2529" unicode="&#x2529;" 
d="M484 240v-440h-38v440h-446v120h409v440h112v-560h-37z" />
    <glyph glyph-name="uni252A" unicode="&#x252a;" 
d="M409 -200v440h-409v120h446v440h38v-440h37v-560h-112z" />
    <glyph glyph-name="uni252B" unicode="&#x252b;" 
d="M409 -200v440h-409v120h409v440h112v-1000h-112z" />
    <glyph glyph-name="SF060000" unicode="&#x252c;" 
d="M484 280v-480h-38v480h-446v40h930v-40h-446z" />
    <glyph glyph-name="uni252D" unicode="&#x252d;" 
d="M446 -200v440h-446v120h484v-40h446v-40h-446v-480h-38z" />
    <glyph glyph-name="uni252E" unicode="&#x252e;" 
d="M484 240v-440h-38v480h-446v40h446v40h484v-120h-446z" />
    <glyph glyph-name="uni252F" unicode="&#x252f;" 
d="M484 240v-440h-38v440h-446v120h930v-120h-446z" />
    <glyph glyph-name="uni2530" unicode="&#x2530;" 
d="M521 280v-480h-112v480h-409v40h930v-40h-409z" />
    <glyph glyph-name="uni2531" unicode="&#x2531;" 
d="M521 280v-480h-112v440h-409v120h521v-40h409v-40h-409z" />
    <glyph glyph-name="uni2532" unicode="&#x2532;" 
d="M521 240v-440h-112v480h-409v40h409v40h521v-120h-409z" />
    <glyph glyph-name="uni2533" unicode="&#x2533;" 
d="M521 240v-440h-112v440h-409v120h930v-120h-409z" />
    <glyph glyph-name="SF070000" unicode="&#x2534;" 
d="M0 280v40h446v480h38v-480h446v-40h-930z" />
    <glyph glyph-name="uni2535" unicode="&#x2535;" 
d="M484 280v-40h-484v120h446v440h38v-480h446v-40h-446z" />
    <glyph glyph-name="uni2536" unicode="&#x2536;" 
d="M446 240v40h-446v40h446v480h38v-440h446v-120h-484z" />
    <glyph glyph-name="uni2537" unicode="&#x2537;" 
d="M0 240v120h446v440h38v-440h446v-120h-930z" />
    <glyph glyph-name="uni2538" unicode="&#x2538;" 
d="M0 280v40h409v480h112v-480h409v-40h-930z" />
    <glyph glyph-name="uni2539" unicode="&#x2539;" 
d="M0 360h409v440h112v-480h409v-40h-409v-40h-521v120z" />
    <glyph glyph-name="uni253A" unicode="&#x253a;" 
d="M409 280h-409v40h409v480h112v-440h409v-120h-521v40z" />
    <glyph glyph-name="uni253B" unicode="&#x253b;" 
d="M0 240v120h409v440h112v-440h409v-120h-930z" />
    <glyph glyph-name="SF050000" unicode="&#x253c;" 
d="M484 280v-480h-38v480h-446v40h446v480h38v-480h446v-40h-446z" />
    <glyph glyph-name="uni253D" unicode="&#x253d;" 
d="M484 280v-480h-38v440h-446v120h446v440h38v-480h446v-40h-446z" />
    <glyph glyph-name="uni253E" unicode="&#x253e;" 
d="M484 240v-440h-38v480h-446v40h446v480h38v-440h446v-120h-446z" />
    <glyph glyph-name="uni253F" unicode="&#x253f;" 
d="M484 240v-440h-38v440h-446v120h446v440h38v-440h446v-120h-446z" />
    <glyph glyph-name="uni2540" unicode="&#x2540;" 
d="M484 280v-480h-38v480h-446v40h409v480h112v-480h409v-40h-446z" />
    <glyph glyph-name="uni2541" unicode="&#x2541;" 
d="M521 280v-480h-112v480h-409v40h446v480h38v-480h446v-40h-409z" />
    <glyph glyph-name="uni2542" unicode="&#x2542;" 
d="M521 280v-480h-112v480h-409v40h409v480h112v-480h409v-40h-409z" />
    <glyph glyph-name="uni2543" unicode="&#x2543;" 
d="M484 240v-440h-38v440h-446v120h409v440h112v-480h409v-40h-409v-40h-37z" />
    <glyph glyph-name="uni2544" unicode="&#x2544;" 
d="M484 240v-440h-38v440h-37v40h-409v40h409v480h112v-440h409v-120h-446z" />
    <glyph glyph-name="uni2545" unicode="&#x2545;" 
d="M409 -200v440h-409v120h446v440h38v-440h37v-40h409v-40h-409v-480h-112z" />
    <glyph glyph-name="uni2546" unicode="&#x2546;" 
d="M521 240v-440h-112v480h-409v40h409v40h37v440h38v-440h446v-120h-409z" />
    <glyph glyph-name="uni2547" unicode="&#x2547;" 
d="M484 240v-440h-38v440h-446v120h409v440h112v-440h409v-120h-446z" />
    <glyph glyph-name="uni2548" unicode="&#x2548;" 
d="M521 240v-440h-112v440h-409v120h446v440h38v-440h446v-120h-409z" />
    <glyph glyph-name="uni2549" unicode="&#x2549;" 
d="M521 280v-480h-112v440h-409v120h409v440h112v-480h409v-40h-409z" />
    <glyph glyph-name="uni254A" unicode="&#x254a;" 
d="M521 240v-440h-112v480h-409v40h409v480h112v-440h409v-120h-409z" />
    <glyph glyph-name="uni254B" unicode="&#x254b;" 
d="M521 240v-440h-112v440h-409v120h409v440h112v-440h409v-120h-409z" />
    <glyph glyph-name="shade" unicode="&#x2592;" 
d="M793 737h97v-101h-97v101zM389 636h-97v101h97v-101zM139 636h-97v101h97v-101zM266 636h-97v101h97v-101zM641 636h-99v101h99v-101zM668 737h96v-101h-96v101zM417 636v101h98v-101h-98zM793 608h97v-96h-97v96zM389 512h-97v96h97v-96zM139 512h-97v96h97v-96z
M266 512h-97v96h97v-96zM641 512h-99v96h99v-96zM668 608h96v-96h-96v96zM417 512v96h98v-96h-98zM793 486h97v-96h-97v96zM389 390h-97v96h97v-96zM139 390h-97v96h97v-96zM266 390h-97v96h97v-96zM641 390h-99v96h99v-96zM668 486h96v-96h-96v96zM417 390v96h98v-96h-98z
M417 262v99h98v-99h-98zM668 361h96v-99h-96v99zM641 262h-99v99h99v-99zM266 262h-97v99h97v-99zM139 262h-97v99h97v-99zM389 262h-97v99h97v-99zM793 361h97v-99h-97v99zM793 234h97v-97h-97v97zM389 137h-97v97h97v-97zM139 137h-97v97h97v-97zM266 137h-97v97h97v-97z
M641 137h-99v97h99v-97zM668 234h96v-97h-96v97zM417 137v97h98v-97h-98zM793 111h97v-95h-97v95zM389 16h-97v95h97v-95zM139 16h-97v95h97v-95zM266 16h-97v95h97v-95zM641 16h-99v95h99v-95zM668 111h96v-95h-96v95zM417 16v95h98v-95h-98zM793 -11h97v-98h-97v98z
M389 -109h-97v98h97v-98zM139 -109h-97v98h97v-98zM266 -109h-97v98h97v-98zM641 -109h-99v98h99v-98zM668 -11h96v-98h-96v98zM417 -109v98h98v-98h-98z" />
    <glyph glyph-name="filledbox" unicode="&#x25a0;" 
d="M889 737v-846h-848v846h848z" />
    <glyph glyph-name="H22073" unicode="&#x25a1;" 
d="M888 737v-846h-846v846h846zM93 -58h744v744h-744v-744z" />
    <glyph glyph-name="uni25A3" unicode="&#x25a3;" 
d="M888 737v-846h-846v846h846zM93 -58h744v744h-744v-744zM224 555h482v-482h-482v482z" />
    <glyph glyph-name="uni25A4" unicode="&#x25a4;" 
d="M888 737v-846h-846v846h846zM93 686v-148h744v148h-744zM837 339v148h-744v-148h744zM93 289v-148h744v148h-744zM837 -58v148h-744v-148h744z" />
    <glyph glyph-name="uni25A5" unicode="&#x25a5;" 
d="M888 737v-846h-846v846h846zM837 686h-148v-744h148v744zM93 -58h148v744h-148v-744zM440 686h-148v-744h148v744zM490 -58h148v744h-148v-744z" />
    <glyph glyph-name="uni25A6" unicode="&#x25a6;" 
d="M888 737v-846h-846v846h846zM93 686v-148h148v148h-148zM440 686h-148v-148h148v148zM638 538v148h-148v-148h148zM837 686h-148v-148h148v148zM837 339v148h-148v-148h148zM241 487h-148v-148h148v148zM292 487v-148h148v148h-148zM490 487v-148h148v148h-148zM689 141
h148v148h-148v-148zM638 141v148h-148v-148h148zM292 141h148v148h-148v-148zM93 289v-148h148v148h-148zM837 -58v148h-148v-148h148zM93 -58h148v148h-148v-148zM490 -58h148v148h-148v-148zM292 90v-148h148v148h-148z" />
    <glyph glyph-name="uni25A7" unicode="&#x25a7;" 
d="M888 737v-846h-846v846h846zM837 686h-107l107 -107v107zM458 686h-129l508 -508v129zM837 505l-181 181h-124l305 -305v124zM837 -24v132l-578 578h-132zM669 -58h132l-708 708v-132zM468 -58h130l-505 505v-130zM93 118l176 -176h128l-304 304v-128zM93 -58h106
l-106 106v-106z" />
    <glyph glyph-name="uni25A8" unicode="&#x25a8;" 
d="M888 737v-846h-846v846h846zM93 686v-112l112 112h-112zM93 104v-133l715 715h-133zM404 686h-128l-183 -183v-128zM93 304v-130l512 512h-130zM837 514v132l-704 -704h132zM837 315v129l-502 -502h129zM538 -58h125l174 174v125zM837 -58v100l-100 -100h100z" />
    <glyph glyph-name="uni25A9" unicode="&#x25a9;" 
d="M888 737v-846h-846v846h846zM770 648l38 38h-78zM605 686h-73l37 -36zM404 686h-75l38 -37zM205 686h-78l39 -39zM532 613l-66 65l-64 -65l65 -64zM332 614l-65 64l-65 -66l63 -64zM733 611l-67 66l-62 -63l66 -65zM93 650v-76l38 38zM837 646l-33 -33l33 -34v67z
M367 578l-66 -65l65 -66l66 67zM167 577l-67 -66l65 -64l65 66zM633 512l-66 65l-65 -64l67 -66zM833 510l-66 66l-62 -62l66 -67zM467 346l67 66l-67 66l-65 -66zM265 347l66 65l-65 66l-66 -67zM734 410l-66 67l-64 -65l65 -66zM93 375l36 36l-36 36v-72zM837 444l-31 -32
l31 -31v63zM569 245l65 66l-65 66l-67 -66zM367 245l65 66l-65 66l-67 -66zM165 376l-66 -65l66 -65l64 65zM769 375l-65 -64l65 -65l64 65zM604 210l64 -64l66 65l-65 65zM402 210l65 -66l67 66l-67 66zM200 210l66 -65l65 64l-66 67zM93 174l36 36l-36 36v-72zM837 178v63
l-31 -32zM567 44l66 67l-64 64l-67 -66zM100 111l67 -66l63 64l-65 66zM767 46l66 66l-62 62l-66 -65zM367 43l65 66l-66 65l-65 -64zM202 10l65 -66l65 64l-67 66zM604 7l62 -62l67 67l-63 62zM402 8l64 -64l66 65l-65 65zM93 -29l38 38l-38 39v-77zM837 -24v66l-33 -33z
M133 -58h66l-33 33zM737 -58h64l-31 33zM335 -58h62l-30 31zM538 -58h60l-29 30z" />
    <glyph glyph-name="triagup" unicode="&#x25b2;" 
d="M953 -109h-976l488 846z" />
    <glyph glyph-name="uni25B3" unicode="&#x25b3;" 
d="M953 -109h-976l488 846zM63 -59h804l-402 696z" />
    <glyph glyph-name="uni25B6" unicode="&#x25b6;" 
d="M87 -159v940l814 -470z" />
    <glyph glyph-name="uni25B7" unicode="&#x25b7;" 
d="M87 -159v940l814 -470zM135 698v-774l670 387z" />
    <glyph glyph-name="triagdn" unicode="&#x25bc;" 
d="M-23 737h976l-488 -846z" />
    <glyph glyph-name="uni25BD" unicode="&#x25bd;" 
d="M-23 737h976l-488 -846zM867 687h-804l402 -696z" />
    <glyph glyph-name="uni25C0" unicode="&#x25c0;" 
d="M843 -159l-814 470l814 470v-940z" />
    <glyph glyph-name="uni25C1" unicode="&#x25c1;" 
d="M843 -159l-814 470l814 470v-940zM795 698l-670 -387l670 -387v774z" />
    <glyph glyph-name="uni25C6" unicode="&#x25c6;" 
d="M953 314l-488 -488l-488 488l488 488z" />
    <glyph glyph-name="uni25C7" unicode="&#x25c7;" 
d="M953 314l-488 -488l-488 488l488 488zM45 314l420 -420l420 420l-420 420z" />
    <glyph glyph-name="uni25C8" unicode="&#x25c8;" 
d="M953 314l-488 -488l-488 488l488 488zM45 314l420 -420l420 420l-420 420zM465 580l265 -266l-265 -265l-266 265z" />
    <glyph glyph-name="circle" unicode="&#x25cb;" 
d="M465 -136q-93 0 -175 35.5t-143 96.5t-96.5 143t-35.5 175t35.5 175t96.5 143t143 96.5t175 35.5t175 -35.5t143 -96.5t96.5 -143t35.5 -175t-35.5 -175t-96.5 -143t-143 -96.5t-175 -35.5zM63 314q0 -83 31.5 -156.5t86 -128t128 -86t156.5 -31.5t156.5 31.5t128 86
t86 128t31.5 156.5t-31.5 156.5t-86 128t-128 86t-156.5 31.5t-156.5 -31.5t-128 -86t-86 -128t-31.5 -156.5z" />
    <glyph glyph-name="uni25CE" unicode="&#x25ce;" 
d="M15 314q0 93 35.5 175t96.5 143t143 96.5t175 35.5t175 -35.5t143 -96.5t96.5 -143t35.5 -175t-35.5 -175t-96.5 -143t-143 -96.5t-175 -35.5t-175 35.5t-143 96.5t-96.5 143t-35.5 175zM867 314q0 83 -31.5 156.5t-86 128t-128 86t-156.5 31.5t-156.5 -31.5t-128 -86
t-86 -128t-31.5 -156.5t31.5 -156.5t86 -128t128 -86t156.5 -31.5t156.5 31.5t128 86t86 128t31.5 156.5zM150 314q0 66 24.5 123.5t67.5 100t100.5 67.5t122.5 25t122.5 -25t100 -67.5t67.5 -100t25 -123.5q0 -65 -25 -122.5t-67.5 -100.5t-100 -67.5t-122.5 -24.5
t-122.5 24.5t-100.5 67.5t-67.5 100.5t-24.5 122.5zM736 314q0 56 -21.5 105.5t-58 86.5t-86 58.5t-105.5 21.5t-105.5 -21.5t-86.5 -58.5t-58 -86.5t-21 -105.5t21 -105.5t58 -86t86.5 -58t105.5 -21.5t105.5 21.5t86 58t58 86t21.5 105.5z" />
    <glyph glyph-name="H18533" unicode="&#x25cf;" 
d="M465 -136q-93 0 -175 35.5t-143 96.5t-96.5 143t-35.5 175t35.5 175t96.5 143t143 96.5t175 35.5t175 -35.5t143 -96.5t96.5 -143t35.5 -175t-35.5 -175t-96.5 -143t-143 -96.5t-175 -35.5z" />
    <glyph glyph-name="uni25D0" unicode="&#x25d0;" 
d="M905 314q0 -91 -34.5 -171t-94.5 -140t-140 -94.5t-171 -34.5t-171 34.5t-140 94.5t-94.5 140t-34.5 171t34.5 171t94.5 140t140 94.5t171 34.5t171 -34.5t140 -94.5t94.5 -140t34.5 -171zM465 -91q84 0 158 32t128.5 86.5t86.5 128.5t32 158t-32 158t-86.5 128.5
t-128.5 86.5t-158 32v-810z" />
    <glyph glyph-name="uni25D1" unicode="&#x25d1;" 
d="M905 314q0 -91 -34.5 -171t-94.5 -140t-140 -94.5t-171 -34.5t-171 34.5t-140 94.5t-94.5 140t-34.5 171t34.5 171t94.5 140t140 94.5t171 34.5t171 -34.5t140 -94.5t94.5 -140t34.5 -171zM465 719q-84 0 -158 -32t-128.5 -86.5t-86.5 -128.5t-32 -158t32 -158
t86.5 -128.5t128.5 -86.5t158 -32v810z" />
    <glyph glyph-name="uni2605" unicode="&#x2605;" 
d="M927 437v-7l-281 -211l111 -347l-5 -3l-287 215l-287 -215l-5 3l111 347l-281 211v7h349l110 345h6l110 -345h349z" />
    <glyph glyph-name="uni2606" unicode="&#x2606;" 
d="M460 772h10l108 -342h348l3 -10l-283 -205l113 -341l-8 -6l-286 214l-286 -214l-8 6l113 341l-283 205l3 10h348zM119 390v-2l222 -154l-95 -261l2 -2l217 171l217 -171l2 2l-95 261l222 154v2l-267 -8l-78 265h-2l-78 -265z" />
    <glyph glyph-name="uni260E" unicode="&#x260e;" 
d="M231 401v-16.5t-2.5 -16.5t-9 -14t-18.5 -9l-146 -11q-19 -2 -31.5 10t-12.5 32q0 62 20 106t54.5 74t79.5 48t95.5 27.5t103 12.5t101.5 3t101.5 -3t103 -12.5t95.5 -27.5t79.5 -48t54.5 -74t20 -106q0 -20 -12.5 -32t-31.5 -10l-146 11q-12 3 -18.5 9t-9 14t-2.5 16.5
v16.5l4 87h-73v-50q0 -24 7.5 -46t22 -43.5t36 -44.5t49.5 -50q54 -53 75 -116.5t21 -131.5q0 -28 -14.5 -44.5t-45.5 -16.5h-632q-31 0 -45.5 16.5t-14.5 44.5q0 68 21 131.5t75 116.5q28 27 49.5 50t36 44.5t22 43.5t7.5 46v50h-73zM400 497v-96h130v96h-130zM297 177
q0 -35 13 -65.5t36 -53.5t53.5 -36t65.5 -13t65.5 13t53.5 36t36 53.5t13 65.5t-13 65.5t-36 53.5t-53.5 36t-65.5 13t-65.5 -13t-53.5 -36t-36 -53.5t-13 -65.5z" />
    <glyph glyph-name="uni260F" unicode="&#x260f;" 
d="M227 488l4 -87v-16.5t-2.5 -16.5t-9 -14t-18.5 -9l-146 -11q-19 -2 -31.5 10t-12.5 32q0 62 20 106t54.5 74t79.5 48t95.5 27.5t103 12.5t101.5 3t101.5 -3t103 -12.5t95.5 -27.5t79.5 -48t54.5 -74t20 -106q0 -20 -12.5 -32t-31.5 -10l-146 11q-12 3 -18.5 9t-9 14
t-2.5 16.5v16.5l4 87h-73v-50q0 -24 7.5 -46t22 -43.5t36 -44.5t49.5 -50q54 -53 75 -116.5t21 -131.5q0 -28 -14.5 -44.5t-45.5 -16.5h-632q-31 0 -45.5 16.5t-14.5 44.5q0 68 21 131.5t75 116.5q28 27 49.5 50t36 44.5t22 43.5t7.5 46v50h-73zM465 619q-44 0 -92.5 -2.5
t-96 -10.5t-90.5 -24t-75.5 -43t-52 -67t-19.5 -96q0 -9 2.5 -12t9.5 -2l145 11q10 1 9 17l-8 126h131v-78q0 -28 -9 -53.5t-25 -50t-38.5 -49t-50.5 -51.5q-51 -48 -69.5 -105.5t-18.5 -122.5q0 -19 6.5 -26t25.5 -7h632q19 0 25.5 7t6.5 26q0 65 -18.5 122.5t-69.5 105.5
q-56 54 -89.5 101t-33.5 103v78h131l-8 -126q-1 -16 9 -17l145 -11q7 -1 9.5 2t2.5 12q0 56 -19.5 96t-52 67t-75.5 43t-90.5 24t-96 10.5t-92.5 2.5zM386 392v124h158v-124h-158zM516 488h-102v-68h102v68zM465 0q-37 0 -70 14.5t-58 39.5t-39.5 58t-14.5 70t14.5 70
t39.5 58t58 39.5t70 14.5t70 -14.5t58 -39.5t39.5 -58t14.5 -70t-14.5 -70t-39.5 -58t-58 -39.5t-70 -14.5zM311 182q0 -32 12 -60t33 -49t49 -33t60 -12t60 12t49 33t33 49t12 60t-12 60t-33 49t-49 33t-60 12t-60 -12t-49 -33t-33 -49t-12 -60z" />
    <glyph glyph-name="uni261C" unicode="&#x261c;" 
d="M792 112q-5 0 -10 -0.5t-10 -2.5q-50 -18 -91.5 -29t-90.5 -19q-41 -7 -80 -7q-22 0 -48.5 3t-37.5 8h-2h-4l-9 -1q-17 0 -33 3.5t-30 14.5q-33 24 -36 70l-1 2v1l-11 5q-17 11 -26.5 31t-10.5 48q0 5 -3 7q-22 12 -31 31q-8 20 -6.5 43t15.5 38l4 3q2 2 0.5 3.5
t-3.5 1.5q-33 -1 -67 -1.5t-52 1.5q-46 4 -62 22.5t-16 40.5q0 18 7.5 30t19 19.5t25 12t26.5 7.5q17 3 46.5 7t65.5 8t75.5 7.5t76.5 6.5t68.5 4.5t51.5 1.5q56 0 124.5 -23t161.5 -66q3 -1 8 -1h67q14 0 14 -14v-303q0 -5 -1 -7q-3 -7 -13 -7h-71zM260 394q12 0 21.5 1
t15.5 3q9 2 18.5 7.5t15.5 12.5q14 17 33 32.5t32 28.5l36 25q-37 -3 -83.5 -7t-91 -8.5t-81 -9t-53.5 -8.5q-22 -5 -34 -10.5t-17.5 -11.5t-6.5 -11.5t-1 -8.5q0 -12 10 -22.5t46 -13.5q10 -1 27 -1t36.5 0.5t39.5 1t37 0.5zM794 415h-5.5t-5.5 2q-81 38 -147 62t-107 24
q-34 0 -56 -6.5t-45 -23.5q-13 -10 -36 -29t-39 -39q-12 -15 -15.5 -24t-1.5 -14q7 -14 24.5 -16.5t41.5 5.5q40 13 70 24t38 15q6 3 15 -4q15 -14 42 -29.5t58 -28.5t60.5 -21.5t49.5 -8.5q5 0 10.5 -3t5.5 -8t-5 -9.5t-11 -6.5q-13 -4 -45 4.5t-67.5 22.5t-67 31t-41.5 30
q4 -5 4 -19t-2 -21q9 -6 16.5 -16.5t12.5 -22.5t6 -24t-3 -22q10 -5 15 -15.5t7 -18.5q5 -23 -1.5 -38.5t-15.5 -28.5q-14 -18 -32.5 -30.5t-37.5 -22.5q-2 0 -1.5 -1.5t1.5 -1.5q24 -2 50 -1t53 6q25 4 47 9t44 11t45 14t50 18q3 2 6.5 2h5.5l58 1q4 0 7.5 2.5t3.5 7.5v255
q0 4 -3 6t-6 2h-50zM290 264q18 -4 34.5 -4t24.5 2q24 3 45 8t41 14q29 13 43 27q8 8 9.5 15.5t-0.5 15.5q-3 10 -14 7l-63 -19q-17 -4 -30.5 -5t-25.5 1q-16 4 -25.5 11.5t-17.5 25.5q-2 5 -6.5 6t-8.5 -1q-24 -10 -42 -29q-9 -11 -9.5 -25t4.5 -25q5 -12 17.5 -17.5
t23.5 -7.5zM372 172q21 0 53.5 10.5t58.5 29.5q20 14 30 25.5t10 25.5q0 16 -8 25q-9 8 -20 1q-12 -7 -26 -15t-27 -14q-26 -12 -56 -19t-65 -7h-15.5t-15.5 2q-4 0 -4 -5q2 -13 6 -26t18 -21q12 -8 28 -10t33 -2zM404 91q14 0 32.5 5.5t37.5 14.5t36 21t28 26
q10 11 10.5 22t-1.5 16q-5 14 -14 13.5t-17 -6.5q-15 -11 -34.5 -21t-40 -18.5t-39 -13.5t-30.5 -5q-8 0 -16.5 0.5t-16.5 1.5q-3 0 -3 -3q5 -26 23 -40q13 -9 26 -11t19 -2z" />
    <glyph glyph-name="uni261E" unicode="&#x261e;" 
d="M67 112q-10 0 -13 7q-1 2 -1 7v303q0 14 14 14h67q5 0 8 1q93 43 161.5 66t124.5 23q30 0 84 -3.5t112.5 -9t110 -11.5t77.5 -11q13 -3 26.5 -7.5t25 -12t19 -19.5t7.5 -30q0 -22 -16 -40.5t-62 -22.5q-18 -2 -52 -1.5t-67 1.5q-2 0 -3.5 -1.5t0.5 -3.5l4 -3
q14 -15 15.5 -38t-6.5 -43q-9 -19 -31 -31q-3 -2 -3 -7q-1 -28 -10.5 -48t-26.5 -31l-11 -5q-1 0 -1 -1v-2q-3 -46 -36 -70q-14 -11 -29.5 -14.5t-32.5 -3.5l-9 1h-5h-2q-11 -5 -37.5 -8t-48.5 -3q-39 0 -80 7q-25 4 -47 8.5t-43.5 10.5t-44 13t-47.5 16q-5 2 -10 2.5
t-10 0.5h-71zM670 394q17 0 37 -0.5t39.5 -1t36.5 -0.5t27 1q36 3 46 13.5t10 22.5q0 3 -1 8.5t-6.5 11.5t-17.5 11.5t-34 10.5q-17 4 -53.5 8.5t-81 9t-91 8.5t-83.5 7l36 -25q13 -13 32 -28.5t33 -32.5q6 -7 15.5 -12.5t18.5 -7.5q6 -2 15.5 -3t21.5 -1zM86 415
q-3 0 -6 -2t-3 -6v-255q0 -5 3.5 -7.5t7.5 -2.5l58 -1h5.5t6.5 -2q27 -10 50 -18t45 -14t44 -11t47 -9q27 -5 53 -6t50 1q1 0 1.5 1.5t-1.5 1.5q-19 10 -37.5 22.5t-32.5 30.5q-9 13 -15.5 28.5t-1.5 38.5q2 8 7 18.5t15 15.5q-4 10 -3 22t6 24t12.5 22.5t16.5 16.5
q-2 7 -2 21t4 19q-7 -9 -23.5 -19.5t-38.5 -21t-46.5 -20.5t-46.5 -16.5t-40 -10t-26 -0.5q-6 2 -11 6.5t-5 9.5t5.5 8t10.5 3q19 0 49 8.5t61 21.5t58 28.5t42 29.5q9 7 15 4q8 -4 38 -15t70 -24q24 -8 41.5 -5.5t24.5 16.5q2 5 -1.5 14t-15.5 24q-16 20 -39 39t-36 29
q-23 17 -45 23.5t-56 6.5q-41 0 -107 -24t-147 -62q-2 -2 -5.5 -2h-5.5h-50zM640 264q11 2 23.5 7.5t17.5 17.5q5 11 4.5 25t-9.5 25q-18 19 -42 29q-4 2 -8.5 1t-6.5 -6q-8 -18 -17.5 -25.5t-25.5 -11.5q-12 -2 -25.5 -1t-30.5 5l-63 19q-11 3 -14 -7q-2 -8 -0.5 -15.5
t9.5 -15.5q14 -14 43 -27q20 -9 41 -14t45 -8q8 -2 24.5 -2t34.5 4zM558 172q17 0 33 2t28 10q14 8 18 21t6 26q0 5 -4 5q-8 -2 -15.5 -2h-15.5q-35 0 -65 7t-56 19q-13 6 -27 14t-26 15q-11 7 -20 -1q-8 -9 -8 -25q0 -14 10 -25.5t30 -25.5q26 -19 58.5 -29.5t53.5 -10.5z
M526 91q6 0 19 2t26 11q18 14 23 40q0 3 -3 3q-8 -1 -16.5 -1.5t-16.5 -0.5q-12 0 -31 5t-39 13.5t-39.5 18.5t-34.5 21q-8 6 -17 6.5t-14 -13.5q-2 -5 -1.5 -16t10.5 -22q11 -14 28 -26t36 -21t37.5 -14.5t32.5 -5.5z" />
    <glyph glyph-name="female" unicode="&#x2640;" 
d="M464 754q58 0 106 -19t81.5 -51.5t52 -76t18.5 -93.5q0 -42 -13.5 -81t-39 -70t-62.5 -52t-85 -27v-90h235v-120h-235v-200h-114v200h-235v120h235v90q-48 6 -85.5 27t-63 52t-39 70t-13.5 81q0 50 18.5 93.5t52 76t81 51.5t105.5 19zM332 514q0 -25 8 -48.5t24 -41.5
t41 -29t59 -11t59.5 11t42 29t24.5 41.5t8 48.5t-8 48.5t-24 41.5t-41.5 29t-59.5 11t-59 -11t-41.5 -29t-24.5 -41.5t-8 -48.5z" />
    <glyph glyph-name="male" unicode="&#x2642;" 
d="M585 174q0 -53 -19.5 -98.5t-54.5 -79.5t-82.5 -53.5t-103.5 -19.5t-104 19.5t-83 53.5t-54.5 79.5t-19.5 98.5q0 52 19.5 97.5t54.5 79.5t83 53.5t104 19.5q34 0 70.5 -10.5t64.5 -27.5l166 175h-157v116h359v-349h-116v155l-171 -179q17 -29 30.5 -61.5t13.5 -68.5z
M189 174q0 -26 10 -49t28 -40t43 -27t55 -10t54.5 10t42.5 27t28 40t10 49t-10 48.5t-28 39.5t-42.5 27t-54.5 10t-55 -10t-43 -27t-28 -39.5t-10 -48.5z" />
    <glyph glyph-name="spade" unicode="&#x2660;" 
d="M692 533q27 -26 60.5 -58.5t62 -71.5t48 -85t19.5 -100q0 -44 -14.5 -85t-41 -72.5t-63 -48.5t-81.5 -12q-24 3 -43 5.5t-36.5 7.5t-36 14t-41.5 24l69 -156q8 -8 5.5 -14t-5.5 -6h-258l69 176q-23 -15 -41.5 -24t-36 -14t-36.5 -7.5t-43 -5.5q-44 -5 -81 12t-63.5 48.5
t-41 72.5t-14.5 85q0 54 19.5 100t48 85t62 71.5t60.5 58.5q33 32 67.5 67.5t65 69.5t54.5 64.5t38 51.5q2 4 4 0q13 -21 37.5 -51.5t55 -64.5t65 -69.5t67.5 -67.5z" />
    <glyph glyph-name="uni2661" unicode="&#x2661;" 
d="M262 733q24 0 51 -5t54 -18t52.5 -36t46.5 -59q21 36 46.5 58.5t52.5 36t54 18.5t51 5q45 0 85 -19.5t70 -53t47.5 -79.5t17.5 -99q0 -56 -19.5 -104t-48.5 -88.5t-62.5 -73.5t-61.5 -60q-33 -31 -67 -66.5t-64.5 -69.5t-54.5 -64t-37 -51h-19q-12 21 -36 51t-54.5 64
t-64.5 69.5t-67 66.5q-28 27 -61.5 60t-62.5 73.5t-48.5 88.5t-19.5 104q0 53 17.5 99t47.5 79.5t70 53t85 19.5zM464 488q-16 31 -35 60t-43 51.5t-54.5 36.5t-69.5 14q-27 0 -51.5 -12.5t-43.5 -35t-30 -53t-11 -67.5q0 -42 17 -80.5t42.5 -72.5t55 -63t53.5 -52
q54 -51 98.5 -101t73.5 -90q29 41 74 91.5t99 100.5v-1q24 23 53 52t54.5 63t42.5 72.5t17 80.5q0 37 -11.5 67.5t-30 53t-43 35t-51.5 12.5q-39 0 -69.5 -14t-54.5 -36.5t-43 -51.5t-35 -60h-4z" />
    <glyph glyph-name="club" unicode="&#x2663;" 
d="M415 61q-44 -39 -85 -53.5t-100 -14.5q-42 0 -79 15t-64 42t-42.5 64t-15.5 82q0 43 15 80t42 64.5t64 43.5t81 16q23 0 46 -7t40 -16q1 -1 3 -1t4 3q1 3 0 6q-1 2 -3 3q-26 25 -44 62t-18 82q0 43 16 80.5t44 66t65.5 45t80.5 16.5t80.5 -16.5t65.5 -44.5t44 -65.5
t16 -80.5q0 -45 -18 -82.5t-44 -62.5q-2 -1 -3 -3q-2 -4 0 -6q1 -3 4 -3q1 0 3 1q17 9 40.5 16t44.5 7q45 0 82 -16t64 -43.5t42 -64.5t15 -80q0 -45 -15.5 -82t-42.5 -64t-64 -42t-79 -15q-28 0 -51.5 2.5t-45.5 10t-43 20.5t-45 35l79 -186h-257l78 186v0z" />
    <glyph glyph-name="uni2664" unicode="&#x2664;" 
d="M474 783q14 -21 39.5 -50.5t56 -62.5t64.5 -66.5t65 -62.5v1q27 -26 60 -58t61.5 -72t48 -87t19.5 -103q0 -46 -15.5 -88t-43.5 -73.5t-67 -50.5t-87 -19q-29 0 -56.5 8.5t-50.5 22.5q3 -14 7.5 -31.5t11 -35.5t15.5 -35t21 -29l-14 -16h-288l-14 16q12 12 21 29t15.5 35
t11 35.5t7.5 31.5q-23 -14 -50.5 -22.5t-56.5 -8.5q-48 0 -87 19t-67 50.5t-43.5 73.5t-15.5 88q0 56 19.5 103t48 87t61.5 72t60 58v-1q31 29 65 62.5t64.5 66.5t56 62.5t39.5 50.5h18zM437 206q2 -67 0.5 -134t-20.5 -134h96q-19 67 -20.5 134t0.5 134l49 1
q7 -40 22 -65.5t34 -40.5t40 -20.5t39 -5.5q29 0 52.5 11.5t40 31.5t25.5 47t9 57q0 42 -17 79.5t-42 70.5t-53 60t-50 48q-25 23 -50.5 48t-48.5 49.5t-43 47t-35 41.5q-15 -19 -35 -41.5t-43.5 -47t-48.5 -49.5t-50 -48q-22 -21 -50 -48t-53 -60t-42 -70.5t-17 -79.5
q0 -30 9 -57t25.5 -47t40 -31.5t52.5 -11.5q18 0 36 5.5t35.5 20.5t33.5 40.5t30 65.5z" />
    <glyph glyph-name="heart" unicode="&#x2665;" 
d="M470 570q22 83 79 121.5t128 38.5q43 0 81 -18.5t66.5 -51t45 -76.5t16.5 -95q0 -56 -20 -103.5t-49 -88t-63 -74t-62 -60.5q-34 -33 -68.5 -70t-64.5 -73t-54 -68.5t-38 -54.5q-2 -4 -4 0q-14 22 -38 54.5t-54 68.5t-64.5 73t-68.5 70q-28 27 -62 60.5t-63 74t-49 88.5
t-20 103q0 51 16.5 95t45 76.5t66.5 51t81 18.5q35 0 67.5 -9.5t60 -29t48 -49.5t31.5 -72q2 -7 5 -7t5 7z" />
    <glyph glyph-name="uni2667" unicode="&#x2667;" 
d="M465 745q45 0 86 -17.5t71.5 -47t48.5 -69.5t18 -85q0 -32 -9.5 -58.5t-20.5 -46.5q7 2 15.5 2h16.5q48 0 87 -17t67.5 -46.5t44 -69.5t15.5 -85q0 -47 -16.5 -87t-45 -69t-67.5 -45.5t-84 -16.5q-35 0 -68.5 11.5t-62.5 33.5l68 -157h-328l68 157q-29 -22 -62.5 -33.5
t-68.5 -11.5q-45 0 -84 16.5t-67.5 45.5t-45 69t-16.5 87q0 45 15.5 85t44 69.5t67.5 46.5t87 17h16.5t15.5 -2q-11 20 -20.5 46.5t-9.5 58.5q0 45 18 85t48.5 69.5t71.5 47t86 17.5zM465 661q-27 0 -52.5 -11t-45 -29.5t-31.5 -43t-12 -51.5q0 -17 3.5 -38.5t12.5 -47.5
t25 -55t42 -60l-9 -14q-60 29 -98.5 35t-62.5 3q-62 -8 -95 -47.5t-33 -96.5q0 -29 10.5 -54t28.5 -43t41 -28t49 -10q18 0 41 5t44.5 18.5t38.5 37t24 60.5h51q1 -29 1 -62.5t-1.5 -65.5t-5.5 -60t-10 -46h88q-6 18 -10 46t-5.5 60t-1.5 65.5t1 62.5l41 1
q14 -36 33.5 -59.5t41.5 -37.5t43.5 -19.5t39.5 -5.5q25 0 48.5 10t41.5 28t28.5 43t10.5 54q0 57 -33 96.5t-95 47.5q-24 3 -62.5 -3t-98.5 -35l-9 14q26 31 42 60t25 55t12.5 47.5t3.5 38.5q0 27 -12 51.5t-31.5 43t-45 29.5t-52.5 11z" />
    <glyph glyph-name="uni2668" unicode="&#x2668;" 
d="M418 403q-23 37 -32.5 75t-9.5 66q0 54 21.5 101.5t72.5 84.5l48 -7q-31 -30 -46.5 -69t-15.5 -72q0 -32 11 -69.5t35 -75.5q23 -37 32.5 -74.5t9.5 -66.5q0 -54 -21.5 -101.5t-72.5 -84.5l-48 8q31 29 46.5 68t15.5 73q0 32 -11 69t-35 75zM606 405q-23 33 -32 66.5
t-9 58.5q0 42 17 86t67 79l47 -6q-32 -29 -42.5 -63.5t-10.5 -61.5q0 -28 11 -61.5t34 -66.5q23 -34 32 -67.5t9 -58.5q0 -21 -3.5 -42.5t-13 -43t-26 -42t-41.5 -37.5l-47 6q32 29 42.5 63.5t10.5 62.5q0 27 -11 61t-34 67zM235 405q-23 33 -32 66.5t-9 58.5q0 42 17 86
t67 79l47 -6q-32 -29 -42.5 -63.5t-10.5 -61.5q0 -28 11 -61.5t34 -66.5q23 -34 32 -67.5t9 -58.5q0 -21 -3.5 -42.5t-13 -43t-26 -42t-41.5 -37.5l-47 6q32 29 42.5 63.5t10.5 62.5q0 27 -11 61t-34 67zM863 243q32 -37 32 -91q0 -53 -33.5 -97t-92 -76t-136.5 -50
t-168 -18t-168 18t-136.5 50t-92 76t-33.5 97q0 50 28 87l42 -9q-14 -22 -14 -50q0 -32 30.5 -62t82.5 -53t119.5 -37t141.5 -14t141.5 14t119.5 37t82.5 53t30.5 62q0 24 -11 46z" />
    <glyph glyph-name="uni2669" unicode="&#x2669;" 
d="M523 774v-750q0 -78 -48 -124t-135 -46q-42 0 -67.5 23.5t-25.5 60.5q0 27 11.5 50t33 40.5t54 27.5t74.5 10q17 0 34.5 -3.5t28.5 -9.5v721h40z" />
    <glyph glyph-name="musicalnote" unicode="&#x266a;" 
d="M451 774h25q0 -36 9.5 -67.5t25.5 -58.5t37 -50.5t44 -43.5t46 -44.5t41.5 -53t30 -60.5t11.5 -67q0 -63 -24 -124.5t-60 -119.5h-26q8 17 19 41t20.5 51.5t16.5 57.5t7 60q0 43 -14 75.5t-38.5 55t-58 37t-72.5 23.5v-462q0 -78 -48 -124t-135 -46q-42 0 -67.5 23.5
t-25.5 60.5q0 27 11.5 50t33 40.5t54 27.5t74.5 10q17 0 34.5 -3.5t28.5 -9.5v721z" />
    <glyph glyph-name="uni266C" unicode="&#x266c;" 
d="M265 661l585 128v-647q0 -78 -48 -124t-135 -46q-42 0 -67.5 23.5t-25.5 60.5q0 27 11.5 50t33 40.5t54 27.5t74.5 10q17 0 34.5 -3.5t28.5 -9.5v337l-505 -110v-376q0 -78 -48 -124t-135 -46q-42 0 -67.5 23.5t-25.5 60.5q0 27 11.5 50t33 40.5t54 27.5t74.5 10
q17 0 34.5 -3.5t28.5 -9.5v610zM810 680l-505 -110v-72l505 110v72z" />
    <glyph glyph-name="uni266D" unicode="&#x266d;" 
d="M579 420q33 0 58 -11t42.5 -29.5t26 -43t8.5 -52.5q0 -54 -19 -96t-50.5 -76.5t-71.5 -63.5t-82 -57t-82 -57t-72 -63h-10v898h39v-509q17 34 40 63t50.5 50.5t58.5 34t64 12.5zM366 -54q45 40 90 74t81.5 70t59 78.5t22.5 99.5q0 50 -24.5 68.5t-60.5 18.5
q-20 0 -40.5 -8t-42 -26t-43 -48t-42.5 -74v-253z" />
    <glyph glyph-name="uni3000" unicode="&#x3000;" 
 />
    <glyph glyph-name="uni3000" unicode="&#x3164;" 
 />
    <glyph glyph-name="uni3001" unicode="&#x3001;" 
d="M265 -126q-22 27 -51.5 59t-61 64.5t-62.5 62.5t-57 53l107 99q30 -18 67 -48t73 -62.5t66.5 -64t47.5 -52.5z" />
    <glyph glyph-name="uni3002" unicode="&#x3002;" 
d="M193 220q35 0 65.5 -13t53 -36t35.5 -53.5t13 -64.5q0 -35 -13 -65t-35.5 -53t-53 -36t-65.5 -13t-65 13t-53 36t-36 53t-13 65q0 34 13 64.5t36 53.5t53 36t65 13zM193 172q-2 -57 -34.5 -86.5t-105.5 -31.5q73 -2 105.5 -31t34.5 -88q2 59 35 87.5t106 30.5
q-73 2 -106 32t-35 87z" />
    <glyph glyph-name="uni3003" unicode="&#x3003;" 
d="M530 480h189l-75 -296h-114v296zM290 480h189l-75 -296h-114v296z" />
    <glyph glyph-name="uni3008" unicode="&#x3008;" 
d="M930 -109h-130l-185 422l185 422h130l-175 -422z" />
    <glyph glyph-name="uni3009" unicode="&#x3009;" 
d="M0 735h130l185 -422l-185 -422h-130l175 422z" />
    </font>
</defs>
</svg>
